<?xml version="1.0" encoding="UTF-8"?>
<!DOCTYPE svg  PUBLIC '-//W3C//DTD SVG 1.1//EN'  'http://www.w3.org/Graphics/SVG/1.1/DTD/svg11.dtd'>
<svg clip-rule="evenodd" stroke-linejoin="round" stroke-miterlimit="1.4142" version="1.1" viewBox="0 0 200 401" xml:space="preserve" xmlns="http://www.w3.org/2000/svg"><path d="m170.13 2.251c-6.273 3.707-16.673 14.175-29.097 29.342l11.419 21.548c8.011-11.46 16.157-21.779 24.372-30.578 0.638-0.692 0.964-1.031 0.964-1.031-0.326 0.339-0.638 0.692-0.964 1.031-2.648 2.933-10.713 12.329-22.879 31.012 11.704-0.584 29.708-2.974 44.386-5.485 4.372-24.467-4.277-35.656-4.277-35.656s-11.012-17.8-23.924-10.183z" fill="#5acc01"/><path d="m118.8 108.84c3.476-6.476 6.979-12.831 10.536-18.995 3.693-6.409 7.414-12.627 11.188-18.629 0.218-0.353 0.448-0.706 0.666-1.059 3.72-5.892 7.481-11.568 11.269-16.985l-11.419-21.548c-0.855 1.045-1.724 2.118-2.593 3.204-3.299 4.101-6.707 8.513-10.224 13.198-3.951 5.281-8.025 10.903-12.139 16.823-3.815 5.458-7.671 11.174-11.541 17.107-3.299 5.038-6.598 10.225-9.871 15.547-0.122 0.204-0.244 0.394-0.366 0.597l14.854 29.355c3.177-6.327 6.381-12.532 9.64-18.615z" fill="#5acc01"/><path d="m51.125 274.19c-1.969 5.404-3.938 10.917-5.92 16.524-0.028 0.082-0.055 0.163-0.082 0.245-0.285 0.787-0.557 1.588-0.842 2.389-1.33 3.788-2.498 7.196-5.159 14.963 4.372 1.996 7.888 7.25 11.215 13.211-0.353-6.178-2.906-11.976-7.766-16.47 21.588 0.978 40.176-4.48 49.776-20.258 0.855-1.412 1.642-2.878 2.362-4.453-4.372 5.539-9.776 7.888-19.986 7.318-0.028 0.014-0.041 0.014-0.068 0.027 0.027-0.013 0.04-0.013 0.068-0.027 15.017-6.721 22.539-13.17 29.205-23.856 1.575-2.539 3.11-5.309 4.685-8.377-13.116 13.482-28.337 17.311-44.359 14.406l-12.016 1.317c-0.38 1.018-0.747 2.023-1.113 3.041z" fill="#5acc01"/><path d="m56.732 247.28c2.593-6.707 5.268-13.496 8.025-20.339 2.634-6.559 5.322-13.157 8.092-19.783 2.756-6.64 5.58-13.279 8.459-19.932 2.933-6.762 5.92-13.524 8.975-20.245 3.014-6.653 6.083-13.265 9.205-19.81 1.127-2.362 2.254-4.711 3.395-7.06 1.969-4.046 3.951-8.065 5.96-12.057 0.109-0.217 0.218-0.421 0.326-0.638l-14.854-29.355c-0.244 0.393-0.489 0.801-0.733 1.195-3.462 5.648-6.911 11.432-10.292 17.338-3.421 5.961-6.775 12.044-10.047 18.208-2.77 5.2-5.472 10.441-8.093 15.737-0.529 1.072-1.045 2.145-1.561 3.204-3.232 6.667-6.164 13.102-8.812 19.294-3.001 7.02-5.635 13.713-7.943 20.068-1.521 4.182-2.906 8.214-4.168 12.084-1.046 3.313-2.024 6.626-2.974 9.925-2.213 7.78-4.128 15.533-5.703 23.273l14.922 29.463c1.969-5.268 3.992-10.618 6.083-16.035 0.557-1.494 1.154-3.014 1.738-4.535z" fill="#5acc01"/><path d="m33.772 239.41c-1.874 9.437-3.204 18.819-3.869 28.161-0.028 0.326-0.055 0.651-0.082 0.977-4.657-7.467-17.135-14.759-17.108-14.691 8.934 12.94 15.71 25.798 16.714 38.425-4.779 0.978-11.337-0.434-18.9-3.218 7.889 7.251 13.822 9.26 16.13 9.79-7.25 0.448-14.799 5.431-22.416 11.174 11.133-4.535 20.108-6.341 26.558-4.874-10.211 28.907-20.448 60.801-30.686 94.677 3.136-0.937 5.01-3.027 6.056-5.892 1.819-6.138 13.93-46.382 32.898-99.281 0.544-1.507 1.087-3.014 1.63-4.535 0.149-0.421 0.312-0.842 0.461-1.276 2.01-5.54 4.087-11.215 6.233-16.986 0.488-1.317 0.977-2.634 1.48-3.951 0.013-0.027 0.013-0.054 0.027-0.081l-14.922-29.464c-0.054 0.353-0.136 0.706-0.204 1.045z" fill="#5acc01"/><path d="m111.46 129.88c-0.421 0.869-0.855 1.751-1.29 2.634-1.29 2.648-2.593 5.363-3.91 8.133-1.426 3.001-2.865 6.056-4.318 9.192-0.733 1.575-1.466 3.164-2.213 4.78-2.227 4.833-4.481 9.816-6.762 14.976-2.811 6.327-5.675 12.912-8.567 19.742-2.77 6.503-5.581 13.252-8.419 20.217-2.702 6.612-5.431 13.442-8.201 20.502-2.471 6.287-4.955 12.736-7.467 19.362-0.123 0.313-0.245 0.638-0.367 0.964-2.498 6.585-5.01 13.347-7.549 20.285-0.054 0.163-0.122 0.313-0.177 0.476l12.017-1.317c-0.245-0.041-0.476-0.068-0.72-0.123 14.365-1.792 33.469-12.518 45.811-25.77 5.689-6.11 10.849-13.306 15.628-21.738 3.558-6.273 6.884-13.238 10.061-20.937 2.784-6.735 5.445-14.012 8.011-21.914-3.299 1.738-7.074 3.014-11.256 3.896-0.733 0.15-1.48 0.299-2.227 0.435-0.76 0.136-1.52 0.258-2.294 0.366 0.013 0 0.013-0.013 0.027-0.013 13.401-5.146 21.847-15.099 27.984-27.291-3.517 2.403-9.247 5.553-16.117 7.06-0.937 0.204-1.887 0.367-2.851 0.516-0.245 0.041-0.476 0.081-0.72 0.109 0.014 0 0.014 0 0.027-0.014h0.014c4.643-1.942 8.567-4.128 11.975-6.694 0.733-0.556 1.44-1.113 2.118-1.711 1.046-0.896 2.024-1.846 2.974-2.837 0.597-0.638 1.195-1.29 1.751-1.969 1.331-1.589 2.58-3.299 3.748-5.16 0.353-0.57 0.706-1.154 1.059-1.738 0.448-0.869 0.869-1.71 1.29-2.525 1.874-3.761 3.367-7.115 4.562-10.061 0.597-1.467 1.113-2.838 1.561-4.101 0.177-0.502 0.353-0.991 0.503-1.466 0.475-1.412 0.855-2.675 1.167-3.775 0.449-1.656 0.734-2.973 0.883-3.924-0.448 0.353-0.978 0.72-1.561 1.059-4.047 2.417-10.985 4.617-16.579 5.649l11.039-1.209-11.039 1.209c-0.081 0.013-0.163 0.027-0.244 0.054-0.557 0.095-1.127 0.177-1.684 0.272 0.095-0.041 0.19-0.095 0.285-0.136l-37.746 4.141c-0.081 0.109-0.149 0.245-0.217 0.394z" fill="#5acc01"/><path d="m153.95 53.589c-3.353 5.146-7.019 10.998-10.97 17.623-0.204 0.34-0.421 0.707-0.625 1.046-3.408 5.73-7.02 12.03-10.821 18.927-3.286 5.961-6.708 12.342-10.265 19.213-3.096 5.988-6.3 12.342-9.586 19.049l37.746-4.141c10.998-5.051 15.913-9.626 20.679-16.252 1.263-1.82 2.539-3.734 3.802-5.703 3.883-6.056 7.685-12.722 11.079-19.335 3.286-6.395 6.178-12.749 8.391-18.452 1.412-3.639 2.553-7.02 3.327-9.993 0.692-2.621 1.222-5.105 1.643-7.481-14.692 2.525-32.696 4.915-44.4 5.499z" fill="#5acc01"/></svg>
