<?xml version="1.0" encoding="UTF-8" standalone="no"?><!DOCTYPE svg PUBLIC "-//W3C//DTD SVG 1.1//EN" "http://www.w3.org/Graphics/SVG/1.1/DTD/svg11.dtd"><svg width="100%" height="100%" viewBox="0 0 609 302" version="1.1" xmlns="http://www.w3.org/2000/svg" xmlns:xlink="http://www.w3.org/1999/xlink" xml:space="preserve" xmlns:serif="http://www.serif.com/" style="fill-rule:evenodd;clip-rule:evenodd;stroke-linejoin:round;stroke-miterlimit:1.41421;"><g id="Layer1"><circle cx="174.6" cy="281.4" r="14.1" style="fill:#4cacdb;"/><circle cx="436.1" cy="281.4" r="14.1" style="fill:#c00000;"/><circle cx="174.6" cy="19.9" r="14.1" style="fill:#f6cb10;"/><circle cx="436.1" cy="19.9" r="14.1" style="fill:#f25045;"/><path d="M418.4,167.9l0,-34.5l-20.3,-5.1l-11.4,-27.5l10.8,-17.9l-24.4,-24.4l-17.9,10.8l-21,-8.7l-21,8.7l-17.9,-10.8l-24.4,24.4l10.8,17.9l-11.4,27.5l-20.3,5.1l0,34.5l20.3,5.1l11.4,27.5l-10.8,17.9l24.4,24.4l17.9,-10.8l21,8.7l21,-8.7l17.9,10.8l24.4,-24.4l-10.8,-17.9l11.4,-27.5l20.3,-5.1Z" style="fill:#5abe01;fill-rule:nonzero;"/><circle cx="305.3" cy="150.7" r="69.5" style="fill:#fff;"/><path d="M305.3,299.5c-2.1,0 -3.9,-1.7 -3.9,-3.9l0,-27.9l-13.4,0c-1.8,0 -3.3,-1.2 -3.8,-3l-4.6,-18.4l-23.9,-9.9l-16.3,9.8c-0.6,0.4 -1.3,0.6 -2,0.6c-1,0 -2,-0.4 -2.8,-1.1l-24.4,-24.4c-1.3,-1.3 -1.5,-3.2 -0.6,-4.8l9.8,-16.3l-9.9,-23.9l-18.4,-4.6c-1.7,-0.4 -2.9,-2 -2.9,-3.8l0,-13.4l-27.9,0c-2.1,0 -3.9,-1.7 -3.9,-3.9c0,-2.1 1.7,-3.9 3.9,-3.9l27.9,0l0,-13.4c0,-1.8 1.2,-3.3 2.9,-3.8l18.4,-4.6l9.9,-23.9l-9.8,-16.3c-0.9,-1.5 -0.7,-3.5 0.6,-4.8l24.4,-24.4c0.7,-0.7 1.7,-1.1 2.8,-1.1c0.7,0 1.4,0.2 2,0.6l16.3,9.8l23.9,-9.9l4.6,-18.4c0.4,-1.7 2,-3 3.8,-3l13.4,0l0,-27.9c0,-2.1 1.7,-3.9 3.9,-3.9c2.1,0 3.9,1.7 3.9,3.9l0,27.9l13.4,0c1.8,0 3.3,1.2 3.8,3l4.6,18.4l23.9,9.9l16.3,-9.8c0.6,-0.4 1.3,-0.6 2,-0.6c1,0 2,0.4 2.8,1.1l24.4,24.4c1.3,1.3 1.5,3.2 0.6,4.8l-9.8,16.3l9.9,23.9l18.4,4.6c1.7,0.4 3,2 3,3.8l0,13.4l27.9,0c2.1,0 3.9,1.7 3.9,3.9c0,2.1 -1.7,3.9 -3.9,3.9l-27.9,0l0,13.4c0,1.8 -1.2,3.3 -3,3.8l-18.4,4.6l-9.9,23.9l9.8,16.3c0.9,1.5 0.7,3.5 -0.6,4.8l-24.4,24.4c-0.7,0.7 -1.7,1.1 -2.8,1.1c-0.7,0 -1.4,-0.2 -2,-0.6l-16.3,-9.8l-23.9,9.9l-4.6,18.4c-0.4,1.7 -2,3 -3.8,3l-13.4,0l0,27.9c0,2.1 -1.7,3.9 -3.9,3.9Zm-49.8,-71.3c0.5,0 1,0.1 1.5,0.3l27.5,11.4c1.1,0.5 2,1.5 2.3,2.7l4.3,17.4l28.4,0l4.3,-17.4c0.3,-1.2 1.2,-2.2 2.3,-2.7l27.5,-11.4c0.5,-0.2 1,-0.3 1.5,-0.3c0.7,0 1.4,0.2 2,0.6l15.3,9.2l20.1,-20.1l-9.2,-15.3c-0.6,-1.1 -0.7,-2.4 -0.3,-3.5l11.4,-27.5c0.5,-1.1 1.5,-2 2.7,-2.3l17.4,-4.3l0,-28.4l-17.4,-4.3c-1.2,-0.3 -2.2,-1.2 -2.7,-2.3l-11.4,-27.5c-0.5,-1.1 -0.4,-2.4 0.3,-3.5l9.2,-15.3l-20.1,-20.1l-15.3,9.2c-0.6,0.4 -1.3,0.6 -2,0.6c-0.5,0 -1,-0.1 -1.5,-0.3l-27.5,-11.4c-1.1,-0.5 -2,-1.5 -2.3,-2.7l-4.3,-17.4l-28.4,0l-4.3,17.4c-0.3,1.2 -1.2,2.2 -2.3,2.7l-27.5,11.2c-0.5,0.2 -1,0.3 -1.5,0.3c-0.7,0 -1.4,-0.2 -2,-0.6l-15.3,-9.2l-20.1,20.1l9.2,15.3c0.6,1.1 0.7,2.4 0.3,3.5l-11.4,27.5c-0.5,1.1 -1.5,2 -2.7,2.3l-17.4,4.3l0,28.4l17.4,4.3c1.2,0.3 2.2,1.2 2.7,2.3l11.4,27.5c0.5,1.1 0.4,2.4 -0.3,3.5l-9.2,15.3l20.1,20.1l15.3,-9.2c0.6,-0.2 1.3,-0.4 2,-0.4Z" style="fill-rule:nonzero;"/><path d="M305.3,224.1c-40.5,0 -73.4,-32.9 -73.4,-73.4c0,-29 17.1,-55.4 43.7,-67.1c0.5,-0.2 1,-0.3 1.6,-0.3c1.5,0 2.9,0.9 3.6,2.3c0.4,1 0.4,2 0.1,3c-0.4,1 -1.1,1.7 -2.1,2.2c-23.7,10.5 -39,34.1 -39,60c0,36.2 29.4,65.6 65.6,65.6c36.2,0 65.6,-29.4 65.6,-65.6c0,-27.4 -17.3,-52.2 -43,-61.6c-2,-0.7 -3.1,-3 -2.3,-5c0.6,-1.5 2,-2.6 3.7,-2.6c0.5,0 0.9,0.1 1.3,0.2c28.8,10.6 48.1,38.3 48.1,68.9c-0.1,40.4 -33,73.4 -73.5,73.4Z" style="fill-rule:nonzero;"/><path d="M305.3,85.1c-2.2,0 -3.9,-1.7 -3.9,-3.9c0,-2.2 1.7,-3.9 3.9,-3.9l0.3,0c1,0 2,0.4 2.7,1.1c0.7,0.7 1.1,1.7 1.1,2.8c0,2.1 -1.8,3.9 -3.9,3.9l-0.2,0Z" style="fill-rule:nonzero;"/><path d="M346.4,171.4c-2.1,0 -3.9,-1.7 -3.9,-3.9l0,-34.3c0,-2.1 1.7,-3.9 3.9,-3.9c2.2,0 3.9,1.7 3.9,3.9l0,34.3c0,2.1 -1.8,3.9 -3.9,3.9Z" style="fill-rule:nonzero;"/><path d="M305.7,171.4c-2.1,0 -3.9,-1.7 -3.9,-3.9l0,-34.3c0,-2.1 1.7,-3.9 3.9,-3.9l12.1,0c7.1,0 12.9,5.8 12.9,12.9l0,1.8c0,7.1 -5.8,12.9 -12.9,12.9l-8.2,0l0,10.7c0,2 -1.8,3.8 -3.9,3.8Zm3.9,-22.4l8.2,0c2.8,0 5.1,-2.3 5.1,-5.1l0,-1.8c0,-2.8 -2.3,-5.1 -5.1,-5.1l-8.2,0l0,12Z" style="fill-rule:nonzero;"/><path d="M288.1,172.3c-1.6,0 -3,-0.9 -3.6,-2.4l-11.6,-26.9l-11.5,26.9c-0.6,1.4 -2,2.4 -3.6,2.4c-0.5,0 -1,-0.1 -1.5,-0.3c-1,-0.4 -1.7,-1.2 -2.1,-2.1c-0.4,-1 -0.4,-2 0,-3l15.1,-35.2c0.6,-1.4 2,-2.4 3.6,-2.4c1.6,0 3,0.9 3.6,2.4l15.1,35.2c0.4,1 0.4,2 0,3c-0.4,1 -1.1,1.7 -2.1,2.1c-0.4,0.2 -0.9,0.3 -1.4,0.3Z" style="fill-rule:nonzero;"/><path d="M400,59.9c-1,0 -2,-0.4 -2.8,-1.1c-0.7,-0.7 -1.1,-1.7 -1.1,-2.8c0,-1.1 0.4,-2 1.1,-2.8l23.6,-23.6l-0.7,-1.3c-1.4,-2.6 -2.1,-5.5 -2.1,-8.4c0,-9.9 8.1,-18 18,-18c9.9,0 18,8.1 18,18c0,9.9 -8.1,18 -18,18c-2.9,0 -5.8,-0.7 -8.4,-2.1l-1.3,-0.7l-23.6,23.6c-0.6,0.8 -1.6,1.2 -2.7,1.2Zm36.1,-50.2c-5.6,0 -10.2,4.6 -10.2,10.2c0,5.6 4.6,10.2 10.2,10.2c5.6,0 10.2,-4.6 10.2,-10.2c0.1,-5.6 -4.5,-10.2 -10.2,-10.2Z" style="fill-rule:nonzero;"/><path d="M174.6,299.5c-9.9,0 -18,-8.1 -18,-18c0,-9.9 8.1,-18 18,-18c2.9,0 5.8,0.7 8.4,2.1l1.3,0.7l23.6,-23.6c0.7,-0.7 1.7,-1.1 2.8,-1.1c1,0 2,0.4 2.8,1.1c0.7,0.7 1.1,1.7 1.1,2.8c0,1.1 -0.4,2 -1.1,2.8l-23.6,23.6l0.7,1.3c1.4,2.6 2.1,5.5 2.1,8.4c-0.1,9.8 -8.2,17.9 -18.1,17.9Zm0,-28.3c-5.6,0 -10.2,4.6 -10.2,10.2c0,5.6 4.6,10.2 10.2,10.2c5.6,0 10.2,-4.6 10.2,-10.2c0,-5.6 -4.6,-10.2 -10.2,-10.2Z" style="fill-rule:nonzero;"/><path d="M400,249.3c-1,0 -2,-0.4 -2.8,-1.1c-0.7,-0.7 -1.1,-1.7 -1.1,-2.8c0,-1.1 0.4,-2 1.1,-2.7c0.7,-0.7 1.7,-1.1 2.8,-1.1c1.1,0 2,0.4 2.8,1.1c0.7,0.7 1.1,1.7 1.1,2.7c0,1 -0.4,2 -1.1,2.7c-0.7,0.8 -1.7,1.2 -2.8,1.2Z" style="fill-rule:nonzero;"/><path d="M436.1,299.5c-9.9,0 -18,-8.1 -18,-18c0,-2.9 0.7,-5.8 2.1,-8.4l0.7,-1.3l-11,-11c-0.7,-0.7 -1.1,-1.7 -1.1,-2.8c0,-1.1 0.4,-2 1.1,-2.8c0.7,-0.8 1.7,-1.1 2.8,-1.1c1,0 2,0.4 2.8,1.1l11,11l1.3,-0.7c2.6,-1.4 5.5,-2.1 8.4,-2.1c9.9,0 18,8.1 18,18c0,9.9 -8.2,18.1 -18.1,18.1Zm0,-28.3c-5.6,0 -10.2,4.6 -10.2,10.2c0,5.6 4.6,10.2 10.2,10.2c5.6,0 10.2,-4.6 10.2,-10.2c0,-5.6 -4.5,-10.2 -10.2,-10.2Z" style="fill-rule:nonzero;"/><path d="M210.6,59.9c-1,0 -2,-0.4 -2.8,-1.1l-23.6,-23.6l-1.3,0.7c-2.6,1.4 -5.5,2.1 -8.4,2.1c-9.9,0 -18,-8.1 -18,-18c0,-9.9 8.1,-18 18,-18c9.9,0 18,8.1 18,18c0,2.9 -0.7,5.8 -2.1,8.4l-0.7,1.3l23.6,23.6c0.7,0.7 1.1,1.7 1.1,2.8c0,1 -0.4,2 -1.1,2.8c-0.6,0.6 -1.6,1 -2.7,1Zm-36,-50.2c-5.6,0 -10.2,4.6 -10.2,10.2c0,5.6 4.6,10.2 10.2,10.2c5.6,0 10.2,-4.6 10.2,-10.2c0,-5.6 -4.6,-10.2 -10.2,-10.2Z" style="fill-rule:nonzero;"/><path d="M118,6.6c0,-3.3 -2.7,-6 -6,-6l-105.7,0c-3.3,0 -6,2.7 -6,6l0,29.2c0,3.3 2.7,6 6,6l105.7,0c3.3,0 6,-2.7 6,-6c0,-0.1 0,-29.2 0,-29.2Z" style="fill:#f6cb10;fill-rule:nonzero;"/><g><clipPath id="_clip1"><path d="M118,6.6c0,-3.3 -2.7,-6 -6,-6l-105.7,0c-3.3,0 -6,2.7 -6,6l0,29.2c0,3.3 2.7,6 6,6l105.7,0c3.3,0 6,-2.7 6,-6c0,-0.1 0,-29.2 0,-29.2Z"/></clipPath><g clip-path="url(#_clip1)"><path d="M29.2,22.8l0,5.2l-1.9,0l0,-14.4l3.6,0c1.5,0 2.5,0.2 3.2,0.5c0.7,0.3 1.2,0.8 1.5,1.5c0.4,0.6 0.5,1.3 0.5,2.1c0,0.9 -0.2,1.8 -0.7,2.6c-0.5,0.8 -1.2,1.4 -2,1.8c-0.9,0.4 -2,0.6 -3.5,0.6c0.1,0.1 -0.7,0.1 -0.7,0.1Zm0,-1.4l0.8,0c1.2,0 2,-0.1 2.6,-0.4c0.6,-0.3 1,-0.7 1.3,-1.3c0.3,-0.6 0.5,-1.2 0.5,-1.8c0,-0.8 -0.3,-1.5 -0.8,-2c-0.5,-0.5 -1.6,-0.7 -3.2,-0.7l-1.1,0l0,6.2l-0.1,0Z" style="fill:#fff;fill-rule:nonzero;"/><path d="M42.4,27.7l-4.8,-9.9l1.9,0l3.8,7.8l3.2,-7.8l1.7,0l-4,9.6c-0.8,2 -1.7,3.4 -2.4,4c-0.8,0.7 -1.8,1 -3,1c-0.5,0 -1,0 -1.4,-0.1l0,-1.5c0.5,0.1 0.9,0.2 1.4,0.2c0.6,0 1.1,-0.1 1.5,-0.3c0.4,-0.2 0.8,-0.6 1.2,-1.1c0.4,-0.5 0.6,-1 0.8,-1.4c-0.1,-0.1 0.1,-0.5 0.1,-0.5Z" style="fill:#fff;fill-rule:nonzero;"/><path d="M58.6,27.7c-0.8,0.3 -1.4,0.5 -1.8,0.6c-0.4,0.1 -0.7,0.1 -1.1,0.1c-0.7,0 -1.4,-0.1 -2,-0.4c-0.6,-0.3 -1.1,-0.7 -1.4,-1.2c-0.3,-0.5 -0.5,-1.4 -0.5,-2.5l0,-4.3l-2.6,0l0,-1.4l2.8,0l0,-4.2l1.7,0l0,4.2l4.6,0l0,1.4l-4.6,0l0,4.1c0,0.8 0.1,1.4 0.3,1.8c0.2,0.3 0.5,0.6 0.8,0.8c0.3,0.2 0.7,0.2 1.2,0.2c0.8,0 1.7,-0.3 2.6,-0.8l0,1.6Z" style="fill:#fff;fill-rule:nonzero;"/><path d="M61.3,28.1l0,-15l1.7,0l0,6.9c0.5,-0.8 1.1,-1.4 1.8,-1.9c0.7,-0.5 1.4,-0.7 2.1,-0.7c0.6,0 1.1,0.2 1.6,0.4c0.5,0.3 0.8,0.7 1,1.1c0.2,0.3 0.3,0.7 0.3,1c0.1,0.4 0.1,1.1 0.1,2.3l0,5.8l-1.7,0l0,-6c0,-1 0,-1.7 -0.1,-2c-0.1,-0.3 -0.3,-0.6 -0.5,-0.8c-0.3,-0.2 -0.5,-0.3 -0.8,-0.3c-0.6,0 -1.3,0.3 -2,0.9c-0.7,0.6 -1.3,1.3 -1.7,2.2l0,6c-0.1,0.1 -1.8,0.1 -1.8,0.1Z" style="fill:#fff;fill-rule:nonzero;"/><path d="M77,28.4c-1.5,0 -2.7,-0.5 -3.6,-1.6c-0.9,-1 -1.3,-2.3 -1.3,-3.9c0,-1.6 0.4,-2.9 1.3,-3.9c0.9,-1 2.1,-1.5 3.6,-1.5c1.5,0 2.7,0.5 3.5,1.5c0.9,1 1.3,2.3 1.3,3.9c0,1.6 -0.4,2.9 -1.3,3.9c-0.9,1 -2,1.6 -3.5,1.6Zm0,-1.5c0.9,0 1.7,-0.4 2.2,-1.1c0.5,-0.7 0.8,-1.7 0.8,-3c0,-1.2 -0.3,-2.2 -0.8,-2.9c-0.5,-0.7 -1.3,-1.1 -2.2,-1.1c-0.9,0 -1.7,0.4 -2.2,1.1c-0.5,0.7 -0.8,1.7 -0.8,2.9c0,1.3 0.3,2.2 0.8,3c0.5,0.8 1.2,1.1 2.2,1.1Z" style="fill:#fff;fill-rule:nonzero;"/><path d="M84.1,28.1l0,-10.4l1.7,0l0,2.3c0.5,-0.8 1.1,-1.4 1.8,-1.9c0.7,-0.5 1.4,-0.7 2.1,-0.7c0.6,0 1.2,0.2 1.7,0.5c0.5,0.3 0.9,0.7 1.1,1.3c0.2,0.5 0.3,1.6 0.3,3.1l0,5.8l-1.8,0l0,-6c0,-1 0,-1.7 -0.1,-2c-0.1,-0.3 -0.3,-0.6 -0.5,-0.8c-0.3,-0.2 -0.5,-0.3 -0.8,-0.3c-0.6,0 -1.3,0.3 -2,0.9c-0.7,0.6 -1.3,1.3 -1.7,2.2l0,6l-1.8,0Z" style="fill:#fff;fill-rule:nonzero;"/></g></g><path d="M118,266.1c0,-3.3 -2.7,-6 -6,-6l-105.7,0c-3.3,0 -6,2.7 -6,6l0,29.2c0,3.3 2.7,6 6,6l105.7,0c3.3,0 6,-2.7 6,-6l0,-29.2Z" style="fill:#4cacdb;fill-rule:nonzero;"/><g><clipPath id="_clip2"><path d="M118,266.1c0,-3.3 -2.7,-6 -6,-6l-105.7,0c-3.3,0 -6,2.7 -6,6l0,29.2c0,3.3 2.7,6 6,6l105.7,0c3.3,0 6,-2.7 6,-6l0,-29.2Z"/></clipPath><g clip-path="url(#_clip2)"><path d="M22.6,286.5l0,-1.8c1.5,0.7 2.8,1.1 4,1.1c0.5,0 1,-0.1 1.5,-0.3c0.5,-0.2 0.8,-0.5 1.1,-0.8c0.2,-0.4 0.4,-0.8 0.4,-1.2c0,-0.5 -0.2,-1 -0.5,-1.4c-0.3,-0.4 -0.9,-0.9 -1.8,-1.4l-0.9,-0.5l-1,-0.5c-1.7,-1 -2.5,-2.2 -2.5,-3.7c0,-1.1 0.4,-2 1.1,-2.7c0.8,-0.7 1.9,-1.1 3.5,-1.1c1,0 2,0.1 3,0.4l0,1.6c-1.1,-0.4 -2.1,-0.6 -3.1,-0.6c-0.8,0 -1.4,0.2 -1.9,0.6c-0.5,0.4 -0.7,0.9 -0.7,1.5c0,0.6 0.2,1.1 0.6,1.5c0.4,0.4 0.9,0.7 1.4,1.1l0.7,0.4l0.9,0.5l0.8,0.4c1.6,1 2.4,2.2 2.4,3.6c0,1.1 -0.4,2.1 -1.2,2.9c-0.8,0.8 -2.1,1.2 -3.9,1.2c-0.6,0 -1.1,0 -1.6,-0.1c-0.7,-0.2 -1.4,-0.4 -2.3,-0.7Z" style="fill:#fff;fill-rule:nonzero;"/><path d="M37.8,286.4l-4.8,-9.9l1.9,0l3.8,7.8l3.2,-7.8l1.7,0l-4,9.6c-0.8,2 -1.7,3.4 -2.4,4c-0.8,0.7 -1.8,1 -3,1c-0.5,0 -1,0 -1.4,-0.1l0,-1.5c0.5,0.1 0.9,0.2 1.4,0.2c0.6,0 1.1,-0.1 1.5,-0.3c0.4,-0.2 0.8,-0.6 1.2,-1.1c0.4,-0.5 0.6,-1 0.8,-1.4l0.1,-0.5Z" style="fill:#fff;fill-rule:nonzero;"/><path d="M44.6,286.8l0,-10.4l1.5,0l0,2.4c0.5,-1 0.9,-1.7 1.3,-2.1c0.4,-0.4 0.8,-0.6 1.2,-0.6c0.5,0 0.9,0.2 1.2,0.6c0.3,0.4 0.5,1 0.5,1.7l0,0.6c0.2,-0.6 0.4,-1.1 0.7,-1.5c0.3,-0.4 0.6,-0.7 0.9,-0.9c0.3,-0.2 0.7,-0.3 1.1,-0.3c0.4,0 0.8,0.2 1.1,0.6c0.3,0.4 0.5,1.1 0.5,2.3l0,7.8l-1.5,0l0,-7.1c0,-0.6 0,-1 -0.1,-1.2c0,-0.2 -0.1,-0.4 -0.2,-0.5c-0.1,-0.1 -0.2,-0.2 -0.4,-0.2c-0.3,0 -0.7,0.2 -1,0.7c-0.4,0.5 -0.7,1.3 -1.1,2.4l0,5.7l-1.4,0l0,-7.1c0,-0.9 -0.1,-1.5 -0.3,-1.6c-0.2,-0.1 -0.3,-0.2 -0.5,-0.2c-0.3,0 -0.7,0.3 -1,0.8c-0.4,0.6 -0.7,1.3 -1,2.1l0,6l-1.5,0Z" style="fill:#fff;fill-rule:nonzero;"/><path d="M59.2,286.8l0,-8.1l-2.3,0l0,-1.4l2.3,0l0,-0.5c0,-1.4 0.2,-2.4 0.5,-3c0.3,-0.7 0.8,-1.2 1.4,-1.6c0.6,-0.4 1.5,-0.6 2.6,-0.6c0.8,0 1.6,0.1 2.4,0.3l0,1.6c-0.9,-0.3 -1.7,-0.4 -2.4,-0.4c-0.5,0 -1,0.1 -1.5,0.3c-0.4,0.2 -0.7,0.5 -1,1c-0.2,0.5 -0.4,1.2 -0.4,2.3l0,0.7l4.2,0l0,1.4l-4.1,0l0,8.1l-1.7,-0.1Z" style="fill:#fff;fill-rule:nonzero;"/><path d="M72.5,287.1c-1.5,0 -2.7,-0.5 -3.6,-1.6c-0.9,-1 -1.3,-2.3 -1.3,-3.9c0,-1.6 0.4,-2.9 1.3,-3.9c0.9,-1 2.1,-1.5 3.6,-1.5c1.5,0 2.7,0.5 3.5,1.5c0.9,1 1.3,2.3 1.3,3.9c0,1.6 -0.4,2.9 -1.3,3.9c-0.9,1.1 -2.1,1.6 -3.5,1.6Zm0,-1.5c0.9,0 1.7,-0.4 2.2,-1.1c0.5,-0.7 0.8,-1.7 0.8,-3c0,-1.2 -0.3,-2.2 -0.8,-2.9c-0.5,-0.7 -1.3,-1.1 -2.2,-1.1c-0.9,0 -1.7,0.4 -2.2,1.1c-0.5,0.7 -0.8,1.7 -0.8,2.9c0,1.3 0.3,2.2 0.8,3c0.5,0.8 1.2,1.1 2.2,1.1Z" style="fill:#fff;fill-rule:nonzero;"/><path d="M79.6,286.8l0,-10.4l1.7,0l0,2.3c0.5,-0.8 1.1,-1.4 1.8,-1.9c0.7,-0.5 1.4,-0.7 2.1,-0.7c0.6,0 1.2,0.2 1.7,0.5c0.5,0.3 0.9,0.7 1.1,1.3c0.2,0.5 0.3,1.6 0.3,3.1l0,5.8l-1.7,0l0,-6c0,-1 0,-1.7 -0.1,-2c-0.1,-0.3 -0.3,-0.6 -0.5,-0.8c-0.3,-0.2 -0.5,-0.3 -0.8,-0.3c-0.6,0 -1.3,0.3 -2,0.9c-0.7,0.6 -1.3,1.3 -1.7,2.2l0,6l-1.9,0Z" style="fill:#fff;fill-rule:nonzero;"/><path d="M94.8,286.4l-4.8,-9.9l1.9,0l3.8,7.8l3.2,-7.8l1.7,0l-4,9.6c-0.8,2 -1.7,3.4 -2.4,4c-0.8,0.7 -1.8,1 -3,1c-0.5,0 -1,0 -1.4,-0.1l0,-1.5c0.5,0.1 0.9,0.2 1.4,0.2c0.6,0 1.1,-0.1 1.5,-0.3c0.4,-0.2 0.8,-0.6 1.2,-1.1c0.4,-0.5 0.6,-1 0.8,-1.4l0.1,-0.5Z" style="fill:#fff;fill-rule:nonzero;"/></g></g><path d="M609.3,6.9c0,-3.3 -2.7,-6 -6,-6l-105.8,0c-3.3,0 -6,2.7 -6,6l0,29.1c0,3.3 2.7,6 6,6l105.7,0c3.3,0 6,-2.7 6,-6c0.1,0 0.1,-29.1 0.1,-29.1Z" style="fill:#f25045;fill-rule:nonzero;"/><g><clipPath id="_clip3"><path d="M609.3,6.9c0,-3.3 -2.7,-6 -6,-6l-105.8,0c-3.3,0 -6,2.7 -6,6l0,29.1c0,3.3 2.7,6 6,6l105.7,0c3.3,0 6,-2.7 6,-6c0.1,0 0.1,-29.1 0.1,-29.1Z"/></clipPath><g clip-path="url(#_clip3)"><path d="M522.2,26l0,1.6l-7.8,0l0,-14.4l1.9,0l0,12.8l5.9,0Z" style="fill:#fff;fill-rule:nonzero;"/><path d="M532.1,25.2c-0.5,0.9 -1.2,1.5 -1.9,2c-0.7,0.4 -1.4,0.7 -2,0.7c-0.9,0 -1.6,-0.4 -2.3,-1.1c-0.7,-0.7 -1,-1.9 -1,-3.4c0,-1.2 0.2,-2.3 0.7,-3.2c0.5,-0.9 1.1,-1.7 1.8,-2.2c0.8,-0.5 1.7,-0.8 2.8,-0.8c0.3,0 0.8,0 1.5,0.1l2.1,0l0,7.3c0,1.2 0.1,2.3 0.4,3l-1.8,0c-0.1,-0.6 -0.2,-1.4 -0.3,-2.4Zm0,-2l0,-4.4c-0.6,-0.2 -1.2,-0.2 -1.7,-0.2c-1.1,0 -1.9,0.4 -2.7,1.2c-0.7,0.8 -1.1,1.9 -1.1,3.4c0,1 0.2,1.8 0.6,2.3c0.4,0.5 0.8,0.8 1.3,0.8c0.5,0 1.1,-0.3 1.8,-0.8c0.7,-0.7 1.3,-1.4 1.8,-2.3Z" style="fill:#fff;fill-rule:nonzero;"/><path d="M537.5,27.6l0,-10.4l1.7,0l0,2.3c0.5,-0.9 1.2,-1.5 1.8,-1.9c0.7,-0.4 1.5,-0.6 2.3,-0.6c0.6,0 1.2,0.1 1.9,0.3l0,3.7l-1.7,0l0,-2.4c-0.3,0 -0.5,-0.1 -0.7,-0.1c-0.6,0 -1.3,0.3 -1.9,0.8c-0.6,0.5 -1.2,1.3 -1.8,2.3l0,6l-1.6,0Z" style="fill:#fff;fill-rule:nonzero;"/><path d="M554.8,25.2c-0.5,0.9 -1.2,1.5 -1.9,2c-0.7,0.4 -1.4,0.7 -2,0.7c-0.9,0 -1.6,-0.4 -2.3,-1.1c-0.7,-0.7 -1,-1.9 -1,-3.4c0,-1.2 0.2,-2.3 0.7,-3.2c0.5,-0.9 1.1,-1.7 1.8,-2.2c0.8,-0.5 1.7,-0.8 2.8,-0.8c0.3,0 0.8,0 1.5,0.1l2.1,0l0,7.3c0,1.2 0.1,2.3 0.4,3l-1.8,0c-0.1,-0.6 -0.2,-1.4 -0.3,-2.4Zm0,-2l0,-4.4c-0.6,-0.2 -1.2,-0.2 -1.7,-0.2c-1.1,0 -1.9,0.4 -2.7,1.2c-0.7,0.8 -1.1,1.9 -1.1,3.4c0,1 0.2,1.8 0.6,2.3c0.4,0.5 0.8,0.8 1.3,0.8c0.5,0 1.1,-0.3 1.8,-0.8c0.8,-0.7 1.3,-1.4 1.8,-2.3Z" style="fill:#fff;fill-rule:nonzero;"/><path d="M562.8,27.6l-4.5,-10.4l1.9,0l3.5,8.2l3.6,-8.2l1.7,0l-4.5,10.4l-1.7,0Z" style="fill:#fff;fill-rule:nonzero;"/><path d="M579.4,26.9c-1.4,0.7 -2.7,1 -3.9,1c-0.9,0 -1.8,-0.2 -2.5,-0.7c-0.7,-0.5 -1.3,-1.1 -1.8,-2c-0.4,-0.9 -0.7,-1.8 -0.7,-2.8c0,-0.9 0.2,-1.9 0.6,-2.7c0.4,-0.9 1,-1.5 1.8,-2c0.8,-0.5 1.6,-0.7 2.5,-0.7c1.2,0 2.2,0.4 3,1.3c0.7,0.9 1.1,2.2 1.1,4.1l0,0.4l-7.1,0c0,0.7 0.1,1.4 0.4,2c0.3,0.6 0.7,1 1.2,1.3c0.5,0.3 1,0.4 1.7,0.4c1.1,0 2.3,-0.4 3.7,-1.1l0,1.5Zm-6.8,-5.5l5.2,0l0,-0.3c0,-0.8 -0.2,-1.5 -0.6,-2c-0.4,-0.5 -1,-0.8 -1.7,-0.8c-0.7,0 -1.3,0.3 -1.8,0.8c-0.6,0.5 -0.9,1.3 -1.1,2.3Z" style="fill:#fff;fill-rule:nonzero;"/><path d="M585,27.6l0,-13.6l-3.1,0l0,-1.4l4.8,0l0,13.5l3.2,0l0,1.4l-4.9,0l0,0.1Z" style="fill:#fff;fill-rule:nonzero;"/></g></g><path d="M609.3,266.7c0,-3.3 -2.7,-6 -6,-6l-105.8,0c-3.3,0 -6,2.7 -6,6l0,29.2c0,3.3 2.7,6 6,6l105.7,0c3.3,0 6,-2.7 6,-6l0,-29.2l0.1,0Z" style="fill:#c00000;fill-rule:nonzero;"/><g><clipPath id="_clip4"><path d="M609.3,266.7c0,-3.3 -2.7,-6 -6,-6l-105.8,0c-3.3,0 -6,2.7 -6,6l0,29.2c0,3.3 2.7,6 6,6l105.7,0c3.3,0 6,-2.7 6,-6l0,-29.2l0.1,0Z"/></clipPath><g clip-path="url(#_clip4)"><path d="M530.5,281.7l0,6.1l-1.9,0l0,-14.4l3.8,0c1.3,0 2.2,0.1 2.8,0.4c0.6,0.3 1.1,0.6 1.4,1.2c0.3,0.5 0.5,1.1 0.5,1.7c0,0.6 -0.1,1.1 -0.3,1.7c-0.2,0.6 -0.5,1.1 -0.9,1.5c-0.4,0.4 -0.9,0.9 -1.6,1.3l4.2,6.7l-2.2,0l-3.8,-6.1l-2,0l0,-0.1Zm0,-1.5l2.6,0c0.6,-0.3 1,-0.6 1.3,-1c0.3,-0.3 0.5,-0.7 0.7,-1.1c0.1,-0.4 0.2,-0.8 0.2,-1.1c0,-0.7 -0.2,-1.2 -0.7,-1.6c-0.5,-0.4 -1.4,-0.6 -2.7,-0.6l-1.4,0l0,5.4Z" style="fill:#fff;fill-rule:nonzero;"/><path d="M548.6,277.4l0,10.4l-1.7,0l0,-2.3c-0.6,0.9 -1.2,1.5 -1.9,1.9c-0.7,0.4 -1.4,0.6 -2,0.6c-0.6,0 -1.2,-0.2 -1.7,-0.5c-0.5,-0.3 -0.9,-0.8 -1.1,-1.3c-0.2,-0.5 -0.3,-1.6 -0.3,-3.1l0,-5.8l1.7,0l0,6c0,1 0,1.7 0.1,2c0.1,0.3 0.3,0.6 0.5,0.8c0.3,0.2 0.5,0.3 0.8,0.3c0.6,0 1.3,-0.3 2,-0.9c0.7,-0.6 1.3,-1.3 1.7,-2.2l0,-6l1.9,0l0,0.1Z" style="fill:#fff;fill-rule:nonzero;"/><path d="M553.1,279.7c0.5,-0.9 1.2,-1.5 1.9,-2c0.7,-0.4 1.4,-0.7 2,-0.7c0.9,0 1.6,0.4 2.3,1.1c0.7,0.7 1,1.9 1,3.4c0,1.2 -0.2,2.3 -0.7,3.2c-0.5,0.9 -1.1,1.7 -1.8,2.2c-0.8,0.5 -1.7,0.8 -2.8,0.8c-0.3,0 -0.8,0 -1.5,-0.1c-0.1,0 -0.2,0 -0.4,0l-1.7,0l0,-15l1.7,0l0,7.1Zm0,2.1l0,4.4c0.6,0.2 1.2,0.2 1.7,0.2c1,0 1.9,-0.4 2.6,-1.2c0.7,-0.8 1.1,-1.9 1.1,-3.4c0,-1 -0.2,-1.8 -0.6,-2.3c-0.4,-0.5 -0.8,-0.8 -1.3,-0.8c-0.5,0 -1.1,0.3 -1.8,0.8c-0.6,0.6 -1.2,1.4 -1.7,2.3Z" style="fill:#fff;fill-rule:nonzero;"/><path d="M566.7,287.4l-4.8,-9.9l1.9,0l3.8,7.8l3.2,-7.8l1.7,0l-4,9.6c-0.8,2 -1.7,3.4 -2.4,4c-0.8,0.7 -1.8,1 -3,1c-0.5,0 -1,0 -1.4,-0.1l0,-1.5c0.5,0.1 0.9,0.2 1.4,0.2c0.6,0 1.1,-0.1 1.5,-0.3c0.4,-0.2 0.8,-0.6 1.2,-1.1c0.4,-0.5 0.6,-1 0.8,-1.4l0.1,-0.5Z" style="fill:#fff;fill-rule:nonzero;"/></g></g></g></svg>