<?xml version="1.0" encoding="UTF-8" standalone="no"?><!DOCTYPE svg PUBLIC "-//W3C//DTD SVG 1.1//EN" "http://www.w3.org/Graphics/SVG/1.1/DTD/svg11.dtd"><svg width="100%" height="100%" viewBox="0 0 167 167" version="1.1" xmlns="http://www.w3.org/2000/svg" xmlns:xlink="http://www.w3.org/1999/xlink" xml:space="preserve" xmlns:serif="http://www.serif.com/" style="fill-rule:evenodd;clip-rule:evenodd;stroke-linejoin:round;stroke-miterlimit:1.41421;"><g id="g2424"><path id="path2518" d="M83.077,0.081c-7.397,18.135 -11.858,29.997 -20.094,47.593c5.05,5.353 11.248,11.586 21.313,18.625c-10.821,-4.452 -18.203,-8.923 -23.719,-13.562c-10.54,21.993 -27.053,53.321 -60.562,113.531c26.337,-15.205 46.754,-24.579 65.781,-28.156c-0.817,-3.514 -1.282,-7.315 -1.25,-11.281l0.031,-0.844c0.418,-16.874 9.196,-29.85 19.594,-28.969c10.398,0.881 18.48,15.283 18.062,32.156c-0.078,3.176 -0.436,6.23 -1.062,9.063c18.82,3.682 39.019,13.032 65,28.031c-5.123,-9.432 -9.696,-17.934 -14.063,-26.031c-6.878,-5.331 -14.053,-12.27 -28.687,-19.781c10.059,2.613 17.261,5.629 22.875,9c-44.398,-82.662 -47.994,-93.646 -63.219,-129.375Z" style="fill:#5acc01;"/></g></svg>