<svg viewBox="0 0 50 37" xmlns="http://www.w3.org/2000/svg" fill-rule="evenodd" clip-rule="evenodd" stroke-linejoin="round" stroke-miterlimit="1.414"><ellipse cx="32.65" cy="15.949" rx="3.569" ry="3.541" fill="#fbc02d"/><path d="M15.688 16.574a.514.514 0 0 0-.514-.514h-1.028a.514.514 0 0 0-.514.514v17.951c0 .284.23.514.514.514h1.028c.283 0 .514-.23.514-.514V16.574zM6.733 16.567a.514.514 0 0 0-.514-.514H5.191a.515.515 0 0 0-.514.514v17.952c0 .283.231.514.514.514h1.028a.514.514 0 0 0 .514-.514V16.567zM24.391 16.49a.514.514 0 0 0-.514-.514h-1.028a.514.514 0 0 0-.514.514v17.951c0 .284.23.514.514.514h1.028c.284 0 .514-.23.514-.514V16.49z" fill="#fbc02d"/><g fill-rule="nonzero"><path d="M23.199 15.068H20a2.398 2.398 0 0 0-2.398 2.398v16.133A2.403 2.403 0 0 0 20 36.002h3.199a2.407 2.407 0 0 0 2.403-2.403V17.466a2.403 2.403 0 0 0-2.403-2.398zM24 33.599a.801.801 0 0 1-.801.801H20a.802.802 0 0 1-.801-.801V17.466c0-.441.36-.8.801-.8h3.199c.442 0 .801.359.801.8v16.133zM14.398 35.998a2.403 2.403 0 0 0 2.403-2.399V17.466a2.402 2.402 0 0 0-2.403-2.398h-3.199a2.398 2.398 0 0 0-2.398 2.398v16.133a2.403 2.403 0 0 0 2.398 2.403h3.199v-.004zm-4-2.399V17.466c0-.441.36-.8.801-.8h3.199c.442 0 .801.359.801.8v16.133a.801.801 0 0 1-.801.801h-3.199a.802.802 0 0 1-.801-.801zM5.602 35.998A2.402 2.402 0 0 0 8 33.599V17.466a2.401 2.401 0 0 0-2.398-2.398H2.398A2.401 2.401 0 0 0 0 17.466v16.133a2.405 2.405 0 0 0 2.398 2.403h3.204v-.004zm-4-2.399V17.466c0-.441.355-.8.796-.8h3.204c.441 0 .796.359.796.8v16.133a.798.798 0 0 1-.796.801H2.398a.798.798 0 0 1-.796-.801zM32.68 3.865a.797.797 0 0 0-.797.801v6.742a4.535 4.535 0 0 0-3.735 4.457c0 2.5 2.032 4.535 4.532 4.535a4.539 4.539 0 0 0 4.461-3.734h2.605a.8.8 0 1 0 0-1.598h-2.605a4.545 4.545 0 0 0-3.661-3.66V4.666a.799.799 0 0 0-.8-.801zm2.933 12a2.934 2.934 0 0 1-5.867 0 2.938 2.938 0 0 1 2.934-2.934 2.938 2.938 0 0 1 2.933 2.934zM31.883 30.533c0 .441.354.801.797.801a15.42 15.42 0 0 0 14.316-9.602.799.799 0 1 0-1.48-.605 13.828 13.828 0 0 1-12.836 8.605.797.797 0 0 0-.797.801z"/><path d="M49.43 9.56a.8.8 0 0 0-1.102.254l-.898 1.43C45.426 4.838 39.441.4 32.68.4c-7.223 0-13.414 4.906-15.059 11.93a.802.802 0 0 0 .781.98.796.796 0 0 0 .778-.617c1.472-6.297 7.027-10.691 13.503-10.691 6.165 0 11.614 4.109 13.317 10.011l-1.938-1.16a.801.801 0 0 0-1.097.274.8.8 0 0 0 .277 1.097l3.301 1.985a.885.885 0 0 0 .129.054c.023.008.047.024.066.028a.846.846 0 0 0 .215.031.712.712 0 0 0 .199-.027c.024-.004.047-.02.071-.028.039-.012.078-.023.117-.043.027-.015.051-.039.074-.054.031-.024.063-.043.09-.067.023-.023.039-.051.062-.078.02-.027.047-.051.067-.082l2.051-3.281a.8.8 0 0 0-.254-1.102z"/></g></svg>