<?xml version="1.0" encoding="UTF-8" standalone="no"?><!DOCTYPE svg PUBLIC "-//W3C//DTD SVG 1.1//EN" "http://www.w3.org/Graphics/SVG/1.1/DTD/svg11.dtd"><svg width="100%" height="100%" viewBox="0 0 200 201" version="1.1" xmlns="http://www.w3.org/2000/svg" xmlns:xlink="http://www.w3.org/1999/xlink" xml:space="preserve" xmlns:serif="http://www.serif.com/" style="fill-rule:evenodd;clip-rule:evenodd;stroke-linejoin:round;stroke-miterlimit:1.41421;"><path id="path21524" d="M100.29,0.304l-23.396,23.396l16.494,0l0,58.311l6.902,6.902l7.132,-7.132l0,-56.558l0,-1.744l16.044,0l-23.176,-23.175Zm10.61,26.654l0,51.345l33.695,-33.695l-17.651,-17.65l-16.044,0Zm20.973,0l16.421,16.42l1.229,1.23l-1.229,1.23l-37.394,37.394l0,6.388l6.526,0l37.329,-37.32l1.23,-1.23l17.577,17.577l0,-41.689l-41.689,0Zm-104.516,0.22l0,41.129l15.934,-15.934l1.23,-1.23l1.23,1.23l37.256,37.247l6.902,0l0,-6.159l-37.623,-37.623l-1.23,-1.23l1.23,-1.23l16.2,-16.2l-41.129,0Zm46.058,0l-17.43,17.43l33.924,33.924l0,-51.354l-16.494,0Zm82.57,28.812l-33.63,33.63l51.207,0l0,-16.053l-17.577,-17.577Zm-111.464,0.073l-17.164,17.164l0,16.393l50.712,0l-33.548,-33.557Zm-20.642,20.643l-23.589,23.588l23.589,23.589l0,-15.117l0,-1.744l58.302,0l6.645,-6.645l-7.279,-7.279l-55.924,0l-1.744,0l0,-1.743l0,-14.649Zm153.162,0.339l0,16.053l-1.735,0l-56.43,0l-7.196,7.196l6.728,6.728l58.633,0l0,16.522l23.249,-23.25l-23.249,-23.249Zm-149.684,33.456l0,16.861l17.238,17.237l34.107,-34.098l-51.345,0Zm56.274,0l-37.797,37.788l-1.239,1.23l-1.23,-1.23l-16.008,-16.007l0,40.881l40.744,0l-15.806,-15.806l-1.23,-1.23l1.23,-1.23l37.724,-37.723l0,-6.673l-6.388,0Zm27.269,0l0,7.306l37.091,37.09l1.23,1.23l-1.23,1.23l-15.806,15.806l41.377,0l0,-41.221l-16.347,16.347l-1.23,1.23l-1.23,-1.23l-37.797,-37.788l-6.058,0Zm10.987,0l34.098,34.098l17.577,-17.577l0,-16.521l-51.675,0Zm-21.744,1.468l-6.645,6.646l0,58.026l-1.744,0l-15.255,0l23.644,23.635l23.635,-23.635l-14.613,0l-1.743,0l0,-1.734l0,-55.659l-7.279,-7.279Zm-10.124,10.124l-34.034,34.034l17.035,17.036l16.999,0l0,-51.07Zm20.881,0.634l0,50.436l16.356,0l17.036,-17.036l-33.392,-33.4Z" style="fill:#5acc01;fill-rule:nonzero;"/></svg>