<svg viewBox="0 0 512 512" xmlns="http://www.w3.org/2000/svg" fill-rule="evenodd" clip-rule="evenodd" stroke-linecap="round" stroke-linejoin="round" stroke-miterlimit="1.5"><ellipse cx="257.352" cy="255.341" rx="206.43" ry="206.872" fill="#fbc02d" stroke="#000" stroke-width="1.85"/><path d="M286.927 241.679c0-8.174-6.636-14.81-14.81-14.81h-29.62c-8.173 0-14.81 6.636-14.81 14.81v30.429c0 8.174 6.637 14.81 14.81 14.81h29.62c8.174 0 14.81-6.636 14.81-14.81v-30.429z" fill="#ebebeb"/><path d="M256.312 44.519C93.732 44.519-9.502 218.986 75.01 364.38c82.561 138.705 279.61 139.437 362.606 0 20.727-35.659 30.064-72.89 30.064-108.493 0-116.619-92.966-211.368-211.368-211.368zm175.117 303.8l-17.993-10.388a7.508 7.508 0 0 0-10.258 2.748 7.509 7.509 0 0 0 2.749 10.258l17.962 10.37a199.68 199.68 0 0 1-62.187 62.099l-10.34-17.906a7.509 7.509 0 1 0-13.006 7.509l10.346 17.921c-25.521 13.509-54.326 21.603-84.881 22.747v-20.696a7.51 7.51 0 0 0-7.51-7.51 7.51 7.51 0 0 0-7.51 7.51v20.696c-30.555-1.144-59.36-9.238-84.881-22.747l10.346-17.921a7.509 7.509 0 0 0-2.749-10.258 7.509 7.509 0 0 0-10.258 2.749l-10.339 17.907a199.71 199.71 0 0 1-62.187-62.099l17.962-10.37a7.509 7.509 0 1 0-7.51-13.006L81.192 348.32c-13.556-25.525-21.692-54.345-22.867-84.922h20.889a7.51 7.51 0 0 0 7.51-7.51 7.51 7.51 0 0 0-7.51-7.51H58.313c1.115-30.604 9.203-59.456 22.721-85.017l18.155 10.481a7.508 7.508 0 0 0 10.258-2.749 7.509 7.509 0 0 0-2.749-10.258l-18.146-10.476a199.701 199.701 0 0 1 62.201-62.288l10.508 18.201a7.507 7.507 0 0 0 10.258 2.749 7.509 7.509 0 0 0 2.748-10.258l-10.523-18.227c25.565-13.565 54.432-21.694 85.058-22.841v21.097a7.51 7.51 0 0 0 15.02 0V57.695c30.626 1.147 59.493 9.275 85.058 22.841l-10.523 18.227a7.51 7.51 0 1 0 13.006 7.509l10.508-18.201a199.705 199.705 0 0 1 62.202 62.288l-18.146 10.476a7.51 7.51 0 0 0 7.509 13.007l18.155-10.481c13.518 25.561 21.605 54.413 22.721 85.017h-20.905a7.51 7.51 0 0 0-7.51 7.51 7.51 7.51 0 0 0 7.51 7.51h20.889c-1.176 30.576-9.311 59.396-22.867 84.921z" fill-rule="nonzero"/><path d="M366.149 250.576l-23.439-23.439c-2.933-2.932-6.688-2.932-9.62 0-2.933 2.934-1.933 7.688 1 10.621l12.723 11.723h-55.706v-10.063c0-10.766-7.759-18.525-18.525-18.525h-9.759v-92.239l11.723 11.724c1.466 1.467 6.532 3.292 9.673.155 2.935-2.931 2.88-6.843-.053-9.775l-22.44-22.44s-3.318-4.2-5.31-4.2c-1.992 0-3.902 2.791-5.31 4.2l-21.44 21.44c-2.933 2.933-3.933 7.688-1 10.62 2.933 2.933 6.688 2.933 9.62 0l11.517-11.517v92.033h-9.759c-10.766 0-18.525 7.759-18.525 18.525v32.537c0 10.766 7.759 18.525 18.525 18.525h32.537c10.766 0 18.525-7.759 18.525-18.525v-9.455h55.501l-12.516 11.516c-2.933 2.933-3.588 8.149-.528 10.949 2.676 2.449 7.682 1.138 9.148-.328l23.44-23.439a7.508 7.508 0 0 0-.002-10.623zm-88.063 21.379c0 2.442-3.064 5.506-5.506 5.506h-32.537c-2.442 0-5.506-3.064-5.506-5.506v-32.537c0-2.442 3.064-5.506 5.506-5.506h32.537c2.442 0 5.506 3.064 5.506 5.506v32.537zM510.981 237.64c.289 4.138-1.831 7.726-5.967 8.015a7.334 7.334 0 0 1-.532.019c-3.909 0-6.207-3.027-6.484-6.986C489.665 119.499 392.5 22.334 273.311 14.001c-4.137-.289-7.256-2.878-6.968-7.015.289-4.137 3.883-6.247 8.015-5.968 126.835 8.867 227.737 109.54 236.623 236.622z" fill-rule="nonzero"/><path d="M505.013 265.718c-4.131-.296-6.726 2.83-7.015 6.967-8.794 125.773-115.517 225.295-241.686 225.295-133.049 0-242.293-109.243-242.293-242.293 0-126.17 99.522-232.892 225.294-241.686 4.137-.289 7.257-2.878 6.968-7.015-.289-4.137-3.881-6.242-8.015-5.968C104.85 10.347 1 120.802 1 255.687c0 141.331 113.981 255.312 255.312 255.312 134.844 0 245.336-103.813 254.669-237.266.289-4.138-1.83-7.726-5.968-8.015z" fill-rule="nonzero"/></svg>