<?xml version="1.0" encoding="UTF-8" standalone="no"?>
<!DOCTYPE svg PUBLIC "-//W3C//DTD SVG 1.1//EN" "http://www.w3.org/Graphics/SVG/1.1/DTD/svg11.dtd">
<svg width="100%" height="100%" viewBox="0 0 512 512" version="1.1" xmlns="http://www.w3.org/2000/svg" xmlns:xlink="http://www.w3.org/1999/xlink" xml:space="preserve" xmlns:serif="http://www.serif.com/" style="fill-rule:evenodd;clip-rule:evenodd;stroke-linejoin:round;stroke-miterlimit:1.41421;">
    <g>
        <path d="M89.6,55.45C68.429,55.45 51.2,72.678 51.2,93.85C51.2,115.021 68.429,132.25 89.6,132.25C110.771,132.25 128,115.021 128,93.85C128,72.678 110.771,55.45 89.6,55.45ZM89.6,115.183C77.833,115.183 68.267,105.617 68.267,93.85C68.267,82.082 77.833,72.516 89.6,72.516C101.367,72.516 110.933,82.082 110.933,93.85C110.933,105.617 101.367,115.183 89.6,115.183Z" style="fill:#222222;fill-rule:nonzero;"/>
        <circle cx="426.667" cy="81.05" r="8.533" style="fill:#222222;"/>
        <circle cx="392.533" cy="81.05" r="8.533" style="fill:#222222;"/>
        <circle cx="443.733" cy="106.65" r="8.533" style="fill:#222222;"/>
        <circle cx="409.6" cy="106.65" r="8.533" style="fill:#222222;"/>
        <circle cx="358.4" cy="81.05" r="8.533" style="fill:#222222;"/>
        <circle cx="375.467" cy="106.65" r="8.533" style="fill:#222222;"/>
        <circle cx="324.267" cy="81.05" r="8.533" style="fill:#222222;"/>
        <circle cx="341.333" cy="106.65" r="8.533" style="fill:#222222;"/>
        <circle cx="290.133" cy="81.05" r="8.533" style="fill:#222222;"/>
        <circle cx="307.2" cy="106.65" r="8.533" style="fill:#222222;"/>
        <path d="M512,144.128L512,43.571C512,21.888 494.362,4.25 472.678,4.25L39.322,4.25C17.638,4.25 0,21.888 0,43.571L0,144.128C0,156.663 5.999,167.714 15.164,174.916C5.999,182.127 0,193.178 0,205.705L0,306.261C0,318.797 5.999,329.847 15.164,337.05C5.999,344.26 0,355.311 0,367.838L0,468.395C0,490.078 17.638,507.716 39.322,507.716L238.933,507.716L238.933,490.65L39.322,490.65C27.051,490.65 17.067,480.666 17.067,468.395L17.067,367.838C17.067,355.567 27.051,345.583 39.322,345.583L324.267,345.583L324.267,328.516L39.322,328.516C27.051,328.516 17.067,318.532 17.067,306.261L17.067,205.705C17.067,193.434 27.051,183.45 39.322,183.45L472.67,183.45C484.941,183.45 494.925,193.434 494.925,205.705L494.925,328.516L511.991,328.516L511.991,205.705C511.991,193.169 505.993,182.118 496.828,174.916C506.001,167.706 512,156.655 512,144.128ZM39.322,166.383C27.051,166.383 17.067,156.399 17.067,144.128L17.067,43.571C17.067,31.3 27.051,21.316 39.322,21.316L472.67,21.316C484.949,21.316 494.933,31.3 494.933,43.571L494.933,144.128C494.933,156.399 484.949,166.383 472.678,166.383L39.322,166.383Z" style="fill:#222222;fill-rule:nonzero;"/>
        <path d="M51.2,255.983C51.2,277.154 68.429,294.383 89.6,294.383C110.771,294.383 128,277.154 128,255.983C128,234.812 110.771,217.583 89.6,217.583C68.429,217.583 51.2,234.812 51.2,255.983ZM110.933,255.983C110.933,267.75 101.367,277.316 89.6,277.316C77.833,277.316 68.267,267.75 68.267,255.983C68.267,244.215 77.833,234.65 89.6,234.65C101.367,234.65 110.933,244.215 110.933,255.983Z" style="fill:#222222;fill-rule:nonzero;"/>
        <circle cx="426.667" cy="243.183" r="8.533" style="fill:#222222;"/>
        <circle cx="392.533" cy="243.183" r="8.533" style="fill:#222222;"/>
        <circle cx="443.733" cy="268.783" r="8.533" style="fill:#222222;"/>
        <circle cx="409.6" cy="268.783" r="8.533" style="fill:#222222;"/>
        <circle cx="358.4" cy="243.183" r="8.533" style="fill:#222222;"/>
        <circle cx="375.467" cy="268.783" r="8.533" style="fill:#222222;"/>
        <circle cx="324.267" cy="243.183" r="8.533" style="fill:#222222;"/>
        <circle cx="341.333" cy="268.783" r="8.533" style="fill:#222222;"/>
        <circle cx="290.133" cy="243.183" r="8.533" style="fill:#222222;"/>
        <circle cx="307.2" cy="268.783" r="8.533" style="fill:#222222;"/>
        <path d="M51.2,418.116C51.2,439.287 68.429,456.516 89.6,456.516C110.771,456.516 128,439.287 128,418.116C128,396.945 110.771,379.716 89.6,379.716C68.429,379.716 51.2,396.945 51.2,418.116ZM110.933,418.116C110.933,429.884 101.367,439.45 89.6,439.45C77.833,439.45 68.267,429.884 68.267,418.116C68.267,406.349 77.833,396.783 89.6,396.783C101.367,396.783 110.933,406.349 110.933,418.116Z" style="fill:#222222;fill-rule:nonzero;"/>
    </g>
    <g transform="matrix(0.413267,0.170233,-0.17086,0.411749,326.905,260.111)">
        <path d="M374.05,316.636C369.64,312.226 362.653,311.745 357.681,315.509C306.103,354.548 254.525,393.586 202.947,432.626C183.913,447.033 181.992,474.935 198.872,491.816C215.752,508.696 243.654,506.775 258.062,487.741C297.101,436.163 336.139,384.585 375.179,333.007C378.941,328.033 378.46,321.046 374.05,316.636ZM226.69,483.355C215.997,483.355 207.331,474.687 207.331,463.996C207.331,453.305 215.998,444.637 226.69,444.637C237.382,444.637 246.049,453.305 246.049,463.996C246.049,474.687 237.383,483.355 226.69,483.355Z" style="fill:#5abe01;fill-rule:nonzero;"/>
    </g>
    <g transform="matrix(0.413267,0.170233,-0.17086,0.411749,326.905,260.111)">
        <path d="M459.949,177.858C441.292,102.697 371.089,51.996 293.873,57.917C216.657,63.837 155.005,124.65 148.026,201.776C141.045,278.902 190.779,349.795 265.676,369.483C293.832,348.173 321.987,326.862 350.143,305.551C360.089,298.023 374.062,298.986 382.881,307.805C391.701,316.624 392.663,330.599 385.135,340.543C379.837,347.542 374.54,354.542 369.242,361.541C440.263,330.665 478.606,253.02 459.949,177.858ZM306.001,269.78C276.34,269.78 252.295,245.735 252.295,216.074C252.295,186.413 276.34,162.368 306.001,162.368C335.662,162.368 359.707,186.413 359.707,216.074C359.707,245.735 335.661,269.78 306.001,269.78Z" style="fill:#5abe01;fill-rule:nonzero;"/>
    </g>
</svg>
