<?xml version="1.0" encoding="UTF-8" standalone="no"?><!DOCTYPE svg PUBLIC "-//W3C//DTD SVG 1.1//EN" "http://www.w3.org/Graphics/SVG/1.1/DTD/svg11.dtd"><svg width="100%" height="100%" viewBox="0 0 512 512" version="1.1" xmlns="http://www.w3.org/2000/svg" xmlns:xlink="http://www.w3.org/1999/xlink" xml:space="preserve" xmlns:serif="http://www.serif.com/" style="fill-rule:evenodd;clip-rule:evenodd;stroke-linejoin:round;stroke-miterlimit:1.41421;"><g><path d="M501.333,53.334l0,42.666l-490.667,0l0,-42.666c0,-23.564 19.103,-42.667 42.667,-42.667l405.334,0c23.564,0 42.666,19.103 42.666,42.667Z" style="fill:#5acc01;fill-rule:nonzero;"/><path d="M288,298.667c0,-17.673 -14.327,-32 -32,-32c-17.673,0 -32,14.327 -32,32c0,17.673 14.327,32 32,32c17.673,0 32,-14.327 32,-32Zm85.333,-21.334l0,42.667l-34.773,0c-2.019,7.699 -5.069,15.091 -9.067,21.973l24.534,24.534l-30.187,30.186l-24.533,-24.533c-6.883,3.998 -14.274,7.048 -21.974,9.067l0,34.773l-42.666,0l0,-34.773c-7.7,-2.019 -15.091,-5.069 -21.974,-9.067l-24.533,24.533l-30.187,-30.186l24.534,-24.534c-3.998,-6.882 -7.048,-14.274 -9.067,-21.973l-34.773,0l0,-42.667l34.773,0c2.019,-7.699 5.069,-15.09 9.067,-21.973l-24.534,-24.533l30.187,-30.187l24.533,24.533c6.883,-3.998 14.274,-7.047 21.974,-9.066l0,-34.774l42.666,0l0,34.774c7.7,2.019 15.091,5.068 21.974,9.066l24.533,-24.533l30.187,30.187l-24.534,24.533c3.998,6.883 7.048,14.274 9.067,21.973l34.773,0Z" style="fill:#5acc01;fill-rule:nonzero;"/><path d="M256,149.333l117.333,0l0,-21.333l-117.333,0c-94.21,0.112 -170.555,76.456 -170.667,170.667l21.334,0c0.088,-82.438 66.895,-149.245 149.333,-149.334Z" style="fill-rule:nonzero;"/><path d="M256,448l-117.333,0l0,21.333l117.333,0c94.21,-0.111 170.555,-76.456 170.667,-170.666l-21.334,0c-0.088,82.438 -66.895,149.245 -149.333,149.333Z" style="fill-rule:nonzero;"/><path d="M149.333,288l24.107,0c4.857,0.001 9.101,-3.279 10.325,-7.979c1.787,-6.769 4.47,-13.269 7.979,-19.328c2.413,-4.181 1.717,-9.461 -1.696,-12.874l-16.992,-16.992l15.104,-15.104l16.992,16.992c3.413,3.413 8.694,4.109 12.875,1.696c6.054,-3.517 12.556,-6.201 19.328,-7.979c4.7,-1.224 7.98,-5.468 7.978,-10.325l0,-24.107l21.334,0l0,24.107c-0.002,4.857 3.278,9.101 7.978,10.325c6.772,1.778 13.274,4.462 19.328,7.979c4.181,2.413 9.462,1.717 12.875,-1.696l16.992,-16.992l15.104,15.104l-16.992,16.992c-3.413,3.413 -4.109,8.693 -1.696,12.874c3.509,6.059 6.192,12.559 7.979,19.328c1.224,4.7 5.468,7.98 10.325,7.979l24.107,0l0,21.333l-24.107,0c-4.857,-0.001 -9.101,3.279 -10.325,7.979c-1.783,6.767 -4.467,13.264 -7.979,19.317c-2.419,4.184 -1.723,9.471 1.696,12.886l16.992,16.992l-15.104,15.104l-16.992,-16.992c-3.415,-3.419 -8.702,-4.115 -12.885,-1.696c-6.053,3.512 -12.55,6.196 -19.318,7.978c-4.7,1.224 -7.98,5.469 -7.978,10.326l0,24.106l-21.334,0l0,-24.106c0.002,-4.857 -3.278,-9.102 -7.978,-10.326c-6.768,-1.782 -13.265,-4.466 -19.318,-7.978c-4.183,-2.419 -9.47,-1.723 -12.885,1.696l-16.992,16.992l-15.104,-15.104l16.992,-16.992c3.419,-3.415 4.115,-8.702 1.696,-12.886c-3.512,-6.053 -6.196,-12.55 -7.979,-19.317c-1.224,-4.7 -5.468,-7.98 -10.325,-7.979l-24.107,0l0,-21.333Zm16.235,42.667c1.127,3.163 2.412,6.267 3.851,9.301l-19.019,18.997c-4.164,4.166 -4.164,10.918 0,15.083l30.187,30.187c4.165,4.164 10.917,4.164 15.082,0l18.998,-18.987c3.034,1.438 6.138,2.723 9.301,3.851l0,26.901c0,5.891 4.776,10.667 10.667,10.667l42.666,0c5.891,0 10.667,-4.776 10.667,-10.667l0,-26.901c3.163,-1.128 6.267,-2.413 9.301,-3.851l18.998,18.987c4.165,4.164 10.917,4.164 15.082,0l30.187,-30.187c4.164,-4.165 4.164,-10.917 0,-15.083l-18.987,-18.997c1.449,-3.034 2.745,-6.138 3.883,-9.301l26.901,0c5.891,0 10.667,-4.776 10.667,-10.667l0,-42.667c0,-5.891 -4.776,-10.666 -10.667,-10.666l-26.901,0c-1.12,-3.2 -2.411,-6.262 -3.851,-9.311l18.987,-18.988c4.164,-4.165 4.164,-10.917 0,-15.083l-30.187,-30.186c-4.165,-4.164 -10.917,-4.164 -15.082,0l-18.998,18.986c-3.034,-1.438 -6.138,-2.723 -9.301,-3.85l0,-26.902c0,-5.891 -4.776,-10.666 -10.667,-10.666l-42.666,0c-5.891,0 -10.667,4.775 -10.667,10.666l0,26.902c-3.163,1.127 -6.267,2.412 -9.301,3.85l-18.998,-19.018c-4.165,-4.164 -10.917,-4.164 -15.082,0l-30.187,30.186c-4.164,4.166 -4.164,10.918 0,15.083l18.987,18.987c-1.44,3.05 -2.731,6.165 -3.851,9.312l-26.901,0c-5.891,0 -10.667,4.775 -10.667,10.666l0,42.667c0,5.891 4.776,10.667 10.667,10.667l26.901,0.032Z" style="fill-rule:nonzero;"/><path d="M256,277.333c11.782,0 21.333,9.552 21.333,21.334c0,11.782 -9.551,21.333 -21.333,21.333c-11.782,0 -21.333,-9.551 -21.333,-21.333c0,-11.782 9.551,-21.334 21.333,-21.334Zm0,64c23.564,0 42.667,-19.102 42.667,-42.666c0,-23.564 -19.103,-42.667 -42.667,-42.667c-23.564,0 -42.667,19.103 -42.667,42.667c0,23.564 19.103,42.666 42.667,42.666Z" style="fill-rule:nonzero;"/><rect x="96" y="448" width="21.333" height="21.333" style="fill:#5acc01;fill-rule:nonzero;"/><rect x="53.333" y="448" width="21.333" height="21.333" style="fill:#5acc01;fill-rule:nonzero;"/><rect x="394.667" y="128" width="21.333" height="21.333" style="fill:#5acc01;fill-rule:nonzero;"/><rect x="437.333" y="128" width="21.334" height="21.333" style="fill:#5acc01;fill-rule:nonzero;"/><path d="M490.667,458.667c0,17.673 -14.327,32 -32,32l-405.334,0c-17.673,0 -32,-14.327 -32,-32l0,-405.333c0,-17.673 14.327,-32 32,-32l405.334,0c17.673,0 32,14.327 32,32l0,405.333Zm-32,-458.667l-405.334,0c-29.441,0.036 -53.298,23.893 -53.333,53.334l0,405.333c0.035,29.44 23.892,53.298 53.333,53.333l405.334,0c29.44,-0.035 53.298,-23.893 53.333,-53.333l0,-405.333c-0.035,-29.441 -23.893,-53.298 -53.333,-53.334Z" style="fill-rule:nonzero;"/><rect x="42.666" y="85.334" width="426.667" height="21.333" style="fill-rule:nonzero;"/><rect x="53.333" y="42.667" width="21.333" height="21.333" style="fill-rule:nonzero;"/><rect x="96" y="42.667" width="21.333" height="21.333" style="fill-rule:nonzero;"/><rect x="437.333" y="42.667" width="21.334" height="21.333" style="fill-rule:nonzero;"/></g></svg>