<?xml version="1.0" encoding="UTF-8" standalone="no"?><!DOCTYPE svg PUBLIC "-//W3C//DTD SVG 1.1//EN" "http://www.w3.org/Graphics/SVG/1.1/DTD/svg11.dtd"><svg width="100%" height="100%" viewBox="0 0 200 201" version="1.1" xmlns="http://www.w3.org/2000/svg" xmlns:xlink="http://www.w3.org/1999/xlink" xml:space="preserve" xmlns:serif="http://www.serif.com/" style="fill-rule:evenodd;clip-rule:evenodd;stroke-linejoin:round;stroke-miterlimit:1.41421;"><path d="M100.191,0.076m0,0c-55.15,0 -100.007,44.86 -100.007,100.001c0,55.145 44.857,100.002 100.007,100.002c55.132,0 99.993,-44.857 99.993,-100.002c0,-55.141 -44.861,-100.001 -99.993,-100.001Zm0,9.177c-16.082,0 -29.721,25.723 -34.647,61.475c-0.157,1.15 -0.31,2.314 -0.444,3.486c-0.673,5.626 -1.129,11.477 -1.357,17.5c-0.109,2.756 -0.163,5.542 -0.163,8.363c0,2.819 0.054,5.61 0.163,8.361c0.228,6.022 0.684,11.876 1.357,17.503c7.54,0.976 15.603,1.638 24.012,1.953c3.636,0.136 7.325,0.217 11.08,0.217c3.743,0 7.443,-0.082 11.068,-0.217c8.419,-0.315 16.476,-0.977 24.023,-1.953c0.83,-0.106 1.647,-0.223 2.475,-0.343c31.407,-4.41 53.255,-14.173 53.255,-25.521c-0.001,-50.134 -40.619,-90.776 -90.822,-90.824Z" style="fill:#5acc01;"/><path d="M137.757,74.553c-0.911,-1.328 -1.888,-2.601 -2.929,-3.824c-8.334,-9.823 -20.747,-16.065 -34.636,-16.065c-4.503,0 -8.512,6.892 -11.08,17.595c-1.019,4.267 -1.811,9.136 -2.321,14.42c-0.402,4.235 -0.619,8.738 -0.619,13.398c0,4.66 0.217,9.164 0.619,13.395c4.237,0.402 8.734,0.618 13.401,0.618c4.66,0 9.157,-0.216 13.395,-0.618c9.315,-0.884 17.356,-2.675 23.052,-5.034c5.626,-2.328 8.955,-5.225 8.955,-8.361c-0.001,-9.461 -2.89,-18.248 -7.837,-25.524Z" style="fill:#5acc01;fill-rule:nonzero;"/></svg>