<?xml version="1.0" encoding="UTF-8" standalone="no"?><!DOCTYPE svg PUBLIC "-//W3C//DTD SVG 1.1//EN" "http://www.w3.org/Graphics/SVG/1.1/DTD/svg11.dtd"><svg width="100%" height="100%" viewBox="0 0 61 60" version="1.1" xmlns="http://www.w3.org/2000/svg" xmlns:xlink="http://www.w3.org/1999/xlink" xml:space="preserve" xmlns:serif="http://www.serif.com/" style="fill-rule:evenodd;clip-rule:evenodd;stroke-linejoin:round;stroke-miterlimit:1.41421;"><g><rect x="22.4" y="24.7" width="7.6" height="7.6" style="fill:url(#_Linear1);"/><path d="M40.3,51l-35.4,0l0,-46.2l45.1,0l0,36l-2.4,-1.8l-1.6,-2.6l0,-27.9l-36.9,0l0,37.5l28.2,0l2.4,2.2l0.6,2.8Z" style="fill:url(#_Linear2);fill-rule:nonzero;"/></g><g><path d="M37.4,47.2l-29,0c-0.5,0 -0.8,-0.4 -0.8,-0.8l0,-37.9c0,-0.5 0.4,-0.9 0.8,-0.9l37.9,0c0.5,0 0.8,0.4 0.8,0.8l0,29c0,0.2 -0.1,0.4 -0.2,0.6l-9,9c-0.1,0.1 -0.3,0.2 -0.5,0.2Zm-28.1,-1.7l27.8,0l8.5,-8.5l0,-27.7l-36.3,0l0,36.2Z" style="fill-rule:nonzero;"/><path d="M14.7,23.2c-0.5,0 -0.8,-0.4 -0.8,-0.8l0,-7.6c0,-0.5 0.4,-0.8 0.8,-0.8l5.3,0c0.5,0 0.8,0.4 0.8,0.8c0,0.4 -0.4,0.8 -0.8,0.8l-4.5,0l0,6.7c0.1,0.5 -0.3,0.9 -0.8,0.9Z" style="fill-rule:nonzero;"/><path d="M14.7,35.9c-0.5,0 -0.8,-0.4 -0.8,-0.8l0,-1.3c0,-0.5 0.4,-0.8 0.8,-0.8c0.5,0 0.8,0.4 0.8,0.8l0,1.2c0.1,0.5 -0.3,0.9 -0.8,0.9Zm0,-5.5c-0.5,0 -0.8,-0.4 -0.8,-0.8l0,-1.3c0,-0.5 0.4,-0.8 0.8,-0.8c0.5,0 0.8,0.4 0.8,0.8l0,1.3c0.1,0.5 -0.3,0.8 -0.8,0.8Zm0,-5.4c-0.5,0 -0.8,-0.4 -0.8,-0.8l0,-1.3c0,-0.5 0.4,-0.8 0.8,-0.8c0.5,0 0.8,0.4 0.8,0.8l0,1.3c0.1,0.4 -0.3,0.8 -0.8,0.8Z" style="fill-rule:nonzero;"/><path d="M31.5,40.9l-16.8,0c-0.5,0 -0.8,-0.4 -0.8,-0.8l0,-5c0,-0.5 0.4,-0.8 0.8,-0.8c0.5,0 0.8,0.4 0.8,0.8l0,4.2l15.6,0l1.1,-1.1c0.3,-0.3 0.9,-0.3 1.2,0c0.3,0.3 0.3,0.9 0,1.2l-1.3,1.3c-0.1,0.1 -0.3,0.2 -0.6,0.2Z" style="fill-rule:nonzero;"/><path d="M32.9,39.6c-0.2,0 -0.4,-0.1 -0.6,-0.3c-0.3,-0.3 -0.3,-0.9 0,-1.2l6.9,-6.8l0,-15.7l-3.5,0c-0.5,0 -0.8,-0.4 -0.8,-0.8c0,-0.4 0.4,-0.8 0.8,-0.8l4.3,0c0.5,0 0.8,0.4 0.8,0.8l0,16.9c0,0.2 -0.1,0.4 -0.3,0.6l-7.2,7.1c0,0.1 -0.2,0.2 -0.4,0.2Z" style="fill-rule:nonzero;"/><path d="M32.2,15.6l-1.2,0c-0.5,0 -0.8,-0.4 -0.8,-0.8c0,-0.4 0.4,-0.8 0.8,-0.8l1.3,0c0.5,0 0.8,0.4 0.8,0.8c0,0.4 -0.4,0.8 -0.9,0.8Zm-5.4,0l-1.3,0c-0.5,0 -0.8,-0.4 -0.8,-0.8c0,-0.4 0.4,-0.8 0.8,-0.8l1.3,0c0.5,0 0.8,0.4 0.8,0.8c0,0.4 -0.4,0.8 -0.8,0.8Zm-5.5,0l-1.3,0c-0.5,0 -0.8,-0.4 -0.8,-0.8c0,-0.4 0.4,-0.8 0.8,-0.8l1.3,0c0.5,0 0.8,0.4 0.8,0.8c0,0.4 -0.3,0.8 -0.8,0.8Z" style="fill-rule:nonzero;"/><path d="M40.2,54.9c-0.5,0 -0.8,-0.4 -0.8,-0.8l0,-5l-2.2,-2.2c-0.3,-0.3 -0.3,-0.9 0,-1.2c0.3,-0.3 0.9,-0.3 1.2,0l2.4,2.4c0.2,0.2 0.2,0.4 0.2,0.6l0,5.3c0,0.5 -0.3,0.9 -0.8,0.9Z" style="fill-rule:nonzero;"/><path d="M54.5,41.6l-5.4,0c-0.2,0 -0.4,-0.1 -0.6,-0.2l-3,-3c-0.3,-0.3 -0.3,-0.9 0,-1.2c0.3,-0.3 0.9,-0.3 1.2,0l2.7,2.7l5,0c0.5,0 0.8,0.4 0.8,0.8c0,0.4 -0.3,0.9 -0.7,0.9Z" style="fill-rule:nonzero;"/><path d="M47.3,47.7c-0.2,0 -0.4,-0.1 -0.6,-0.2l-4.9,-4.9c-0.3,-0.3 -0.3,-0.9 0,-1.2c0.3,-0.3 0.9,-0.3 1.2,0l4.9,4.9c0.3,0.3 0.3,0.9 0,1.2c-0.2,0.1 -0.4,0.2 -0.6,0.2Z" style="fill-rule:nonzero;"/><path d="M14.9,6.8c-0.5,0 -0.8,-0.4 -0.8,-0.8l0,-5c0,-0.5 0.4,-0.8 0.8,-0.8c0.5,0 0.8,0.4 0.8,0.8l0,5c0.1,0.4 -0.3,0.8 -0.8,0.8Z" style="fill-rule:nonzero;"/><path d="M21.5,6.8c-0.5,0 -0.8,-0.4 -0.8,-0.8l0,-5c0,-0.5 0.4,-0.8 0.8,-0.8c0.5,0 0.8,0.4 0.8,0.8l0,5c0,0.4 -0.4,0.8 -0.8,0.8Z" style="fill-rule:nonzero;"/><path d="M28,6.8c-0.5,0 -0.8,-0.4 -0.8,-0.8l0,-5c0,-0.5 0.4,-0.8 0.8,-0.8c0.5,0 0.8,0.4 0.8,0.8l0,5c0,0.4 -0.4,0.8 -0.8,0.8Z" style="fill-rule:nonzero;"/><path d="M34.5,6.8c-0.5,0 -0.8,-0.4 -0.8,-0.8l0,-5c0,-0.5 0.4,-0.8 0.8,-0.8c0.5,0 0.8,0.4 0.8,0.8l0,5c0,0.4 -0.4,0.8 -0.8,0.8Z" style="fill-rule:nonzero;"/><path d="M41,6.8c-0.5,0 -0.8,-0.4 -0.8,-0.8l0,-5c0,-0.5 0.4,-0.8 0.8,-0.8c0.5,0 0.8,0.4 0.8,0.8l0,5c0,0.4 -0.4,0.8 -0.8,0.8Z" style="fill-rule:nonzero;"/><path d="M13.1,54.6c-0.5,0 -0.8,-0.4 -0.8,-0.8l0,-4.4c0,-0.5 0.4,-0.8 0.8,-0.8c0.5,0 0.8,0.4 0.8,0.8l0,4.4c0,0.5 -0.4,0.8 -0.8,0.8Z" style="fill-rule:nonzero;"/><path d="M19.6,54.6c-0.5,0 -0.8,-0.4 -0.8,-0.8l0,-4.4c0,-0.5 0.4,-0.8 0.8,-0.8c0.5,0 0.8,0.4 0.8,0.8l0,4.4c0,0.5 -0.4,0.8 -0.8,0.8Z" style="fill-rule:nonzero;"/><path d="M26.1,54.6c-0.5,0 -0.8,-0.4 -0.8,-0.8l0,-4.4c0,-0.5 0.4,-0.8 0.8,-0.8c0.5,0 0.8,0.4 0.8,0.8l0,4.4c0,0.5 -0.4,0.8 -0.8,0.8Z" style="fill-rule:nonzero;"/><path d="M32.6,54.6c-0.5,0 -0.8,-0.4 -0.8,-0.8l0,-4.4c0,-0.5 0.4,-0.8 0.8,-0.8c0.5,0 0.8,0.4 0.8,0.8l0,4.4c0,0.5 -0.4,0.8 -0.8,0.8Z" style="fill-rule:nonzero;"/><path d="M5.8,41.3l-5,0c-0.5,0 -0.8,-0.4 -0.8,-0.8c0,-0.5 0.4,-0.8 0.8,-0.8l4.9,0c0.5,0 0.8,0.4 0.8,0.8c0.1,0.4 -0.3,0.8 -0.7,0.8Z" style="fill-rule:nonzero;"/><path d="M5.8,34.8l-5,0c-0.5,0 -0.8,-0.4 -0.8,-0.8c0,-0.4 0.4,-0.8 0.8,-0.8l4.9,0c0.5,0 0.8,0.4 0.8,0.8c0,0.4 -0.3,0.8 -0.7,0.8Z" style="fill-rule:nonzero;"/><path d="M5.8,28.3l-5,0c-0.5,0 -0.8,-0.4 -0.8,-0.8c0,-0.4 0.4,-0.8 0.8,-0.8l4.9,0c0.5,0 0.8,0.4 0.8,0.8c0,0.4 -0.3,0.8 -0.7,0.8Z" style="fill-rule:nonzero;"/><path d="M5.8,21.8l-5,0c-0.5,0 -0.8,-0.4 -0.8,-0.8c0,-0.5 0.4,-0.8 0.8,-0.8l4.9,0c0.5,0 0.8,0.4 0.8,0.8c0.1,0.4 -0.3,0.8 -0.7,0.8Z" style="fill-rule:nonzero;"/><path d="M5.8,15.3l-5,0c-0.5,0 -0.8,-0.4 -0.8,-0.8c0,-0.4 0.4,-0.8 0.8,-0.8l4.9,0c0.5,0 0.8,0.4 0.8,0.8c0,0.4 -0.3,0.8 -0.7,0.8Z" style="fill-rule:nonzero;"/><path d="M53.9,34.8l-4.5,0c-0.5,0 -0.8,-0.4 -0.8,-0.8c0,-0.4 0.4,-0.8 0.8,-0.8l4.5,0c0.5,0 0.8,0.4 0.8,0.8c0,0.4 -0.4,0.8 -0.8,0.8Z" style="fill-rule:nonzero;"/><path d="M53.9,28.3l-4.5,0c-0.5,0 -0.8,-0.4 -0.8,-0.8c0,-0.4 0.4,-0.8 0.8,-0.8l4.5,0c0.5,0 0.8,0.4 0.8,0.8c0,0.4 -0.4,0.8 -0.8,0.8Z" style="fill-rule:nonzero;"/><path d="M53.9,21.8l-4.5,0c-0.5,0 -0.8,-0.4 -0.8,-0.8c0,-0.5 0.4,-0.8 0.8,-0.8l4.5,0c0.5,0 0.8,0.4 0.8,0.8c0,0.4 -0.4,0.8 -0.8,0.8Z" style="fill-rule:nonzero;"/><path d="M53.9,15.3l-4.5,0c-0.5,0 -0.8,-0.4 -0.8,-0.8c0,-0.4 0.4,-0.8 0.8,-0.8l4.5,0c0.5,0 0.8,0.4 0.8,0.8c0,0.4 -0.4,0.8 -0.8,0.8Z" style="fill-rule:nonzero;"/><path d="M32.3,30.2l-7.6,0c-0.5,0 -0.8,-0.4 -0.8,-0.8l0,-7.6c0,-0.5 0.4,-0.8 0.8,-0.8l7.6,0c0.5,0 0.8,0.4 0.8,0.8l0,7.6c0.1,0.4 -0.3,0.8 -0.8,0.8Zm-6.7,-1.7l5.9,0l0,-5.9l-5.9,0l0,5.9Z" style="fill-rule:nonzero;"/><path d="M57.1,44.6c-1.9,0 -3.4,-1.5 -3.4,-3.4c0,-1.9 1.5,-3.4 3.4,-3.4c1.9,0 3.4,1.5 3.4,3.4c0,1.9 -1.5,3.4 -3.4,3.4Zm0,-5.1c-0.9,0 -1.7,0.8 -1.7,1.7c0,0.9 0.8,1.7 1.7,1.7c0.9,0 1.7,-0.8 1.7,-1.7c0,-0.9 -0.7,-1.7 -1.7,-1.7Z" style="fill-rule:nonzero;"/><path d="M49.2,52.5c-1.9,0 -3.4,-1.5 -3.4,-3.4c0,-1.9 1.5,-3.4 3.4,-3.4c1.9,0 3.4,1.5 3.4,3.4c0,1.9 -1.5,3.4 -3.4,3.4Zm0,-5.1c-0.9,0 -1.7,0.8 -1.7,1.7c0,0.9 0.8,1.7 1.7,1.7c0.9,0 1.7,-0.8 1.7,-1.7c0,-0.9 -0.7,-1.7 -1.7,-1.7Z" style="fill-rule:nonzero;"/><path d="M40.2,60.1c-1.9,0 -3.4,-1.5 -3.4,-3.4c0,-1.9 1.5,-3.4 3.4,-3.4c1.9,0 3.4,1.5 3.4,3.4c0,1.9 -1.5,3.4 -3.4,3.4Zm0,-5.1c-0.9,0 -1.7,0.8 -1.7,1.7c0,0.9 0.8,1.7 1.7,1.7c0.9,0 1.7,-0.8 1.7,-1.7c0,-0.9 -0.7,-1.7 -1.7,-1.7Z" style="fill-rule:nonzero;"/><path d="M34.5,43.9c-0.2,0 -0.4,-0.1 -0.6,-0.3c-0.3,-0.3 -0.3,-0.9 0,-1.2l0.9,-0.9c0.3,-0.3 0.9,-0.3 1.2,0c0.3,0.3 0.3,0.9 0,1.2l-0.9,0.9c-0.2,0.2 -0.4,0.3 -0.6,0.3Zm3.9,-3.9c-0.2,0 -0.4,-0.1 -0.6,-0.3c-0.3,-0.3 -0.3,-0.9 0,-1.2l0.9,-0.9c0.3,-0.3 0.9,-0.3 1.2,0c0.3,0.3 0.3,0.9 0,1.2l-0.9,1c-0.2,0.2 -0.4,0.2 -0.6,0.2Zm3.9,-3.8c-0.2,0 -0.4,-0.1 -0.6,-0.3c-0.3,-0.3 -0.3,-0.9 0,-1.2l0.8,-0.7c0.3,-0.3 0.9,-0.3 1.2,0c0.3,0.3 0.3,0.9 0,1.2l-0.9,0.8c-0.1,0.1 -0.3,0.2 -0.5,0.2Z" style="fill-rule:nonzero;"/></g><defs><linearGradient id="_Linear1" x1="0" y1="0" x2="1" y2="0" gradientUnits="userSpaceOnUse" gradientTransform="matrix(7.6,0,0,7.6,22.4,28.5)"><stop offset="0" style="stop-color:#5acc01;stop-opacity:1"/><stop offset="0.55" style="stop-color:#54bf01;stop-opacity:1"/><stop offset="1" style="stop-color:#3f8f01;stop-opacity:1"/></linearGradient><linearGradient id="_Linear2" x1="0" y1="0" x2="1" y2="0" gradientUnits="userSpaceOnUse" gradientTransform="matrix(45.1,0,0,45.1,4.9,27.9)"><stop offset="0" style="stop-color:#5acc01;stop-opacity:1"/><stop offset="0.55" style="stop-color:#54bf01;stop-opacity:1"/><stop offset="1" style="stop-color:#3f8f01;stop-opacity:1"/></linearGradient></defs></svg>