<svg viewBox="0 0 370 377" xmlns="http://www.w3.org/2000/svg" fill-rule="evenodd" clip-rule="evenodd" stroke-linecap="round" stroke-linejoin="round" stroke-miterlimit="1.5"><path d="M273.643 163.928c7.805 4.324 87.111 50.431 87.111 50.431l-85.424 52.266-90.033-50.941s80.54-56.08 88.346-51.756zM184.938 6.849c7.805 4.323 87.111 50.431 87.111 50.431l-85.424 52.265-90.033-50.94s80.541-56.08 88.346-51.756zM94.161 164.213c7.805 4.324 87.111 50.431 87.111 50.431L95.848 266.91 5.815 215.969s80.541-56.08 88.346-51.756z" fill="#fbc02d" stroke="#000" stroke-width=".75"/><path d="M165.863 121.867a5.999 5.999 0 0 0-8.203-2.164l-41.586 24.223a6.003 6.003 0 0 0 6.043 10.371l41.582-24.227a5.998 5.998 0 0 0 2.164-8.203zm39.469 8.203l41.582 24.227c.953.55 1.992.816 3.016.816a6.003 6.003 0 0 0 3.027-11.187l-41.582-24.223a6.004 6.004 0 0 0-8.207 2.164 5.998 5.998 0 0 0 2.164 8.203zm-89.176 156.047l41.504 24.18a5.993 5.993 0 0 0 8.203-2.164 6 6 0 0 0-2.164-8.204l-41.5-24.179c-2.863-1.672-6.535-.699-8.207 2.164a5.998 5.998 0 0 0 2.164 8.203zm138.887-8.203a6.004 6.004 0 0 0-8.207-2.164l-41.5 24.176a6.003 6.003 0 0 0 3.023 11.187 5.961 5.961 0 0 0 3.016-.816l41.504-24.18a5.998 5.998 0 0 0 2.164-8.203zm-178.438-.047a6.003 6.003 0 0 0-8.207-2.164l-41.5 24.18a5.998 5.998 0 0 0 3.024 11.183 5.967 5.967 0 0 0 3.016-.816l41.503-24.18a5.997 5.997 0 0 0 2.164-8.203zm265.532 22.016l-41.34-24.086a6.002 6.002 0 0 0-6.043 10.371l41.34 24.082a5.982 5.982 0 0 0 3.015.816 5.998 5.998 0 0 0 3.028-11.183z" fill="#fbc02d" fill-rule="nonzero"/><path d="M369.031 214.937a5.963 5.963 0 0 0-.187-1.429l-.051-.168a6.114 6.114 0 0 0-.176-.52l-.07-.183a6.904 6.904 0 0 0-.277-.559c-.016-.027-.028-.055-.043-.082a5.777 5.777 0 0 0-.395-.594 1.356 1.356 0 0 0-.102-.125 5.697 5.697 0 0 0-.371-.43l-.129-.128a4.903 4.903 0 0 0-.46-.411c-.028-.023-.051-.046-.079-.066a6.085 6.085 0 0 0-.605-.406c-.031-.024-86.313-50.285-86.313-50.285V59c0-.02-.003-.039-.003-.063a5.964 5.964 0 0 0-.188-1.429l-.047-.168a4.998 4.998 0 0 0-.18-.52c-.023-.062-.043-.121-.07-.183a5.8 5.8 0 0 0-.277-.559c-.012-.027-.024-.055-.039-.082a5.86 5.86 0 0 0-.399-.598l-.097-.121a5.198 5.198 0 0 0-.375-.433c-.039-.043-.082-.082-.125-.125a5.807 5.807 0 0 0-.469-.418c-.024-.016-.047-.039-.07-.055a5.895 5.895 0 0 0-.61-.414L187.535 1.816a5.985 5.985 0 0 0-6.039 0l-89.258 52a6.471 6.471 0 0 0-.64.43.69.69 0 0 0-.063.055 4.715 4.715 0 0 0-.476.421c-.043.04-.082.082-.125.125a5.81 5.81 0 0 0-.375.434c-.032.039-.067.078-.098.121-.137.184-.27.375-.387.578-.027.043-.035.071-.051.098a6.502 6.502 0 0 0-.277.562l-.07.18a4.97 4.97 0 0 0-.176.52c-.02.058-.035.113-.051.172a5.937 5.937 0 0 0-.187 1.429c0 .02-.004.039-.004.059v100.551L2.98 209.816a5.624 5.624 0 0 0-.636.43c-.028.019-.051.043-.078.062a6.237 6.237 0 0 0-.465.411c-.043.043-.087.085-.125.128a6.67 6.67 0 0 0-.375.43c-.031.043-.067.082-.102.125a5.904 5.904 0 0 0-.383.578.567.567 0 0 0-.05.098 5.328 5.328 0 0 0-.278.562c-.027.059-.047.118-.071.18a5.506 5.506 0 0 0-.179.52l-.047.172a5.93 5.93 0 0 0-.187 1.425c0 .024-.004.043-.004.063v104a5.999 5.999 0 0 0 2.98 5.183l89.258 52c.016.012.035.016.051.028.215.121.438.234.668.328.223.094.449.168.68.23.058.02.113.032.172.047.179.043.363.078.55.11.063.007.121.019.184.027.234.027.473.047.715.047.246 0 .484-.02.719-.047.062-.008.121-.02.183-.027a8.52 8.52 0 0 0 .551-.11c.055-.015.113-.027.172-.047.23-.062.453-.136.672-.226.238-.098.457-.211.672-.332.015-.012.035-.016.05-.028l86.239-50.238 86.238 50.238c.019.012.035.016.055.028a5.428 5.428 0 0 0 1.343.558c.059.02.114.032.172.047.18.043.364.082.551.11.059.007.121.019.184.027.234.027.472.047.714.047.247 0 .485-.02.719-.047.063-.008.121-.02.184-.027.187-.028.371-.067.551-.11.054-.015.113-.027.171-.047a5.301 5.301 0 0 0 1.344-.558c.02-.012.035-.016.055-.028l89.258-52a6.004 6.004 0 0 0 2.98-5.183V215c0-.02-.004-.039-.004-.063zm-17.918.063l-77.34 45.054L196.438 215l77.335-45.055L351.113 215zM101.258 69.437l77.258 45.012v90.109l-77.258-45.007V69.437zm166.515 90.114l-77.257 45.007v-90.109l77.257-45.012v90.114zm-89.257 156l-77.258 45.007v-90.109l77.258-45.012v90.114zm12-90.114l77.257 45.012v90.109l-77.257-45.007v-90.114zm-6-211.492L261.855 59l-77.339 45.054L107.176 59l77.34-45.055zm-89.258 156L172.598 215l-77.34 45.054L17.918 215l77.34-45.055zM12 225.437l77.258 45.012v90.109L12 315.551v-90.114zm267.773 135.121v-90.109l77.262-45.012v90.114l-77.262 45.007z" fill-rule="nonzero"/></svg>