<?xml version="1.0" encoding="UTF-8" standalone="no"?><!DOCTYPE svg PUBLIC "-//W3C//DTD SVG 1.1//EN" "http://www.w3.org/Graphics/SVG/1.1/DTD/svg11.dtd"><svg width="100%" height="100%" viewBox="0 0 162 201" version="1.1" xmlns="http://www.w3.org/2000/svg" xmlns:xlink="http://www.w3.org/1999/xlink" xml:space="preserve" xmlns:serif="http://www.serif.com/" style="fill-rule:evenodd;clip-rule:evenodd;stroke-linejoin:round;stroke-miterlimit:1.41421;"><g id="Layer_1"><path d="M96.352,105.688c-3.314,0.046 0.627,1.708 4.954,2.374c1.195,-0.933 2.279,-1.878 3.246,-2.796c-2.695,0.66 -5.437,0.675 -8.2,0.422" style="fill:#5acc01;fill-rule:nonzero;"/><path d="M114.14,101.255c1.973,-2.724 3.412,-5.707 3.919,-8.79c-0.442,2.198 -1.636,4.096 -2.759,6.099c-6.195,3.9 -0.583,-2.317 -0.004,-4.679c-6.661,8.384 -0.914,5.027 -1.156,7.37" style="fill:#5acc01;fill-rule:nonzero;"/><path d="M120.706,84.169c0.4,-5.968 -1.175,-4.081 -1.704,-1.803c0.617,0.321 1.106,4.206 1.704,1.803" style="fill:#5acc01;fill-rule:nonzero;"/><path d="M83.786,2.598c1.768,0.317 3.821,0.561 3.533,0.983c1.935,-0.424 2.374,-0.815 -3.533,-0.983" style="fill:#5acc01;fill-rule:nonzero;"/><path d="M87.319,3.581l-1.25,0.258l1.163,-0.103l0.087,-0.155" style="fill:#5acc01;fill-rule:nonzero;"/><path d="M142.47,86.432c0.197,5.36 -1.568,7.96 -3.159,12.563l-2.865,1.432c-2.344,4.551 0.227,2.889 -1.451,6.51c-3.659,3.253 -11.104,10.18 -13.487,10.813c-1.739,-0.039 1.178,-2.053 1.56,-2.842c-4.898,3.363 -3.93,5.049 -11.421,7.093l-0.22,-0.487c-18.475,8.692 -44.14,-8.534 -43.803,-32.037c-0.197,1.492 -0.56,1.12 -0.97,1.723c-0.953,-12.093 5.585,-24.239 16.612,-29.199c10.785,-5.339 23.429,-3.148 31.154,4.052c-4.243,-5.558 -12.69,-11.451 -22.7,-10.899c-9.806,0.155 -18.98,6.386 -22.041,13.151c-5.024,3.163 -5.607,12.193 -7.796,13.845c-2.945,21.646 5.54,30.998 19.894,41.999c2.259,1.523 0.636,1.754 0.943,2.914c-4.77,-2.233 -9.137,-5.605 -12.728,-9.732c1.906,2.788 3.962,5.499 6.619,7.63c-4.496,-1.524 -10.503,-10.896 -12.256,-11.278c7.751,13.878 31.448,24.339 43.856,19.149c-5.741,0.212 -13.035,0.118 -19.487,-2.267c-2.709,-1.394 -6.394,-4.282 -5.735,-4.822c16.934,6.325 34.427,4.791 49.079,-6.955c3.727,-2.903 7.799,-7.842 8.976,-7.91c-1.772,2.665 0.303,1.282 -1.058,3.635c3.714,-5.99 -1.614,-2.438 3.839,-10.345l2.014,2.774c-0.749,-4.972 6.175,-11.01 5.472,-18.874c1.588,-2.405 1.772,2.588 0.087,8.12c2.338,-6.137 0.616,-7.124 1.217,-12.188c0.649,1.702 1.501,3.511 1.938,5.308c-1.523,-5.932 1.564,-9.989 2.328,-13.436c-0.753,-0.334 -2.352,2.623 -2.717,-4.384c0.054,-3.043 0.847,-1.595 1.153,-2.344c-0.598,-0.343 -2.165,-2.676 -3.119,-7.15c0.692,-1.051 1.848,2.726 2.789,2.881c-0.605,-3.558 -1.647,-6.271 -1.69,-9c-2.748,-5.743 -0.972,0.765 -3.201,-2.466c-2.925,-9.123 2.427,-2.117 2.788,-6.263c4.434,6.424 6.962,16.379 8.122,20.503c-0.885,-5.028 -2.316,-9.899 -4.063,-14.611c1.347,0.567 -2.168,-10.344 1.751,-3.118c-4.187,-15.403 -17.917,-29.796 -30.549,-36.55c1.546,1.415 3.497,3.191 2.796,3.469c-6.281,-3.74 -5.177,-4.031 -6.077,-5.612c-5.117,-2.082 -5.453,0.168 -8.843,0.004c-9.645,-5.116 -11.504,-4.572 -20.381,-7.777l0.404,1.887c-6.39,-2.129 -7.445,0.807 -14.352,0.007c-0.42,-0.328 2.213,-1.188 4.38,-1.503c-6.178,0.815 -5.888,-1.217 -11.934,0.225c1.49,-1.046 3.065,-1.737 4.655,-2.626c-5.038,0.306 -12.028,2.932 -9.87,0.544c-8.218,3.666 -22.814,8.813 -31.004,16.493l-0.258,-1.721c-3.753,4.506 -16.366,13.456 -17.371,19.291l-1.003,0.234c-1.954,3.307 -3.217,7.054 -4.766,10.457c-2.554,4.353 -3.744,1.675 -3.381,2.357c-5.023,10.186 -7.519,18.745 -9.674,25.764c1.536,2.296 0.036,13.823 0.617,23.048c-2.523,45.56 31.976,89.797 69.685,100.01c5.528,1.977 13.747,1.902 20.739,2.104c-8.249,-2.358 -9.315,-1.25 -17.351,-4.051c-5.796,-2.73 -7.067,-5.847 -11.172,-9.41l1.625,2.872c-8.052,-2.85 -4.683,-3.527 -11.234,-5.601l1.736,-2.267c-2.61,-0.197 -6.913,-4.398 -8.089,-6.724l-2.855,0.112c-3.43,-4.232 -5.258,-7.283 -5.125,-9.645l-0.922,1.643c-1.046,-1.794 -12.621,-15.873 -6.616,-12.596c-1.115,-1.02 -2.598,-1.66 -4.206,-4.581l1.222,-1.398c-2.89,-3.718 -5.319,-8.484 -5.134,-10.072c1.542,2.083 2.611,2.472 3.67,2.828c-7.298,-18.107 -7.707,-0.998 -13.234,-18.432l1.169,-0.094c-0.896,-1.35 -1.441,-2.816 -2.162,-4.255l0.509,-5.071c-5.254,-6.075 -1.469,-25.831 -0.711,-36.666c0.525,-4.406 4.385,-9.096 7.321,-16.451l-1.789,-0.308c3.42,-5.964 19.524,-23.953 26.982,-23.027c3.613,-4.539 -0.718,-0.016 -1.424,-1.16c7.936,-8.212 10.431,-5.802 15.787,-7.279c5.776,-3.429 -4.958,1.337 -2.219,-1.308c9.985,-2.55 7.077,-5.798 20.102,-7.093c1.374,0.782 -3.188,1.208 -4.334,2.223c8.32,-4.071 26.327,-3.145 38.023,2.259c13.572,6.342 28.821,25.091 29.422,42.731l0.684,0.185c-0.347,7.011 1.073,15.121 -1.387,22.57l1.675,-3.527" style="fill:#5acc01;fill-rule:nonzero;"/><path d="M60.179,110.238l-0.465,2.324c2.178,2.958 3.907,6.163 6.688,8.476c-2.001,-3.906 -3.488,-5.52 -6.223,-10.8" style="fill:#5acc01;fill-rule:nonzero;"/><path d="M65.328,110.035c-1.152,-1.274 -1.835,-2.809 -2.598,-4.338c0.73,2.687 2.226,4.996 3.618,7.344l-1.02,-3.006" style="fill:#5acc01;fill-rule:nonzero;"/><path d="M156.442,90.231l-0.487,1.221c-0.893,6.341 -2.82,12.615 -5.774,18.432c3.264,-6.138 5.376,-12.851 6.261,-19.653" style="fill:#5acc01;fill-rule:nonzero;"/><path d="M84.44,1.008c2.241,-0.82 5.509,-0.45 7.886,-0.99c-3.098,0.26 -6.182,0.415 -9.226,0.808l1.34,0.182" style="fill:#5acc01;fill-rule:nonzero;"/><path d="M5.774,42.84c0.516,4.78 -3.597,6.635 0.911,3.484c2.416,-5.443 -0.945,-1.504 -0.911,-3.484" style="fill:#5acc01;fill-rule:nonzero;"/><path d="M0.477,64.963c1.038,-3.187 1.226,-5.101 1.623,-6.945c-2.87,3.668 -1.321,4.45 -1.623,6.945" style="fill:#5acc01;fill-rule:nonzero;"/></g></svg>