<?xml version="1.0" encoding="UTF-8" standalone="no"?><!DOCTYPE svg PUBLIC "-//W3C//DTD SVG 1.1//EN" "http://www.w3.org/Graphics/SVG/1.1/DTD/svg11.dtd"><svg width="100%" height="100%" viewBox="0 0 104 106" version="1.1" xmlns="http://www.w3.org/2000/svg" xmlns:xlink="http://www.w3.org/1999/xlink" xml:space="preserve" xmlns:serif="http://www.serif.com/" style="fill-rule:evenodd;clip-rule:evenodd;stroke-linejoin:round;stroke-miterlimit:1.41421;"><g id="Layer_3"><path d="M51.87,1m0,0c-28.16,0 -51.87,22.83 -51.87,51c0,0.91 0,52.81 0,52.81l51.86,-0.05c28.16,0 51,-23.71 51,-51.87c0,-28.16 -22.86,-51.89 -50.99,-51.89Zm0.5,19.74c-17.339,0.01 -31.601,14.281 -31.601,31.62c0,5.255 1.31,10.428 3.811,15.05l-5.72,18.4l20.54,-4.64c4.082,1.839 8.508,2.79 12.985,2.79c17.34,0 31.61,-14.269 31.61,-31.61c0,-17.335 -14.26,-31.602 -31.595,-31.61l-0.03,0Z" style="fill:#5acc01;stroke:#5acc01;stroke-width:1px;"/><path d="M77.45,33.12c4.199,5.505 6.474,12.24 6.474,19.164c0,17.335 -14.265,31.6 -31.6,31.6c-4.454,0 -8.859,-0.942 -12.924,-2.764l-20.54,4.7l20.91,-2.47c4.844,2.838 10.358,4.334 15.972,4.334c17.336,0 31.6,-14.265 31.6,-31.6c0,-8.685 -3.58,-16.998 -9.892,-22.964Z" style="fill:#50b201;fill-rule:nonzero;"/><path d="M71.63,27.29c5.529,5.862 8.612,13.623 8.612,21.682c0,17.335 -14.265,31.6 -31.6,31.6c-3.343,0 -6.665,-0.531 -9.842,-1.572l-19.94,6.82l20.54,-4.65c4.088,1.847 8.523,2.802 13.009,2.802c17.335,0 31.6,-14.265 31.6,-31.6c0,-9.824 -4.582,-19.106 -12.379,-25.082Z" style="fill:#5acc01;fill-opacity:0.458824;fill-rule:nonzero;"/><path d="M26.47,68.11c-1.593,-3.84 -2.413,-7.956 -2.413,-12.113c0,-17.34 14.269,-31.61 31.61,-31.61c8.115,0 15.927,3.126 21.803,8.723c-5.974,-7.84 -15.285,-12.451 -25.142,-12.451c-17.341,0 -31.61,14.269 -31.61,31.61c0,5.29 1.328,10.497 3.862,15.141l-5.72,18.4l7.61,-17.7Z" style="fill:#5acc01;fill-opacity:0.54902;fill-rule:nonzero;"/><path d="M24.58,67.41c-2.502,-4.621 -3.812,-9.794 -3.812,-15.049c0,-17.341 14.269,-31.61 31.61,-31.61c6.961,0 13.731,2.299 19.252,6.539c-5.965,-6.281 -14.258,-9.842 -22.921,-9.842c-17.34,0 -31.61,14.269 -31.61,31.61c0,6.375 1.929,12.603 5.531,17.862l-3.76,18.9l5.71,-18.41Z" style="fill:#50b201;fill-rule:nonzero;"/></g></svg>