<?xml version="1.0" encoding="UTF-8" standalone="no"?><!DOCTYPE svg PUBLIC "-//W3C//DTD SVG 1.1//EN" "http://www.w3.org/Graphics/SVG/1.1/DTD/svg11.dtd"><svg width="100%" height="100%" viewBox="0 0 114 147" version="1.1" xmlns="http://www.w3.org/2000/svg" xmlns:xlink="http://www.w3.org/1999/xlink" xml:space="preserve" xmlns:serif="http://www.serif.com/" style="fill-rule:evenodd;clip-rule:evenodd;stroke-linejoin:round;stroke-miterlimit:1.41421;"><g><path d="M51.464,0.068l23.872,0l0,110.496c-12.246,2.325 -21.237,3.255 -31.002,3.255c-29.143,-0.001 -44.334,-13.175 -44.334,-38.443c0,-24.337 16.122,-40.147 41.078,-40.147c3.875,0 6.82,0.309 10.386,1.239l0,-36.4Zm0,55.62c-2.79,-0.929 -5.115,-1.239 -8.06,-1.239c-12.091,0 -19.067,7.441 -19.067,20.461c0,12.712 6.666,19.687 18.912,19.687c2.634,0 4.805,-0.155 8.215,-0.619l0,-38.29Z" style="fill:#5acc01;fill-rule:nonzero;"/><path d="M113.312,36.933l0,55.338c0,19.067 -1.395,28.212 -5.58,36.118c-3.876,7.597 -8.992,12.401 -19.532,17.672l-22.167,-10.541c10.541,-4.96 15.656,-9.299 18.911,-15.967c3.411,-6.82 4.497,-14.726 4.497,-35.497l0,-47.123l23.871,0Zm-23.871,-36.738l23.871,0l0,24.492l-23.871,0l0,-24.492Z" style="fill:#5acc01;fill-rule:nonzero;"/></g></svg>