<svg viewBox="0 0 604 604" xmlns="http://www.w3.org/2000/svg" fill-rule="evenodd" clip-rule="evenodd" stroke-linejoin="round" stroke-miterlimit="1.414"><path d="M558.1 199H52.7c-18.8 0-34 15.2-34 34v143.5c0 18.8 15.2 34 34 34h505.4c18.8 0 34-15.2 34-34V232.9c-.1-18.7-15.3-33.9-34-33.9zM201 276.3l-24.9 63.9c-2.2 5.4-3.8 9.3-5 11.7-1.2 2.4-3.1 4.6-5.6 6.5-2.6 1.9-6.1 2.8-10.5 2.8-4.6 0-8.2-1-10.9-3-2.6-2-4.6-4.5-5.9-7.4-1.3-2.9-2.6-6.7-4.1-11.4l-17.4-52-16.8 52c-2.2 7.2-4.6 12.7-7.2 16.4-2.6 3.7-7.2 5.5-13.7 5.5-3.3 0-6.2-.6-8.5-1.7s-4.3-2.8-5.9-4.9c-1.6-2.1-2.9-4.6-4.1-7.5-1.2-2.9-2.1-5.2-2.8-6.9l-24.6-63.9c-2.5-6-3.7-10.1-3.7-12.4 0-2.9 1.3-5.4 3.9-7.7 2.6-2.3 5.8-3.4 9.6-3.4 5.1 0 8.5 1.3 10.3 3.8 1.8 2.5 3.7 6.8 5.7 12.9L78.5 329l18.1-55.4c1.9-5.8 3.4-9.8 4.3-11.9.9-2.1 2.7-4.1 5.2-6.1 2.6-1.9 6.1-2.9 10.5-2.9 4.5 0 8.1 1 10.6 2.9 2.6 1.9 4.4 4 5.4 6.3 1 2.2 2.5 6.1 4.3 11.7L155 329l20.1-59.6c1.3-4.3 2.4-7.4 3.2-9.3.8-1.9 2.2-3.6 4.1-5.1 1.9-1.5 4.7-2.2 8.4-2.2 3.6 0 6.8 1.1 9.5 3.3 2.7 2.2 4 4.8 4 7.8.1 2.7-1 6.9-3.3 12.4zm185.6 0l-24.9 63.9c-2.2 5.4-3.8 9.3-5 11.7-1.2 2.4-3.1 4.6-5.6 6.5-2.6 1.9-6.1 2.8-10.5 2.8-4.6 0-8.2-1-10.9-3-2.6-2-4.6-4.5-5.9-7.4-1.3-2.9-2.6-6.7-4.1-11.4l-17.4-52-16.8 52c-2.2 7.2-4.6 12.7-7.2 16.4-2.6 3.7-7.2 5.5-13.7 5.5-3.3 0-6.2-.6-8.5-1.7s-4.3-2.8-5.9-4.9c-1.6-2.1-2.9-4.6-4.1-7.5-1.2-2.9-2.1-5.2-2.8-6.9l-24.6-63.9c-2.5-6-3.7-10.1-3.7-12.4 0-2.9 1.3-5.4 3.9-7.7 2.6-2.3 5.8-3.4 9.6-3.4 5.1 0 8.5 1.3 10.3 3.8 1.8 2.5 3.7 6.8 5.7 12.9l19.8 59.6 18.1-55.4c1.9-5.8 3.4-9.8 4.3-11.9.9-2.1 2.7-4.1 5.2-6.1 2.6-1.9 6.1-2.9 10.5-2.9 4.5 0 8.1 1 10.7 2.9 2.6 1.9 4.4 4 5.4 6.3 1 2.2 2.5 6.1 4.3 11.7l18.1 55.4 20.1-59.6c1.3-4.3 2.4-7.4 3.2-9.3.8-1.9 2.2-3.6 4.1-5.1 1.9-1.5 4.7-2.2 8.4-2.2 3.6 0 6.8 1.1 9.5 3.3 2.7 2.2 4 4.8 4 7.8-.1 2.5-1.3 6.7-3.6 12.2zm185.7 0l-24.9 63.9c-2.2 5.4-3.8 9.3-5 11.7-1.2 2.4-3.1 4.6-5.6 6.5-2.6 1.9-6.1 2.8-10.5 2.8-4.6 0-8.2-1-10.9-3-2.6-2-4.6-4.5-5.9-7.4-1.3-2.9-2.6-6.7-4.1-11.4l-17.4-52-16.8 52c-2.2 7.2-4.6 12.7-7.2 16.4-2.6 3.7-7.2 5.5-13.7 5.5-3.3 0-6.2-.6-8.5-1.7s-4.3-2.8-5.9-4.9c-1.6-2.1-2.9-4.6-4.1-7.5-1.2-2.9-2.1-5.2-2.8-6.9l-24.6-63.9c-2.5-6-3.7-10.1-3.7-12.4 0-2.9 1.3-5.4 3.9-7.7 2.6-2.3 5.8-3.4 9.6-3.4 5.1 0 8.5 1.3 10.3 3.8 1.8 2.5 3.7 6.8 5.7 12.9l19.8 59.6 18.1-55.4c1.9-5.8 3.4-9.8 4.3-11.9.9-2.1 2.7-4.1 5.2-6.1 2.6-1.9 6.1-2.9 10.5-2.9 4.5 0 8.1 1 10.6 2.9 2.6 1.9 4.4 4 5.4 6.3 1 2.2 2.5 6.1 4.3 11.7l18.1 55.4 20.1-59.6c1.3-4.3 2.4-7.4 3.2-9.3.8-1.9 2.2-3.6 4.1-5.1 1.9-1.5 4.7-2.2 8.4-2.2 3.6 0 6.8 1.1 9.5 3.3 2.7 2.2 4 4.8 4 7.8 0 2.5-1.2 6.7-3.5 12.2z" fill="#fbc02d" fill-rule="nonzero"/><path d="M302 604c-60.8 0-119.7-18.3-170.1-52.8C82.6 517.4 44.8 470.7 22.4 416l-.4-1.1-.9-.7C8 404.8.1 389.7.1 373.6V230.3c0-16 7.8-31.2 21-40.6l.9-.7.4-1.1C44.8 133.2 82.7 86.5 131.9 52.8 182.3 18.3 241.1 0 302 0c60.8 0 119.7 18.3 170.1 52.8 49.2 33.7 87.1 80.5 109.5 135.1l.4 1.1.9.7c13.1 9.4 21 24.5 21 40.6v143.4c0 16-7.8 31.2-21 40.6l-.9.7-.4 1.1c-22.4 54.7-60.3 101.4-109.5 135.1C421.7 585.7 362.9 604 302 604zM187.6 428.5c4.5 17.9 14.9 52.7 33.1 84.7 18.2 31.9 39.1 52 62.1 59.7l5.3 1.8V423.5H186.3l1.3 5zm128.3 146.2l5.3-1.8c22.9-7.7 43.8-27.8 62-59.8 18.3-32.1 28.7-67 33.2-84.9l1.3-5H315.9v151.5zm129.7-148.3c-8.5 36.3-25 87.8-55.9 127.3l-8.5 10.9 13.1-4.7c31.9-11.5 61.2-28.8 87-51.2 26.1-22.6 47.4-49.4 63.4-79.6l3.1-5.9H446.3l-.7 3.2zm-386.3 3c16 30.2 37.3 56.9 63.4 79.5 25.8 22.3 55.1 39.5 87 51l13.1 4.7-8.5-10.9c-30.9-39.6-47.4-91-55.9-127.1l-.7-3.1H56.2l3.1 5.9zm-9.5-221c-12.1 0-21.9 9.8-21.9 21.9v143.4c0 12.1 9.8 21.9 21.9 21.9h504.4c12.1 0 21.9-9.8 21.9-21.9V230.3c0-12.1-9.8-21.9-21.9-21.9H49.8zM389.7 50.3c1.6 2.1 3.2 4.2 4.7 6.3 22.2 30.8 39.9 72.6 51.2 120.8l.7 3.1h101.5l-3.1-5.9c-16-30.2-37.3-56.9-63.4-79.5-25.8-22.3-55.1-39.5-87-51l-13.1-4.7 8.5 10.9zm-73.8 130.2h101.8l-1.3-5c-4.5-17.9-14.9-52.7-33.1-84.7-18.2-31.9-39.1-52-62.1-59.7l-5.3-1.8v151.2zM282.8 31.1C260.5 38.6 243 58 232.2 72.9 213.4 99 198 134.4 187.6 175.5l-1.3 5h101.8V29.3l-5.3 1.8zm-73 13c-31.9 11.6-61.2 28.7-87 51-26.1 22.5-47.4 49.3-63.4 79.5l-3.1 5.9h101.5l.7-3.1c11.3-48.2 28.9-90 51.2-120.8 1.5-2.1 3.1-4.2 4.7-6.3l8.5-10.9-13.1 4.7z" fill="#0a050b" fill-rule="nonzero"/></svg>