<?xml version="1.0" encoding="UTF-8" standalone="no"?><!DOCTYPE svg PUBLIC "-//W3C//DTD SVG 1.1//EN" "http://www.w3.org/Graphics/SVG/1.1/DTD/svg11.dtd"><svg width="100%" height="100%" viewBox="0 0 153 106" version="1.1" xmlns="http://www.w3.org/2000/svg" xmlns:xlink="http://www.w3.org/1999/xlink" xml:space="preserve" xmlns:serif="http://www.serif.com/" style="fill-rule:evenodd;clip-rule:evenodd;stroke-linejoin:round;stroke-miterlimit:1.41421;"><g><path d="M86.233,48.754l15.744,0l0,-14.311l-15.744,0l0,14.311Zm-18.604,0l15.742,0l0,-14.311l-15.742,0l0,14.311Zm-18.605,0l15.742,0l0,-14.311l-15.742,0l0,14.311Zm-18.605,0l15.742,0l0,-14.311l-15.742,0l0,14.311Zm-18.605,0l15.742,0l0,-14.311l-15.742,0l0,14.311Zm18.605,-17.173l15.742,0l0,-14.312l-15.742,0l0,14.312Zm18.605,0l15.742,0l0,-14.312l-15.742,0l0,14.312Zm18.605,0l15.742,0l0,-14.312l-15.742,0l0,14.312Zm0,-17.174l15.742,0l0,-14.311l-15.742,0l0,14.311Zm81.658,26.003c-3.438,-2.3 -11.338,-3.143 -17.417,-1.997c-0.783,-5.726 -3.974,-10.691 -9.779,-15.179l-3.337,-2.225l-2.227,3.34c-2.851,4.299 -4.275,10.256 -3.808,15.967c0.21,2.01 0.87,5.603 2.937,8.764c-2.066,1.11 -6.15,2.64 -11.533,2.537l-103.535,0l-0.204,1.192c-0.972,5.74 -0.95,23.653 10.678,37.42c8.841,10.464 22.094,15.771 39.393,15.771c37.5,0 65.244,-17.262 78.237,-48.64c5.109,0.102 16.109,0.03 21.76,-10.766c0.147,-0.248 0.486,-0.896 1.473,-2.942l0.541,-1.122l-3.179,-2.12Z" style="fill:#5acc01;"/></g></svg>