<?xml version="1.0" encoding="UTF-8" standalone="no"?><!DOCTYPE svg PUBLIC "-//W3C//DTD SVG 1.1//EN" "http://www.w3.org/Graphics/SVG/1.1/DTD/svg11.dtd"><svg width="100%" height="100%" viewBox="0 0 297 335" version="1.1" xmlns="http://www.w3.org/2000/svg" xmlns:xlink="http://www.w3.org/1999/xlink" xml:space="preserve" xmlns:serif="http://www.serif.com/" style="fill-rule:evenodd;clip-rule:evenodd;stroke-linejoin:round;stroke-miterlimit:1.41421;"><g><g><path d="M139.3,207.4c-29.1,0 -52.7,23.6 -52.7,52.7c0,29.1 23.6,52.7 52.7,52.7c29.1,0 52.7,-23.6 52.7,-52.7c0,-29.1 -23.6,-52.7 -52.7,-52.7Z" style="fill:#5acc01;fill-rule:nonzero;"/><path d="M204.9,197.3c15.6,16.3 25.2,38.4 25.2,62.8c0,30.9 -15.4,58.1 -38.9,74.5c43.5,-13.4 79.5,-46.1 95.6,-85.7c22.3,-54.8 1.5,-96 -33.3,-133.4c1.1,4.8 1.7,9.9 1.7,15c-0.1,31.8 -21.3,58.5 -50.3,66.8Z" style="fill:#5acc01;fill-rule:nonzero;"/><path d="M145.3,130.6c0,22.3 18.1,40.3 40.3,40.3c22.2,0 40.4,-18.1 40.4,-40.3c0,-22.3 -18.1,-40.3 -40.3,-40.3c-22.2,0 -40.4,18 -40.4,40.3Z" style="fill:#5acc01;fill-rule:nonzero;"/><path d="M69.8,318.6c-13.3,-15.8 -21.3,-36.2 -21.3,-58.5c0,-46.5 34.9,-84.8 80,-90.1c-7.7,-11.2 -12.3,-24.8 -12.3,-39.4c0,-38.4 31.1,-69.4 69.5,-69.4c3.2,0 6.3,0.2 9.3,0.6c-22.7,-19.6 -45.4,-39.5 -63.3,-61.2c9.1,95.2 -86.7,60.6 -122.2,148.4c-23.7,58.8 -2.3,131.5 60.3,169.6Z" style="fill:#5acc01;fill-rule:nonzero;"/></g></g></svg>