<svg viewBox="0 0 65 70" xmlns="http://www.w3.org/2000/svg" fill-rule="evenodd" clip-rule="evenodd" stroke-linecap="round" stroke-linejoin="round" stroke-miterlimit="1.5"><path d="M48.3 29.6L28.1 43.2 8.4 28.5V13.1h39.9v16.5z" fill="#fbc02d" fill-rule="nonzero" stroke="#000" stroke-width=".16"/><circle cx="53.3" cy="57.1" r="10.7" fill="#fbc02d" stroke="#000" stroke-width=".1"/><path d="M57.2 46.1c.5-.4.4.9.4-22.6 0-.6.1-.4-8.1-5.9v-4.5c0-.5-.4-.9-.9-.9h-7.3l-10.6-7c-1.4-1-3.3-.9-4.7 0-10.1 7-9.7 6.6-9.9 7H8.6c-.5 0-.9.4-.9.9v4.6C-.2 23.1 0 22.9 0 23.5v35.2c0 3.6 2.9 6.5 6.5 6.5 39.5 0 37.6.3 37.8-.7C51.2 73 65 68.1 65 57.2c0-5.2-3.3-9.5-7.8-11.1zm-7.7-26.2l5.5 3.6-5.5 3.9v-7.5zM26.9 6.8c.8-.5 1.8-.5 2.6 0l8.2 5.4H19.1l7.8-5.4zM9.6 14.1h38v14.7L29.4 41.7c-.8.6-1.9.6-2.8 0l-17-12.9V14.1zm-1.9 6v7.3l-5.1-3.8 5.1-3.5zM6.5 63.3c-2.5 0-4.6-2-4.6-4.6V25.4l23.6 17.8c1.5 1.1 3.5 1.1 5 .1l25.1-17.9c0 .3 0 20.1.1 20.3-10.1-2.1-17.7 9-12.3 17.6H6.5zm46.8 3.6c-5.4 0-9.8-4.4-9.8-9.8s4.4-9.8 9.8-9.8 9.8 4.4 9.8 9.8-4.4 9.8-9.8 9.8z" fill-rule="nonzero"/><path d="M41.6 67.8H10.7c-1.3 0-1.3 1.9 0 1.9h30.9c1.3 0 1.3-1.9 0-1.9zM27 59.7c0 1.4 2.1 1.4 2.1 0 .1-1.4-2.1-1.4-2.1 0zM14.8 9.7l9.6-6.6c2.3-1.6 5.3-1.6 7.6-.1l5.7 3.7c1 .7 2.1-.9 1-1.6L33 1.4c-3-2-6.8-1.9-9.8.1l-9.6 6.6c-.9.7.2 2.3 1.2 1.6z" fill-rule="nonzero"/><path d="M42.4 26H36c-1.3 0-1.3 1.9 0 1.9h6.4c.5 0 .9-.4.9-.9.1-.5-.3-1-.9-1z" fill="#fff" fill-rule="nonzero"/><path d="M41.9 9.3c.6 0 1.1-.5 1.1-1.1 0-.6-.5-1.1-1.1-1.1-1.4.1-1.4 2.2 0 2.2z" fill-rule="nonzero"/><path d="M57.4 53.3l-6 6c-.1.1-2-2-2.1-2-.9-.9-2.2.5-1.3 1.3l2 2c.8.8 2 .8 2.8 0l6-6c.8-.8-.5-2.2-1.4-1.3z" fill="#fff" fill-rule="nonzero"/><path d="M23 58.8H6.5c-.1 0-.1-20.4-.1-20.5 0-1.3-1.9-1.3-1.9 0v20.4c0 1.1.9 2 2 2H23c1.3 0 1.3-1.9 0-1.9z" fill-rule="nonzero"/><path d="M37.1 31.9h-17c-1.3 0-1.3 1.9 0 1.9h17c1.3 0 1.3-1.9 0-1.9zM15.2 21.7h27.3c1.3 0 1.3-1.9 0-1.9H15.2c-1.3 0-1.3 1.9 0 1.9zM28.9 26H15.2c-1.3 0-1.3 1.9 0 1.9H29c1.2 0 1.2-1.9-.1-1.9z" fill="#fff" fill-rule="nonzero"/></svg>