<?xml version="1.0" encoding="UTF-8" standalone="no"?><!DOCTYPE svg PUBLIC "-//W3C//DTD SVG 1.1//EN" "http://www.w3.org/Graphics/SVG/1.1/DTD/svg11.dtd"><svg width="100%" height="100%" viewBox="0 0 200 200" version="1.1" xmlns="http://www.w3.org/2000/svg" xmlns:xlink="http://www.w3.org/1999/xlink" xml:space="preserve" xmlns:serif="http://www.serif.com/" style="fill-rule:evenodd;clip-rule:evenodd;"><path id="voice" d="M199.72,100.005c0,-55.075 -44.647,-99.723 -99.722,-99.723c-55.049,0 -99.679,44.61 -99.718,99.652l0,77.17c0.03,12.497 10.166,22.614 22.672,22.614l77.087,0c55.056,-0.021 99.681,-44.653 99.681,-99.713" style="fill:#5acc01;fill-rule:nonzero;"/><path id="in" d="M57.773,106.44l35.838,0l0,35.839c0,19.783 -16.056,35.839 -35.838,35.839c-19.784,0 -35.839,-16.056 -35.839,-35.839c0,-19.783 16.055,-35.839 35.839,-35.839Z" style="fill:none;stroke:#4ca901;stroke-width:21.88px;"/><path id="finity" d="M129.277,106.51l-35.838,0l0,-35.839c0,-19.783 16.055,-35.839 35.838,-35.839c19.783,0 35.839,16.056 35.839,35.839c0,19.783 -16.056,35.839 -35.839,35.839Z" style="fill:none;stroke:#4ca901;stroke-width:21.88px;"/><path id="free" d="M104.575,95.528l0,46.701c0,25.845 -20.956,46.801 -46.802,46.801c-3.921,0 -6.709,-0.442 -10.339,-1.391c-5.293,-1.385 -9.618,-5.725 -9.62,-10.773c0,-6.101 4.429,-10.539 11.049,-10.539c3.151,0 4.294,0.605 8.91,0.605c13.627,0 24.68,-11.037 24.704,-24.664l0,-21.466c0,-1.923 -1.563,-3.482 -3.49,-3.482l-16.229,-0.003c-6.046,0 -10.931,-4.823 -10.931,-10.886c-0.004,-6.1 4.935,-10.903 11.047,-10.903" style="fill:#fff;fill-opacity:;fill-rule:nonzero;"/><path id="dom" d="M82.475,117.422l0,-46.701c0,-25.846 20.955,-46.801 46.802,-46.801c3.921,0 6.709,0.442 10.339,1.391c5.293,1.385 9.618,5.725 9.62,10.773c0,6.101 -4.429,10.539 -11.049,10.539c-3.151,0 -4.294,-0.605 -8.91,-0.605c-13.627,0 -24.68,11.037 -24.704,24.664l0,21.466c0,1.923 1.563,3.482 3.49,3.482l16.228,0.003c6.047,0 10.932,4.823 10.932,10.886c0.004,6.1 -4.935,10.903 -11.047,10.903" style="fill:#fff;fill-rule:nonzero;"/></svg>