<?xml version="1.0" encoding="UTF-8" standalone="no"?><!DOCTYPE svg PUBLIC "-//W3C//DTD SVG 1.1//EN" "http://www.w3.org/Graphics/SVG/1.1/DTD/svg11.dtd"><svg width="100%" height="100%" viewBox="0 0 200 197" version="1.1" xmlns="http://www.w3.org/2000/svg" xmlns:xlink="http://www.w3.org/1999/xlink" xml:space="preserve" xmlns:serif="http://www.serif.com/" style="fill-rule:evenodd;clip-rule:evenodd;stroke-linejoin:round;stroke-miterlimit:1.41421;"><g><path d="M197.44,3.992c10.553,10.548 -18.702,56.913 -23.648,61.861c-4.946,4.938 -17.508,0.395 -28.056,-10.155c-10.553,-10.548 -15.099,-23.113 -10.153,-28.059c4.944,-4.948 51.306,-34.2 61.857,-23.647" style="fill:#5acc01;fill-rule:nonzero;"/><path d="M49.457,15.152c-16.111,-9.142 -39.036,-19.31 -46.328,-12.017c-7.389,7.387 3.151,30.827 12.389,46.968c8.22,-14.292 19.914,-26.323 33.939,-34.951" style="fill:#5acc01;fill-rule:nonzero;"/><path d="M181.346,62.215c1.484,5.033 1.217,9.189 -1.189,11.59c-5.62,5.622 -20.8,-0.363 -34.485,-13.386c-0.955,-0.857 -1.903,-1.745 -2.833,-2.678c-4.948,-4.951 -8.798,-10.22 -11.261,-15.072c-4.793,-8.598 -5.992,-16.192 -2.369,-19.815c1.974,-1.972 5.133,-2.51 8.985,-1.816c2.513,-1.59 5.479,-3.359 8.732,-5.173c-13.226,-6.898 -28.263,-10.795 -44.213,-10.795c-52.906,0 -95.796,42.883 -95.796,95.793c0,52.901 42.89,95.789 95.796,95.789c52.905,0 95.793,-42.888 95.793,-95.789c0,-17.085 -4.484,-33.107 -12.318,-46.997c-1.693,3.09 -3.339,5.921 -4.842,8.349" style="fill:#5acc01;fill-rule:nonzero;"/></g></svg>