<?xml version="1.0" encoding="UTF-8" standalone="no"?><!DOCTYPE svg PUBLIC "-//W3C//DTD SVG 1.1//EN" "http://www.w3.org/Graphics/SVG/1.1/DTD/svg11.dtd"><svg width="100%" height="100%" viewBox="0 0 200 185" version="1.1" xmlns="http://www.w3.org/2000/svg" xmlns:xlink="http://www.w3.org/1999/xlink" xml:space="preserve" xmlns:serif="http://www.serif.com/" style="fill-rule:evenodd;clip-rule:evenodd;stroke-linejoin:round;stroke-miterlimit:1.41421;"><g id="g18-Clipped"><g id="g18"><path id="path46" d="M199.271,105.354l-11.158,-34.338l-22.112,-68.055c-1.137,-3.501 -6.091,-3.501 -7.229,0l-22.113,68.055l-73.428,0l-22.113,-68.055c-1.137,-3.501 -6.091,-3.501 -7.229,0l-22.112,68.055l-11.157,34.338c-1.018,3.132 0.097,6.563 2.761,8.499l96.564,70.158l96.565,-70.158c2.664,-1.936 3.778,-5.367 2.761,-8.499" style="fill:#5acc01;"/><path id="path50" d="M99.945,184.011l36.714,-112.995l-73.428,0l36.714,112.995Z" style="fill:#5acc01;"/><path id="path58" d="M99.945,184.01l-36.714,-112.993l-51.454,0l88.168,112.993Z" style="fill:#51b400;"/><path id="path66" d="M11.777,71.017l-11.158,34.337c-1.017,3.132 0.098,6.563 2.762,8.499l96.564,70.157l-88.168,-112.993Z" style="fill:#5acc01;"/><path id="path74" d="M11.777,71.017l51.454,0l-22.113,-68.056c-1.138,-3.502 -6.092,-3.502 -7.229,0l-22.112,68.056Z" style="fill:#5acc01;"/><path id="path78" d="M99.945,184.01l36.714,-112.993l51.455,0l-88.169,112.993Z" style="fill:#50b201;"/><path id="path82" d="M188.114,71.017l11.157,34.337c1.017,3.132 -0.097,6.563 -2.762,8.499l-96.564,70.157l88.169,-112.993Z" style="fill:#5acc01;"/><path id="path86" d="M188.114,71.017l-51.455,0l22.113,-68.056c1.138,-3.502 6.092,-3.502 7.229,0l22.113,68.056Z" style="fill:#5acc01;"/></g></g></svg>