<svg viewBox="0 0 70 60" xmlns="http://www.w3.org/2000/svg" fill-rule="evenodd" clip-rule="evenodd" stroke-linecap="round" stroke-linejoin="round" stroke-miterlimit="1.5"><g fill-rule="nonzero"><g fill="#fbc02d" stroke="#000"><path d="M39 15.6S35.8 3.1 50.5.6L50 4l4.5-1.3-.6 2.7 3.7-.9-.6 1.9s3.8 3.7 2.3 9.2l-2.2.1-1.9-4.1s-4.5 5.6-11.8 0l-2.5 4.2-1.9-.2z" stroke-width=".08"/><path d="M36.4 23.2v-1.7c0-2.2-1.8-4-4-4h-1.8v9.7h1.8c2.2 0 4-1.8 4-4zM9.3 27.2h1.8v-9.7H9.3c-2.2 0-4 1.8-4 4v1.7c0 2.2 1.8 4 4 4z" stroke-width=".03"/><path d="M2.7 45.4s3.7-7.3 11.2-8.2c0 0 8.5 14.9 14.9 0 0 0 8.2 1.9 11.8 8.2l-6.4 4.2.1 6.6s-6 3.6-12.8 3.3c-6.8-.3-12.4-2.1-12.4-2.1L9 49.5l-6.3-4.1z" stroke-width=".13"/></g><path d="M67.9 51.5c-.3.4-.8.6-1.3.3-.4-.3-.6-.8-.3-1.3.3-.4.8-.6 1.3-.3.4.3.5.9.3 1.3zM9 57.7c-.5 0-.9-.4-.9-.9V50l-5.7-4c-.4-.3-.5-.8-.2-1.2.3-.4.8-.5 1.2-.2l6 4.3c.2.2.4.4.4.7v7.2c.1.5-.3.9-.8.9zM34 57.3c-.5 0-.9-.4-.9-.9v-6.9c0-.3.2-.6.4-.7l6-4c.4-.3 1-.2 1.2.3.3.4.2 1-.3 1.2L34.9 50v6.4c0 .5-.4.9-.9.9z"/><path d="M21.4 60.2c-7.8 0-15.2-2.8-21.1-7.8-.2-.2-.3-.5-.3-.8.5-7.7 6.1-14 13.7-15.3h.2c.2 0 .4 0 .6.1l.4.2c.2.1.4.4.4.7.3 3.1 3 5.4 6.2 5.4s5.8-2.3 6.2-5.4c0-.1.1-.3.1-.4l.1-.2c.2-.3.5-.5.9-.4h.3c7.5 1.3 13.1 7.5 13.7 15.1 0 .3-.1.6-.3.7-5.8 5.2-13.3 8.1-21.1 8.1zM1.8 51.3c5.5 4.6 12.4 7.1 19.5 7.1h.1c7.2 0 14.2-2.6 19.6-7.2-.7-6.4-5.4-11.6-11.7-13-.7 3.6-4 6.3-7.8 6.3-3.9 0-7.1-2.7-7.8-6.3-6.5 1.2-11.3 6.6-11.9 13.1zM33.5 18.4c-.5 0-.9-.4-.9-.9v-3.9c0-5.4-4.7-9.7-10.4-9.7h-2.7c-5.7 0-10.4 4.4-10.4 9.7v3.8c0 .5-.4.9-.9.9s-.9-.4-.9-.9v-3.8C7.4 7.2 12.8 2 19.5 2h2.7C29 2 34.4 7.2 34.4 13.6v3.9c0 .5-.4.9-.9.9z"/><path d="M11.8 20.6h-.4c-.5-.1-.8-.5-.8-1 .1-.5.5-.8 1-.8 1 .1 4.6-.9 6.5-3 .3-.4.9-.4 1.3-.1.4.3.4.9.1 1.3-2.2 2.3-5.8 3.6-7.7 3.6zM21.1 36.9c-.8 0-1.6-.1-2.3-.3-.5-.1-.7-.6-.6-1.1.1-.5.6-.7 1.1-.6.6.2 1.2.3 1.8.3 4.4 0 8.2-4.2 8.7-9.8 0-.5.5-.8 1-.8s.9.5.8 1c-.7 6.4-5.2 11.3-10.5 11.3zM12.5 30.5c-.3 0-.7-.2-.8-.5-.1-.2-.2-.3-.2-.5-.5-1.1-1.1-2.4-1.2-4 0-.5.3-.9.8-.9s.9.3.9.8c.1 1.3.5 2.3 1 3.4.1.2.2.4.2.5.2.4 0 1-.4 1.2 0-.1-.1 0-.3 0zM19 25.3h-2.3c-.5 0-.9-.4-.9-.9s.4-.9.9-.9H19c.5 0 .9.4.9.9s-.4.9-.9.9zM26.1 25.3h-2.3c-.5 0-.9-.4-.9-.9s.4-.9.9-.9h2.3c.5 0 .9.4.9.9s-.4.9-.9.9z"/><path d="M32.7 28.1h-2.1c-.5 0-.9-.4-.9-.9v-9.7c0-.5.4-.9.9-.9h2.1c2.5 0 4.6 2.1 4.6 4.6v2.3c0 2.6-2 4.6-4.6 4.6zm-1.2-1.8h1.2c1.5 0 2.8-1.3 2.8-2.8v-2.3c0-1.5-1.3-2.8-2.8-2.8h-1.2v7.9zM11.2 28.1H9c-2.5 0-4.6-2.1-4.6-4.6v-2.3c0-2.5 2.1-4.6 4.6-4.6h2.1c.5 0 .9.4.9.9v9.7c.1.5-.3.9-.8.9zM9 18.4c-1.5 0-2.8 1.3-2.8 2.8v2.3c0 1.5 1.3 2.8 2.8 2.8h1.2v-7.9H9z"/><path d="M17 33.9h-2.7c-3.9 0-7-3-7-6.7 0-.5.4-.9.9-.9s.9.4.9.9c0 2.8 2.3 4.9 5.2 4.9H17c.5 0 .9.4.9.9s-.4.9-.9.9z"/><path d="M18.1 30.1h-1.2c-1 0-1.8.8-1.8 1.8v.3c0 1 .8 1.8 1.8 1.8h1.2c1 0 1.8-.8 1.8-1.8v-.3c0-1-.8-1.8-1.8-1.8zM20.1 20.7c-.4 0-.7-.2-.8-.6-.2-.5.1-1 .6-1.1.7-.3 2.8-1.2 3.2-2.6.1-.2.2-.4.5-.5.2-.1.5-.1.7 0l6 2.1c.5.2.7.7.5 1.1-.2.5-.7.7-1.1.5l-5.2-1.8c-1.2 1.9-3.8 2.9-3.9 2.9h-.5z"/><path d="M29.5 19.3h-.3c-.5-.1-.7-.6-.6-1.1.7-2.4-.2-4.4-1.5-4.8-.5-.2-.7-.7-.5-1.1.2-.5.7-.7 1.1-.5 2.4.9 3.5 4 2.5 7 0 .3-.4.5-.7.5zM11.6 19.7c-.4 0-.8-.3-.9-.8-.5-3.3.7-6.7 3.3-9.2 2.5-2.5 5.8-3.5 9.1-2.9.5.1.8.6.7 1-.1.5-.6.8-1 .7-2.7-.4-5.5.5-7.6 2.5-2.2 2.1-3.2 5-2.8 7.7.1.5-.3.9-.7 1h-.1zM24.3 11.6c-.2 0-.4-.1-.6-.2-.3-.2-.4-.6-.3-.9l.5-2c.2-.5.6-.8 1.1-.7.5.1.8.6.6 1.1l-.1.4c.7-.2 1.5-.3 2.2-.1.5.1.8.6.7 1.1-.1.5-.6.8-1.1.7-.7-.2-2.1.2-2.8.5 0 0-.1.1-.2.1zM61 50.7c-.5 0-.9-.4-.9-.9v-6.4c0-.3.2-.6.4-.7l5.6-3.7c.4-.3 1-.2 1.2.3.3.4.2 1-.3 1.2l-5.2 3.4v5.9c0 .5-.4.9-.8.9zM49 57.4c-1.4 0-2.8-.1-4.2-.3-.5-.1-.8-.5-.8-1 .1-.5.5-.8 1-.8 1.3.2 2.7.2 4 .2h.1c5.1 0 10.2-1.3 14.8-3.6.4-.2 1-.1 1.2.4.2.4.1 1-.4 1.2-4.8 2.6-10.2 3.9-15.7 3.9z"/><path d="M49 53.4c-1.2 0-2.5-.1-3.7-.2-.5-.1-.8-.5-.8-1 .1-.5.5-.8 1-.8 1.2.1 2.3.2 3.5.2h.1c6.7 0 13.2-2.4 18.3-6.7-.6-5.9-5-10.8-10.8-12.1-.7 3.4-3.8 5.9-7.4 5.9-3.6 0-6.7-2.5-7.4-5.9-2.5.5-4.9 1.7-6.8 3.6-.4.3-.9.3-1.3 0-.3-.4-.3-.9 0-1.3 2.2-2.2 5.1-3.6 8.1-4.1h.2c.2 0 .4 0 .6.1l.3.2c.2.1.4.4.4.7.3 2.8 2.8 5 5.7 5 2.9 0 5.4-2.1 5.7-5 0-.1.1-.3.1-.4l.1-.2c.2-.3.5-.5.9-.4h.3c7 1.2 12.3 7.1 12.9 14.2 0 .3-.1.6-.3.7-5.3 4.8-12.3 7.5-19.7 7.5zM57.6 18.1c-.4 0-.7-.2-.8-.6l-1.7-4.3c-.4.3-.8.6-1.3.9-2 1.1-4.9 1.2-7.1.3-1.3-.5-2.3-1.2-3-1.7l-2.2 4.6c-.2.4-.7.6-1.2.4-.4-.2-.6-.7-.4-1.2l2.7-5.6c.1-.3.4-.4.6-.5.3-.1.6 0 .8.2 0 0 1.4 1.3 3.4 2.1 1.8.7 4.1.6 5.6-.3.7-.4 1.3-.9 1.7-1.5.2-.3.5-.4.8-.4.3 0 .6.3.7.6l2.2 5.6c.2.5 0 1-.5 1.2-.1.2-.2.2-.3.2z"/><path d="M40 21.1c-.4 0-.8-.3-.9-.7 0 0-.1-.1-.2-.1-.4-.3-1.1-.8-1.5-2.2-.5-2.1.3-3 .9-3.4.9-.6 2-.5 2.6 0 .4.3.5.8.2 1.2-.3.4-.8.5-1.2.2-.1-.1-.4-.1-.6 0-.3.2-.3.7-.2 1.5.2.8.4 1 .7 1.2.3.2.7.5.9 1.2.1.5-.2.9-.7 1 .1.1 0 .1 0 .1zM58.2 21.1H58c-.5-.1-.8-.6-.7-1 .1-.7.6-1 .9-1.2.3-.2.6-.4.7-1.2.2-.9.1-1.5-.2-1.7-.1-.1-.3 0-.4.1-.3.4-.9.4-1.3.1-.4-.3-.4-.9-.1-1.3.7-.7 1.7-.9 2.6-.5.4.2 1.7 1.1 1.1 3.6-.3 1.4-1 1.9-1.5 2.2 0 0-.1.1-.2.1.1.5-.3.8-.7.8z"/><path d="M49.1 31.1c-4.9 0-9.1-4.5-10-10.7-.1-.5.3-.9.7-1 .5-.1.9.3 1 .7.8 5.3 4.3 9.2 8.2 9.2 3.9 0 7.4-3.9 8.2-9.2.1-.5.5-.8 1-.7.5.1.8.5.7 1-.7 6.2-4.9 10.7-9.8 10.7z"/><path d="M47.2 20.1H45c-.5 0-.9-.4-.9-.9s.4-.9.9-.9h2.1c.5 0 .9.4.9.9s-.4.9-.8.9zM53.8 20.1h-2.1c-.5 0-.9-.4-.9-.9s.4-.9.9-.9h2.1c.5 0 .9.4.9.9s-.4.9-.9.9zM49.1 27.4c-1 0-2-.4-2.9-1.1-.4-.3-.5-.9-.2-1.2.3-.4.9-.5 1.2-.2 1.2.9 2.5.9 3.7 0 .4-.3 1-.2 1.2.2.3.4.2 1-.2 1.2-.8.8-1.8 1.1-2.8 1.1zM59.7 13.5c-.5 0-.9-.4-.9-.9.1-1.7-.9-4.3-2.4-5.5-.4-.3-.5-.9-.2-1.2.3-.4.8-.5 1.2-.2 2 1.5 3.3 4.8 3.2 7 0 .5-.4.8-.9.8zM38.1 14c-.4 0-.8-.3-.9-.8-.4-2.8.6-5.8 2.8-8.3 2.6-3 6.5-4.8 10.7-4.8.5 0 .9.4.9.9s-.4.9-.9.9c-3.6 0-7 1.5-9.3 4.2-1.8 2.1-2.7 4.7-2.4 6.9.1.5-.3.9-.8 1h-.1z"/><path d="M56.8 7.1c-.1 0-.2 0-.3-.1-.5-.2-.7-.7-.5-1.2l.2-.4c-.8.1-1.7.4-2 .5-.3.1-.7.1-.9-.2-.3-.2-.4-.6-.3-.9l.3-1c-1.4.2-2.5.7-2.5.7-.4.2-1 0-1.2-.4-.2-.4 0-1 .4-1.2.1 0 2.2-1 4.5-1 .3 0 .6.1.7.4.2.2.2.5.1.8l-.2.6c.8-.2 1.7-.3 2.5-.1.3.1.5.2.6.5.1.2.1.5 0 .8l-.7 1.6c0 .4-.3.6-.7.6zM21.5 48c-5.5 0-10.2-4.1-11-9.5-.1-.5.3-.9.8-1 .5-.1.9.3 1 .8.7 4.6 4.7 8 9.3 8 4.7 0 8.6-3.5 9.3-8.1.1-.5.5-.8 1-.8.5.1.8.5.8 1-.9 5.5-5.7 9.6-11.2 9.6zM49.2 49.6c-.5 0-.9-.4-.9-.9v-11c0-.5.4-.9.9-.9s.9.4.9.9v11c0 .5-.4.9-.9.9z"/></g></svg>