<svg viewBox="0 0 75 60" xmlns="http://www.w3.org/2000/svg" fill-rule="evenodd" clip-rule="evenodd" stroke-linecap="round" stroke-linejoin="round" stroke-miterlimit="1.5"><g fill-rule="nonzero"><g fill="#fbc02d"><path d="M54.4 19.8v-1.6c0-2.1-1.7-3.8-3.8-3.8h-1.7v9.1h1.7c2.1.1 3.8-1.6 3.8-3.7zm-25.3 3.8h1.7v-9.1h-1.7c-2.1 0-3.8 1.7-3.8 3.8v1.6c.1 2 1.8 3.7 3.8 3.7z" stroke="#000" stroke-width=".03"/><path d="M61.3 55.5c.2-.3.3-.6.3-.9V41.8c0-1.1-.9-1.9-1.9-1.9H21c-1.1 0-1.9.9-1.9 1.9v12.7c0 .3.1.7.3.9h-4.8v.5c0 1.8 1.4 3.2 3.2 3.2H63c1.8 0 3.2-1.4 3.2-3.2v-.5c0 .1-2 .1-4.9.1zm-21-4.7c-1.3 0-2.3-1-2.3-2.3 0-1.3 1-2.3 2.3-2.3 1.3 0 2.3 1 2.3 2.3 0 1.3-1 2.3-2.3 2.3z"/></g><path d="M38.1 20c.5 0 .9.4.9.9s-.4.9-.9.9H36c-.5 0-.9-.4-.9-.9s.4-.9.9-.9h2.1zm6.6 1.8c.5 0 .9-.4.9-.9s-.4-.9-.9-.9h-2.1c-.5 0-.9.4-.9.9s.4.9.9.9h2.1zm29.6 37.3c0 .5-.4.9-.9.9H.9c-.5 0-.9-.4-.9-.9s.4-.9.9-.9h13.4c-.4-.6-.7-1.4-.7-2.3v-.5c0-.5.4-.9.9-.9h3.6V41.8c0-1.6 1.3-2.9 2.9-2.9h2.1c2.2-3.5 5.7-6 10-6.8h1s.1 0 .1.1c1.6 1.4 3.7 2.2 5.8 2.2 2.1 0 4.2-.8 5.8-2.2.1-.1.3-.2.5-.2h.5c4.3.8 7.8 3.3 10 6.8h2.9c1.6 0 2.9 1.3 2.9 2.9v12.7h3.7c.5 0 .9.4.9.9v.5c0 .8-.3 1.6-.7 2.3h7c.4.1.8.5.8 1zM25.3 39h29.2c-1.9-2.5-4.7-4.3-8-5-1.9 1.5-4.2 2.4-6.7 2.4-2.4 0-4.8-.9-6.7-2.4-3.1.7-5.9 2.5-7.8 5zM20 54.6c0 .5.4.9.9.9h38.9c.5 0 .9-.4.9-.9V41.8c0-.6-.5-1-1-1H21c-.6 0-1 .5-1 1v12.8zm45.2 1.8h-3.4c-.5.6-1.2.9-2 .9H20.9c-.8 0-1.5-.3-2-.9h-3.4c.2 1 1.1 1.8 2.2 1.8H63c1.1 0 2-.8 2.2-1.8zM24.5 18.3c0-1.9 1.1-3.5 2.7-4.2v-3.2c0-6 5.1-10.8 11.4-10.8h2.5C47.4.1 52.5 5 52.5 10.9V14c1.6.7 2.7 2.4 2.7 4.2v1.6c0 2.6-2.1 4.7-4.7 4.7h-1.2c-1.5 4.9-5.2 8.2-9.4 8.2-.7 0-1.5-.1-2.2-.3a.8.8 0 0 1-.6-1.1c.1-.5.6-.8 1.1-.6.6.2 1.1.2 1.7.2 3.7 0 7-3.4 8-8.2v-5.6c-.1 0-.1 0-.2-.1-1.4.4-2.6.7-3.9.8-.1 0-.2.1-.3.1h-.9c-1.5 0-2.8-.3-4.1-.8-.4-.1-.7-.3-1.1-.5-1-.5-2-.9-3-.9-.3 0-.6 0-.9.1-.6.2-1.3.6-1.8 1.3l-.1.1v4.1c0 .1 0 .1.1.2v.2c.2 1.3.6 2.5 1.1 3.7.2.5 0 1-.5 1.2-.1.1-.2.1-.4.1-.3 0-.7-.2-.8-.5-.2-.5-.4-1.1-.6-1.7H29c.5 2.1 2.4 3.6 4.6 3.6h.7V28c0-.9.8-1.7 1.7-1.7h1.1c.9 0 1.7.8 1.7 1.7v.2c0 .9-.8 1.7-1.7 1.7h-3.5c-3.4 0-6.2-2.6-6.5-5.8-1.6-.7-2.598-2.438-2.598-4.338L24.5 18.3zm23.4-3.2c0-.7 0-1.5-.2-2.2-1.1-3.9-3.6-5.7-7.8-5.7-2.4 0-4.3.6-5.6 1.8-1.4 1.3-2 2.9-2.1 3.5-.2.8-.3 1.5-.3 2.2.4-.3.8-.5 1.2-.6.5-.2 1-.2 1.5-.2 1.4 0 2.7.6 3.8 1.1.3.2.7.3 1 .4.6.3 1.3.4 2 .5l-1.8-1.8c-.4-.4-.4-.9 0-1.3s.9-.4 1.3 0L44 16c1.2-.1 2.5-.4 3.9-.9zm4.6 1c-.5-.4-1.1-.7-1.7-.7h-.9v7.3h.7c1.6 0 2.8-1.3 2.8-2.8v-1.6c.1-.9-.3-1.7-.9-2.2zM29 13.6h1c0-.5.1-1 .3-1.5.2-.8.9-2.8 2.7-4.4 1.7-1.5 4-2.3 6.8-2.3 5.1 0 8.2 2.3 9.6 7 .1.4.2.8.2 1.2h1.1v-2.8c0-5-4.3-9-9.6-9h-2.5c-5.3 0-9.6 4-9.6 9v2.8zm-2.7 6.2c0 .8.3 1.6.9 2.1.5.4 1.1.7 1.8.8h.9v-7.3H29c-.7 0-1.3.3-1.7.7-.6.5-1 1.3-1 2.1v1.6zM21 35.3c.5 0 .9-.4.9-.9s-.4-.9-.9-.9c-4.6 0-8.3 3.7-8.3 8.3v7.1c0 .5.4.9.9.9s.9-.4.9-.9v-7.1c0-3.5 2.9-6.5 6.5-6.5zm46 17.4c.5 0 .9-.4.9-.9V48c0-.5-.4-.9-.9-.9s-.9.4-.9.9v3.8c0 .5.4.9.9.9zm.2-6.4c.6 0 1-.5 1-1 0-.6-.5-1-1-1-.6 0-1 .5-1 1 0 .6.4 1 1 1zm-53.6 4.3c-.6 0-1 .5-1 1s.5 1 1 1 1-.5 1-1-.4-1-1-1zm43.5-37.1c-.6 0-1 .5-1 1 0 .6.5 1 1 1 .6 0 1-.5 1-1 0-.6-.4-1-1-1zm-.9-1.8c0 .5.4.9.9.9s.9-.4.9-.9c0-4.3-1.7-8.4-4.9-11.5-.4-.3-.9-.3-1.3 0-.3.4-.3.9 0 1.3 2.8 2.8 4.4 6.4 4.4 10.2zM.2 9.6C.2 4.3 5.9 0 12.8 0c6.9 0 12.6 4.3 12.6 9.6 0 2.6-1.3 5-3.7 6.8v1.5c.1.9.4 1.7.9 2.5.2.3.2.7 0 1-.2.3-.5.4-.8.4h-.1c-1.1-.2-2.2-.5-3.2-1-.9-.5-1.7-1.1-2.4-1.8-1.1.2-2.2.3-3.3.3C5.9 19.3.2 14.9.2 9.6zm1.8 0c0 4.3 4.8 7.8 10.8 7.8 1.1 0 2.3-.1 3.4-.4h.2c.3 0 .5.1.7.3.6.7 1.4 1.3 2.3 1.8.3.1.6.3.9.4-.1-.4-.2-.9-.3-1.3-.1-.8-.1-1.6 0-2.4 0-.2.2-.5.4-.6 2.1-1.5 3.2-3.5 3.2-5.6 0-4.3-4.8-7.8-10.8-7.8C6.9 1.8 2 5.3 2 9.6zm15.2 1.5c.6 0 1.2-.5 1.2-1.2 0-.6-.5-1.2-1.2-1.2S16 9.3 16 10c0 .6.5 1.1 1.2 1.1zm-4.5 0c.6 0 1.2-.5 1.2-1.2 0-.6-.5-1.2-1.2-1.2-.6 0-1.2.5-1.2 1.2s.5 1.2 1.2 1.2zm-4.4 0c.6 0 1.2-.5 1.2-1.2 0-.6-.5-1.2-1.2-1.2s-1.1.6-1.1 1.3c0 .6.5 1.1 1.1 1.1z"/></g></svg>