<?xml version="1.0" encoding="UTF-8" standalone="no"?><!DOCTYPE svg PUBLIC "-//W3C//DTD SVG 1.1//EN" "http://www.w3.org/Graphics/SVG/1.1/DTD/svg11.dtd"><svg width="100%" height="100%" viewBox="0 0 65 58" version="1.1" xmlns="http://www.w3.org/2000/svg" xmlns:xlink="http://www.w3.org/1999/xlink" xml:space="preserve" xmlns:serif="http://www.serif.com/" style="fill-rule:evenodd;clip-rule:evenodd;stroke-linejoin:round;stroke-miterlimit:1.41421;"><g><rect x="10.7" y="18.7" width="40.4" height="2" style="fill:url(#_Linear1);"/><path d="M59.6,7.3c0.1,-0.2 0.1,-0.5 0.1,-0.7c0,-1.2 -1,-2.2 -2.2,-2.2c0,-2.4 -2,-4.4 -4.4,-4.4c-2,0 -3.8,1.4 -4.3,3.3c-0.5,-0.2 -1,-0.4 -1.6,-0.4c-2,0 -3.7,1.6 -3.7,3.7c0,0.3 0,0.5 0.1,0.7l16,0Z" style="fill:url(#_Linear2);fill-rule:nonzero;"/><path d="M63.8,36.5l-0.1,-0.2l0.2,-0.2c1,-0.9 1.3,-2.3 1.1,-3.6c-0.3,-1.5 -1.6,-2.7 -3.1,-2.9l-0.2,0l-0.1,-0.2c-0.6,-1.7 -2.3,-2.9 -4.2,-2.9c-0.3,0 -0.7,0 -1,0.1c-1.2,0.3 -2.2,1 -2.8,2c-0.6,1 -0.8,2.2 -0.6,3.4c0.2,0.7 0.5,1.3 0.9,1.9l0.2,0.3l-0.2,0.2c-0.9,0.9 -1.2,2.1 -1,3.2c0.4,1.6 1.8,2.7 3.4,2.7c0.3,0 0.5,0 0.8,-0.1c0.1,0 0.3,-0.1 0.4,-0.1l0.2,-0.1l0.2,0.2c0.8,0.9 2.1,1.3 3.4,1.1c1.9,-0.4 3.1,-2.3 2.6,-4.2c0,-0.2 -0.1,-0.4 -0.1,-0.6Z" style="fill:url(#_Linear3);fill-rule:nonzero;"/><g><path d="M25.1,2.4c0.7,0 1.2,-0.5 1.2,-1.2c0,-0.7 -0.5,-1.2 -1.2,-1.2c-0.7,0 -1.2,0.5 -1.2,1.2c0,0.7 0.5,1.2 1.2,1.2Z" style="fill-rule:nonzero;"/><path d="M8.6,10.6c0.2,0 0.3,0 0.5,-0.1l13.8,-6.8c0.5,-0.3 0.7,-0.9 0.5,-1.4c-0.3,-0.5 -0.9,-0.7 -1.4,-0.5l-13.8,6.7c-0.6,0.3 -0.8,0.9 -0.5,1.5c0.2,0.3 0.6,0.6 0.9,0.6Z" style="fill-rule:nonzero;"/><path d="M42.6,30.5l-23.4,0c-0.6,0 -1.1,0.5 -1.1,1.1c0,0.6 0.5,1.1 1.1,1.1l23.4,0c0.6,0 1.1,-0.5 1.1,-1.1c0,-0.6 -0.5,-1.1 -1.1,-1.1Z" style="fill-rule:nonzero;"/><path d="M42.6,25.2l-23.4,0c-0.6,0 -1.1,0.5 -1.1,1.1c0,0.6 0.5,1.1 1.1,1.1l23.4,0c0.6,0 1.1,-0.5 1.1,-1.1c0,-0.6 -0.5,-1.1 -1.1,-1.1Z" style="fill-rule:nonzero;"/><path d="M32,39.2l3.2,0l0,7.4l-3.2,0l0,-7.4Zm-5.3,0l3.2,0l0,7.4l-3.2,0l0,-7.4Zm4.1,-34.8l15.8,7.8l-5.1,0l-21.4,0l-5.1,0l15.8,-7.8Zm-21.1,10l42.6,0l0,2.1l-1.1,0l-40.5,0l-1,0l0,-2.1Zm2.1,34.4l41.4,0l0,2.2l-1.1,0l-2.1,0l-38.2,0l-2.1,0l-1.1,0l0,-2.2l3.2,0Zm-10.7,6.6c-0.6,0 -1.1,0.5 -1.1,1.1c0,0.6 0.5,1.1 1.1,1.1l60.1,0c0.6,0 1.1,-0.5 1.1,-1.1c0,-0.6 -0.5,-1.1 -1.1,-1.1l-2.5,0l0,-16.2c1.4,-0.1 2.6,-0.9 3.3,-2.1c0.9,-1.5 0.8,-3.5 -0.3,-4.9c-0.4,-0.5 -1,-0.6 -1.5,-0.2c-0.5,0.4 -0.6,1 -0.2,1.5c0.6,0.7 0.6,1.7 0.1,2.5c-0.3,0.6 -0.9,0.9 -1.5,1l0,-6.3c0,-0.6 -0.5,-1.1 -1.1,-1.1c-0.6,0 -1.1,0.5 -1.1,1.1l0,20.3l-1.2,0l0,-3.3c0,-0.6 -0.5,-1.1 -1.1,-1.1l-2.1,0l0,-4.4c-1,-0.7 -1.8,-1.7 -2.1,-2.9l0,7.3l-2.1,0l0,-25.9l-2.1,0l0,25.9l-8.5,0l0,-8.5c0,-0.6 -0.5,-1.1 -1.1,-1.1l-5.3,0l-5.3,0c-0.6,0 -1.1,0.5 -1.1,1.1l0,8.5l-8.4,0l0,-25.9l-2.1,0l0,25.9l-2.1,0l0,-11.6l0,-3.1l0,-0.1l0,-2l0,-11.2l38.2,0l0,9.8c0.2,-0.7 0.4,-1.5 0.8,-2.1c0.3,-0.6 0.8,-1 1.3,-1.4l0,-6.2l1.1,0c0.6,0 1.1,-0.5 1.1,-1.1l0,-4.2c0,-0.6 -0.5,-1.1 -1.1,-1.1l-1.9,0l-20.1,-10c-0.3,-0.1 -0.6,-0.1 -0.9,0l-20.1,10l-1.6,0c-0.6,0 -1.1,0.5 -1.1,1.1l0,4.2c0,0.6 0.5,1.1 1.1,1.1l1.1,0l0,28.1l-2.2,0c-0.6,0 -1.1,0.5 -1.1,1.1l0,3.1l-2,0c-0.6,0 -1.1,0.5 -1.1,1.1l0,3.3l-2.2,0Zm55.3,0l-4.2,0l-40.4,0l-2.1,0l-4.3,0l0,-2.2l50.9,0l0,2.2l0.1,0Z" style="fill-rule:nonzero;"/></g></g><defs><linearGradient id="_Linear1" x1="0" y1="0" x2="1" y2="0" gradientUnits="userSpaceOnUse" gradientTransform="matrix(40.4385,0,0,2.00191,10.7566,19.7016)"><stop offset="0" style="stop-color:#5acc01;stop-opacity:1"/><stop offset="0.25" style="stop-color:#61dd01;stop-opacity:1"/><stop offset="0.57" style="stop-color:#4db001;stop-opacity:1"/><stop offset="1" style="stop-color:#214a00;stop-opacity:1"/></linearGradient><linearGradient id="_Linear2" x1="0" y1="0" x2="1" y2="0" gradientUnits="userSpaceOnUse" gradientTransform="matrix(16.2154,0,0,7.30696,43.5227,3.65594)"><stop offset="0" style="stop-color:#5acc01;stop-opacity:1"/><stop offset="0.25" style="stop-color:#61dd01;stop-opacity:1"/><stop offset="0.57" style="stop-color:#4db001;stop-opacity:1"/><stop offset="1" style="stop-color:#214a00;stop-opacity:1"/></linearGradient><linearGradient id="_Linear3" x1="0" y1="0" x2="1" y2="0" gradientUnits="userSpaceOnUse" gradientTransform="matrix(12.2294,0,0,14.8646,52.8579,33.9373)"><stop offset="0" style="stop-color:#5acc01;stop-opacity:1"/><stop offset="0.25" style="stop-color:#61dd01;stop-opacity:1"/><stop offset="0.57" style="stop-color:#4db001;stop-opacity:1"/><stop offset="1" style="stop-color:#214a00;stop-opacity:1"/></linearGradient></defs></svg>