<?xml version="1.0" encoding="UTF-8" standalone="no"?><!DOCTYPE svg PUBLIC "-//W3C//DTD SVG 1.1//EN" "http://www.w3.org/Graphics/SVG/1.1/DTD/svg11.dtd"><svg width="100%" height="100%" viewBox="0 0 450 405" version="1.1" xmlns="http://www.w3.org/2000/svg" xmlns:xlink="http://www.w3.org/1999/xlink" xml:space="preserve" xmlns:serif="http://www.serif.com/" style="fill-rule:evenodd;clip-rule:evenodd;stroke-miterlimit:10;"><g><path id="Shape-1" d="M224.915,10.35c-60.389,0 -109.336,49.276 -109.336,110.07c0,107.539 109.336,199.15 109.336,199.15c0,0 109.336,-89.127 109.336,-199.15c0,-60.794 -48.947,-110.07 -109.336,-110.07" style="fill:none;stroke:#000;stroke-width:19px;"/><g><path d="M199.322,197.562l6.906,19.375l7.437,-20.219c0.584,-1.625 1.157,-2.776 1.719,-3.453c0.563,-0.677 1.417,-1.016 2.563,-1.016c1.083,0 2.005,0.365 2.765,1.094c0.761,0.729 1.141,1.573 1.141,2.531c0,0.375 -0.068,0.813 -0.203,1.313c-0.136,0.5 -0.292,0.968 -0.469,1.406c-0.177,0.437 -0.38,0.937 -0.609,1.5l-8.188,20.312c-0.229,0.584 -0.526,1.323 -0.891,2.219c-0.364,0.896 -0.77,1.662 -1.218,2.297c-0.448,0.635 -1,1.13 -1.657,1.484c-0.656,0.355 -1.453,0.532 -2.39,0.532c-1.209,0 -2.172,-0.276 -2.891,-0.828c-0.719,-0.553 -1.25,-1.157 -1.594,-1.813c-0.343,-0.656 -0.921,-1.953 -1.734,-3.891l-8.125,-20.093c-0.187,-0.5 -0.38,-1 -0.578,-1.5c-0.198,-0.5 -0.365,-1.011 -0.5,-1.532c-0.135,-0.52 -0.203,-0.968 -0.203,-1.343c0,-0.584 0.177,-1.162 0.531,-1.735c0.354,-0.573 0.844,-1.041 1.469,-1.406c0.625,-0.365 1.302,-0.547 2.031,-0.547c1.417,0 2.391,0.406 2.922,1.219c0.531,0.812 1.12,2.177 1.766,4.094Z" style="fill:#5acc01;fill-rule:nonzero;"/><path d="M235.165,201.374c1.417,-1.687 2.959,-2.937 4.625,-3.75c1.667,-0.812 3.532,-1.219 5.594,-1.219c1.979,0 3.807,0.37 5.484,1.11c1.678,0.739 3.146,1.791 4.407,3.156c1.26,1.365 2.234,2.974 2.922,4.828c0.687,1.854 1.031,3.792 1.031,5.813c0,2.937 -0.672,5.604 -2.016,8c-1.344,2.396 -3.219,4.265 -5.625,5.609c-2.406,1.344 -5.13,2.016 -8.172,2.016c-3.5,0 -6.521,-0.854 -9.062,-2.563c-2.542,-1.708 -4.485,-4.234 -5.828,-7.578c-1.344,-3.344 -2.016,-7.432 -2.016,-12.266c0,-3.937 0.406,-7.458 1.219,-10.562c0.812,-3.104 1.979,-5.677 3.5,-7.719c1.521,-2.041 3.364,-3.583 5.531,-4.625c2.167,-1.041 4.635,-1.562 7.406,-1.562c2.667,0 5.016,0.521 7.047,1.562c2.031,1.042 3.563,2.334 4.594,3.875c1.031,1.542 1.547,3.021 1.547,4.438c0,0.854 -0.323,1.63 -0.969,2.328c-0.646,0.698 -1.469,1.047 -2.469,1.047c-0.875,0 -1.687,-0.276 -2.437,-0.828c-0.75,-0.553 -1.302,-1.318 -1.656,-2.297c-0.48,-1.25 -1.24,-2.256 -2.282,-3.016c-1.041,-0.76 -2.25,-1.141 -3.625,-1.141c-1.104,0 -2.203,0.318 -3.297,0.954c-1.093,0.635 -2.015,1.494 -2.765,2.578c-1.521,2.208 -2.417,6.146 -2.688,11.812Zm8.438,19.406c2.104,0 3.844,-0.859 5.219,-2.578c1.375,-1.718 2.062,-3.974 2.062,-6.765c0,-1.896 -0.323,-3.526 -0.969,-4.891c-0.646,-1.365 -1.531,-2.406 -2.656,-3.125c-1.125,-0.719 -2.365,-1.078 -3.719,-1.078c-1.291,0 -2.526,0.344 -3.703,1.031c-1.177,0.688 -2.125,1.682 -2.844,2.985c-0.718,1.302 -1.078,2.828 -1.078,4.578c0,2.812 0.729,5.156 2.188,7.031c1.458,1.875 3.291,2.812 5.5,2.812Z" style="fill:#5acc01;fill-rule:nonzero;"/></g><path id="IP" d="M191.841,162.112l0,-60.864c0,-4.291 -3.613,-7.904 -7.904,-7.904c-4.517,0 -8.13,3.613 -8.13,7.904l0,60.864c0,4.291 3.613,7.905 7.904,7.905c4.517,0 8.13,-3.614 8.13,-7.905Zm56.911,-68.091c16.392,0.024 25.294,11.081 25.294,24.278c0,13.099 -9.034,24.278 -25.294,24.278l-19.197,0l0,19.535c0,4.291 -3.613,7.905 -8.13,7.905c-4.291,0 -7.905,-3.614 -7.905,-7.905l0,-59.057c0,-4.952 4.038,-9.006 9.034,-9.034l26.198,0Zm-2.146,34.441c6.348,-0.02 11.066,-3.968 11.066,-10.163c0,-6.323 -4.742,-10.163 -11.066,-10.163l-17.051,0l0,20.326l17.051,0Z" style="fill:#5acc01;"/><path d="M300.055,228.816c1.973,0.436 3.096,2.557 2.169,4.676c-0.166,0.379 -0.335,0.757 -0.507,1.133c-7.654,16.732 -19.876,31.041 -32.53,44.728c-7.829,8.468 -16.005,16.656 -24.568,24.322c0,0 -1.841,1.35 -3.455,0.638c-1.717,-0.757 -2.366,-3.238 -1.217,-4.74c0.557,-0.728 0.803,-0.791 1.153,-1.107c17.586,-15.927 34.295,-33.154 47.418,-53.096c3.053,-4.639 5.859,-9.455 8.077,-14.546c0,0 1.329,-2.27 3.46,-2.008Z" style="fill:#5acc01;fill-rule:nonzero;"/><g id="Dedicated"><path id="Rectangle-1-copy" d="M450.818,382.093c0,-2.622 -2.128,-4.75 -4.75,-4.75l-440.499,0c-2.622,0 -4.75,2.128 -4.75,4.75l0,9.5c0,2.622 2.128,4.75 4.75,4.75l440.499,0c2.622,0 4.75,-2.128 4.75,-4.75l0,-9.5Z"/><path id="Rounded-Rectangle-1-copy-7" d="M241.055,375.992c0,-4.281 -3.198,-7.756 -7.138,-7.756l-18.34,0c-3.94,0 -7.138,3.475 -7.138,7.756l0,19.876c0,4.281 3.198,7.757 7.138,7.757l18.34,0c3.94,0 7.138,-3.476 7.138,-7.757l0,-19.876Z" style="fill:#5acc01;"/></g></g></svg>