<?xml version="1.0" encoding="UTF-8" standalone="no"?><!DOCTYPE svg PUBLIC "-//W3C//DTD SVG 1.1//EN" "http://www.w3.org/Graphics/SVG/1.1/DTD/svg11.dtd"><svg width="100%" height="100%" viewBox="0 0 285 282" version="1.1" xmlns="http://www.w3.org/2000/svg" xmlns:xlink="http://www.w3.org/1999/xlink" xml:space="preserve" xmlns:serif="http://www.serif.com/" style="fill-rule:evenodd;clip-rule:evenodd;stroke-miterlimit:10;"><g id="Layer1"><g><g opacity="0.5"><rect x="18.6" y="48.1" width="3.4" height="12.8" style="fill:url(#_Linear1);"/><rect x="18.6" y="64.4" width="3.4" height="3.5" style="fill:url(#_Linear2);"/><rect x="18.6" y="116.8" width="3.4" height="3.5" style="fill:url(#_Linear3);"/><rect x="18.6" y="85.4" width="3.4" height="28" style="fill:url(#_Linear4);"/><rect x="27.1" y="80" width="3.4" height="12.8" style="fill:url(#_Linear5);"/><rect x="27.1" y="96.3" width="3.4" height="3.5" style="fill:url(#_Linear6);"/><rect x="52.6" y="0.2" width="3.4" height="12.8" style="fill:url(#_Linear7);"/><rect x="52.6" y="16.5" width="3.4" height="3.5" style="fill:url(#_Linear8);"/><rect x="52.6" y="69" width="3.4" height="3.5" style="fill:url(#_Linear9);"/><rect x="52.6" y="37.5" width="3.4" height="28" style="fill:url(#_Linear10);"/><rect x="61.1" y="32.1" width="3.4" height="12.8" style="fill:url(#_Linear11);"/><rect x="61.1" y="48.4" width="3.4" height="3.5" style="fill:url(#_Linear12);"/><rect x="61.1" y="69.4" width="3.4" height="28" style="fill:url(#_Linear13);"/><rect x="61.1" y="100.9" width="3.4" height="3.5" style="fill:url(#_Linear14);"/><rect x="225.5" y="48.1" width="3.4" height="12.8" style="fill:url(#_Linear15);"/><rect x="225.5" y="64.4" width="3.4" height="3.5" style="fill:url(#_Linear16);"/><rect x="225.5" y="85.4" width="3.4" height="28" style="fill:url(#_Linear17);"/><rect x="225.5" y="116.8" width="3.4" height="3.5" style="fill:url(#_Linear18);"/><rect x="234" y="80" width="3.4" height="12.8" style="fill:url(#_Linear19);"/><rect x="234" y="96.3" width="3.4" height="3.5" style="fill:url(#_Linear20);"/><rect x="191.5" y="0.2" width="3.4" height="12.8" style="fill:url(#_Linear21);"/><rect x="191.5" y="16.5" width="3.4" height="3.5" style="fill:url(#_Linear22);"/><rect x="191.5" y="69" width="3.4" height="3.5" style="fill:url(#_Linear23);"/><rect x="191.5" y="37.5" width="3.4" height="28" style="fill:url(#_Linear24);"/><rect x="200" y="32.1" width="3.4" height="12.8" style="fill:url(#_Linear25);"/><rect x="200" y="48.4" width="3.4" height="3.5" style="fill:url(#_Linear26);"/><rect x="200" y="100.9" width="3.4" height="3.5" style="fill:url(#_Linear27);"/><rect x="200" y="69.4" width="3.4" height="28" style="fill:url(#_Linear28);"/><path d="M30.5,133.1l0,-15.8l-3.4,0l0,18.2l3.4,-2.4Z" style="fill:url(#_Linear29);fill-rule:nonzero;"/><path d="M56,115.7l0,-25.7l-3.4,0l0,27.9l0.2,0l3.2,-2.2Z" style="fill:url(#_Linear30);fill-rule:nonzero;"/><path d="M194.9,112.6l0,-22.6l-3.4,0l0,20.2l3.4,2.4Z" style="fill:url(#_Linear31);fill-rule:nonzero;"/><path d="M237.5,141.8l0,-24.5l-3.5,0l0,22.2l3.5,2.3Z" style="fill:url(#_Linear32);fill-rule:nonzero;"/></g></g><path d="M12.1,189.1l143,82c2.2,1.2 4.8,1.2 6.9,0l112.3,-63.8c1.5,-0.8 1.5,-2.9 0,-3.8l-142.3,-83.4c-2.2,-1.3 -4.9,-1.3 -7,0l-113,65.2c-1.4,0.8 -1.4,2.9 0.1,3.8Z" style="fill:none;stroke:url(#_Linear33);stroke-width:2px;"/><path d="M12.1,177.5l143,82c2.2,1.2 4.8,1.2 6.9,0l112.3,-63.8c1.5,-0.8 1.5,-2.9 0,-3.8l-142.3,-83.4c-2.2,-1.3 -4.9,-1.3 -7,0l-113,65.2c-1.4,0.9 -1.4,3 0.1,3.8Z" style="fill:none;stroke:url(#_Linear34);stroke-width:2px;"/><path d="M12.1,166l143,82c2.2,1.2 4.8,1.2 6.9,0l112.3,-63.8c1.5,-0.8 1.5,-2.9 0,-3.8l-142.2,-83.4c-2.2,-1.3 -4.9,-1.3 -7,0l-113,65.2c-1.5,0.9 -1.5,3 0,3.8Z" style="fill:none;stroke:url(#_Linear35);stroke-width:2px;"/><path d="M273.7,169.8c0,-0.7 -0.4,-1.4 -1.1,-1.8l-140.4,-82.3c-2.1,-1.3 -4.8,-1.3 -6.9,0l-111.5,64.3c-0.7,0.4 -1.1,1.1 -1.1,1.9l0,1c0,0.7 0.4,1.4 1.1,1.9l141.1,80.9c2.1,1.2 4.7,1.2 6.9,0l110.8,-63c0.7,-0.4 1.1,-1.1 1.1,-1.9l0,-1Z" style="fill:url(#_Linear36);fill-rule:nonzero;"/><path d="M80,156.3l69,39.5c1,0.6 2.3,0.6 3.3,0l54.2,-30.8c0.7,-0.4 0.7,-1.4 0,-1.8l-68.6,-40.2c-1,-0.6 -2.3,-0.6 -3.4,0l-54.5,31.4c-0.7,0.5 -0.7,1.5 0,1.9Z" style="fill:url(#_Linear37);fill-rule:nonzero;"/><path d="M133.7,150.9c0.6,0.4 1.4,0.6 2.3,0.6c0.9,0 1.6,-0.1 2.2,-0.4l12.4,-6.4l31.9,18.5c0.6,0.4 1,0.8 1,1.3c0,0.5 -0.3,0.9 -0.9,1.2l-30.6,15.9c-0.6,0.3 -1.3,0.5 -2.2,0.4c-0.9,0 -1.6,-0.3 -2.3,-0.6l-45.1,-26.1c-0.6,-0.4 -1,-0.8 -1,-1.3c0,-0.5 0.3,-0.9 0.9,-1.2l18.2,-9.5l13.2,7.6Zm13.2,-8.3c-0.6,-0.4 -1.4,-0.6 -2.3,-0.6l-18.4,-0.9c-0.9,0 -1.6,0.1 -2.2,0.4l-0.5,0.3l12.4,7.2l11.7,-6.1l-0.7,-0.3Zm2.4,10.9c-0.3,-0.2 -0.7,-0.3 -1.1,-0.3c-0.4,0 -0.8,0 -1.1,0.2l-15.3,7.9c-0.3,0.2 -0.4,0.4 -0.4,0.6c0,0.2 0.2,0.5 0.5,0.6l0.8,0.5c0.3,0.2 0.7,0.3 1.1,0.3c0.4,0 0.8,0 1.1,-0.2l15.3,-7.9c0.3,-0.2 0.4,-0.4 0.4,-0.6c0,-0.2 -0.2,-0.5 -0.5,-0.6l-0.8,-0.5Zm7,4.1l-0.8,-0.5c-0.3,-0.2 -0.7,-0.3 -1.1,-0.3c-0.4,0 -0.8,0 -1.1,0.2l-15.3,7.9c-0.3,0.2 -0.4,0.4 -0.4,0.6c0,0.2 0.2,0.5 0.5,0.6l0.8,0.5c0.3,0.2 0.7,0.3 1.1,0.3c0.4,0 0.8,0 1.1,-0.2l15.3,-7.9c0.3,-0.2 0.4,-0.4 0.4,-0.6c0,-0.2 -0.2,-0.4 -0.5,-0.6Zm6.2,3.6l-0.8,-0.5c-0.3,-0.2 -0.7,-0.3 -1.1,-0.3c-0.4,0 -0.8,0 -1.1,0.2l-15.3,7.9c-0.3,0.2 -0.4,0.4 -0.4,0.6c0,0.2 0.2,0.5 0.5,0.6l0.8,0.5c0.3,0.2 0.7,0.3 1.1,0.3c0.4,0 0.8,0 1.1,-0.2l15.3,-7.9c0.3,-0.2 0.4,-0.4 0.4,-0.6c0,-0.2 -0.2,-0.4 -0.5,-0.6Z" style="fill:url(#_Linear38);fill-rule:nonzero;"/><path d="M134.7,149.9c0.6,0.4 1.4,0.6 2.3,0.6c0.9,0 1.6,-0.1 2.2,-0.4l12.4,-6.4l31.9,18.5c0.6,0.4 1,0.8 1,1.3c0,0.5 -0.3,0.9 -0.9,1.2l-30.6,15.9c-0.6,0.3 -1.3,0.5 -2.2,0.4c-0.9,0 -1.6,-0.3 -2.3,-0.6l-45.1,-26.1c-0.6,-0.4 -1,-0.8 -1,-1.3c0,-0.5 0.3,-0.9 0.9,-1.2l18.2,-9.5l13.2,7.6Zm13.2,-8.3c-0.6,-0.4 -1.4,-0.6 -2.3,-0.6l-18.4,-0.9c-0.9,0 -1.6,0.1 -2.2,0.4l-0.5,0.3l12.4,7.2l11.7,-6.1l-0.7,-0.3Zm2.4,10.9c-0.3,-0.2 -0.7,-0.3 -1.1,-0.3c-0.4,0 -0.8,0 -1.1,0.2l-15.3,7.9c-0.3,0.2 -0.4,0.4 -0.4,0.6c0,0.2 0.2,0.5 0.5,0.6l0.8,0.5c0.3,0.2 0.7,0.3 1.1,0.3c0.4,0 0.8,0 1.1,-0.2l15.3,-7.9c0.3,-0.2 0.4,-0.4 0.4,-0.6c0,-0.2 -0.2,-0.5 -0.5,-0.6l-0.8,-0.5Zm7,4.1l-0.8,-0.5c-0.3,-0.2 -0.7,-0.3 -1.1,-0.3c-0.4,0 -0.8,0 -1.1,0.2l-15.3,7.9c-0.3,0.2 -0.4,0.4 -0.4,0.6c0,0.2 0.2,0.5 0.5,0.6l0.8,0.5c0.3,0.2 0.7,0.3 1.1,0.3c0.4,0 0.8,0 1.1,-0.2l15.3,-7.9c0.3,-0.2 0.4,-0.4 0.4,-0.6c0,-0.2 -0.2,-0.4 -0.5,-0.6Zm6.2,3.6l-0.8,-0.5c-0.3,-0.2 -0.7,-0.3 -1.1,-0.3c-0.4,0 -0.8,0 -1.1,0.2l-15.3,7.9c-0.3,0.2 -0.4,0.4 -0.4,0.6c0,0.2 0.2,0.5 0.5,0.6l0.8,0.5c0.3,0.2 0.7,0.3 1.1,0.3c0.4,0 0.8,0 1.1,-0.2l15.3,-7.9c0.3,-0.2 0.4,-0.4 0.4,-0.6c0,-0.2 -0.2,-0.4 -0.5,-0.6Z" style="fill:url(#_Linear39);fill-rule:nonzero;"/><path d="M133.7,120.9c0.6,0.4 1.4,0.6 2.3,0.6c0.9,0 1.6,-0.1 2.2,-0.4l12.4,-6.4l31.9,18.5c0.6,0.4 1,0.8 1,1.3c0,0.5 -0.3,0.9 -0.9,1.2l-30.6,15.9c-0.6,0.3 -1.3,0.5 -2.2,0.4c-0.9,0 -1.6,-0.3 -2.3,-0.6l-45.1,-26.1c-0.6,-0.4 -1,-0.8 -1,-1.3c0,-0.5 0.3,-0.9 0.9,-1.2l18.2,-9.5l13.2,7.6Zm13.2,-8.3c-0.6,-0.4 -1.4,-0.6 -2.3,-0.6l-18.4,-0.9c-0.9,0 -1.6,0.1 -2.2,0.4l-0.5,0.3l12.4,7.2l11.7,-6.1l-0.7,-0.3Zm2.4,10.9c-0.3,-0.2 -0.7,-0.3 -1.1,-0.3c-0.4,0 -0.8,0 -1.1,0.2l-15.3,7.9c-0.3,0.2 -0.4,0.4 -0.4,0.6c0,0.2 0.2,0.5 0.5,0.6l0.8,0.5c0.3,0.2 0.7,0.3 1.1,0.3c0.4,0 0.8,0 1.1,-0.2l15.3,-7.9c0.3,-0.2 0.4,-0.4 0.4,-0.6c0,-0.2 -0.2,-0.5 -0.5,-0.6l-0.8,-0.5Zm7,4.1l-0.8,-0.5c-0.3,-0.2 -0.7,-0.3 -1.1,-0.3c-0.4,0 -0.8,0 -1.1,0.2l-15.3,7.9c-0.3,0.2 -0.4,0.4 -0.4,0.6c0,0.2 0.2,0.5 0.5,0.6l0.8,0.5c0.3,0.2 0.7,0.3 1.1,0.3c0.4,0 0.8,0 1.1,-0.2l15.3,-7.9c0.3,-0.2 0.4,-0.4 0.4,-0.6c0,-0.2 -0.2,-0.4 -0.5,-0.6Zm6.2,3.6l-0.8,-0.5c-0.3,-0.2 -0.7,-0.3 -1.1,-0.3c-0.4,0 -0.8,0 -1.1,0.2l-15.3,7.9c-0.3,0.2 -0.4,0.4 -0.4,0.6c0,0.2 0.2,0.5 0.5,0.6l0.8,0.5c0.3,0.2 0.7,0.3 1.1,0.3c0.4,0 0.8,0 1.1,-0.2l15.3,-7.9c0.3,-0.2 0.4,-0.4 0.4,-0.6c0,-0.2 -0.2,-0.4 -0.5,-0.6Z" style="fill:url(#_Linear40);fill-rule:nonzero;"/><path d="M134.7,119.9c0.6,0.4 1.4,0.6 2.3,0.6c0.9,0 1.6,-0.1 2.2,-0.4l12.4,-6.4l31.9,18.5c0.6,0.4 1,0.8 1,1.3c0,0.5 -0.3,0.9 -0.9,1.2l-30.6,15.9c-0.6,0.3 -1.3,0.5 -2.2,0.4c-0.9,0 -1.6,-0.3 -2.3,-0.6l-45.1,-26.1c-0.6,-0.4 -1,-0.8 -1,-1.3c0,-0.5 0.3,-0.9 0.9,-1.2l18.2,-9.5l13.2,7.6Zm13.2,-8.3c-0.6,-0.4 -1.4,-0.6 -2.3,-0.6l-18.4,-0.9c-0.9,0 -1.6,0.1 -2.2,0.4l-0.5,0.3l12.4,7.2l11.7,-6.1l-0.7,-0.3Zm2.4,10.9c-0.3,-0.2 -0.7,-0.3 -1.1,-0.3c-0.4,0 -0.8,0 -1.1,0.2l-15.3,7.9c-0.3,0.2 -0.4,0.4 -0.4,0.6c0,0.2 0.2,0.5 0.5,0.6l0.8,0.5c0.3,0.2 0.7,0.3 1.1,0.3c0.4,0 0.8,0 1.1,-0.2l15.3,-7.9c0.3,-0.2 0.4,-0.4 0.4,-0.6c0,-0.2 -0.2,-0.5 -0.5,-0.6l-0.8,-0.5Zm7,4.1l-0.8,-0.5c-0.3,-0.2 -0.7,-0.3 -1.1,-0.3c-0.4,0 -0.8,0 -1.1,0.2l-15.3,7.9c-0.3,0.2 -0.4,0.4 -0.4,0.6c0,0.2 0.2,0.5 0.5,0.6l0.8,0.5c0.3,0.2 0.7,0.3 1.1,0.3c0.4,0 0.8,0 1.1,-0.2l15.3,-7.9c0.3,-0.2 0.4,-0.4 0.4,-0.6c0,-0.2 -0.2,-0.4 -0.5,-0.6Zm6.2,3.6l-0.8,-0.5c-0.3,-0.2 -0.7,-0.3 -1.1,-0.3c-0.4,0 -0.8,0 -1.1,0.2l-15.3,7.9c-0.3,0.2 -0.4,0.4 -0.4,0.6c0,0.2 0.2,0.5 0.5,0.6l0.8,0.5c0.3,0.2 0.7,0.3 1.1,0.3c0.4,0 0.8,0 1.1,-0.2l15.3,-7.9c0.3,-0.2 0.4,-0.4 0.4,-0.6c0,-0.2 -0.2,-0.4 -0.5,-0.6Z" style="fill:url(#_Linear41);fill-rule:nonzero;"/><path d="M133.7,90.9c0.6,0.4 1.4,0.6 2.3,0.6c0.9,0 1.6,-0.1 2.2,-0.4l12.4,-6.4l31.9,18.5c0.6,0.4 1,0.8 1,1.3c0,0.5 -0.3,0.9 -0.9,1.2l-30.6,15.9c-0.6,0.3 -1.3,0.5 -2.2,0.4c-0.9,0 -1.6,-0.3 -2.3,-0.6l-45.1,-26.1c-0.6,-0.4 -1,-0.8 -1,-1.3c0,-0.5 0.3,-0.9 0.9,-1.2l18.2,-9.5l13.2,7.6Zm13.2,-8.3c-0.6,-0.4 -1.4,-0.6 -2.3,-0.6l-18.4,-0.9c-0.9,0 -1.6,0.1 -2.2,0.4l-0.5,0.3l12.4,7.2l11.7,-6.1l-0.7,-0.3Zm2.4,10.9c-0.3,-0.2 -0.7,-0.3 -1.1,-0.3c-0.4,0 -0.8,0 -1.1,0.2l-15.3,7.9c-0.3,0.2 -0.4,0.4 -0.4,0.6c0,0.2 0.2,0.5 0.5,0.6l0.8,0.5c0.3,0.2 0.7,0.3 1.1,0.3c0.4,0 0.8,0 1.1,-0.2l15.3,-7.9c0.3,-0.2 0.4,-0.4 0.4,-0.6c0,-0.2 -0.2,-0.5 -0.5,-0.6l-0.8,-0.5Zm7,4.1l-0.8,-0.5c-0.3,-0.2 -0.7,-0.3 -1.1,-0.3c-0.4,0 -0.8,0 -1.1,0.2l-15.3,7.9c-0.3,0.2 -0.4,0.4 -0.4,0.6c0,0.2 0.2,0.5 0.5,0.6l0.8,0.5c0.3,0.2 0.7,0.3 1.1,0.3c0.4,0 0.8,0 1.1,-0.2l15.3,-7.9c0.3,-0.2 0.4,-0.4 0.4,-0.6c0,-0.2 -0.2,-0.4 -0.5,-0.6Zm6.2,3.6l-0.8,-0.5c-0.3,-0.2 -0.7,-0.3 -1.1,-0.3c-0.4,0 -0.8,0 -1.1,0.2l-15.3,7.9c-0.3,0.2 -0.4,0.4 -0.4,0.6c0,0.2 0.2,0.5 0.5,0.6l0.8,0.5c0.3,0.2 0.7,0.3 1.1,0.3c0.4,0 0.8,0 1.1,-0.2l15.3,-7.9c0.3,-0.2 0.4,-0.4 0.4,-0.6c0,-0.2 -0.2,-0.4 -0.5,-0.6Z" style="fill:url(#_Linear42);fill-rule:nonzero;"/><path d="M134.7,89.9c0.6,0.4 1.4,0.6 2.3,0.6c0.9,0 1.6,-0.1 2.2,-0.4l12.4,-6.4l31.9,18.5c0.6,0.4 1,0.8 1,1.3c0,0.5 -0.3,0.9 -0.9,1.2l-30.6,15.9c-0.6,0.3 -1.3,0.5 -2.2,0.4c-0.9,0 -1.6,-0.3 -2.3,-0.6l-45.1,-26.1c-0.6,-0.4 -1,-0.8 -1,-1.3c0,-0.5 0.3,-0.9 0.9,-1.2l18.2,-9.5l13.2,7.6Zm13.2,-8.3c-0.6,-0.4 -1.4,-0.6 -2.3,-0.6l-18.4,-0.9c-0.9,0 -1.6,0.1 -2.2,0.4l-0.5,0.3l12.4,7.2l11.7,-6.1l-0.7,-0.3Zm2.4,10.9c-0.3,-0.2 -0.7,-0.3 -1.1,-0.3c-0.4,0 -0.8,0 -1.1,0.2l-15.3,7.9c-0.3,0.2 -0.4,0.4 -0.4,0.6c0,0.2 0.2,0.5 0.5,0.6l0.8,0.5c0.3,0.2 0.7,0.3 1.1,0.3c0.4,0 0.8,0 1.1,-0.2l15.3,-7.9c0.3,-0.2 0.4,-0.4 0.4,-0.6c0,-0.2 -0.2,-0.5 -0.5,-0.6l-0.8,-0.5Zm7,4.1l-0.8,-0.5c-0.3,-0.2 -0.7,-0.3 -1.1,-0.3c-0.4,0 -0.8,0 -1.1,0.2l-15.3,7.9c-0.3,0.2 -0.4,0.4 -0.4,0.6c0,0.2 0.2,0.5 0.5,0.6l0.8,0.5c0.3,0.2 0.7,0.3 1.1,0.3c0.4,0 0.8,0 1.1,-0.2l15.3,-7.9c0.3,-0.2 0.4,-0.4 0.4,-0.6c0,-0.2 -0.2,-0.4 -0.5,-0.6Zm6.2,3.6l-0.8,-0.5c-0.3,-0.2 -0.7,-0.3 -1.1,-0.3c-0.4,0 -0.8,0 -1.1,0.2l-15.3,7.9c-0.3,0.2 -0.4,0.4 -0.4,0.6c0,0.2 0.2,0.5 0.5,0.6l0.8,0.5c0.3,0.2 0.7,0.3 1.1,0.3c0.4,0 0.8,0 1.1,-0.2l15.3,-7.9c0.3,-0.2 0.4,-0.4 0.4,-0.6c0,-0.2 -0.2,-0.4 -0.5,-0.6Z" style="fill:url(#_Linear43);fill-rule:nonzero;"/><path d="M206.2,40.2l-127.5,0l0,115.2c0,0.4 0.2,0.7 0.5,0.9l69,39.5c1,0.6 2.3,0.6 3.3,0l54.2,-30.8c0.4,-0.2 0.5,-0.6 0.5,-0.9l0,-123.9Z" style="fill:url(#_Linear44);fill-rule:nonzero;"/></g><defs><linearGradient id="_Linear1" x1="0" y1="0" x2="1" y2="0" gradientUnits="userSpaceOnUse" gradientTransform="matrix(2.12634e-16,-12.7199,3.47258,7.7887e-16,20.3024,60.8585)"><stop offset="0" style="stop-color:#5acc01;stop-opacity:1"/><stop offset="1" style="stop-color:#40e5df;stop-opacity:0"/></linearGradient><linearGradient id="_Linear2" x1="0" y1="0" x2="1" y2="0" gradientUnits="userSpaceOnUse" gradientTransform="matrix(2.12634e-16,-3.4781,3.47258,2.12972e-16,20.3024,67.8886)"><stop offset="0" style="stop-color:#5acc01;stop-opacity:1"/><stop offset="1" style="stop-color:#40e5df;stop-opacity:0"/></linearGradient><linearGradient id="_Linear3" x1="0" y1="0" x2="1" y2="0" gradientUnits="userSpaceOnUse" gradientTransform="matrix(2.12634e-16,-3.4781,3.47258,2.12972e-16,20.3024,120.289)"><stop offset="0" style="stop-color:#5acc01;stop-opacity:1"/><stop offset="1" style="stop-color:#40e5df;stop-opacity:0"/></linearGradient><linearGradient id="_Linear4" x1="0" y1="0" x2="1" y2="0" gradientUnits="userSpaceOnUse" gradientTransform="matrix(2.12634e-16,-27.8248,3.47258,1.70378e-15,20.3024,113.309)"><stop offset="0" style="stop-color:#5acc01;stop-opacity:1"/><stop offset="1" style="stop-color:#40e5df;stop-opacity:0"/></linearGradient><linearGradient id="_Linear5" x1="0" y1="0" x2="1" y2="0" gradientUnits="userSpaceOnUse" gradientTransform="matrix(2.12634e-16,-12.7199,3.47258,7.7887e-16,28.8024,92.7585)"><stop offset="0" style="stop-color:#5acc01;stop-opacity:1"/><stop offset="1" style="stop-color:#40e5df;stop-opacity:0"/></linearGradient><linearGradient id="_Linear6" x1="0" y1="0" x2="1" y2="0" gradientUnits="userSpaceOnUse" gradientTransform="matrix(2.12634e-16,-3.4781,3.47258,2.12972e-16,28.8024,99.7886)"><stop offset="0" style="stop-color:#5acc01;stop-opacity:1"/><stop offset="1" style="stop-color:#40e5df;stop-opacity:0"/></linearGradient><linearGradient id="_Linear7" x1="0" y1="0" x2="1" y2="0" gradientUnits="userSpaceOnUse" gradientTransform="matrix(2.12634e-16,-12.7199,3.47258,7.7887e-16,54.3024,12.9585)"><stop offset="0" style="stop-color:#5acc01;stop-opacity:1"/><stop offset="1" style="stop-color:#40e5df;stop-opacity:0"/></linearGradient><linearGradient id="_Linear8" x1="0" y1="0" x2="1" y2="0" gradientUnits="userSpaceOnUse" gradientTransform="matrix(2.12634e-16,-3.4781,3.47258,2.12972e-16,54.3024,19.9886)"><stop offset="0" style="stop-color:#5acc01;stop-opacity:1"/><stop offset="1" style="stop-color:#40e5df;stop-opacity:0"/></linearGradient><linearGradient id="_Linear9" x1="0" y1="0" x2="1" y2="0" gradientUnits="userSpaceOnUse" gradientTransform="matrix(2.12634e-16,-3.4781,3.47258,2.12972e-16,54.3024,72.4886)"><stop offset="0" style="stop-color:#5acc01;stop-opacity:1"/><stop offset="1" style="stop-color:#40e5df;stop-opacity:0"/></linearGradient><linearGradient id="_Linear10" x1="0" y1="0" x2="1" y2="0" gradientUnits="userSpaceOnUse" gradientTransform="matrix(2.12634e-16,-27.8248,3.47258,1.70378e-15,54.3024,65.4092)"><stop offset="0" style="stop-color:#5acc01;stop-opacity:1"/><stop offset="1" style="stop-color:#40e5df;stop-opacity:0"/></linearGradient><linearGradient id="_Linear11" x1="0" y1="0" x2="1" y2="0" gradientUnits="userSpaceOnUse" gradientTransform="matrix(2.12634e-16,-12.7199,3.47258,7.7887e-16,62.8024,44.8585)"><stop offset="0" style="stop-color:#5acc01;stop-opacity:1"/><stop offset="1" style="stop-color:#40e5df;stop-opacity:0"/></linearGradient><linearGradient id="_Linear12" x1="0" y1="0" x2="1" y2="0" gradientUnits="userSpaceOnUse" gradientTransform="matrix(2.12634e-16,-3.4781,3.47258,2.12972e-16,62.8024,51.8886)"><stop offset="0" style="stop-color:#5acc01;stop-opacity:1"/><stop offset="1" style="stop-color:#40e5df;stop-opacity:0"/></linearGradient><linearGradient id="_Linear13" x1="0" y1="0" x2="1" y2="0" gradientUnits="userSpaceOnUse" gradientTransform="matrix(2.12634e-16,-27.8248,3.47258,1.70378e-15,62.8024,97.3092)"><stop offset="0" style="stop-color:#5acc01;stop-opacity:1"/><stop offset="1" style="stop-color:#40e5df;stop-opacity:0"/></linearGradient><linearGradient id="_Linear14" x1="0" y1="0" x2="1" y2="0" gradientUnits="userSpaceOnUse" gradientTransform="matrix(2.12634e-16,-3.4781,3.47258,2.12972e-16,62.8024,104.389)"><stop offset="0" style="stop-color:#5acc01;stop-opacity:1"/><stop offset="1" style="stop-color:#40e5df;stop-opacity:0"/></linearGradient><linearGradient id="_Linear15" x1="0" y1="0" x2="1" y2="0" gradientUnits="userSpaceOnUse" gradientTransform="matrix(2.12634e-16,-12.7199,3.47258,7.7887e-16,227.202,60.8585)"><stop offset="0" style="stop-color:#5acc01;stop-opacity:1"/><stop offset="1" style="stop-color:#40e5df;stop-opacity:0"/></linearGradient><linearGradient id="_Linear16" x1="0" y1="0" x2="1" y2="0" gradientUnits="userSpaceOnUse" gradientTransform="matrix(2.12634e-16,-3.4781,3.47258,2.12972e-16,227.202,67.8886)"><stop offset="0" style="stop-color:#5acc01;stop-opacity:1"/><stop offset="1" style="stop-color:#40e5df;stop-opacity:0"/></linearGradient><linearGradient id="_Linear17" x1="0" y1="0" x2="1" y2="0" gradientUnits="userSpaceOnUse" gradientTransform="matrix(2.12634e-16,-27.8248,3.47258,1.70378e-15,227.202,113.309)"><stop offset="0" style="stop-color:#5acc01;stop-opacity:1"/><stop offset="1" style="stop-color:#40e5df;stop-opacity:0"/></linearGradient><linearGradient id="_Linear18" x1="0" y1="0" x2="1" y2="0" gradientUnits="userSpaceOnUse" gradientTransform="matrix(2.12634e-16,-3.4781,3.47258,2.12972e-16,227.202,120.289)"><stop offset="0" style="stop-color:#5acc01;stop-opacity:1"/><stop offset="1" style="stop-color:#40e5df;stop-opacity:0"/></linearGradient><linearGradient id="_Linear19" x1="0" y1="0" x2="1" y2="0" gradientUnits="userSpaceOnUse" gradientTransform="matrix(2.12634e-16,-12.7199,3.47258,7.7887e-16,235.702,92.7585)"><stop offset="0" style="stop-color:#5acc01;stop-opacity:1"/><stop offset="1" style="stop-color:#40e5df;stop-opacity:0"/></linearGradient><linearGradient id="_Linear20" x1="0" y1="0" x2="1" y2="0" gradientUnits="userSpaceOnUse" gradientTransform="matrix(2.12634e-16,-3.4781,3.47258,2.12972e-16,235.702,99.7886)"><stop offset="0" style="stop-color:#5acc01;stop-opacity:1"/><stop offset="1" style="stop-color:#40e5df;stop-opacity:0"/></linearGradient><linearGradient id="_Linear21" x1="0" y1="0" x2="1" y2="0" gradientUnits="userSpaceOnUse" gradientTransform="matrix(2.12634e-16,-12.7199,3.47258,7.7887e-16,193.202,12.9585)"><stop offset="0" style="stop-color:#5acc01;stop-opacity:1"/><stop offset="1" style="stop-color:#40e5df;stop-opacity:0"/></linearGradient><linearGradient id="_Linear22" x1="0" y1="0" x2="1" y2="0" gradientUnits="userSpaceOnUse" gradientTransform="matrix(2.12634e-16,-3.4781,3.47258,2.12972e-16,193.202,19.9886)"><stop offset="0" style="stop-color:#5acc01;stop-opacity:1"/><stop offset="1" style="stop-color:#40e5df;stop-opacity:0"/></linearGradient><linearGradient id="_Linear23" x1="0" y1="0" x2="1" y2="0" gradientUnits="userSpaceOnUse" gradientTransform="matrix(2.12634e-16,-3.4781,3.47258,2.12972e-16,193.202,72.4886)"><stop offset="0" style="stop-color:#5acc01;stop-opacity:1"/><stop offset="1" style="stop-color:#40e5df;stop-opacity:0"/></linearGradient><linearGradient id="_Linear24" x1="0" y1="0" x2="1" y2="0" gradientUnits="userSpaceOnUse" gradientTransform="matrix(2.12634e-16,-27.8248,3.47258,1.70378e-15,193.202,65.4092)"><stop offset="0" style="stop-color:#5acc01;stop-opacity:1"/><stop offset="1" style="stop-color:#40e5df;stop-opacity:0"/></linearGradient><linearGradient id="_Linear25" x1="0" y1="0" x2="1" y2="0" gradientUnits="userSpaceOnUse" gradientTransform="matrix(2.12634e-16,-12.7199,3.47258,7.7887e-16,201.702,44.8585)"><stop offset="0" style="stop-color:#5acc01;stop-opacity:1"/><stop offset="1" style="stop-color:#40e5df;stop-opacity:0"/></linearGradient><linearGradient id="_Linear26" x1="0" y1="0" x2="1" y2="0" gradientUnits="userSpaceOnUse" gradientTransform="matrix(2.12634e-16,-3.4781,3.47258,2.12972e-16,201.702,51.8886)"><stop offset="0" style="stop-color:#5acc01;stop-opacity:1"/><stop offset="1" style="stop-color:#40e5df;stop-opacity:0"/></linearGradient><linearGradient id="_Linear27" x1="0" y1="0" x2="1" y2="0" gradientUnits="userSpaceOnUse" gradientTransform="matrix(2.12634e-16,-3.4781,3.47258,2.12972e-16,201.702,104.389)"><stop offset="0" style="stop-color:#5acc01;stop-opacity:1"/><stop offset="1" style="stop-color:#40e5df;stop-opacity:0"/></linearGradient><linearGradient id="_Linear28" x1="0" y1="0" x2="1" y2="0" gradientUnits="userSpaceOnUse" gradientTransform="matrix(2.12634e-16,-27.8248,3.47258,1.70378e-15,201.702,97.3092)"><stop offset="0" style="stop-color:#5acc01;stop-opacity:1"/><stop offset="1" style="stop-color:#40e5df;stop-opacity:0"/></linearGradient><linearGradient id="_Linear29" x1="0" y1="0" x2="1" y2="0" gradientUnits="userSpaceOnUse" gradientTransform="matrix(2.12634e-16,-18.0861,3.47258,1.10746e-15,28.8024,135.441)"><stop offset="0" style="stop-color:#5acc01;stop-opacity:1"/><stop offset="1" style="stop-color:#40e5df;stop-opacity:0"/></linearGradient><linearGradient id="_Linear30" x1="0" y1="0" x2="1" y2="0" gradientUnits="userSpaceOnUse" gradientTransform="matrix(2.12634e-16,-27.7254,3.47258,1.69769e-15,54.3024,117.81)"><stop offset="0" style="stop-color:#5acc01;stop-opacity:1"/><stop offset="1" style="stop-color:#40e5df;stop-opacity:0"/></linearGradient><linearGradient id="_Linear31" x1="0" y1="0" x2="1" y2="0" gradientUnits="userSpaceOnUse" gradientTransform="matrix(2.12634e-16,-22.4586,3.47258,1.37519e-15,193.202,112.527)"><stop offset="0" style="stop-color:#5acc01;stop-opacity:1"/><stop offset="1" style="stop-color:#40e5df;stop-opacity:0"/></linearGradient><linearGradient id="_Linear32" x1="0" y1="0" x2="1" y2="0" gradientUnits="userSpaceOnUse" gradientTransform="matrix(2.18888e-16,-24.3467,3.57472,1.49081e-15,235.752,141.721)"><stop offset="0" style="stop-color:#5acc01;stop-opacity:1"/><stop offset="1" style="stop-color:#40e5df;stop-opacity:0"/></linearGradient><linearGradient id="_Linear33" x1="0" y1="0" x2="1" y2="0" gradientUnits="userSpaceOnUse" gradientTransform="matrix(266.527,0,0,266.527,-1099.02,252.522)"><stop offset="0" style="stop-color:#183500;stop-opacity:0.15"/><stop offset="1" style="stop-color:#5acc01;stop-opacity:0.15"/></linearGradient><linearGradient id="_Linear34" x1="0" y1="0" x2="1" y2="0" gradientUnits="userSpaceOnUse" gradientTransform="matrix(266.527,0,0,266.527,-1099.02,252.522)"><stop offset="0" style="stop-color:#183500;stop-opacity:0.5"/><stop offset="1" style="stop-color:#5acc01;stop-opacity:0.5"/></linearGradient><linearGradient id="_Linear35" x1="0" y1="0" x2="1" y2="0" gradientUnits="userSpaceOnUse" gradientTransform="matrix(266.527,0,0,266.527,-1099.02,252.522)"><stop offset="0" style="stop-color:#183500;stop-opacity:1"/><stop offset="1" style="stop-color:#5acc01;stop-opacity:1"/></linearGradient><linearGradient id="_Linear36" x1="0" y1="0" x2="1" y2="0" gradientUnits="userSpaceOnUse" gradientTransform="matrix(260.958,0,0,260.958,12.7611,160.696)"><stop offset="0" style="stop-color:#1c3f00;stop-opacity:1"/><stop offset="1" style="stop-color:#4aa701;stop-opacity:1"/></linearGradient><linearGradient id="_Linear37" x1="0" y1="0" x2="1" y2="0" gradientUnits="userSpaceOnUse" gradientTransform="matrix(18.1344,25.7986,-25.7986,18.1344,125.187,134.081)"><stop offset="0" style="stop-color:#000;stop-opacity:1"/><stop offset="1" style="stop-color:#5acc01;stop-opacity:1"/></linearGradient><linearGradient id="_Linear38" x1="0" y1="0" x2="1" y2="0" gradientUnits="userSpaceOnUse" gradientTransform="matrix(82.0813,0,0,82.0813,101.445,161.531)"><stop offset="0" style="stop-color:#0b1a00;stop-opacity:1"/><stop offset="1" style="stop-color:#5acc01;stop-opacity:0.501961"/></linearGradient><linearGradient id="_Linear39" x1="0" y1="0" x2="1" y2="0" gradientUnits="userSpaceOnUse" gradientTransform="matrix(82.0813,0,0,82.0813,102.445,160.531)"><stop offset="0" style="stop-color:#8bfe32;stop-opacity:1"/><stop offset="1" style="stop-color:#5acc01;stop-opacity:0.501961"/></linearGradient><linearGradient id="_Linear40" x1="0" y1="0" x2="1" y2="0" gradientUnits="userSpaceOnUse" gradientTransform="matrix(82.0813,0,0,82.0813,101.445,131.531)"><stop offset="0" style="stop-color:#0b1a00;stop-opacity:1"/><stop offset="1" style="stop-color:#5acc01;stop-opacity:0.501961"/></linearGradient><linearGradient id="_Linear41" x1="0" y1="0" x2="1" y2="0" gradientUnits="userSpaceOnUse" gradientTransform="matrix(82.0813,0,0,82.0813,102.445,130.531)"><stop offset="0" style="stop-color:#8bfe32;stop-opacity:1"/><stop offset="1" style="stop-color:#5acc01;stop-opacity:0.501961"/></linearGradient><linearGradient id="_Linear42" x1="0" y1="0" x2="1" y2="0" gradientUnits="userSpaceOnUse" gradientTransform="matrix(82.0813,0,0,82.0813,101.445,101.531)"><stop offset="0" style="stop-color:#0b1a00;stop-opacity:1"/><stop offset="1" style="stop-color:#5acc01;stop-opacity:0.501961"/></linearGradient><linearGradient id="_Linear43" x1="0" y1="0" x2="1" y2="0" gradientUnits="userSpaceOnUse" gradientTransform="matrix(82.0813,0,0,82.0813,102.445,100.531)"><stop offset="0" style="stop-color:#8bfe32;stop-opacity:1"/><stop offset="1" style="stop-color:#5acc01;stop-opacity:0.501961"/></linearGradient><linearGradient id="_Linear44" x1="0" y1="0" x2="1" y2="0" gradientUnits="userSpaceOnUse" gradientTransform="matrix(9.55843e-15,-156.101,156.101,9.55843e-15,142.417,196.282)"><stop offset="0" style="stop-color:#5acc01;stop-opacity:0.804706"/><stop offset="1" style="stop-color:#40e5df;stop-opacity:0"/></linearGradient></defs></svg>