<svg viewBox="0 0 376 441" xmlns="http://www.w3.org/2000/svg" fill-rule="evenodd" clip-rule="evenodd" stroke-linejoin="round" stroke-miterlimit="1.414"><g opacity=".5"><path fill="url(#a)" d="M.1 125.6h7.2v26.8H.1z"/><path fill="url(#b)" d="M.1 159.8h7.2v7.4H.1z"/><path fill="url(#c)" d="M.1 270.2h7.2v7.4H.1z"/><path fill="url(#d)" d="M.1 204h7.2v58.8H.1z"/><path fill="url(#e)" d="M17.9 192.7h7.2v26.8h-7.2z"/><path fill="url(#f)" d="M17.9 226.9h7.2v7.4h-7.2z"/><path fill="url(#g)" d="M71.6 25h7.2v26.8h-7.2z"/><path fill="url(#h)" d="M71.6 59.2h7.2v7.4h-7.2z"/><path fill="url(#i)" d="M71.6 169.5h7.2v7.4h-7.2z"/><path fill="url(#j)" d="M71.6 103.3h7.2v58.8h-7.2z"/><path fill="url(#k)" d="M89.4 92.1h7.2v26.8h-7.2z"/><path fill="url(#l)" d="M89.4 126.3h7.2v7.4h-7.2z"/><path fill="url(#m)" d="M89.4 170.4h7.2v58.8h-7.2z"/><path fill="url(#n)" d="M89.4 236.6h7.2v7.4h-7.2z"/><path fill="url(#o)" d="M351 125.6h7.2v26.8H351z"/><path fill="url(#p)" d="M351 159.8h7.2v7.4H351z"/><path fill="url(#q)" d="M351 204h7.2v58.8H351z"/><path fill="url(#r)" d="M351 270.2h7.2v7.4H351z"/><path fill="url(#s)" d="M368.8 192.7h7.2v26.8h-7.2z"/><path fill="url(#t)" d="M368.8 226.9h7.2v7.4h-7.2z"/><path fill="url(#u)" d="M279.4 25h7.2v26.8h-7.2z"/><path fill="url(#v)" d="M279.4 59.2h7.2v7.4h-7.2z"/><path fill="url(#w)" d="M279.4 169.5h7.2v7.4h-7.2z"/><path fill="url(#x)" d="M279.4 103.3h7.2v58.8h-7.2z"/><path fill="url(#y)" d="M297.3 92.1h7.2v26.8h-7.2z"/><path fill="url(#z)" d="M297.3 126.3h7.2v7.4h-7.2z"/><path fill="url(#A)" d="M297.3 236.6h7.2v7.4h-7.2z"/><path fill="url(#B)" d="M297.3 170.4h7.2v58.8h-7.2z"/><path d="M25.1 304.4v-33.3h-7.2v38.2l7.2-4.9z" fill="url(#C)" fill-rule="nonzero"/><path d="M78.7 267.9v-54.2h-7.1v58.8h.3l6.8-4.6z" fill="url(#D)" fill-rule="nonzero"/><path d="M286.6 261.2v-47.5h-7.2v42.6l7.2 4.9z" fill="url(#E)" fill-rule="nonzero"/><path d="M376 322.7v-51.6h-7.2v46.7l7.2 4.9z" fill="url(#F)" fill-rule="nonzero"/></g><path d="M176.5 260.5s-5.5 7.4-8.8 8.5c-3.3 1.1-10 6.1-11.8 11.8-1.8 5.7-.8 7.3 7.2 6.7 8-.6 12.7-9.4 13.5-9.9.8-.6 6.1-5.9 12.2-8.3 6.1-2.4 0-13.1 0-13.1l-12.3 4.3zm33 16.8l-.7 5.2s.8 8.4 0 9.4-2.8 12 .7 16.9c3.4 5 10.2 1.7 13.3-6.3 3.2-8 1.4-21-.1-24.4-1.6-3.3-2.2-14.7-2.2-14.7l-11 13.9zm-54.2-106.4s-.9 21.2 16.1 24.1c17 2.9 38 4.7 38 4.7l8.1 44.6 6.3 20.5v-23.4s-4.1-26.6-4-33.7c.1-7.2-.1-23.7-.1-23.7l-64.4-13.1z" fill="#7b5702" fill-rule="nonzero"/><path d="M154.7 171.3s-.1 10.3 12.7 8.7c0 0 6.2 11.2 15.9 14 9.6 2.8 30.1 0 30.1 0l3.3 41.6 7.2 29.2s-.1 8-1.1 10.2c0 0-.3 2.9.3 4.7 0 0-4.4 4-14.2 2.9l.3-23.1s0-11.6-2.9-16.5c-2.9-5-8.3-18.3-10-25-1.8-6.7-6.1-12.1-7.3-12.8 0 0-1.4 8.8-1.1 14.6.3 5.8 1.8 14 1.8 14s1.7 20.4 1.7 29.7c0 0-1.7 8-10.3 6.5-8.7-1.5-6.9-11-6.9-11s-2.3-22-4.4-25.2c-2.1-3.2-9.8-24.1-10.6-34.4-1-10.4-4.5-28.1-4.5-28.1z" fill="#b17d03" fill-rule="nonzero"/><path fill="#fcd0c5" d="M186.6 108.4h23.8v24.8h-23.8zm-39-2h23.8v24.8h-23.8z"/><path d="M175 62.6l-3.6 10.6 1.5 26.7 16.9-10.7L205 62.6l-2.7-7.3-6.8-2.8-3.6-2.1L175 62.6z" fill="#fff" fill-rule="nonzero"/><path d="M154.5 62.6l10.5-2.9 5.9-.6h3.6v8.1l.6 24.9.3 14.3h1.3l7.1-16.2 9.3-16.4s7.8-9.9 8.6-12.9v-5l-3.2-1.5.2-1.1 4.2 1.5s.7 9.3 22.1 21.4c0 0 5.1 2.4 6.9 6.7 0 0-7-5.2-12.9 1.2s-13.7 20.1-16.4 28.3c0 0-7.5 2.3-8.8 9.3 0 0 0 2.3-3.6 3.6 0 0-1.5.6-1.3 2.3l-22.4-9.8s-1.4-3.9-6.5-4.1l-1.1-1.1-4.5-.2v-19s.3-7.5-1.2-9.3c0 0-2.1-1.5-1.1-7.5.9-5.9 2.4-14 2.4-14z" fill="#e09e04" fill-rule="nonzero"/><path d="M171.7 178.3s3.1 15.7 20.1 14.7 32-2.2 29.7-13.6c-2.3-11.5-21-3.6-21-3.6l-28.8 2.5zm-19.6-7.5s4.3 6.9 10 7.9 7.1-3.1 2.7-7.9c-4.4-4.8-12.7 0-12.7 0z" fill="#fbc02d" fill-rule="nonzero"/><path d="M216.6 149.7l2.9 4.5s2.6 15.3 1.8 27c0 0 .7 4.3-12.2 6.9-12.9 2.6-33.8 8.4-39.3-11.7 0 0-2.4-6.8-6.2-2-1.9 3.9-17-2.7-18.3-8.3-1.4-5.6 6.6-29.2 6.6-29.2l37.8 6.1 26.9 6.7z" fill="#e09e04" fill-rule="nonzero"/><path d="M177 145.7s.8 4.5 10.2 8.5c9.4 4 18.7 6.5 32.3 0l-3.4-18.6-16.2 7.7-22.8-1v3.4h-.1z" fill="#b17d03" fill-rule="nonzero"/><path d="M161.6 131.7l-7.7 2.4.6 5.3 23.8 7.6 15.2 4.8s12.8 5.1 19.1-7c0 0 19-28.5 20-50.7l-6.7 2.5-10 22.2-9.5 12.4s-1.5 5.2-3.3 5.4c-1.8.3-9.6 3.3-10.4 3-.9-.3-15-5.5-15-5.5l-16.1-2.4z" fill="#fbc02d" fill-rule="nonzero"/><path d="M231.9 82.9c-.7-.5-7.3-4.8-12.8 1.3-5.9 6.4-13.7 20.1-16.4 28.3 0 0 4.1-.1 2.5 2.6 0 0-2.2 2.1-3 2.6-.7.4-2.3.8-3 1.2-.3.2-1.1 1.4.6 1.3h6.5v3.8h-2.1s1.1 3.6-2.3 3.6c0 0-3.6 4.9-5.4 3-.7-.8-.1-1.3-3.8-1.8-3.7-.4-3.7-1.2-3.7-1.2l-22.4-9.8-8.1 8.4-7.8 2.7 1.9 4.6s24.3 8.3 32 11.9c4.8 2.2 12.9 7.3 21-1.9 8.8-10 18.5-18.5 26.5-46.1-.1 0 2-10-.2-14.5z" fill="#e09e04" fill-rule="nonzero"/><path d="M175.5 106.4l-.5-19.7s1.9-2.4 2.2-6.1c.3-3.7.7-6.8-.4-7.9V72h7.7s.7 1.9 2.2 2.5V77s-2.8-1-2.8 1.5v11.8l-7.1 16.2h-1.3v-.1zm-3-44.6l-5.2 5.8 1.9 30.5s.9 8.7 3.6 13.1c0 0-5.208-3.026-6.827-27.44-.311-4.688-.489-10.165-.473-16.56l6.6-7.4.4 2zm4.5 52s11.4-22.6 25.5-36.5l-1.1-5.3h5.2v-5.2h1.6v7.5h-4.3v1.2h1.5v3.7c0-.049-6.02 6.837-12.554 14.573-6.781 8.028-14.114 16.971-15.846 20.027z" fill="#b17d03" fill-rule="nonzero"/><path d="M179.1 64.9s-.2 4.6.8 4.7c1 .2 1.7 1.7 3 1.1 1.3-.6 7.7-2.6 9.3-3.8 1.6-1.2 6.3-4.1 6.8-6.6.6-2.4 1-10.6.4-12-.6-1.4-5.3-.5-5.5-.6-.2-.1-8.8.9-8.8.9l-6.9 13.2.9 3.1z" fill="#e1b1a5" fill-rule="nonzero"/><path d="M166.1 31.2s.5 18.9 2.4 23c2 4.1 2 16.2 11.5 13.5 9.5-2.7 15.1-13.6 16.3-17.2 0 0 5-.4 5.4-2.9.4-2.5 2.5-5.5 2.5-10.2 0-4.7-.1-6.9-.1-6.9l-12.2-3.1-5.9-4.3-17.1 5-2.8 3.1z" fill="#fdd1c6" fill-rule="nonzero"/><path d="M165.2 26.2s-3.2 10.6 5.9 8.1c10.2-2.8 17.2-11.8 18.6-3.3 0 0-.8 6.6 3.6 9.1.8 6.2 3.2 7.9 3.4 4.2 0 0-.4-5 2.2-6.7 2.6-1.7 5.9 1.1 5.3-6.7-.7-7.7-1.1-20.4-19.3-20.9-16.7.3-19.7 16.2-19.7 16.2z" fill="#ab8383" fill-rule="nonzero"/><path d="M154.5 62.6s-4.7 6.9-7.1 12.1c-2.4 5.2-11.8 30.2-12.4 32.3-.6 2.1-2.7 5.1-2.8 9.8-.1 3.8 0 12.4 0 15.7 0 .8.5 1.5 1.2 1.7l41.2 13.5c.5.2 1-.2 1-.7v-.9l-19.5-7.9 2.4-12.1-6.6-4v-4.6l1-.9.2-2.3 1.8-.1.8-4.3.7-26.2-1.9-21.1z" fill="#b17d03" fill-rule="nonzero"/><defs><linearGradient id="a" x2="1" gradientUnits="userSpaceOnUse" gradientTransform="matrix(0 -26.8199 51.6383 0 3.724 152.407)"><stop offset="0" stop-color="#fbc02d"/><stop offset="1" stop-color="#fbc02d" stop-opacity="0"/></linearGradient><linearGradient id="b" x2="1" gradientUnits="userSpaceOnUse" gradientTransform="matrix(0 -7.40549 51.6383 0 3.724 167.202)"><stop offset="0" stop-color="#fbc02d"/><stop offset="1" stop-color="#fbc02d" stop-opacity="0"/></linearGradient><linearGradient id="c" x2="1" gradientUnits="userSpaceOnUse" gradientTransform="matrix(0 -7.40549 51.6383 0 3.724 277.602)"><stop offset="0" stop-color="#fbc02d"/><stop offset="1" stop-color="#fbc02d" stop-opacity="0"/></linearGradient><linearGradient id="d" x2="1" gradientUnits="userSpaceOnUse" gradientTransform="matrix(0 -58.8436 51.6383 0 3.724 262.815)"><stop offset="0" stop-color="#fbc02d"/><stop offset="1" stop-color="#fbc02d" stop-opacity="0"/></linearGradient><linearGradient id="e" x2="1" gradientUnits="userSpaceOnUse" gradientTransform="matrix(0 -26.8199 51.6383 0 21.524 219.507)"><stop offset="0" stop-color="#fbc02d"/><stop offset="1" stop-color="#fbc02d" stop-opacity="0"/></linearGradient><linearGradient id="f" x2="1" gradientUnits="userSpaceOnUse" gradientTransform="matrix(0 -7.40549 51.6383 0 21.524 234.302)"><stop offset="0" stop-color="#fbc02d"/><stop offset="1" stop-color="#fbc02d" stop-opacity="0"/></linearGradient><linearGradient id="g" x2="1" gradientUnits="userSpaceOnUse" gradientTransform="matrix(0 -26.8199 51.6383 0 75.224 51.807)"><stop offset="0" stop-color="#fbc02d"/><stop offset="1" stop-color="#fbc02d" stop-opacity="0"/></linearGradient><linearGradient id="h" x2="1" gradientUnits="userSpaceOnUse" gradientTransform="matrix(0 -7.40549 51.6383 0 75.224 66.602)"><stop offset="0" stop-color="#fbc02d"/><stop offset="1" stop-color="#fbc02d" stop-opacity="0"/></linearGradient><linearGradient id="i" x2="1" gradientUnits="userSpaceOnUse" gradientTransform="matrix(0 -7.40549 51.6383 0 75.224 176.902)"><stop offset="0" stop-color="#fbc02d"/><stop offset="1" stop-color="#fbc02d" stop-opacity="0"/></linearGradient><linearGradient id="j" x2="1" gradientUnits="userSpaceOnUse" gradientTransform="matrix(0 -58.8436 51.6383 0 75.224 162.115)"><stop offset="0" stop-color="#fbc02d"/><stop offset="1" stop-color="#fbc02d" stop-opacity="0"/></linearGradient><linearGradient id="k" x2="1" gradientUnits="userSpaceOnUse" gradientTransform="matrix(0 -26.8199 51.6383 0 93.024 118.907)"><stop offset="0" stop-color="#fbc02d"/><stop offset="1" stop-color="#fbc02d" stop-opacity="0"/></linearGradient><linearGradient id="l" x2="1" gradientUnits="userSpaceOnUse" gradientTransform="matrix(0 -7.40549 51.6383 0 93.024 133.702)"><stop offset="0" stop-color="#fbc02d"/><stop offset="1" stop-color="#fbc02d" stop-opacity="0"/></linearGradient><linearGradient id="m" x2="1" gradientUnits="userSpaceOnUse" gradientTransform="matrix(0 -58.8436 51.6383 0 93.024 229.215)"><stop offset="0" stop-color="#fbc02d"/><stop offset="1" stop-color="#fbc02d" stop-opacity="0"/></linearGradient><linearGradient id="n" x2="1" gradientUnits="userSpaceOnUse" gradientTransform="matrix(0 -7.40549 51.6383 0 93.024 244.002)"><stop offset="0" stop-color="#fbc02d"/><stop offset="1" stop-color="#fbc02d" stop-opacity="0"/></linearGradient><linearGradient id="o" x2="1" gradientUnits="userSpaceOnUse" gradientTransform="matrix(0 -26.8199 51.6383 0 354.624 152.407)"><stop offset="0" stop-color="#fbc02d"/><stop offset="1" stop-color="#fbc02d" stop-opacity="0"/></linearGradient><linearGradient id="p" x2="1" gradientUnits="userSpaceOnUse" gradientTransform="matrix(0 -7.40549 51.6383 0 354.624 167.202)"><stop offset="0" stop-color="#fbc02d"/><stop offset="1" stop-color="#fbc02d" stop-opacity="0"/></linearGradient><linearGradient id="q" x2="1" gradientUnits="userSpaceOnUse" gradientTransform="matrix(0 -58.8436 51.6383 0 354.624 262.815)"><stop offset="0" stop-color="#fbc02d"/><stop offset="1" stop-color="#fbc02d" stop-opacity="0"/></linearGradient><linearGradient id="r" x2="1" gradientUnits="userSpaceOnUse" gradientTransform="matrix(0 -7.40549 51.6383 0 354.624 277.602)"><stop offset="0" stop-color="#fbc02d"/><stop offset="1" stop-color="#fbc02d" stop-opacity="0"/></linearGradient><linearGradient id="s" x2="1" gradientUnits="userSpaceOnUse" gradientTransform="matrix(0 -26.8199 51.6383 0 372.424 219.507)"><stop offset="0" stop-color="#fbc02d"/><stop offset="1" stop-color="#fbc02d" stop-opacity="0"/></linearGradient><linearGradient id="t" x2="1" gradientUnits="userSpaceOnUse" gradientTransform="matrix(0 -7.40549 51.6383 0 372.424 234.302)"><stop offset="0" stop-color="#fbc02d"/><stop offset="1" stop-color="#fbc02d" stop-opacity="0"/></linearGradient><linearGradient id="u" x2="1" gradientUnits="userSpaceOnUse" gradientTransform="matrix(0 -26.8199 51.6383 0 283.024 51.807)"><stop offset="0" stop-color="#fbc02d"/><stop offset="1" stop-color="#fbc02d" stop-opacity="0"/></linearGradient><linearGradient id="v" x2="1" gradientUnits="userSpaceOnUse" gradientTransform="matrix(0 -7.40549 51.6383 0 283.024 66.602)"><stop offset="0" stop-color="#fbc02d"/><stop offset="1" stop-color="#fbc02d" stop-opacity="0"/></linearGradient><linearGradient id="w" x2="1" gradientUnits="userSpaceOnUse" gradientTransform="matrix(0 -7.40549 51.6383 0 283.024 176.902)"><stop offset="0" stop-color="#fbc02d"/><stop offset="1" stop-color="#fbc02d" stop-opacity="0"/></linearGradient><linearGradient id="x" x2="1" gradientUnits="userSpaceOnUse" gradientTransform="matrix(0 -58.8436 51.6383 0 283.024 162.115)"><stop offset="0" stop-color="#fbc02d"/><stop offset="1" stop-color="#fbc02d" stop-opacity="0"/></linearGradient><linearGradient id="y" x2="1" gradientUnits="userSpaceOnUse" gradientTransform="matrix(0 -26.8199 51.6383 0 300.924 118.907)"><stop offset="0" stop-color="#fbc02d"/><stop offset="1" stop-color="#fbc02d" stop-opacity="0"/></linearGradient><linearGradient id="z" x2="1" gradientUnits="userSpaceOnUse" gradientTransform="matrix(0 -7.40549 51.6383 0 300.924 133.702)"><stop offset="0" stop-color="#fbc02d"/><stop offset="1" stop-color="#fbc02d" stop-opacity="0"/></linearGradient><linearGradient id="A" x2="1" gradientUnits="userSpaceOnUse" gradientTransform="matrix(0 -7.40549 51.6383 0 300.924 244.002)"><stop offset="0" stop-color="#fbc02d"/><stop offset="1" stop-color="#fbc02d" stop-opacity="0"/></linearGradient><linearGradient id="B" x2="1" gradientUnits="userSpaceOnUse" gradientTransform="matrix(0 -58.8436 51.6383 0 300.924 229.215)"><stop offset="0" stop-color="#fbc02d"/><stop offset="1" stop-color="#fbc02d" stop-opacity="0"/></linearGradient><linearGradient id="C" x2="1" gradientUnits="userSpaceOnUse" gradientTransform="matrix(0 -38.2284 51.6383 0 21.524 309.31)"><stop offset="0" stop-color="#fbc02d"/><stop offset="1" stop-color="#fbc02d" stop-opacity="0"/></linearGradient><linearGradient id="D" x2="1" gradientUnits="userSpaceOnUse" gradientTransform="matrix(0 -58.8436 50.9211 0 75.174 272.515)"><stop offset="0" stop-color="#fbc02d"/><stop offset="1" stop-color="#fbc02d" stop-opacity="0"/></linearGradient><linearGradient id="E" x2="1" gradientUnits="userSpaceOnUse" gradientTransform="matrix(0 -47.5353 51.6383 0 283.024 261.212)"><stop offset="0" stop-color="#fbc02d"/><stop offset="1" stop-color="#fbc02d" stop-opacity="0"/></linearGradient><linearGradient id="F" x2="1" gradientUnits="userSpaceOnUse" gradientTransform="rotate(-90 347.569 -24.856) scale(51.6383)"><stop offset="0" stop-color="#fbc02d"/><stop offset="1" stop-color="#fbc02d" stop-opacity="0"/></linearGradient></defs></svg>