<?xml version="1.0" encoding="UTF-8" standalone="no"?><!DOCTYPE svg PUBLIC "-//W3C//DTD SVG 1.1//EN" "http://www.w3.org/Graphics/SVG/1.1/DTD/svg11.dtd"><svg width="100%" height="100%" viewBox="0 0 65 65" version="1.1" xmlns="http://www.w3.org/2000/svg" xmlns:xlink="http://www.w3.org/1999/xlink" xml:space="preserve" xmlns:serif="http://www.serif.com/" style="fill-rule:evenodd;clip-rule:evenodd;stroke-linejoin:round;stroke-miterlimit:1.41421;"><g><path d="M32.1,0c17.7,0 32.1,14.4 32.1,32.1c0,17.7 -14.4,32.1 -32.1,32.1c-17.7,0.1 -32.1,-14.3 -32.1,-32.1c0,-17.7 14.4,-32.1 32.1,-32.1Zm-4.1,40.8c3.367,0 6.1,2.733 6.1,6.1c0,3.367 -2.733,6.1 -6.1,6.1c-3.367,0 -6.1,-2.733 -6.1,-6.1c0,-3.367 2.733,-6.1 6.1,-6.1Zm-8.9,-10.3c2.8,0 5,2.2 5,5c0,2.8 -2.2,5 -5,5c-2.8,0 -5,-2.2 -5,-5c0,-2.8 2.2,-5 5,-5Zm17.9,-0.3c2.815,0 5.1,2.285 5.1,5.1c0,2.815 -2.285,5.1 -5.1,5.1c-2.815,0 -5.1,-2.285 -5.1,-5.1c0,-2.815 2.285,-5.1 5.1,-5.1Zm-25.6,-6.8c-1.802,0.002 -3.3,1.501 -3.2,3.2c0,1.7 1.4,3.2 3.2,3.2c1.7,0 3.2,-1.4 3.2,-3.2c0,-1.699 -1.398,-3.198 -3.2,-3.2Zm33.3,-1.1c2,0 3.7,1.6 3.7,3.7c0,2 -1.6,3.7 -3.7,3.7c-2,0 -3.7,-1.7 -3.7,-3.7c0,-2.1 1.6,-3.7 3.7,-3.7Zm6.1,-7.1c1.5,0 2.7,1.2 2.7,2.7c0,1.5 -1.2,2.7 -2.7,2.7c-1.5,0 -2.7,-1.2 -2.7,-2.7c0,-1.5 1.2,-2.7 2.7,-2.7Z" style="fill:#5acc01;"/></g></svg>