<?xml version="1.0" encoding="UTF-8" standalone="no"?><!DOCTYPE svg PUBLIC "-//W3C//DTD SVG 1.1//EN" "http://www.w3.org/Graphics/SVG/1.1/DTD/svg11.dtd"><svg width="100%" height="100%" viewBox="0 0 181 120" version="1.1" xmlns="http://www.w3.org/2000/svg" xmlns:xlink="http://www.w3.org/1999/xlink" xml:space="preserve" xmlns:serif="http://www.serif.com/" style="fill-rule:evenodd;clip-rule:evenodd;stroke-linejoin:round;stroke-miterlimit:1.41421;"><g id="g3392"><path d="M176.011,0.027c2.533,-0.077 3.904,1.405 3.943,4.06c0.12,8.256 -3.541,11.769 -7.541,15.377c-4,3.608 -8.607,5.805 -12.777,12.203c-2.772,4.253 -3.616,14.776 -5.906,23.125c-2.133,7.774 -4.226,17.182 -6.344,23.063c-2.236,6.213 -0.405,20.312 6.219,22.187c-7.549,5.499 -19.715,3.875 -24.188,-3c-8.028,2.113 -9.019,11.879 -15.562,15.688c-5.326,3.1 -10.412,4.505 -17.469,6.25c-3.923,0.744 -7.362,0.606 -6.219,-0.625c3.691,-5.45 8.299,-10.001 10.594,-16.844c-15.478,-2.232 -30.88,-5.157 -44.25,-3.375c-10.332,1.378 -15.616,7.151 -22.25,11.156c-14.245,8.601 -29.915,6.414 -31.25,3.188c-1.269,-3.066 5.213,-4.822 6.312,-6.906c-5.311,0.707 -6.492,-0.057 -9.187,-2.782c8.366,-9.829 26.825,-3.515 33.031,-9.937c5.802,-6.004 5.947,-10.213 11.5,-15c7.154,-6.165 15.792,-11.243 23.688,-13.719c12.015,-3.765 25.379,-4.362 38.625,-11.844c17.721,-10.009 21.632,-37.95 41.125,-46.125c6.53,-2.738 13.937,-2.281 20.001,-3.773c6.005,-1.478 5.126,-2.278 7.905,-2.367Zm-170.121,111.865c10.144,1.453 16.313,0 24.459,-3.533c6.931,-3.006 13.625,-9.203 21.81,-11.83c12.021,-3.857 25.203,0.005 38.053,0.775c3.129,0.188 6.238,0.19 9.307,-0.144c4.787,-2.942 4.688,-13.947 9.347,-14.955c-0.137,15.44 -6.467,24.691 -13.087,33.649c13.952,-2.464 22.301,-10.534 27.94,-21.312c1.711,-3.268 3.172,-6.784 4.464,-10.469c1.997,1.533 0.865,6.197 1.869,8.724c9.61,-5.353 15.113,-17.57 18.757,-29.926c4.216,-14.3 5.942,-28.78 8.661,-33.011c2.654,-4.13 6.784,-6.676 10.554,-9.32c4.284,-3.006 8.105,-6.139 8.765,-11.867c-4.518,-0.418 -5.563,-1.463 -6.231,-3.74c-2.262,1.275 -4.342,1.548 -6.692,1.618c-2.039,0.062 -4.279,-0.029 -7.015,0.252c-22.627,2.324 -25.502,27.263 -40.005,41.401c-1.055,1.028 -2.196,1.987 -3.402,2.887c-5.079,3.785 -11.31,6.49 -17.04,8.68c-9.275,3.544 -18.093,3.796 -26.795,6.855c-6.388,2.245 -12.879,5.502 -18.126,9.093c-1.312,0.897 -2.548,1.816 -3.685,2.746c-3.079,2.519 -5.1,5.314 -7.055,8.189c-2.016,2.963 -3.963,6.011 -6.931,8.923c-4.808,4.721 -22.774,1.377 -29.099,5.755c-0.705,0.487 -1.265,1.072 -1.646,1.774c3.451,1.568 5.756,0.606 9.726,1.045c0.52,3.76 -8.158,5.998 -6.903,7.741Zm137.084,-27.14c0.27,4.322 2.779,12.897 4.994,14.981c-4.338,1.055 -11.811,-0.688 -13.728,-3.748c0.985,-4.418 6.111,-8.457 8.734,-11.233Z" style="fill:#5acc01;"/><path id="path3880" d="M149.329,16.16c3.203,2.781 9.924,0.549 8.723,-4.984c-4.977,-0.412 -7.86,1.277 -8.723,4.984Z" style="fill:#5acc01;"/><path id="path3882" d="M171.66,9.694c-0.852,1.787 -2.483,4.091 -2.483,8.64c-0.007,0.781 -0.593,1.316 -0.603,0.112c0.044,-4.446 1.221,-6.368 2.471,-8.894c0.581,-1.035 0.931,-0.608 0.615,0.142Z" style="fill:#5acc01;fill-rule:nonzero;"/><path id="path3884" d="M170.802,9.021c-1.005,1.705 -3.425,4.815 -3.825,9.347c-0.074,0.777 -0.706,1.258 -0.61,0.057c0.436,-4.424 2.37,-7.193 3.838,-9.6c0.666,-0.979 0.979,-0.523 0.597,0.196Z" style="fill:#5acc01;fill-rule:nonzero;"/><path id="path3886" d="M170.02,8.129c-1.145,1.614 -4.87,5.349 -5.649,9.832c-0.14,0.767 -0.81,1.195 -0.613,0.006c0.806,-4.373 4.017,-7.81 5.682,-10.083c0.746,-0.921 1.019,-0.44 0.58,0.245Z" style="fill:#5acc01;fill-rule:nonzero;"/><path id="path3888" d="M169.322,7.134c-1.36,1.437 -5.801,6.2 -7.201,10.528c-0.248,0.74 -0.971,1.07 -0.608,-0.08c1.412,-4.216 5.301,-8.757 7.269,-10.773c0.869,-0.807 1.071,-0.292 0.54,0.325Z" style="fill:#5acc01;fill-rule:nonzero;"/></g></svg>