<svg viewBox="0 0 512 513" xmlns="http://www.w3.org/2000/svg" fill-rule="evenodd" clip-rule="evenodd" stroke-linejoin="round" stroke-miterlimit="1.414"><ellipse cx="159.538" cy="75.301" rx="18.651" ry="18.097" fill="#fbc02d"/><ellipse cx="234.628" cy="150.66" rx="19.446" ry="17.656" fill="#fbc02d"/><ellipse cx="308.1" cy="74.835" rx="18.957" ry="19.996" fill="#fbc02d"/><path d="M435.331 411.718l-24.549 24.979 61.852 60.784 24.548-24.979-61.851-60.784z" fill="#fbc02d"/><path d="M96 278.333H74.666c-17.673 0-32-14.327-32-32V225H64v21.333C64 252.224 68.775 257 74.666 257H96v21.333z" fill="#fbc02d" fill-rule="nonzero"/><path fill="#fbc02d" d="M42.666 182.333H64v21.334H42.666z"/><path d="M384 310.333h-21.333c-.036-29.44-23.893-53.298-53.334-53.333v-21.333c41.218.047 74.62 33.449 74.667 74.666z" fill="#fbc02d" fill-rule="nonzero"/><path d="M170.667 321H32c-17.674 0-32-14.327-32-32V33C0 15.327 14.326 1 32 1h362.667c17.673 0 32 14.327 32 32v192h-21.334V33c0-5.891-4.775-10.666-10.666-10.666H32c-5.891 0-10.667 4.775-10.667 10.666v256c0 5.891 4.776 10.667 10.667 10.667h138.667V321z" fill="#0a050b" fill-rule="nonzero"/><path fill="#0a050b" d="M128 310.333h21.333v64H128z"/><path d="M307.883 214.333c-52.224-.017-94.575 42.304-94.592 94.528-.018 52.224 42.304 94.575 94.528 94.592 52.224.018 94.574-42.304 94.592-94.528a94.563 94.563 0 0 0-27.659-66.858 93.867 93.867 0 0 0-66.869-27.734zm0 210.443c-64.006.003-115.896-51.883-115.898-115.889-.003-64.006 51.882-115.895 115.889-115.898a115.894 115.894 0 0 1 81.961 33.952c45.255 45.264 45.248 118.643-.016 163.898a115.889 115.889 0 0 1-81.936 33.937zm111.818 10.592l51.872 51.883 14.678-14.678-51.872-51.882-14.678 14.677zM471.573 513a10.67 10.67 0 0 1-7.541-3.125l-66.955-66.966c-4.164-4.165-4.164-10.917 0-15.082l29.76-29.76c2-2.001 4.713-3.125 7.542-3.126a10.668 10.668 0 0 1 7.541 3.126L508.875 465c4.164 4.165 4.164 10.917 0 15.083l-29.76 29.76a10.668 10.668 0 0 1-7.542 3.157z" fill="#0a050b" fill-rule="nonzero"/><path d="M374.754 390.828l15.085-15.085 37.2 37.2-15.085 15.085-37.2-37.2z" fill="#0a050b" fill-rule="nonzero"/><path fill="#0a050b" d="M106.667 363.667H192V385h-85.333z"/><path d="M160 65c-5.891 0-10.667 4.776-10.667 10.667S154.109 86.334 160 86.334s10.667-4.776 10.667-10.667S165.891 65 160 65zm0 42.667c-17.673 0-32-14.327-32-32 0-17.673 14.327-32 32-32 17.673 0 32 14.327 32 32 0 17.673-14.327 32-32 32zm74.667 32c-5.891 0-10.667 4.775-10.667 10.666S228.776 161 234.667 161s10.666-4.776 10.666-10.667-4.775-10.666-10.666-10.666zm0 42.666c-17.673 0-32-14.327-32-32 0-17.673 14.327-32 32-32 17.673 0 32 14.327 32 32 0 17.673-14.327 32-32 32z" fill="#0a050b" fill-rule="nonzero"/><path d="M88.458 132.127l53.333-53.333 15.085 15.085-53.333 53.333-15.085-15.085zm74.622-38.221l15.085-15.085 53.333 53.333-15.085 15.085-53.333-53.333zM309.333 65c-5.891 0-10.666 4.776-10.666 10.667s4.775 10.667 10.666 10.667S320 81.558 320 75.667 315.224 65 309.333 65zm0 42.667c-17.673 0-32-14.327-32-32 0-17.673 14.327-32 32-32 17.673 0 32 14.327 32 32 0 17.673-14.327 32-32 32z" fill="#0a050b" fill-rule="nonzero"/><path d="M237.787 132.164l53.333-53.333 15.085 15.085-53.333 53.333-15.085-15.085z" fill="#0a050b" fill-rule="nonzero"/></svg>