<svg viewBox="0 0 480 480" xmlns="http://www.w3.org/2000/svg" fill-rule="evenodd" clip-rule="evenodd" stroke-linejoin="round" stroke-miterlimit="1.414"><g fill-rule="nonzero"><path d="M208 48c0-17.673 14.327-32 32-32 17.673 0 32 14.327 32 32 0 17.674-14.327 32-32 32-17.673 0-32-14.326-32-32zm80 0c0-26.509-21.49-48-48-48s-48 21.491-48 48c0 26.51 21.49 48 48 48 26.499-.026 47.974-21.501 48-48zM184 144c.002-12.592 9.735-23.042 22.296-23.936a80.061 80.061 0 0 0 67.408 0c12.561.894 22.294 11.344 22.296 23.936v48a8 8 0 0 1-8 8h-96a8 8 0 0 1-8-8v-48zm-16 0v48c0 13.255 10.745 24 24 24h96c13.255 0 24-10.745 24-24v-48c-.026-22.08-17.92-39.974-40-40h-1.888l-1.688.84a63.78 63.78 0 0 1-56.848 0l-1.688-.84H208c-22.08.026-39.974 17.92-40 40zM408 344c-17.673 0-32-14.327-32-32 0-17.673 14.327-32 32-32 17.673 0 32 14.327 32 32 0 17.673-14.327 32-32 32zm0-80c-26.51 0-48 21.49-48 48s21.49 48 48 48 48-21.49 48-48c-.026-26.499-21.501-47.974-48-48zM464 456a8 8 0 0 1-8 8h-96a8 8 0 0 1-8-8v-48c.002-12.592 9.735-23.042 22.296-23.936a80.061 80.061 0 0 0 67.408 0c12.56.894 22.294 11.344 22.296 23.936v48zm-24-88h-1.888l-1.688.8a63.78 63.78 0 0 1-56.848 0l-1.688-.8H376c-22.08.026-39.974 17.92-40 40v48c0 13.255 10.745 24 24 24h96c13.255 0 24-10.745 24-24v-48c-.026-22.08-17.92-39.974-40-40zM72 344c-17.674 0-32-14.327-32-32 0-17.673 14.326-32 32-32 17.673 0 32 14.327 32 32 0 17.673-14.327 32-32 32zm0-80c-26.51 0-48 21.49-48 48s21.49 48 48 48c26.509 0 48-21.49 48-48-.026-26.499-21.502-47.974-48-48zM16 408c.001-12.592 9.735-23.042 22.296-23.936a80.061 80.061 0 0 0 67.408 0c12.561.894 22.294 11.344 22.296 23.936v48a8 8 0 0 1-8 8H24a8 8 0 0 1-8-8v-48zm8 72h96c13.255 0 24-10.745 24-24v-48c-.026-22.08-17.92-39.974-40-40h-1.888l-1.688.8a63.78 63.78 0 0 1-56.848 0l-1.688-.8H40c-22.081.026-39.974 17.92-40 40v48c0 13.255 10.745 24 24 24z" fill="#0a050b"/><path d="M319.36 406.248a8 8 0 0 0-10.496-4.224 177.456 177.456 0 0 1-114.104 7.856l7.488-2.2a8.002 8.002 0 0 0 5.432-9.928 8.002 8.002 0 0 0-9.928-5.432l-32 9.384c-.12 0-.208.136-.32.176a7.928 7.928 0 0 0-2.064 1.144c-.278.15-.545.318-.8.504a7.75 7.75 0 0 0-1.96 2.72 8.012 8.012 0 0 0-.608 3.304c.195 1.083.462 2.152.8 3.2.048.112 0 .24.088.352l16 30.616a8.004 8.004 0 1 0 14.192-7.408l-6.512-12.448a192.565 192.565 0 0 0 130.552-7.104 8 8 0 0 0 4.252-10.484l-.012-.028zM453.656 210.344a8 8 0 0 0-11.312 0l-11.32 11.32c-6.624-70.07-51.111-130.875-115.888-158.4a8 8 0 0 0-6.272 14.72c58.11 24.697 98.504 78.669 105.816 141.384l-9.024-9.024a8 8 0 0 0-11.312 11.312l24 24a8 8 0 0 0 11.314.014l.014-.014 24-24a8 8 0 0 0-.016-11.312zM148.536 111.2a7.876 7.876 0 0 0 3.464.8 8 8 0 0 0 7.2-4.536l16-33.384c0-.08 0-.168.064-.248a7.679 7.679 0 0 0 .432-1.696c.137-.431.239-.872.304-1.32a8.055 8.055 0 0 0-.232-1.544 7.451 7.451 0 0 0-.208-1.384c0-.072-.088-.12-.12-.2-.032-.08 0-.136 0-.2a7.729 7.729 0 0 0-.752-1.104 8.076 8.076 0 0 0-.912-1.32 7.547 7.547 0 0 0-1.56-1.064 7.136 7.136 0 0 0-.896-.648l-32-14.616a8 8 0 0 0-6.64 14.544l16.568 7.576C86.874 104.237 47.954 169.256 48 240a8 8 0 1 0 16 0c-.041-62.293 32.901-119.952 86.584-151.552l-5.784 12.088a8 8 0 0 0 3.736 10.664z" fill="#fbc02d"/></g></svg>