<?xml version="1.0" encoding="UTF-8" standalone="no"?><!DOCTYPE svg PUBLIC "-//W3C//DTD SVG 1.1//EN" "http://www.w3.org/Graphics/SVG/1.1/DTD/svg11.dtd"><svg width="100%" height="100%" viewBox="0 0 114 52" version="1.1" xmlns="http://www.w3.org/2000/svg" xmlns:xlink="http://www.w3.org/1999/xlink" xml:space="preserve" xmlns:serif="http://www.serif.com/" style="fill-rule:evenodd;clip-rule:evenodd;stroke-linejoin:round;stroke-miterlimit:1.41421;"><path id="XMLID_107_" d="M57.042,0c-11.805,0 -21.811,8.003 -24.912,18.847c-2.696,-5.752 -8.536,-9.781 -15.264,-9.781c-9.252,0 -16.857,7.605 -16.857,16.857c0,9.252 7.605,16.86 16.857,16.86c6.728,0 12.568,-4.032 15.264,-9.784c3.101,10.844 13.107,18.85 24.912,18.85c11.718,0 21.673,-7.885 24.853,-18.607c2.745,5.622 8.514,9.541 15.146,9.541c9.251,0 16.86,-7.608 16.86,-16.86c0,-9.252 -7.609,-16.857 -16.86,-16.857c-6.632,0 -12.401,3.917 -15.146,9.538c-3.18,-10.722 -13.135,-18.604 -24.853,-18.604Zm0,9.895c8.912,0 16.031,7.116 16.031,16.028c0,8.911 -7.119,16.03 -16.031,16.03c-8.912,0 -16.027,-7.119 -16.027,-16.03c0,-8.912 7.115,-16.028 16.027,-16.028Zm-40.176,9.066c3.905,0 6.965,3.057 6.965,6.962c0,3.904 -3.06,6.965 -6.965,6.965c-3.904,0 -6.961,-3.061 -6.961,-6.965c0,-3.905 3.057,-6.962 6.961,-6.962Zm80.175,0c3.904,0 6.965,3.057 6.965,6.962c0,3.904 -3.061,6.965 -6.965,6.965c-3.905,0 -6.962,-3.061 -6.962,-6.965c0,-3.905 3.057,-6.962 6.962,-6.962Z" style="fill:#5acc01;fill-rule:nonzero;"/></svg>