<?xml version="1.0" encoding="UTF-8" standalone="no"?><!DOCTYPE svg PUBLIC "-//W3C//DTD SVG 1.1//EN" "http://www.w3.org/Graphics/SVG/1.1/DTD/svg11.dtd"><svg width="100%" height="100%" viewBox="0 0 28 25" version="1.1" xmlns="http://www.w3.org/2000/svg" xmlns:xlink="http://www.w3.org/1999/xlink" xml:space="preserve" xmlns:serif="http://www.serif.com/" style="fill-rule:evenodd;clip-rule:evenodd;stroke-linejoin:round;stroke-miterlimit:1.41421;"><path d="M6.794,0.063l-0.688,1.282l-5.312,9.656l-0.688,1.219l0.688,1.218l5.312,9.344l0.719,1.281l13.906,0l0.688,-1.406l3.969,-8l1.781,-3.625l-4.031,0l-10.157,0.031c-1.32,-0.018 -2.535,1.179 -2.535,2.5c0,1.321 1.215,2.519 2.535,2.5l6.125,-0.031l-1.5,3.031l-7.875,0l-3.906,-6.875l3.938,-7.125l8.377,0l1.953,4.008l5.031,0l-3.172,-7.601l-0.687,-1.407l-1.563,0l-11.408,0l-1.5,0Z" style="fill:#5acc01;fill-rule:nonzero;"/></svg>