<?xml version="1.0" encoding="UTF-8" standalone="no"?><!DOCTYPE svg PUBLIC "-//W3C//DTD SVG 1.1//EN" "http://www.w3.org/Graphics/SVG/1.1/DTD/svg11.dtd"><svg width="100%" height="100%" viewBox="0 0 130 146" version="1.1" xmlns="http://www.w3.org/2000/svg" xmlns:xlink="http://www.w3.org/1999/xlink" xml:space="preserve" xmlns:serif="http://www.serif.com/" style="fill-rule:evenodd;clip-rule:evenodd;stroke-linejoin:round;stroke-miterlimit:1.41421;"><rect id="Artboard1" x="0" y="0" width="129.184" height="145.542" style="fill:none;"/><path d="M64.566,145.477c-1.946,0 -3.88,-0.511 -5.586,-1.493l-17.783,-10.528c-2.656,-1.486 -1.36,-2.011 -0.484,-2.314c3.541,-1.24 4.26,-1.52 8.04,-3.666c0.397,-0.227 0.917,-0.147 1.324,0.093l13.661,8.107c0.494,0.266 1.194,0.266 1.651,0l53.267,-30.747c0.493,-0.28 0.813,-0.853 0.813,-1.44l0,-61.467c0,-0.613 -0.32,-1.16 -0.824,-1.466l-53.245,-30.72c-0.494,-0.293 -1.147,-0.293 -1.64,0l-53.235,30.72c-0.516,0.293 -0.844,0.866 -0.844,1.453l0,61.467c0,0.586 0.32,1.146 0.827,1.426l14.587,8.427c7.919,3.96 12.759,-0.707 12.759,-5.4l0,-60.667c0,-0.866 0.68,-1.533 1.547,-1.533l6.747,0c0.84,0 1.533,0.667 1.533,1.533l0,60.694c0,10.56 -5.76,16.626 -15.773,16.626c-3.08,0 -5.507,0 -12.28,-3.333l-13.973,-8.053c-3.454,-2 -5.587,-5.734 -5.587,-9.72l0,-61.467c0,-4 2.133,-7.733 5.587,-9.707l53.319,-30.759c3.374,-1.907 7.854,-1.907 11.2,0l53.254,30.773c3.44,1.986 5.586,5.706 5.586,9.706l0,61.467c0,3.987 -2.146,7.707 -5.586,9.707l-53.254,30.76c-1.706,0.986 -3.64,1.493 -5.613,1.493" style="fill:#5acc01;fill-rule:nonzero;"/><path d="M81.02,103.122c-23.307,0 -28.194,-10.698 -28.194,-19.672c0,-0.853 0.688,-1.533 1.543,-1.533l6.88,0c0.76,0 1.4,0.553 1.52,1.304c1.04,7.011 4.133,10.547 18.227,10.547c11.226,0 16,-2.536 16,-8.49c0,-3.426 -1.36,-5.973 -18.8,-7.68c-14.587,-1.44 -23.6,-4.653 -23.6,-16.32c0,-10.746 9.066,-17.146 24.253,-17.146c17.053,0 25.507,5.92 26.573,18.64c0.04,0.44 -0.12,0.866 -0.413,1.186c-0.293,0.307 -0.707,0.494 -1.133,0.494l-6.92,0c-0.72,0 -1.347,-0.507 -1.494,-1.2c-1.666,-7.374 -5.693,-9.734 -16.64,-9.734c-12.253,0 -13.68,4.267 -13.68,7.467c0,3.88 1.68,5.013 18.214,7.2c16.373,2.173 24.146,5.24 24.146,16.747c0,11.6 -9.68,18.253 -26.56,18.253" style="fill:#5acc01;fill-rule:nonzero;"/></svg>