<?xml version="1.0" encoding="UTF-8" standalone="no"?><!DOCTYPE svg PUBLIC "-//W3C//DTD SVG 1.1//EN" "http://www.w3.org/Graphics/SVG/1.1/DTD/svg11.dtd"><svg width="100%" height="100%" viewBox="0 0 200 174" version="1.1" xmlns="http://www.w3.org/2000/svg" xmlns:xlink="http://www.w3.org/1999/xlink" xml:space="preserve" xmlns:serif="http://www.serif.com/" style="fill-rule:evenodd;clip-rule:evenodd;"><g id="Layer-1" serif:id="Layer 1"><path id="path27245" d="M114.333,1.216c-1.682,3.908 -1.211,8.469 -2.437,12.532c-0.282,0.935 -1.207,3.762 -2.561,3.566c-2.767,-0.4 -1.333,-5.716 -4.527,-5.822l1.003,7.77c-4.798,0.602 -4.144,-6.888 -6.091,-9.931c-2.248,-3.511 -2.789,1.593 -2.639,3.163c0.096,1.007 0.299,2.004 0.42,3.008c0.21,1.747 0.259,3.267 0.039,5.013c-4.585,-0.054 -2.902,-6.089 -6.266,-7.018l0.25,7.269c-5.083,-0.043 -7.399,-4.631 -9.631,-8.522c-0.932,-1.624 -2.171,-4.763 -4.405,-3.76c1.045,4.516 3.517,8.838 3.769,13.535c0.065,1.214 -1.081,4.297 -2.765,3.73c-3.892,-1.311 -3.37,-8.372 -6.613,-10.23c-0.656,-0.376 -1.691,-0.048 -2.411,-0.017c0.002,3.745 1.65,8.273 2.959,11.78c0.282,0.754 1.073,3.406 -0.57,3.356c-2.937,-0.088 -3.668,-5.781 -6.65,-5.111c0.365,1.536 1.277,2.782 1.786,4.261c0.311,0.904 0.887,1.817 1.053,2.757c0.365,2.056 -2.24,2.223 -3.591,1.825c-3.193,-0.942 -5.486,-3.552 -7.77,-5.835c-0.633,-0.633 -2.303,-2.86 -3.357,-1.849c-1.172,1.124 1.13,3.1 1.783,3.854c1.95,2.255 4.061,4.896 4.993,7.77c0.4,1.235 0.479,2.989 -0.747,3.836c-1.216,0.841 -3.195,-0.685 -4.176,-1.33c-3.005,-1.978 -5.992,-5.433 -9.775,-5.514l-0.886,2.256l2.413,3.259l6.243,7.018l-7.269,-3.008c0.294,1.9 4.846,4.203 3.95,6.161c-0.531,1.161 -3.165,1.18 -4.2,1.032c-3.706,-0.528 -6.328,-3.287 -9.775,-4.276c-3.044,-0.873 -2.478,1.488 -0.752,2.851c0.599,0.474 1.176,0.97 1.754,1.468c1.042,0.896 2.036,1.818 3.008,2.79c1.52,1.519 2.853,3.145 4.261,4.762l-7.269,-0.251l0,0.501l7.018,3.259l-1.253,5.013c-2.026,-0.006 -3.669,-0.558 -5.514,-1.36c-1.257,-0.547 -2.581,-1.455 -4.01,-1.355c-1.707,0.12 -2.722,1.678 -1.578,3.134c1.714,2.183 5.148,3.427 7.341,5.127c0.837,0.649 2.05,1.759 1.103,2.867c-1.87,2.188 -6.91,-0.619 -9.373,0.108l0,0.502c2.286,1.334 6.973,2.095 8.318,4.555c1.052,1.924 -1.939,6.284 -4.057,6.114c-1.887,-0.153 -3.621,-2.283 -5.013,-3.4c-3.331,-2.676 -6.895,-5.824 -10.777,-7.67c-6.658,-3.166 -13.27,1.876 -18.548,5.163c0.675,2.13 3.339,-0.137 5.013,0.242c2.252,0.511 3.964,2.606 5.408,4.269c6.978,8.037 12.818,17.148 15.427,27.571c0.687,2.744 1.859,6.027 -0.191,8.486c-0.55,0.659 -1.37,0.745 -1.977,1.289c-0.453,0.407 -0.43,0.983 0.192,1.174c1.149,0.351 2.823,-0.183 3.949,-0.454c3.679,-0.887 7.879,-2.872 9.55,-6.485c1.039,-2.247 1.405,-6.62 3.985,-7.519c0.571,2.409 3.28,5.596 3.016,8.021c-0.234,2.153 -2.502,4.649 -3.828,6.243c-0.47,0.565 -1.604,1.803 -0.926,2.614c0.676,0.807 2.069,-0.931 2.49,-1.328c1.902,-1.796 6.06,-4.633 7.189,-0.511c0.981,3.584 -2.172,9.379 -3.748,12.532c-0.438,0.877 -2.457,3.618 -1.669,4.596c0.909,1.128 2.811,-1.81 3.216,-2.34c1.579,-2.069 7.112,-8.201 10.051,-5.998c3.584,2.688 2.348,4.609 0.99,8.253c-0.383,1.027 -1.796,3.6 -0.835,4.577c0.929,0.944 2.151,0.079 2.626,-0.822c0.86,-1.631 3.174,-6.477 5.49,-5.24c1.449,0.774 3.665,2.087 4.508,3.533c1.318,2.261 0.172,6.774 -0.179,9.231c-0.203,1.415 -1.724,5.83 -0.461,6.852c1.166,0.945 2.11,-1.895 2.46,-2.591c1.235,-2.452 2.655,-4.963 4.493,-7.018c0.66,-0.737 1.592,-1.974 2.714,-1.764c5.821,1.09 -0.127,6.889 2.262,9.849c0.484,0.599 1.795,0.556 2.5,0.688l3.007,-7.77c1.53,0.589 3.78,0.793 4.908,2.059c0.948,1.063 1.134,2.859 1.408,4.207c0.767,3.774 1.187,7.444 0.702,11.279c0.477,0.342 1.228,1.138 1.868,0.73c0.809,-0.516 0.912,-2.623 1.189,-3.487c0.884,-2.766 2.233,-5.41 3.486,-8.021c0.826,-1.72 3.077,-3.552 4.701,-1.183c1.667,2.429 0.999,6.679 2.041,9.454c2.662,-1.312 2.952,-6.853 3.007,-9.524l3.453,0.503l2.074,4.259l3.747,10.778c1.939,-0.742 1.325,-4.471 1.543,-6.266c0.295,-2.434 0.859,-7.322 2.643,-9.133c0.72,-0.73 2.15,-0.792 3.083,-1.144c1.063,2.594 1.647,5.535 2.934,8.017c0.502,0.968 1.646,2.011 2.803,1.417c1.107,-0.568 1.066,-1.86 0.923,-2.917c-0.349,-2.597 -0.939,-5.151 -1.146,-7.77c4.969,-0.351 7.884,3.667 11.006,7.018c1.206,1.295 2.256,3.011 4.032,3.509l-2.576,-7.519l-1.434,-7.018c1.803,-0.755 5.619,-4.443 7.519,-3.906c2.831,0.8 4.993,8.688 8.507,6.834c1.499,-0.791 0.724,-2.131 0.02,-3.179c-1.048,-1.56 -4.2,-5.308 -3.858,-7.267c0.253,-1.453 2.685,-3.144 4.104,-3.125c3.249,0.045 8.899,2.519 10.777,5.129l2.256,-0.251c-0.338,-4.487 -7.063,-6.534 -8.025,-11.028c-0.096,-0.448 -0.08,-0.988 0.031,-1.433c0.714,-2.88 2.447,-1.622 4.235,-0.848c0.557,0.241 1.776,0.86 2.237,0.17c0.509,-0.761 -0.392,-1.764 -0.723,-2.401c-0.675,-1.299 -1.294,-2.8 -1.013,-4.261c2.342,0.613 3.787,2.006 5.765,3.321c0.467,0.311 1.499,1.091 2.09,0.656c0.62,-0.457 -0.296,-1.379 -0.591,-1.721c-0.884,-1.024 -3.588,-3.497 -3.321,-4.99c0.18,-1.008 1.88,-2.088 2.574,-2.78c2.291,-2.288 4.901,-4.619 6.767,-7.268l0.251,0c4.427,5.164 18.305,1.542 16.542,-6.267c-1.104,0.158 -2.129,1.026 -3.258,0.637c-4.937,-1.702 -3.744,-9.61 -9.274,-9.66c-0.408,-5.155 -2.479,-10.307 -4.978,-14.788c-1.146,-2.054 -3.528,-3.933 -4.36,-6.025c-0.462,-1.16 -0.383,-2.998 -0.437,-4.251c2.9,-0.452 1.47,-3.387 0.415,-5.013c-1.177,-1.812 -2.421,-3.961 -3.947,-5.491c-1.876,-1.878 -4.669,-3.102 -4.428,-6.289c0.224,-2.968 5.338,-2.59 6.205,-5.263c-1.516,0.065 -3.015,0.44 -4.511,0.69c-3.724,0.62 -4.373,-0.633 -2.634,-3.949c1.519,-2.897 3.938,-5.095 6.071,-7.519c0.683,-0.776 2.789,-2.543 1.704,-3.666c-0.896,-0.929 -2.376,0.489 -3.136,0.992c-2.767,1.834 -5.856,3.19 -9.023,4.171c-0.943,0.292 -3.725,1.381 -4.04,-0.291c-0.425,-2.257 3.847,-2.678 3.288,-5.216c-1.709,0.406 -5.068,3.103 -6.71,1.853c-1.976,-1.505 0.926,-5.347 1.236,-7.117c0.314,-1.792 -1.127,-1.858 -2.142,-0.737c-0.355,0.393 -0.678,0.822 -1.005,1.238c-0.567,0.72 -1.037,1.419 -1.405,2.256c-4.105,-2.396 3.662,-5.181 2.2,-7.399c-0.521,-0.791 -1.482,0 -1.949,0.41c-0.975,0.852 -4.638,5.074 -5.435,1.975c-0.881,-3.427 0.898,-7.543 1.82,-10.776c0.241,-0.845 1.328,-3.123 0.273,-3.729c-1.539,-0.886 -2.214,2.101 -2.574,2.977c-1.111,2.696 -2.946,5.041 -5.112,6.974c-0.714,0.637 -1.924,1.873 -2.993,1.579c-1.552,-0.427 -1.558,-4.731 -1.509,-6.047c0.023,-0.626 0.376,-1.707 -0.237,-2.161c-0.798,-0.592 -1.215,0.596 -1.334,1.16c-0.388,1.845 -1.533,7.117 -4.268,3.66c-2.476,-3.127 1.352,-9.616 -3.695,-10.93l-2.757,8.772c-3.304,-0.721 -2.571,-5.445 -1.755,-8.02l-1.504,-0.501c-0.236,1.022 -0.573,2.018 -0.925,3.007c-1.336,3.749 -3.121,4.479 -4.499,0.251c-1.052,-3.227 -0.679,-6.709 -1.203,-10.026c-0.208,-1.322 -0.332,-2.664 -1.644,-3.258l0,0.001Z" style="fill:#5acc01;fill-rule:nonzero;"/><path id="path27247" d="M114.584,8.263c-0.148,7.161 -2.311,12.527 -10.277,12.532l2.757,11.279c-2.991,-3.135 -4.082,-7.523 -5.43,-11.53c-0.857,-2.543 -1.947,-5.099 -2.34,-7.77l-0.25,0c0.093,4.525 1.047,9.015 0.138,13.535c-0.5,2.485 -1.901,4.416 -2.645,6.767l-0.25,0l1.504,-11.028c-5.596,0.442 -10.427,1.29 -14.093,-4.01c-0.797,-1.152 -1.412,-2.47 -1.949,-3.76l-0.25,0c0.628,4.194 4.363,9.088 -0.023,12.605c-0.669,0.538 -1.443,0.867 -2.233,1.181l3.962,6.005l2.304,3.018c-6.341,-4.2 -10.113,-11.514 -13.284,-18.297l-0.251,0c0.809,5.398 4.09,10.278 4.906,15.79c0.284,1.915 1.025,4.625 -0.645,6.016l-2.005,-9.525c-2.919,1.515 -5.166,6.068 -9.023,5.425c-1.64,-0.273 -2.968,-1.601 -4.512,-2.166c0.727,2.296 2.739,4.467 1.591,7.018c-0.424,0.943 -1.252,1.667 -1.841,2.506l8.02,3.008c-1.463,1.751 -4.51,0.376 -6.266,-0.447c-3.327,-1.56 -6.289,-3.621 -9.273,-5.746c-1.697,-1.209 -3.692,-2.931 -5.765,-3.332c1.276,2.738 4.553,5.058 6.767,7.061c1.831,1.656 3.198,3.571 4.742,5.471c1.521,1.872 3.508,3.984 2.777,6.517c-2.665,-2.688 -4.993,-4.642 -9.023,-3.701c-1.462,0.342 -2.696,1.201 -4.261,1.162c-2.786,-0.068 -5.478,-1.488 -8.02,-2.474c1.476,3.165 5.366,4.87 6.196,8.522c0.61,2.684 -1.325,6.108 -1.685,8.773l8.522,1.253l0,0.501c-7.308,1.934 -12.457,-2.08 -19.299,-3.258l0,0.25c4.615,2.184 9.845,5.871 13.136,9.775c1.197,1.42 2.664,3.069 2.654,5.013c-1.347,-1.091 -3.891,-3.941 -5.764,-3.653c-1.495,0.229 -1.99,1.888 -2.187,3.152c-0.534,3.412 -0.571,7.076 -0.571,10.527c-1.435,-1.254 -1.253,-3 -1.253,-4.762c-1.783,1.174 -3.71,2.648 -6.015,2.186c-2.332,-0.468 -4.655,-3.34 -6.266,-4.943c-3.183,-3.167 -6.712,-6.29 -11.279,-6.912c-2.382,-0.324 -9.595,0.011 -6.372,3.649c0.333,0.375 0.666,0.764 1.118,1c1.697,0.885 5.319,-0.244 7.259,-0.244l0,0.251l-6.266,1.253c2.517,5.276 7.969,0.546 11.028,3.76c-2.09,-0.618 -5.68,-0.618 -7.77,0l3.502,4.511l1.609,2.105l5.917,0.652l0,0.251l-5.263,0c0.311,2.76 3.503,2.009 5.514,1.755l0,0.25l-4.261,0.752c0.669,1.553 2.305,6.16 3.858,6.866c1.215,0.552 2.904,-0.515 3.912,-1.101c-1.384,2.523 -3.857,1.506 -2.506,5.013l4.01,-2.005c-0.894,1.007 -2.396,1.804 -3,3.011c-0.696,1.392 0.48,3.915 0.995,5.26l4.01,-3.008l-3.816,4.284l0.307,4.489c3.36,-1.399 6.082,-3.883 7.516,-7.269c0.594,-1.405 0.656,-3.163 1.365,-4.478c0.518,-0.961 2.016,-0.806 2.317,-1.845c0.578,-1.988 -0.651,-3.603 0.332,-5.708l0.25,0l0.752,4.01c2.532,-0.711 4.041,-4.692 4.762,-7.018l0.502,0c0.699,3.216 -2.212,5.299 -3.259,8.021c1.77,0.41 4.952,1.268 4.763,3.509l-6.266,-2.256l4.762,10.527l0.25,0c2.293,-3.465 4.509,-8.976 7.77,-11.529c1.139,3.697 -2.807,6.702 -4.261,9.775c2.15,-0.588 6.047,-3.474 8.021,-2.256c-2.762,1.15 -5.216,2.807 -7.245,5.013c-0.667,0.725 -1.889,1.943 -1.874,3.007c0.015,1.089 1.353,2.407 1.957,3.259c2.19,3.094 4.838,6.35 8.164,8.271c1.362,-2.588 2.512,-5.175 3.227,-8.021c0.328,-1.305 0.275,-3.064 1.536,-3.759c1.226,6.915 -3.72,14.538 -5.264,21.054c4.712,-3.996 7.557,-10.458 13.535,-13.034c-0.137,3.223 -5.318,4.928 -5.595,8.518c-0.097,1.26 1.468,1.916 2.336,2.517c2.431,1.684 4.488,3.555 7.269,4.68c1,0.405 1.946,1.255 2.875,0.285c1.69,-1.764 1.835,-5.193 1.565,-7.478c-0.171,-1.446 -0.772,-3.659 0.322,-4.762l1.745,10.276l-0.993,12.031l0.251,0c2.343,-5.955 4.419,-12.427 9.023,-17.044c0.027,3.141 -3.526,7.559 -4.762,10.527c4.7,2.199 10.208,3.527 15.289,4.512c0.398,-3.148 0.282,-6.191 -0.54,-9.274c-0.368,-1.381 -1.577,-3.226 -0.713,-4.511c3.109,6.69 6.512,13.475 6.517,21.054l0.25,0c0.004,-4.596 0.805,-9.285 1.705,-13.786c0.164,-0.822 0.401,-4.209 1.562,-4.209c1.268,0 0.771,2.03 0.646,2.705c-0.57,3.077 -1.263,6.171 -1.657,9.274l10.778,-0.269l3.752,-0.669l-0.1,-3.824l-5.156,-9.023c1.961,-0.448 3.898,3.043 4.809,4.511c3.319,5.353 5.555,12.176 6.971,18.297l0.251,0c-0.655,-8.284 -2.814,-15.929 -1.755,-24.312c2.439,0.98 1.125,7.152 1.433,9.524c0.1,0.764 -0.015,2.759 0.902,3.061c0.858,0.283 2.361,-0.455 3.179,-0.722c2.95,-0.961 5.707,-2.348 8.522,-3.636c1.075,-0.492 2.6,-1.093 2.677,-2.463c0.272,-4.828 -4.071,-6.2 -6.938,-8.772c2.53,-0.263 4.376,1.397 6.266,2.864c2.823,2.191 5.604,4.679 7.911,7.413c1.329,1.575 2.314,3.689 3.869,5.013c-0.857,-2.692 -2.925,-5.221 -4.199,-7.77c-2.469,-4.942 -4.376,-10.295 -5.074,-15.791l0.25,0l4.763,12.532c2.588,-0.88 4.689,-3.955 6.363,-6.015c0.753,-0.927 1.686,-1.779 1.657,-3.008c4.208,-1.513 -1.187,-4.852 -2.005,-6.266c2.914,-0.438 5.536,2.382 8.271,3.008c-1.219,-2.612 -3.34,-6.026 -2.757,-9.023l0.501,0l1.755,5.012c4.391,-4.059 9.589,-8.224 12.858,-13.284c4.616,-7.144 4.587,-16.18 1.357,-23.811c-0.884,-2.089 -1.726,-5.052 -3.285,-6.73c-2.218,-2.388 -4.137,1.631 -4.413,3.472c1.09,0.163 2.086,0.53 3.006,1.153c3.399,2.3 3.574,6.333 2.144,9.875c-0.607,1.502 -1.73,2.845 -1.839,4.512c-0.134,2.065 0.977,4.027 1.334,6.015c0.593,3.301 -1.022,6.814 -3.392,9c-2.199,2.028 -5.281,3.147 -8.271,2.705c-1.383,-0.204 -2.855,-1.51 -4.26,-0.99c-2.205,0.814 -2.634,4.15 -4.012,5.828c-0.621,-3.769 2.239,-5.938 2.837,-9.274c0.31,-1.735 -0.96,-4.607 -1.501,-6.266c-0.428,-1.313 -1.088,-5.006 -3.087,-4.254c-1.291,0.486 -1.94,1.952 -2.696,3.001c-1.786,2.475 -3.409,5.505 -6.581,6.266c1.165,-3.008 4.325,-5.525 6.093,-8.271c3.507,-5.448 7.226,-14.658 2.582,-20.553c-1.399,-1.776 -3.645,-3.031 -5.667,-3.98c-2.782,-1.306 -5.842,-1.713 -8.773,-2.537l0,-0.501l3.509,-0.501l-0.752,-5.515l-2.255,0.752c0.025,-9.176 9.209,-14.182 15.539,-19.048l-1.157,3.258l3.125,4.762l6.304,9.775l-2.507,-0.25c0.484,3.589 1.341,6.953 0.076,10.527c-0.814,2.296 -2.815,4.211 -3.421,6.516c-0.306,1.163 0.251,2.341 0.252,3.509c0.002,1.63 -0.558,3.196 -0.917,4.762c4.489,-2.136 5.348,-8.686 10.026,-10.276c-0.382,-2.218 -1.325,-4.221 -1.482,-6.517c-0.339,-4.953 0.639,-9.849 -0.132,-14.788c-0.845,-5.405 -3.198,-10.247 -5.154,-15.289l2.256,1.003c0.52,-3.467 3.376,-5.341 5.264,-8.021c-2.898,1.055 -7.349,4.647 -10.527,2.755c-2.193,-1.305 -2.988,-4.177 -5.264,-5.261l-3.008,12.031l-0.25,0c-1.323,-5.555 1.517,-10.81 2.757,-16.041c-3.819,3.089 -6.487,6.988 -11.78,7.769l7.268,-5.285l1.668,-2.441l-2.169,-1.874l-5.514,-3.934l2.506,0.501l1.003,-8.02l-0.251,0c-0.569,0.999 -1.244,1.911 -2.028,2.757c-1.035,1.117 -2.395,2.907 -3.881,3.418c-2.915,1.002 -6.943,-2.393 -9.631,-3.168l0,11.53c-2.56,-0.428 -2.228,-3.013 -2.254,-5.264c-0.06,-4.954 -0.214,-9.829 -0.002,-14.788l-0.25,0c-0.75,5.573 -2.577,13.513 -8.021,16.292c1.558,-2.502 3.04,-4.639 3.865,-7.519c0.244,-0.849 0.957,-2.299 0.062,-2.973c-2.526,-1.902 -6.4,-0.277 -8.475,-3.297c-2.04,-2.969 -0.701,-6.751 -1.968,-9.771l0,0Z" style="fill:#5acc01;fill-rule:nonzero;stroke:#5acc01;stroke-width:0.6px;"/><path id="path27248" d="M99.294,13.526l0.251,0.251l-0.251,-0.251m-0.25,0.752l0.25,0.251l-0.25,-0.251Z" style="fill:#fff;fill-rule:nonzero;"/><path id="path27249" d="M129.121,15.281l0.25,0.25l-0.25,-0.25Z" style="fill:#fff;fill-rule:nonzero;"/><path id="path27250" d="M113.33,15.782l0.251,0.251l-0.251,-0.251Z" style="fill:#fff;fill-rule:nonzero;"/><path id="path27251" d="M128.87,16.283l0.251,0.251l-0.251,-0.251Z" style="fill:#fff;fill-rule:nonzero;"/><path id="path27252" d="M113.08,16.534l0.25,0.251l-0.25,-0.251Z" style="fill:#fff;fill-rule:nonzero;"/><path id="path27253" d="M71.724,18.539l0.25,0.251l-0.25,-0.251Z" style="fill:#fff;fill-rule:nonzero;"/><path id="path27254" d="M111.826,18.539l0.251,0.251l-0.251,-0.251m-0.25,0.251l0.25,0.25l-0.25,-0.25m5.765,0.25l0.25,0.251l-0.25,-0.251m-34.338,0.251l0.25,0.251l-0.25,-0.251m34.839,0l0.25,0.251l-0.25,-0.251m-45.366,0.251l0.25,0.25l-0.25,-0.25m12.281,0l0.251,0.25l-0.251,-0.25m33.586,0l0.251,0.25l-0.251,-0.25Z" style="fill:#fff;fill-rule:nonzero;"/><path id="path27255" d="M85.509,20.294l0.251,0.25l-0.251,-0.25m22.558,0l0.25,0.25l-0.25,-0.25Z" style="fill:#fff;fill-rule:nonzero;"/><path id="path27256" d="M147.668,20.294l0.251,0.25l-0.251,-0.25Z" style="fill:#fff;fill-rule:nonzero;"/><path id="path27257" d="M147.501,20.711l0.084,0.168l-0.084,-0.168Z" style="fill:#fff;fill-rule:nonzero;"/><path id="path27258" d="M72.476,20.795l0.25,0.251l-0.25,-0.251m51.381,0l0.251,0.251l-0.251,-0.251Z" style="fill:#fff;fill-rule:nonzero;"/><path id="path27259" d="M83.504,21.797l0.25,0.251l-0.25,-0.251Z" style="fill:#fff;fill-rule:nonzero;"/><path id="path27260" d="M147.167,21.797l0.251,0.251l-0.251,-0.251Z" style="fill:#fff;fill-rule:nonzero;"/><path id="path27261" d="M73.729,24.053l0.25,0.251l-0.25,-0.251m1.253,0l0.251,0.251l-0.251,-0.251m0.251,0.502l0.25,0.25l-0.25,-0.25Z" style="fill:#fff;fill-rule:nonzero;"/><path id="path27262" d="M112.328,25.557l-4.011,18.046c3.09,-1.882 3.743,-8.746 4.011,-12.031l0.25,0c0.537,2.89 0.798,5.785 1.974,8.522c0.465,1.085 0.977,2.528 2.287,2.507l-3.209,-11.279l-1.302,-5.765Z" style="fill:#fff;fill-rule:nonzero;"/><path id="path27263" d="M103.305,25.808l0.25,0.25l-0.25,-0.25m-21.305,0.501l0.251,0.251l-0.251,-0.251m-1.253,1.003l0.25,0.25l-0.25,-0.25m-1.253,0.501l0.25,0.251l-0.25,-0.251m32.082,0.752l0.25,0.25l-0.25,-0.25Z" style="fill:#fff;fill-rule:nonzero;"/><path id="path27264" d="M87.765,28.815c0.053,6.409 3.222,12.243 2.005,18.799c1.202,-0.736 1.237,-2.453 1.252,-3.76c0.036,-3.033 -0.492,-6.005 -0.5,-9.023l0.25,0c0.873,3.029 3.241,9.053 6.768,9.524c-0.424,-1.628 -1.756,-2.86 -2.648,-4.261c-1.982,-3.111 -3.923,-9.389 -7.127,-11.279Z" style="fill:#fff;fill-rule:nonzero;"/><path id="path27265" d="M77.739,29.066l0.251,0.251l-0.251,-0.251Z" style="fill:#fff;fill-rule:nonzero;"/><path id="path27266" d="M88.266,29.066l0.251,0.251l-0.251,-0.251Z" style="fill:#fff;fill-rule:nonzero;"/><path id="path27267" d="M122.604,29.317l0.251,0.25l-0.251,-0.25Z" style="fill:#fff;fill-rule:nonzero;"/><path id="path27268" d="M111.325,29.818l0.251,0.251l-0.251,-0.251m12.282,0l0.25,0.251l-0.25,-0.251Z" style="fill:#fff;fill-rule:nonzero;"/><path id="path27269" d="M144.911,29.818l0.251,0.251l-0.251,-0.251Z" style="fill:#fff;fill-rule:nonzero;"/><path id="path27270" d="M123.356,30.069l0.251,0.25l-0.251,-0.25m-1.504,0.25l0.251,0.251l-0.251,-0.251m1.253,0l0.251,0.251l-0.251,-0.251Z" style="fill:#fff;fill-rule:nonzero;"/><path id="path27271" d="M89.269,30.57l0.25,0.251l-0.25,-0.251m16.542,0.251l0.251,0.25l-0.251,-0.25Z" style="fill:#fff;fill-rule:nonzero;"/><path id="path27272" d="M146.415,30.821l0.251,0.25l-0.251,-0.25Z" style="fill:#fff;fill-rule:nonzero;"/><path id="path27273" d="M121.852,31.322l0.251,0.25l-0.251,-0.25Z" style="fill:#fff;fill-rule:nonzero;"/><path id="path27274" d="M139.146,31.572c-2.786,4.377 -6.108,10.348 -10.276,13.535l0,0.251c3.16,-0.564 6.575,-4.558 7.519,-7.519l0.251,0c-0.037,4.458 -2.086,9.185 -0.251,13.534l0.251,0c1.334,-4.512 0.639,-9.834 1.787,-14.537c0.36,-1.475 1.687,-3.933 0.719,-5.264Z" style="fill:#fff;fill-rule:nonzero;"/><path id="path27275" d="M74.481,32.074l0.25,0.25l-0.25,-0.25Z" style="fill:#fff;fill-rule:nonzero;"/><path id="path27276" d="M90.271,32.324l0.251,0.251l-0.251,-0.251m-13.785,0.502l0.25,0.25l-0.25,-0.25m-1.755,0.25l0.251,0.251l-0.251,-0.251m5.765,0l0.251,0.251l-0.251,-0.251m33.336,0l0.25,0.251l-0.25,-0.251m-2.006,0.502l0.251,0.25l-0.251,-0.25Z" style="fill:#fff;fill-rule:nonzero;"/><path id="path27277" d="M139.146,33.578l0.251,0.25l-0.251,-0.25Z" style="fill:#fff;fill-rule:nonzero;"/><path id="path27278" d="M154.436,33.828l0.25,0.251l-0.25,-0.251m-93.991,0.251l0.25,0.251l-0.25,-0.251Z" style="fill:#fff;fill-rule:nonzero;"/><path id="path27279" d="M91.274,34.079l0.25,0.251l-0.25,-0.251Z" style="fill:#fff;fill-rule:nonzero;"/><path id="path27280" d="M154.436,34.079l0.25,0.251l-0.25,-0.251Z" style="fill:#fff;fill-rule:nonzero;"/><path id="path27281" d="M137.141,34.58l0.251,0.251l-0.251,-0.251Z" style="fill:#fff;fill-rule:nonzero;"/><path id="path27282" d="M82.501,35.081l0.251,0.251l-0.251,-0.251Z" style="fill:#fff;fill-rule:nonzero;"/><path id="path27283" d="M129.622,35.081l0.251,0.251l-0.251,-0.251Z" style="fill:#fff;fill-rule:nonzero;"/><path id="path27284" d="M84.757,35.583l0.251,0.25l-0.251,-0.25Z" style="fill:#fff;fill-rule:nonzero;"/><path id="path27285" d="M85.008,35.833l0.25,0.251l-0.25,-0.251Z" style="fill:#fff;fill-rule:nonzero;"/><path id="path27286" d="M136.139,35.833l0.25,0.251l-0.25,-0.251Z" style="fill:#fff;fill-rule:nonzero;"/><path id="path27287" d="M85.258,36.084l0.251,0.251l-0.251,-0.251Z" style="fill:#fff;fill-rule:nonzero;"/><path id="path27288" d="M64.706,36.335l0.25,0.25l-0.25,-0.25Z" style="fill:#fff;fill-rule:nonzero;"/><path id="path27289" d="M152.43,36.335l0.251,0.25l-0.251,-0.25m-0.25,0.25l0.25,0.251l-0.25,-0.251m-104.769,0.502l0.251,0.25l-0.251,-0.25Z" style="fill:#fff;fill-rule:nonzero;"/><path id="path27290" d="M61.949,37.087l0.25,0.25l-0.25,-0.25Z" style="fill:#fff;fill-rule:nonzero;"/><path id="path27291" d="M91.775,37.337l0.251,0.251l-0.251,-0.251Z" style="fill:#fff;fill-rule:nonzero;"/><path id="path27292" d="M136.64,37.588l0.251,0.251l-0.251,-0.251Z" style="fill:#fff;fill-rule:nonzero;"/><path id="path27293" d="M148.671,37.588l0.251,0.251l-0.251,-0.251Z" style="fill:#fff;fill-rule:nonzero;"/><path id="path27294" d="M151.177,37.588l0.251,0.251l-0.251,-0.251Z" style="fill:#fff;fill-rule:nonzero;"/><path id="path27295" d="M136.389,37.839l0.251,0.25l-0.251,-0.25Z" style="fill:#fff;fill-rule:nonzero;"/><path id="path27296" d="M89.519,38.841l0.251,0.251l-0.251,-0.251Z" style="fill:#fff;fill-rule:nonzero;"/><path id="path27297" d="M152.681,39.092l0.251,0.25l-0.251,-0.25Z" style="fill:#fff;fill-rule:nonzero;"/><path id="path27298" d="M90.772,39.593l0.251,0.251l-0.251,-0.251Z" style="fill:#fff;fill-rule:nonzero;"/><path id="path27299" d="M145.412,39.844l0.251,0.25l-0.251,-0.25Z" style="fill:#fff;fill-rule:nonzero;"/><path id="path27300" d="M94.783,40.094l0.25,0.251l-0.25,-0.251Z" style="fill:#fff;fill-rule:nonzero;"/><path id="path27301" d="M157.193,40.596l0.25,0.25l-0.25,-0.25Z" style="fill:#fff;fill-rule:nonzero;"/><path id="path27302" d="M170.727,40.596l0.251,0.25l-0.251,-0.25Z" style="fill:#0096ff;fill-rule:nonzero;"/><path id="path27303" d="M95.284,40.846l0.251,0.251l-0.251,-0.251Z" style="fill:#fff;fill-rule:nonzero;"/><path id="path27304" d="M134.384,40.846l0.251,0.251l-0.251,-0.251Z" style="fill:#fff;fill-rule:nonzero;"/><path id="path27305" d="M170.727,40.846l0.251,0.251l-0.251,-0.251Z" style="fill:#0096ff;fill-rule:nonzero;"/><path id="path27306" d="M169.725,41.097l0.25,0.251l-0.25,-0.251m0.752,0l0.25,0.251l-0.25,-0.251Z" style="fill:#0096ff;fill-rule:nonzero;"/><path id="path27307" d="M133.883,41.348l0.251,0.25l-0.251,-0.25Z" style="fill:#fff;fill-rule:nonzero;"/><path id="path27308" d="M170.226,41.348l0.251,0.25l-0.251,-0.25Z" style="fill:#fff;fill-rule:nonzero;"/><path id="path27309" d="M94.031,41.598l0.25,0.251l-0.25,-0.251Z" style="fill:#fff;fill-rule:nonzero;"/><path id="path27310" d="M122.604,41.598c-1.48,3.339 -2.202,6.44 -5.263,8.773l0,0.501c2.2,0.579 3.733,-2.182 4.26,-4.01l0.251,0c0.218,1.684 0.422,5.186 2.256,5.764l-1.231,-5.764l-0.273,-5.264Z" style="fill:#fff;fill-rule:nonzero;"/><path id="path27311" d="M157.945,41.598l0.25,0.251l-0.25,-0.251Z" style="fill:#fff;fill-rule:nonzero;"/><path id="path27312" d="M169.975,41.598l0.251,0.251l-0.251,-0.251Z" style="fill:#fff;fill-rule:nonzero;"/><path id="path27313" d="M68.967,41.849c0.541,6.165 8.833,10.332 7.769,17.044c1.334,-0.779 0.983,-2.232 0.536,-3.509c-0.926,-2.642 -2.475,-4.953 -3.543,-7.52c2.398,2.189 5.942,4.664 9.274,3.259l-5.26,-2.18l-8.776,-7.094Z" style="fill:#fff;fill-rule:nonzero;"/><path id="path27314" d="M169.725,41.849l0.25,0.25l-0.25,-0.25Z" style="fill:#fff;fill-rule:nonzero;"/><path id="path27315" d="M169.474,42.099l0.251,0.251l-0.251,-0.251Z" style="fill:#fff;fill-rule:nonzero;"/><path id="path27316" d="M153.684,42.35l0.25,0.251l-0.25,-0.251Z" style="fill:#fff;fill-rule:nonzero;"/><path id="path27317" d="M167.218,42.35l0.251,0.251l-0.251,-0.251Z" style="fill:#fff;fill-rule:nonzero;"/><path id="path27318" d="M169.224,42.35l0.25,0.251l-0.25,-0.251Z" style="fill:#fff;fill-rule:nonzero;"/><path id="path27319" d="M94.783,42.601l0.25,0.25l-0.25,-0.25Z" style="fill:#fff;fill-rule:nonzero;"/><path id="path27320" d="M132.88,42.601l0.251,0.25l-0.251,-0.25Z" style="fill:#fff;fill-rule:nonzero;"/><path id="path27321" d="M168.973,42.601l0.251,0.25l-0.251,-0.25Z" style="fill:#fff;fill-rule:nonzero;"/><path id="path27322" d="M68.967,42.851l0.25,0.251l-0.25,-0.251m63.663,0l0.25,0.251l-0.25,-0.251Z" style="fill:#fff;fill-rule:nonzero;"/><path id="path27323" d="M168.722,42.851l0.251,0.251l-0.251,-0.251Z" style="fill:#fff;fill-rule:nonzero;"/><path id="path27324" d="M70.721,43.102l0.251,0.251l-0.251,-0.251Z" style="fill:#fff;fill-rule:nonzero;"/><path id="path27325" d="M168.472,43.102l0.25,0.251l-0.25,-0.251Z" style="fill:#fff;fill-rule:nonzero;"/><path id="path27326" d="M56.685,43.353l0.251,0.25l-0.251,-0.25Z" style="fill:#fff;fill-rule:nonzero;"/><path id="path27327" d="M132.128,43.353l0.251,0.25l-0.251,-0.25m-0.25,0.25l0.25,0.251l-0.25,-0.251Z" style="fill:#fff;fill-rule:nonzero;"/><path id="path27328" d="M53.427,43.854l0.25,0.251l-0.25,-0.251Z" style="fill:#fff;fill-rule:nonzero;"/><path id="path27329" d="M96.036,43.854l0.251,0.251l-0.251,-0.251Z" style="fill:#fff;fill-rule:nonzero;"/><path id="path27330" d="M103.555,43.854c-0.758,2.495 -2.886,7.366 -2.005,9.775l0.501,0l1.755,-6.015l0.25,0c0.62,2.268 1.269,5.709 4.011,6.015l-4.011,-9.775l-0.501,0Z" style="fill:#fff;fill-rule:nonzero;"/><path id="path27331" d="M53.677,44.105l0.251,0.25l-0.251,-0.25Z" style="fill:#fff;fill-rule:nonzero;"/><path id="path27332" d="M167.469,44.105l0.251,0.25l-0.251,-0.25Z" style="fill:#fff;fill-rule:nonzero;"/><path id="path27333" d="M53.928,44.355l0.251,0.251l-0.251,-0.251Z" style="fill:#fff;fill-rule:nonzero;"/><path id="path27334" d="M61.949,44.355l0.25,0.251l-0.25,-0.251m67.673,0l0.251,0.251l-0.251,-0.251Z" style="fill:#fff;fill-rule:nonzero;"/><path id="path27335" d="M54.179,44.606l0.25,0.251l-0.25,-0.251Z" style="fill:#fff;fill-rule:nonzero;"/><path id="path27336" d="M58.69,44.606l0.251,0.251l-0.251,-0.251Z" style="fill:#fff;fill-rule:nonzero;"/><path id="path27337" d="M121.351,44.606l0.25,0.251l-0.25,-0.251m1.504,0l0.25,0.251l-0.25,-0.251Z" style="fill:#fff;fill-rule:nonzero;"/><path id="path27338" d="M129.371,44.606l0.251,0.251l-0.251,-0.251Z" style="fill:#fff;fill-rule:nonzero;"/><path id="path27339" d="M54.429,44.857l0.251,0.25l-0.251,-0.25Z" style="fill:#fff;fill-rule:nonzero;"/><path id="path27340" d="M129.121,44.857l0.25,0.25l-0.25,-0.25m-55.894,0.501l0.251,0.25l-0.251,-0.25Z" style="fill:#fff;fill-rule:nonzero;"/><path id="path27341" d="M135.637,45.358l0.251,0.25l-0.251,-0.25Z" style="fill:#fff;fill-rule:nonzero;"/><path id="path27342" d="M70.721,46.11l0.251,0.25l-0.251,-0.25m49.878,0.25l0.251,0.251l-0.251,-0.251Z" style="fill:#fff;fill-rule:nonzero;"/><path id="path27343" d="M62.7,46.611l0.251,0.251l-0.251,-0.251m-6.266,0.251l0.251,0.25l-0.251,-0.25Z" style="fill:#fff;fill-rule:nonzero;"/><path id="path27344" d="M74.982,46.862l0.251,0.25l-0.251,-0.25m14.788,0l0.251,0.25l-0.251,-0.25Z" style="fill:#fff;fill-rule:nonzero;"/><path id="path27345" d="M152.681,46.862l0.251,0.25l-0.251,-0.25Z" style="fill:#fff;fill-rule:nonzero;"/><path id="path27346" d="M90.271,47.363l0.251,0.251l-0.251,-0.251m13.535,0.251l0.25,0.25l-0.25,-0.25m18.046,0l0.251,0.25l-0.251,-0.25m-49.376,1.002l0.25,0.251l-0.25,-0.251Z" style="fill:#fff;fill-rule:nonzero;"/><path id="path27347" d="M164.963,48.616l0.25,0.251l-0.25,-0.251Z" style="fill:#fff;fill-rule:nonzero;"/><path id="path27348" d="M75.734,49.368l0.251,0.251l-0.251,-0.251Z" style="fill:#fff;fill-rule:nonzero;"/><path id="path27349" d="M163.709,49.368l0.251,0.251l-0.251,-0.251Z" style="fill:#fff;fill-rule:nonzero;"/><path id="path27350" d="M73.227,49.619l0.251,0.25l-0.251,-0.25m46.369,0.25l0.251,0.251l-0.251,-0.251Z" style="fill:#fff;fill-rule:nonzero;"/><path id="path27351" d="M86.762,50.12l1.253,10.527l0.502,0l-0.251,-7.519c1.634,1.138 3.846,3.943 6.015,3.007c-0.837,-0.906 -2.05,-1.066 -3.006,-1.84c-1.556,-1.259 -2.376,-4.007 -4.513,-4.175Z" style="fill:#fff;fill-rule:nonzero;"/><path id="path27352" d="M74.982,50.621l0.251,0.251l-0.251,-0.251m42.359,0.251l0.25,0.251l-0.25,-0.251m-43.111,0.251l0.251,0.25l-0.251,-0.25m27.069,0l0.251,0.25l-0.251,-0.25Z" style="fill:#fff;fill-rule:nonzero;"/><path id="path27353" d="M136.139,51.123l0.25,0.25l-0.25,-0.25m0.501,0l0.251,0.25l-0.251,-0.25Z" style="fill:#fff;fill-rule:nonzero;"/><path id="path27354" d="M141.904,51.624c-2.644,2.651 -4.853,4.472 -8.522,5.514l0,0.501c2.171,0.624 4.27,-0.58 6.015,-1.754c-0.285,1.471 -2.162,5.324 -0.752,6.266l2.407,-7.269l0.852,-3.258Z" style="fill:#fff;fill-rule:nonzero;"/><path id="path27355" d="M89.018,51.875l0.251,0.25l-0.251,-0.25m-28.573,0.25l0.25,0.251l-0.25,-0.251m40.353,0l0.251,0.251l-0.251,-0.251m23.31,0l0.251,0.251l-0.251,-0.251Z" style="fill:#fff;fill-rule:nonzero;"/><path id="path27356" d="M141.152,52.125l0.25,0.251l-0.25,-0.251Z" style="fill:#fff;fill-rule:nonzero;"/><path id="path27357" d="M43.401,52.626l0.251,0.251l-0.251,-0.251Z" style="fill:#fff;fill-rule:nonzero;"/><path id="path27358" d="M107.315,52.626l0.251,0.251l-0.251,-0.251Z" style="fill:#fff;fill-rule:nonzero;"/><path id="path27359" d="M56.936,52.877l0.25,0.251l-0.25,-0.251Z" style="fill:#fff;fill-rule:nonzero;"/><path id="path27360" d="M165.213,52.877l0.251,0.251l-0.251,-0.251Z" style="fill:#fff;fill-rule:nonzero;"/><path id="path27361" d="M75.233,53.128l0.25,0.25l-0.25,-0.25m1.002,0l0.251,0.25l-0.251,-0.25m25.816,0l0.251,0.25l-0.251,-0.25m-43.611,0.25l0.25,0.251l-0.25,-0.251Z" style="fill:#fff;fill-rule:nonzero;"/><path id="path27362" d="M139.648,53.88l0.25,0.25l-0.25,-0.25m1.504,0.25l0.25,0.251l-0.25,-0.251Z" style="fill:#fff;fill-rule:nonzero;"/><path id="path27363" d="M156.942,54.13l0.251,0.251l-0.251,-0.251Z" style="fill:#fff;fill-rule:nonzero;"/><path id="path27364" d="M42.649,54.381l0.251,0.251l-0.251,-0.251Z" style="fill:#fff;fill-rule:nonzero;"/><path id="path27365" d="M90.271,54.632l0.251,0.25l-0.251,-0.25m-13.284,0.25l0.251,0.251l-0.251,-0.251m15.039,0l0.25,0.251l-0.25,-0.251Z" style="fill:#fff;fill-rule:nonzero;"/><path id="path27366" d="M43.401,55.133l0.251,0.251l-0.251,-0.251Z" style="fill:#fff;fill-rule:nonzero;"/><path id="path27367" d="M137.893,55.133l0.251,0.251l-0.251,-0.251Z" style="fill:#fff;fill-rule:nonzero;"/><path id="path27368" d="M91.274,55.384l0.25,0.25l-0.25,-0.25m2.757,0.25l0.25,0.251l-0.25,-0.251Z" style="fill:#fff;fill-rule:nonzero;"/><path id="path27369" d="M138.896,55.885l0.25,0.25l-0.25,-0.25Z" style="fill:#fff;fill-rule:nonzero;"/><path id="path27370" d="M92.527,56.135l0.251,0.251l-0.251,-0.251m0.501,0.251l0.251,0.251l-0.251,-0.251m42.359,0l0.25,0.251l-0.25,-0.251Z" style="fill:#fff;fill-rule:nonzero;"/><path id="path27371" d="M151.428,56.386l0.251,0.251l-0.251,-0.251m-106.774,0.251l0.251,0.25l-0.251,-0.25Z" style="fill:#fff;fill-rule:nonzero;"/><path id="path27372" d="M144.661,67.916c5.734,-1.381 12.005,-2.197 17.795,-1.003c-0.862,-2.994 -3.098,-5.453 -5.081,-7.77c-0.678,-0.792 -1.542,-2.257 -2.69,-2.344c-1.359,-0.103 -2.546,1.208 -3.508,1.966c-2.815,2.218 -5.242,5.782 -6.516,9.151Z" style="fill:#5acc01;fill-rule:nonzero;stroke:#fff;stroke-width:1.73px;"/><path id="path27373" d="M136.891,57.138l0.25,0.251l-0.25,-0.251Z" style="fill:#fff;fill-rule:nonzero;"/><path id="path27374" d="M150.425,57.138l0.251,0.251l-0.251,-0.251Z" style="fill:#fff;fill-rule:nonzero;"/><path id="path27375" d="M99.044,57.389l-1.504,7.77c1.258,-0.954 1.55,-3.996 1.754,-5.515l2.256,2.507c-0.263,-1.69 -1.25,-3.602 -2.506,-4.762Z" style="fill:#fff;fill-rule:nonzero;"/><path id="path27376" d="M133.382,57.639l0.25,0.251l-0.25,-0.251Z" style="fill:#fff;fill-rule:nonzero;"/><path id="path27377" d="M138.896,57.639l0.25,0.251l-0.25,-0.251m17.294,0.251l0.251,0.251l-0.251,-0.251Z" style="fill:#fff;fill-rule:nonzero;"/><path id="path27378" d="M123.607,58.141l-4.763,4.762l4.512,-3.259l0.752,4.512c0.876,-1.285 0.417,-4.805 -0.501,-6.015m-53.137,0.752l0,0.25c2.113,2.132 3.851,5.068 5.17,7.77c0.726,1.488 0.52,3.127 2.099,4.01c-0.126,-2.93 -1.379,-5.152 -2.506,-7.77c1.775,1.037 4.155,2.585 6.266,2.006l0,-0.502c-2.845,-1.264 -5.047,-2.339 -7.52,-4.309c-1.053,-0.839 -2.131,-1.924 -3.509,-1.455Z" style="fill:#fff;fill-rule:nonzero;"/><path id="path27379" d="M151.177,58.642l0.251,0.251l-0.251,-0.251m-50.88,0.501l0.251,0.251l-0.251,-0.251m-29.576,0.251l0.251,0.25l-0.251,-0.25m29.827,0.25l0.25,0.251l-0.25,-0.251Z" style="fill:#fff;fill-rule:nonzero;"/><path id="path27380" d="M157.694,59.644l0.251,0.251l-0.251,-0.251Z" style="fill:#fff;fill-rule:nonzero;"/><path id="path27381" d="M99.796,59.895l0.25,0.251l-0.25,-0.251Z" style="fill:#fff;fill-rule:nonzero;"/><path id="path27382" d="M147.668,59.895l0.251,0.251l-0.251,-0.251Z" style="fill:#fff;fill-rule:nonzero;"/><path id="path27383" d="M160.2,59.895l0.251,0.251l-0.251,-0.251Z" style="fill:#fff;fill-rule:nonzero;"/><path id="path27384" d="M46.409,60.146l0.25,0.25l-0.25,-0.25Z" style="fill:#fff;fill-rule:nonzero;"/><path id="path27385" d="M121.351,60.146l0.25,0.25l-0.25,-0.25m2.005,0l0.251,0.25l-0.251,-0.25m14.788,0l0.251,0.25l-0.251,-0.25m-64.165,0.25l0.251,0.251l-0.251,-0.251m25.065,0l0.25,0.251l-0.25,-0.251Z" style="fill:#fff;fill-rule:nonzero;"/><path id="path27386" d="M167.72,60.396l0.25,0.251l-0.25,-0.251Z" style="fill:#0096ff;fill-rule:nonzero;stroke:#fff;stroke-width:1.73px;"/><path id="path27387" d="M148.922,60.647l0.25,0.251l-0.25,-0.251Z" style="fill:#fff;fill-rule:nonzero;"/><path id="path27388" d="M121.601,60.898l0.251,0.25l-0.251,-0.25Z" style="fill:#fff;fill-rule:nonzero;"/><path id="path27389" d="M53.677,61.148c0.236,2.114 1.966,2.903 3.509,4.07c2.119,1.603 4.087,3.338 5.706,5.455c1.054,1.379 1.704,3.763 3.067,4.762c-0.293,-3.685 -2.468,-8.022 -6.016,-9.524l0,-0.251c3.608,0.699 7.2,2.041 10.778,0.501l0,-0.501l-4.261,-0.168l-12.783,-4.344Z" style="fill:#fff;fill-rule:nonzero;"/><path id="path27390" d="M72.225,61.148l0.251,0.251l-0.251,-0.251m47.622,0.251l0.251,0.251l-0.251,-0.251m18.798,0l0.251,0.251l-0.251,-0.251m-63.162,0.251l0.251,0.25l-0.251,-0.25m44.113,0l0.251,0.25l-0.251,-0.25Z" style="fill:#fff;fill-rule:nonzero;"/><path id="path27391" d="M161.454,61.65l0.25,0.25l-0.25,-0.25Z" style="fill:#fff;fill-rule:nonzero;"/><path id="path27392" d="M145.914,61.9l0.25,0.251l-0.25,-0.251Z" style="fill:#fff;fill-rule:nonzero;"/><path id="path27393" d="M170.226,61.9l0.501,6.016l5.515,0.752c-0.924,-2.435 -3.557,-5.815 -6.016,-6.768Z" style="fill:#5acc01;fill-rule:nonzero;stroke:#fff;stroke-width:1.73px;"/><path id="path27394" d="M101.55,62.151l0.251,0.251l-0.251,-0.251Z" style="fill:#fff;fill-rule:nonzero;"/><path id="path27395" d="M109.571,62.151l-2.256,4.261l2.506,-2.757l1.504,2.506l-1.754,-4.01Z" style="fill:#fff;fill-rule:nonzero;"/><path id="path27396" d="M138.395,62.151l0.25,0.251l-0.25,-0.251Z" style="fill:#fff;fill-rule:nonzero;"/><path id="path27397" d="M170.226,62.151l0.251,0.251l-0.251,-0.251Z" style="fill:#0096ff;fill-rule:nonzero;stroke:#fff;stroke-width:1.73px;"/><path id="path27398" d="M72.977,62.402l0.25,0.25l-0.25,-0.25m3.509,0l0.25,0.25l-0.25,-0.25Z" style="fill:#fff;fill-rule:nonzero;"/><path id="path27399" d="M159.95,62.402l0.25,0.25l-0.25,-0.25Z" style="fill:#fff;fill-rule:nonzero;"/><path id="path27400" d="M45.907,62.652l0.251,0.251l-0.251,-0.251Z" style="fill:#fff;fill-rule:nonzero;"/><path id="path27401" d="M108.819,62.903l0.25,0.25l-0.25,-0.25m-31.08,0.25l0.251,0.251l-0.251,-0.251m-1.504,0.502l0.251,0.25l-0.251,-0.25m48.124,0l0.25,0.25l-0.25,-0.25m48.123,0l0.251,0.25l-0.251,-0.25m-62.661,0.25l0.251,0.251l-0.251,-0.251m62.912,0l0.25,0.251l-0.25,-0.251m-111.035,0.251l0.251,0.251l-0.251,-0.251m111.285,0l0.251,0.251l-0.251,-0.251m-116.799,0.251l0.25,0.25l-0.25,-0.25m54.64,0l0.25,0.25l-0.25,-0.25Z" style="fill:#0e0d08;fill-rule:nonzero;"/><path id="path27402" d="M45.406,64.908l0.251,0.251l-0.251,-0.251Z" style="fill:#fff;fill-rule:nonzero;"/><path id="path27403" d="M56.936,64.908l0.25,0.251l-0.25,-0.251Z" style="fill:#fff;fill-rule:nonzero;"/><path id="path27404" d="M146.164,64.908l0.251,0.251l-0.251,-0.251Z" style="fill:#fff;fill-rule:nonzero;"/><path id="path27405" d="M97.79,65.159l0.251,0.25l-0.251,-0.25m10.527,0.25l0.251,0.251l-0.251,-0.251Z" style="fill:#fff;fill-rule:nonzero;"/><path id="path27406" d="M45.156,65.911l0.25,0.25l-0.25,-0.25Z" style="fill:#fff;fill-rule:nonzero;"/><path id="path27407" d="M61.698,65.911l0.251,0.25l-0.251,-0.25m14.788,0l0.25,0.25l-0.25,-0.25m-1.253,0.25l0.25,0.251l-0.25,-0.251Z" style="fill:#fff;fill-rule:nonzero;"/><path id="path27408" d="M145.412,66.161l0.251,0.251l-0.251,-0.251Z" style="fill:#fff;fill-rule:nonzero;"/><path id="path27409" d="M156.19,66.161l0.251,0.251l-0.251,-0.251Z" style="fill:#fff;fill-rule:nonzero;"/><path id="path27410" d="M160.702,66.412l0.25,0.25l-0.25,-0.25Z" style="fill:#fff;fill-rule:nonzero;"/><path id="path27411" d="M59.442,66.913l0.251,0.251l-0.251,-0.251m16.292,0.251l0.251,0.25l-0.251,-0.25Z" style="fill:#fff;fill-rule:nonzero;"/><path id="path27412" d="M175.74,67.665l0.251,0.251l-0.251,-0.251Z" style="fill:#0096ff;fill-rule:nonzero;stroke:#fff;stroke-width:1.73px;"/><path id="path27413" d="M133.632,68.166l-4.261,3.259l3.76,-2.005l-0.501,3.007c1.066,-0.743 1.463,-3.08 1.002,-4.261Z" style="fill:#fff;fill-rule:nonzero;"/><path id="path27414" d="M158.697,83.205c1.901,-0.906 2.811,-3.072 3.324,-5.013c0.632,-2.389 1.453,-8.688 -1.581,-9.875c-1.669,-0.652 -4.457,0.1 -6.255,0.1c-1.628,0 -5.103,-0.248 -6.366,0.966c-1.165,1.121 -0.294,5.346 0.565,6.484c0.891,1.183 3.012,1.417 4.297,2.02c2.562,1.201 4.624,2.82 6.016,5.318l0,0Z" style="fill:#fff;fill-rule:nonzero;"/><path id="path27415" d="M165.715,68.417l0.25,0.251l-0.25,-0.251Z" style="fill:#0096ff;fill-rule:nonzero;"/><path id="path27416" d="M174.738,68.417l0.25,0.251l-0.25,-0.251m1.504,0l-0.251,0.501l0.251,-0.501Z" style="fill:#0096ff;fill-rule:nonzero;stroke:#fff;stroke-width:1.73px;"/><path id="path27417" d="M161.203,68.668l0.251,0.25l-0.251,-0.25Z" style="fill:#0096ff;fill-rule:nonzero;"/><path id="path27418" d="M140.837,77.165l0.251,0.25l-0.251,-0.25Z" style="fill:#fff;fill-rule:nonzero;"/><path id="path27419" d="M46.409,68.918l0.25,0.251l-0.25,-0.251Z" style="fill:#fff;fill-rule:nonzero;"/><path id="path27420" d="M132.128,68.918l0.251,0.251l-0.251,-0.251Z" style="fill:#fff;fill-rule:nonzero;"/><path id="path27421" d="M39.641,69.169l0.251,0.251l-0.251,-0.251Z" style="fill:#fff;fill-rule:nonzero;"/><path id="path27422" d="M147.418,69.169l0.25,0.251l-0.25,-0.251m14.036,0l0.25,0.251l-0.25,-0.251m-83.966,0.251l0.251,0.25l-0.251,-0.25m55.392,0l0.251,0.25l-0.251,-0.25Z" style="fill:#fff;fill-rule:nonzero;"/><path id="path27423" d="M41.145,69.67l0.251,0.251l-0.251,-0.251Z" style="fill:#fff;fill-rule:nonzero;"/><path id="path27424" d="M130.875,69.67l0.251,0.251l-0.251,-0.251Z" style="fill:#fff;fill-rule:nonzero;"/><path id="path27425" d="M161.704,69.67l0.251,0.251l-0.251,-0.251Z" style="fill:#0096ff;fill-rule:nonzero;"/><path id="path27426" d="M170.226,69.67l0,2.256c4.545,-1.644 5.575,5.005 0.752,4.762l1.003,5.765c3.358,-1.567 4.905,-9.125 2.147,-11.951c-0.832,-0.853 -2.775,-0.743 -3.902,-0.832Z" style="fill:#fff;fill-rule:nonzero;"/><path id="path27427" d="M38.138,69.921l0.25,0.25l-0.25,-0.25Z" style="fill:#fff;fill-rule:nonzero;"/><path id="path27428" d="M64.204,70.171l0.251,0.251l-0.251,-0.251m67.423,0l0.251,0.251l-0.251,-0.251m12.532,0l0.251,0.251l-0.251,-0.251Z" style="fill:#fff;fill-rule:nonzero;"/><path id="path27429" d="M161.955,70.171l0.251,0.251l-0.251,-0.251m12.031,0l0.25,0.251l-0.25,-0.251Z" style="fill:#0096ff;fill-rule:nonzero;"/><path id="path27430" d="M38.889,70.422l0.251,0.251l-0.251,-0.251Z" style="fill:#fff;fill-rule:nonzero;"/><path id="path27431" d="M143.658,70.422l0.251,0.251l-0.251,-0.251m-66.42,0.251l0.25,0.25l-0.25,-0.25Z" style="fill:#fff;fill-rule:nonzero;"/><path id="path27432" d="M157.443,70.673c-0.513,0.528 -1.262,0.911 -1.64,1.557c-2.649,4.529 7.363,4.647 4.534,-0.251c-0.322,-0.558 -0.893,-0.921 -1.39,-1.306l-1.504,0.752l0,-0.752Z" style="fill:#5acc01;fill-rule:nonzero;"/><path id="path27433" d="M157.694,70.673l0,0.25l1.003,0l-1.003,-0.25Z" style="fill:#0096ff;fill-rule:nonzero;"/><path id="path27434" d="M162.206,70.673l0.25,0.25l-0.25,-0.25Z" style="fill:#0096ff;fill-rule:nonzero;"/><path id="path27435" d="M39.641,70.923l0.251,0.251l-0.251,-0.251Z" style="fill:#fff;fill-rule:nonzero;"/><path id="path27436" d="M156.775,71.091l0.084,0.167l-0.084,-0.167Z" style="fill:#0096ff;fill-rule:nonzero;"/><path id="path27437" d="M157.109,71.007l0.167,0.084l-0.167,-0.084m0.334,0.167l0,0.251l1.254,-0.251l-1.254,0Z" style="fill:#0096ff;fill-rule:nonzero;"/><path id="path27438" d="M159.198,70.923l0.25,0.251l-0.25,-0.251Z" style="fill:#0096ff;fill-rule:nonzero;"/><path id="path27439" d="M156.441,71.174l0.25,0.251l-0.25,-0.251Z" style="fill:#0096ff;fill-rule:nonzero;"/><path id="path27440" d="M159.699,71.174l0.251,0.251l-0.251,-0.251Z" style="fill:#0096ff;fill-rule:nonzero;"/><path id="path27441" d="M40.393,71.425l0.251,0.25l-0.251,-0.25Z" style="fill:#fff;fill-rule:nonzero;"/><path id="path27442" d="M156.19,71.425l0.251,0.25l-0.251,-0.25Z" style="fill:#0096ff;fill-rule:nonzero;"/><path id="path27443" d="M170.978,71.425l0.752,0.501l0,-0.251l-0.752,-0.25Z" style="fill:#0096ff;fill-rule:nonzero;"/><path id="path27444" d="M171.229,71.425l0.25,0.25l-0.25,-0.25Z" style="fill:#0096ff;fill-rule:nonzero;"/><path id="path27445" d="M171.479,71.425l0.251,0.25l-0.251,-0.25Z" style="fill:#0096ff;fill-rule:nonzero;"/><path id="path27446" d="M171.981,71.425l0.25,0.25l-0.25,-0.25Z" style="fill:#0096ff;fill-rule:nonzero;"/><path id="path27447" d="M172.231,71.425l0.251,0.25l-0.251,-0.25Z" style="fill:#0096ff;fill-rule:nonzero;"/><path id="path27448" d="M64.956,71.675l0.251,0.251l-0.251,-0.251Z" style="fill:#fff;fill-rule:nonzero;"/><path id="path27449" d="M104.808,71.675c0,1.277 -0.246,2.57 1.003,3.259l0,-2.507l3.008,1.003l-4.011,-1.755Z" style="fill:#fff;fill-rule:nonzero;"/><path id="path27450" d="M105.31,71.675l0.25,0.251l-0.25,-0.251Z" style="fill:#fff;fill-rule:nonzero;"/><path id="path27451" d="M170.477,71.675l0.25,0.251l-0.25,-0.251Z" style="fill:#0096ff;fill-rule:nonzero;"/><path id="path27452" d="M170.727,71.675l0.502,0.502l0,-0.502l-0.502,0m1.254,0l0.25,0.251l-0.25,-0.251Z" style="fill:#0096ff;fill-rule:nonzero;"/><path id="path27453" d="M106.062,71.926l0.25,0.251l-0.25,-0.251Z" style="fill:#fff;fill-rule:nonzero;"/><path id="path27454" d="M155.689,71.926l0.251,0.251l-0.251,-0.251Z" style="fill:#0096ff;fill-rule:nonzero;"/><path id="path27455" d="M169.725,71.926l0.25,0.251l-0.25,-0.251Z" style="fill:#0096ff;fill-rule:nonzero;"/><path id="path27456" d="M169.975,71.926l0.251,0.251l-0.251,-0.251Z" style="fill:#0096ff;fill-rule:nonzero;"/><path id="path27457" d="M120.098,75.184l1.253,-2.255l1.504,1.002c-1.102,-2.948 -2.74,-0.837 -2.757,1.253Z" style="fill:#fff;fill-rule:nonzero;"/><path id="path27458" d="M160.451,72.177l0.251,0.25l-0.251,-0.25m9.274,0l0.25,0.25l-0.25,-0.25Z" style="fill:#0096ff;fill-rule:nonzero;"/><path id="path27459" d="M89.77,72.427c0.443,1.618 1.138,3 2.506,4.011l-1.504,-3.259l3.008,0.251c-0.776,-1.409 -2.595,-1.003 -4.01,-1.003Z" style="fill:#fff;fill-rule:nonzero;"/><path id="path27460" d="M93.279,72.427l0.251,0.251l-0.251,-0.251m12.532,0l0.251,0.251l-0.251,-0.251Z" style="fill:#fff;fill-rule:nonzero;"/><path id="path27461" d="M169.474,72.427l0.251,0.251l-0.251,-0.251Z" style="fill:#0096ff;fill-rule:nonzero;"/><path id="path27462" d="M42.148,72.678l0.25,0.251l-0.25,-0.251Z" style="fill:#fff;fill-rule:nonzero;"/><path id="path27463" d="M122.103,72.678l0.25,0.251l-0.25,-0.251Z" style="fill:#fff;fill-rule:nonzero;"/><path id="path27464" d="M169.224,72.678l0.25,0.251l-0.25,-0.251Z" style="fill:#0096ff;fill-rule:nonzero;"/><path id="path27465" d="M106.814,72.929l0.25,0.25l-0.25,-0.25Z" style="fill:#fff;fill-rule:nonzero;"/><path id="path27466" d="M76.987,73.931l3.509,4.261l-2.005,-3.509l3.008,-0.501l-0.251,-1.003l-4.261,0.752Z" style="fill:#fff;fill-rule:nonzero;"/><path id="path27467" d="M90.772,73.179l0.251,0.251l-0.251,-0.251Z" style="fill:#fff;fill-rule:nonzero;"/><path id="path27468" d="M160.702,73.179l0.25,0.251l-0.25,-0.251Z" style="fill:#0096ff;fill-rule:nonzero;"/><path id="path27469" d="M168.973,73.179l0,0.752l0.251,0l-0.251,-0.752Z" style="fill:#0096ff;fill-rule:nonzero;"/><path id="path27470" d="M90.021,73.43l0.25,0.25l-0.25,-0.25Z" style="fill:#fff;fill-rule:nonzero;"/><path id="path27471" d="M168.973,73.931l0.251,0.251l-0.251,-0.251Z" style="fill:#0096ff;fill-rule:nonzero;"/><path id="path27472" d="M65.708,74.182l0.251,0.25l-0.251,-0.25m11.279,0l0.251,0.25l-0.251,-0.25Z" style="fill:#fff;fill-rule:nonzero;"/><path id="path27473" d="M168.973,74.182l0,0.752l0.251,0l-0.251,-0.752Z" style="fill:#0096ff;fill-rule:nonzero;"/><path id="path27474" d="M160.284,74.6l0.084,0.167l-0.084,-0.167m13.952,-0.168l0.251,0.251l-0.251,-0.251Z" style="fill:#0096ff;fill-rule:nonzero;"/><path id="path27475" d="M65.207,74.683l0.251,0.251l-0.251,-0.251m39.852,0l0.251,0.251l-0.251,-0.251m-60.154,0.251l0.251,0.25l-0.251,-0.25m45.867,0l0.251,0.25l-0.251,-0.25Z" style="fill:#fff;fill-rule:nonzero;"/><path id="path27476" d="M155.94,74.934l0.25,0.25l-0.25,-0.25Z" style="fill:#0096ff;fill-rule:nonzero;"/><path id="path27477" d="M45.156,75.184l0.25,0.251l-0.25,-0.251Z" style="fill:#fff;fill-rule:nonzero;"/><path id="path27478" d="M169.224,75.184l0.25,0.251l-0.25,-0.251Z" style="fill:#0096ff;fill-rule:nonzero;"/><path id="path27479" d="M159.448,75.435l0.251,0.251l-0.251,-0.251Z" style="fill:#0096ff;fill-rule:nonzero;"/><path id="path27480" d="M169.224,75.435l0.25,0.251l-0.25,-0.251Z" style="fill:#0096ff;fill-rule:nonzero;"/><path id="path27481" d="M156.942,75.686l0.251,0.25l-0.251,-0.25Z" style="fill:#0096ff;fill-rule:nonzero;"/><path id="path27482" d="M157.193,75.686l0.25,0.25l-0.25,-0.25m1.671,0.083l0.167,0.084l-0.167,-0.084Z" style="fill:#0096ff;fill-rule:nonzero;"/><path id="path27483" d="M169.474,75.686l0.251,0.25l-0.251,-0.25Z" style="fill:#0096ff;fill-rule:nonzero;"/><path id="path27484" d="M173.568,75.853l0.084,0.167l-0.084,-0.167Z" style="fill:#0096ff;fill-rule:nonzero;"/><path id="path27485" d="M173.735,75.686l0.251,0.25l-0.251,-0.25Z" style="fill:#0096ff;fill-rule:nonzero;"/><path id="path27486" d="M45.907,75.936l0.251,0.251l-0.251,-0.251Z" style="fill:#fff;fill-rule:nonzero;"/><path id="path27487" d="M157.945,75.936l0.25,0.251l-0.25,-0.251Z" style="fill:#0096ff;fill-rule:nonzero;"/><path id="path27488" d="M169.725,75.936l0.25,0.251l-0.25,-0.251Z" style="fill:#0096ff;fill-rule:nonzero;"/><path id="path27489" d="M148.42,76.187l0.251,0.251l-0.251,-0.251Z" style="fill:#0096ff;fill-rule:nonzero;"/><path id="path27490" d="M169.975,76.187l0.251,0.251l-0.251,-0.251Z" style="fill:#0096ff;fill-rule:nonzero;"/><path id="path27491" d="M170.477,76.187l0.25,0.251l-0.25,-0.251Z" style="fill:#0096ff;fill-rule:nonzero;"/><path id="path27492" d="M51.672,80.949l0,0.501l7.269,2.507c-0.148,-1.905 -2.611,-2.473 -4.261,-2.757l5.013,-4.512c-2.664,-0.312 -5.862,2.934 -8.021,4.261Z" style="fill:#fff;fill-rule:nonzero;"/><path id="path27493" d="M170.226,76.438l0.251,0.25l-0.251,-0.25Z" style="fill:#0096ff;fill-rule:nonzero;"/><path id="path27494" d="M170.477,76.438l0.25,0.25l-0.25,-0.25Z" style="fill:#0096ff;fill-rule:nonzero;"/><path id="path27495" d="M170.727,76.438l0.251,0.25l-0.251,-0.25Z" style="fill:#0096ff;fill-rule:nonzero;"/><path id="path27496" d="M171.73,76.438l0,0.25l0.752,0l-0.752,-0.25Z" style="fill:#0096ff;fill-rule:nonzero;"/><path id="path27497" d="M46.659,76.688l0.251,0.251l-0.251,-0.251Z" style="fill:#fff;fill-rule:nonzero;"/><path id="path27498" d="M162.206,76.688l0.25,0.251l-0.25,-0.251m9.524,0l0.251,0.251l-0.251,-0.251Z" style="fill:#0096ff;fill-rule:nonzero;"/><path id="path27499" d="M150.425,76.939l0.251,0.25l-0.251,-0.25Z" style="fill:#0096ff;fill-rule:nonzero;"/><path id="path27500" d="M62.199,79.947l0,0.501l5.514,1.981l3.259,2.28c-0.357,-2.662 -3.181,-3.109 -5.013,-4.512c2.328,-0.438 5.488,-0.476 6.517,-3.008l-10.277,2.758Z" style="fill:#fff;fill-rule:nonzero;"/><path id="path27501" d="M145.663,77.44l0.251,0.251l-0.251,-0.251Z" style="fill:#fff;fill-rule:nonzero;"/><path id="path27502" d="M151.679,77.44l0.25,0.251l-0.25,-0.251Z" style="fill:#fff;fill-rule:nonzero;"/><path id="path27503" d="M56.434,77.691l0.251,0.25l-0.251,-0.25m14.036,0.25l0.251,0.251l-0.251,-0.251m1.504,0l0.251,0.251l-0.251,-0.251m103.014,0l0.251,0.251l-0.251,-0.251m-127.075,0.251l0.25,0.251l-0.25,-0.251Z" style="fill:#0e0d08;fill-rule:nonzero;"/><path id="path27504" d="M174.988,78.192l0.251,0.251l-0.251,-0.251Z" style="fill:#020202;fill-rule:nonzero;"/><path id="path27505" d="M55.181,78.443l0.251,0.25l-0.251,-0.25m16.292,0l0.251,0.25l-0.251,-0.25m90.231,0.25l0.251,0.251l-0.251,-0.251m9.525,0l0.25,0.251l-0.25,-0.251m-116.8,0.251l0.251,0.251l-0.251,-0.251Z" style="fill:#0e0d08;fill-rule:nonzero;"/><path id="path27506" d="M164.211,78.944l0.25,0.251l-0.25,-0.251m-143.117,0.501l0.25,0.251l-0.25,-0.251Z" style="fill:#0f0d06;fill-rule:nonzero;"/><path id="path27507" d="M171.229,79.445l0.25,0.251l-0.25,-0.251Z" style="fill:#010101;fill-rule:nonzero;"/><path id="path27508" d="M46.91,79.947l0.251,0.25l-0.251,-0.25Z" style="fill:#fff;fill-rule:nonzero;"/><path id="path27509" d="M97.54,81.701l0.752,-1.754c-1.067,0.17 -1.907,0.994 -0.752,1.754Z" style="fill:#fff;fill-rule:nonzero;"/><path id="path27510" d="M52.675,80.197l0.25,0.251l-0.25,-0.251Z" style="fill:#fff;fill-rule:nonzero;"/><path id="path27511" d="M22.598,80.448l0.25,0.25l-0.25,-0.25Z" style="fill:#0096ff;fill-rule:nonzero;"/><path id="path27512" d="M153.182,80.448l0.251,0.25l-0.251,-0.25Z" style="fill:#fff;fill-rule:nonzero;"/><path id="path27513" d="M66.46,80.698l0.251,0.251l-0.251,-0.251Z" style="fill:#fff;fill-rule:nonzero;"/><path id="path27514" d="M171.479,80.698l0.251,0.251l-0.251,-0.251Z" style="fill:#010101;fill-rule:nonzero;"/><path id="path27515" d="M47.662,80.949l0.251,0.251l-0.251,-0.251Z" style="fill:#fff;fill-rule:nonzero;"/><path id="path27516" d="M153.934,80.949l0.251,0.251l-0.251,-0.251Z" style="fill:#fff;fill-rule:nonzero;"/><path id="path27517" d="M160.702,80.949l0.25,0.251l-0.25,-0.251Z" style="fill:#fff;fill-rule:nonzero;"/><path id="path27518" d="M9.815,81.2l0.251,0.25l-0.251,-0.25Z" style="fill:#0096ff;fill-rule:nonzero;"/><path id="path27519" d="M23.6,81.2l0.251,0.25l-0.251,-0.25Z" style="fill:#0096ff;fill-rule:nonzero;"/><path id="path27520" d="M41.647,81.2l0.25,0.25l-0.25,-0.25Z" style="fill:#fff;fill-rule:nonzero;"/><path id="path27521" d="M173.484,81.2l0.251,0.25l-0.251,-0.25Z" style="fill:#020202;fill-rule:nonzero;"/><path id="path27523" d="M68.215,81.45l0.25,0.251l-0.25,-0.251Z" style="fill:#fff;fill-rule:nonzero;"/><path id="path27524" d="M106.563,81.45l-0.251,1.755c0.785,-0.459 0.918,-0.871 0.752,-1.755l-0.501,0Z" style="fill:#fff;fill-rule:nonzero;"/><path id="path27525" d="M107.064,81.45l0.251,0.251l-0.251,-0.251Z" style="fill:#fff;fill-rule:nonzero;"/><path id="path27526" d="M117.09,83.205l0.752,-1.755c-0.972,0.282 -1.779,0.98 -0.752,1.755Z" style="fill:#fff;fill-rule:nonzero;"/><path id="path27527" d="M160.451,81.45l0.251,0.251l-0.251,-0.251Z" style="fill:#fff;fill-rule:nonzero;"/><path id="path27528" d="M173.234,81.45l0.25,0.251l-0.25,-0.251Z" style="fill:#020202;fill-rule:nonzero;"/><path id="path27529" d="M66.961,81.952l0.251,0.25l-0.251,-0.25Z" style="fill:#fff;fill-rule:nonzero;"/><path id="path27530" d="M157.945,81.952l0.25,0.25l-0.25,-0.25Z" style="fill:#fff;fill-rule:nonzero;"/><path id="path27531" d="M162.957,81.952l0.251,0.25l-0.251,-0.25Z" style="fill:#fff;fill-rule:nonzero;"/><path id="path27532" d="M172.733,81.952l0.25,0.25l-0.25,-0.25m-0.251,0.25l0.251,0.251l-0.251,-0.251Z" style="fill:#010101;fill-rule:nonzero;"/><path id="path27533" d="M69.718,82.453l0.251,0.251l-0.251,-0.251Z" style="fill:#fff;fill-rule:nonzero;"/><path id="path27534" d="M25.355,82.704l0.25,0.25l-0.25,-0.25Z" style="fill:#0096ff;fill-rule:nonzero;"/><path id="path27535" d="M158.446,82.704l0.251,0.25l-0.251,-0.25Z" style="fill:#ff8080;fill-rule:nonzero;"/><path id="path27536" d="M15.078,82.954l0.251,0.251l-0.251,-0.251Z" style="fill:#0096ff;fill-rule:nonzero;"/><path id="path27537" d="M106.814,82.954l0.25,0.251l-0.25,-0.251m9.775,0l0.25,0.251l-0.25,-0.251Z" style="fill:#fff;fill-rule:nonzero;"/><path id="path27538" d="M124.609,84.709l0,1.002l2.507,-1.754l-2.507,0.752Z" style="fill:#fff;fill-rule:nonzero;"/><path id="path27539" d="M69.969,84.207l0.251,0.251l-0.251,-0.251m55.643,0l0.25,0.251l-0.25,-0.251m1.253,0l0.251,0.251l-0.251,-0.251Z" style="fill:#fff;fill-rule:nonzero;"/><path id="path27540" d="M136.64,84.207l0,3.008c0.941,-0.922 0.941,-2.086 0,-3.008Z" style="fill:#fff;fill-rule:nonzero;"/><path id="path27541" d="M169.975,84.207l0.251,0.251l-0.251,-0.251Z" style="fill:#fff;fill-rule:nonzero;"/><path id="path27542" d="M180.252,84.207l0.25,0.251l-0.25,-0.251Z" style="fill:#0d0b05;fill-rule:nonzero;"/><path id="path27543" d="M125.361,84.458l0.251,0.251l-0.251,-0.251m1.253,0l0.251,0.251l-0.251,-0.251m9.775,0l0.251,0.251l-0.251,-0.251Z" style="fill:#fff;fill-rule:nonzero;"/><path id="path27544" d="M161.454,84.458l0.25,0.251l-0.25,-0.251Z" style="fill:#fff;fill-rule:nonzero;"/><path id="path27545" d="M168.722,84.709l0.251,0.25l-0.251,-0.25Z" style="fill:#fff;fill-rule:nonzero;"/><path id="path27546" d="M125.11,85.461l0.251,0.25l-0.251,-0.25m-35.841,0.25l0.25,0.251l-0.25,-0.251Z" style="fill:#fff;fill-rule:nonzero;"/><path id="path27547" d="M87.263,89.22l3.008,0.752l-1.669,-1.608l0.917,-2.402c-1.208,0.626 -1.949,1.953 -2.256,3.258Z" style="fill:#fff;fill-rule:nonzero;"/><path id="path27548" d="M170.226,85.962l0.251,0.251l-0.251,-0.251Z" style="fill:#fff;fill-rule:nonzero;"/><path id="path27549" d="M159.95,96.99l0,0.251c6.306,0.797 9.146,-2.217 13.785,-5.765c-0.666,1.795 -3.974,4.099 -3.887,5.765c0.094,1.783 2.898,1.948 4.138,1.456c2.369,-0.939 3.867,-3.556 4.381,-5.968c1.069,-5.008 -5.505,-9.107 -9.621,-5.911c-3.528,2.74 -5.086,7.42 -8.796,10.172Z" style="fill:url(#_Radial1);fill-rule:nonzero;"/><path id="path27550" d="M15.58,86.463l0.25,0.251l-0.25,-0.251Z" style="fill:#0096ff;fill-rule:nonzero;"/><path id="path27551" d="M41.897,91.476c0.325,1.87 2.179,0.866 3.509,0.775c1.912,-0.131 5.461,0.488 6.517,2.233l1.754,-0.251c-0.448,-2.837 -4.538,-2.832 -6.767,-3.008c1.641,-1.659 3.992,-2.152 4.512,-4.762l-9.525,5.013Z" style="fill:#fff;fill-rule:nonzero;"/><path id="path27552" d="M178.497,86.463l0.251,0.251l-0.251,-0.251Z" style="fill:#0d0b05;fill-rule:nonzero;"/><path id="path27553" d="M29.616,86.714l0.25,0.25l-0.25,-0.25Z" style="fill:#0096ff;fill-rule:nonzero;"/><path id="path27554" d="M181.505,86.964l0.251,0.251l-0.251,-0.251Z" style="fill:#0d0b05;fill-rule:nonzero;"/><path id="path27555" d="M22.848,87.215l0.251,0.251l-0.251,-0.251Z" style="fill:#0096ff;fill-rule:nonzero;"/><path id="path27556" d="M88.015,87.215l0.251,0.251l-0.251,-0.251m-38.599,0.251l0.251,0.25l-0.251,-0.25m38.85,0.25l0.251,0.251l-0.251,-0.251Z" style="fill:#fff;fill-rule:nonzero;"/><path id="path27557" d="M31.37,88.218l0.251,0.25l-0.251,-0.25Z" style="fill:#0096ff;fill-rule:nonzero;"/><path id="path27558" d="M48.414,88.218l0.251,0.25l-0.251,-0.25m2.005,0l0.251,0.25l-0.251,-0.25Z" style="fill:#fff;fill-rule:nonzero;"/><path id="path27559" d="M16.081,88.468l0.251,0.251l-0.251,-0.251Z" style="fill:#0096ff;fill-rule:nonzero;"/><path id="path27560" d="M99.796,88.468l-2.757,3.509l3.509,1.254l-2.507,-1.504c0.522,-1.095 2.569,-2.045 1.755,-3.259Z" style="fill:#fff;fill-rule:nonzero;"/><path id="path27561" d="M177.745,88.468l0.251,0.251l-0.251,-0.251Z" style="fill:#0096ff;fill-rule:nonzero;"/><path id="path27562" d="M37.887,88.719l0.251,0.251l-0.251,-0.251Z" style="fill:#fff;fill-rule:nonzero;"/><path id="path27563" d="M47.662,88.719l0.251,0.251l-0.251,-0.251m39.351,0l0.25,0.251l-0.25,-0.251Z" style="fill:#fff;fill-rule:nonzero;"/><path id="path27565" d="M49.416,89.22l0.251,0.251l-0.251,-0.251m28.323,0l0.251,0.251l-0.251,-0.251Z" style="fill:#fff;fill-rule:nonzero;"/><path id="path27566" d="M77.99,89.22l-3.008,2.757c1.174,0.397 3.885,1.941 4.762,0.752l-3.258,-1.253l1.504,-2.256m64.916,0l3.509,2.757l0,0.502l-3.258,1.754c1.715,-0.14 3.177,-0.661 4.511,-1.754c-0.975,-1.651 -2.878,-2.896 -4.762,-3.259Z" style="fill:#fff;fill-rule:nonzero;"/><path id="path27568" d="M178.247,89.471l0.25,0.251l-0.25,-0.251Z" style="fill:#0096ff;fill-rule:nonzero;"/><path id="path27569" d="M182.508,89.471l0.25,0.251l-0.25,-0.251m-165.424,0.251l0.25,0.25l-0.25,-0.25Z" style="fill:#0d0b05;fill-rule:nonzero;"/><path id="path27570" d="M98.292,89.722l0.25,0.25l-0.25,-0.25m1.253,0l0.251,0.25l-0.251,-0.25m44.865,0l0.251,0.25l-0.251,-0.25Z" style="fill:#fff;fill-rule:nonzero;"/><path id="path27571" d="M166.216,89.722l0.25,0.25l-0.25,-0.25m12.031,0l0.25,0.25l-0.25,-0.25Z" style="fill:#0096ff;fill-rule:nonzero;"/><path id="path27572" d="M76.736,89.972l0.251,0.251l-0.251,-0.251m1.003,0l0.251,0.251l-0.251,-0.251m20.302,0l0.251,0.251l-0.251,-0.251Z" style="fill:#fff;fill-rule:nonzero;"/><path id="path27573" d="M17.585,90.223l0.25,0.25l-0.25,-0.25Z" style="fill:#0096ff;fill-rule:nonzero;"/><path id="path27574" d="M62.45,90.223c-1.517,3.402 -3.854,6.171 -6.517,8.769c-1.528,1.49 -3.911,2.876 -4.511,5.016l11.028,-2.341l5.765,-1.168c-3.437,-2.449 -9.465,0.277 -12.783,1.755c2.279,-4.576 6.754,-6.391 7.77,-11.781l-0.251,-0.25l-0.501,0Z" style="fill:#fff;fill-rule:nonzero;"/><path id="path27575" d="M77.488,90.223l0.251,0.25l-0.251,-0.25m20.302,0l0.251,0.25l-0.251,-0.25m46.119,0l0.25,0.25l-0.25,-0.25m-96.498,0.25l0.251,0.251l-0.251,-0.251Z" style="fill:#fff;fill-rule:nonzero;"/><path id="path27576" d="M108.317,92.729l1.504,0.251l0,-2.507c-1.088,0.353 -1.211,1.23 -1.504,2.256Z" style="fill:#fff;fill-rule:nonzero;"/><path id="path27577" d="M43.902,90.724l0.251,0.251l-0.251,-0.251Z" style="fill:#fff;fill-rule:nonzero;"/><path id="path27578" d="M144.661,90.724l0.25,0.251l-0.25,-0.251m-82.712,0.251l0.25,0.25l-0.25,-0.25Z" style="fill:#fff;fill-rule:nonzero;"/><path id="path27579" d="M18.337,91.225l0.25,0.251l-0.25,-0.251Z" style="fill:#0096ff;fill-rule:nonzero;"/><path id="path27580" d="M47.913,91.225l0.25,0.251l-0.25,-0.251m50.128,0.251l0.251,0.251l-0.251,-0.251Z" style="fill:#fff;fill-rule:nonzero;"/><path id="path27581" d="M178.497,91.476l0.251,0.251l-0.251,-0.251Z" style="fill:#0096ff;fill-rule:nonzero;"/><path id="path27582" d="M147.167,91.727l0.251,0.25l-0.251,-0.25Z" style="fill:#fff;fill-rule:nonzero;"/><path id="path27583" d="M163.208,91.727l0.251,0.25l-0.251,-0.25Z" style="fill:#fff;fill-rule:nonzero;"/><path id="path27584" d="M77.739,91.977l0.251,0.251l-0.251,-0.251Z" style="fill:#fff;fill-rule:nonzero;"/><path id="path27585" d="M172.733,91.977l0.25,0.251l-0.25,-0.251Z" style="fill:#0096ff;fill-rule:nonzero;"/><path id="path27586" d="M75.985,92.228l0.25,0.251l-0.25,-0.251m32.332,0l0.251,0.251l-0.251,-0.251Z" style="fill:#fff;fill-rule:nonzero;"/><path id="path27587" d="M120.098,92.228l0.25,2.757c1.163,-0.616 1.923,-1.475 2.256,-2.757l-1.754,1.253l-0.752,-1.253Z" style="fill:#fff;fill-rule:nonzero;"/><path id="path27588" d="M52.675,92.479l0.25,0.25l-0.25,-0.25m67.172,0l0.251,0.25l-0.251,-0.25m2.005,0l0.251,0.25l-0.251,-0.25Z" style="fill:#fff;fill-rule:nonzero;"/><path id="path27589" d="M147.418,92.479l0.25,0.25l-0.25,-0.25Z" style="fill:#fff;fill-rule:nonzero;"/><path id="path27590" d="M173.234,92.479l0.25,0.25l-0.25,-0.25Z" style="fill:#0096ff;fill-rule:nonzero;"/><path id="path27591" d="M19.339,92.729l0.251,0.251l-0.251,-0.251Z" style="fill:#0096ff;fill-rule:nonzero;"/><path id="path27592" d="M77.488,92.729l0.251,0.251l-0.251,-0.251m44.113,0l0.251,0.251l-0.251,-0.251m23.31,0.251l0.251,0.251l-0.251,-0.251Z" style="fill:#fff;fill-rule:nonzero;"/><path id="path27593" d="M163.459,93.481l0.25,0.251l-0.25,-0.251Z" style="fill:#fff;fill-rule:nonzero;"/><path id="path27594" d="M177.996,93.481l0.251,0.251l-0.251,-0.251Z" style="fill:#0096ff;fill-rule:nonzero;"/><path id="path27595" d="M183.761,93.732l0.25,0.25l-0.25,-0.25Z" style="fill:#0096ff;fill-rule:nonzero;"/><path id="path27596" d="M177.745,94.233l0.251,0.251l-0.251,-0.251Z" style="fill:#0096ff;fill-rule:nonzero;"/><path id="path27597" d="M61.698,94.484l0.251,0.25l-0.251,-0.25Z" style="fill:#fff;fill-rule:nonzero;"/><path id="path27598" d="M26.107,94.734l0.25,0.251l-0.25,-0.251Z" style="fill:#0096ff;fill-rule:nonzero;"/><path id="path27599" d="M169.474,94.985l0.251,0.251l-0.251,-0.251Z" style="fill:#fff;fill-rule:nonzero;"/><path id="path27600" d="M161.955,95.236l0.251,0.25l-0.251,-0.25Z" style="fill:#fff;fill-rule:nonzero;"/><path id="path27601" d="M169.224,95.236l0.25,0.25l-0.25,-0.25m-7.52,0.25l0.251,0.251l-0.251,-0.251Z" style="fill:#fff;fill-rule:nonzero;"/><path id="path27602" d="M84.757,97.491l0.501,-1.754c-1.075,0.313 -1.666,1.088 -0.501,1.754Z" style="fill:#fff;fill-rule:nonzero;"/><path id="path27603" d="M21.094,95.988l0.25,0.25l-0.25,-0.25Z" style="fill:#0096ff;fill-rule:nonzero;"/><path id="path27604" d="M84.005,95.988l0.251,0.25l-0.251,-0.25m-25.565,0.25l0.25,0.251l-0.25,-0.251Z" style="fill:#fff;fill-rule:nonzero;"/><path id="path27605" d="M167.218,96.238l0.251,0.251l-0.251,-0.251Z" style="fill:#fff;fill-rule:nonzero;"/><path id="path27606" d="M58.189,96.489l0.251,0.251l-0.251,-0.251Z" style="fill:#fff;fill-rule:nonzero;"/><path id="path27607" d="M176.492,96.489l0.251,0.251l-0.251,-0.251m-10.527,0.251l0.251,0.25l-0.251,-0.25Z" style="fill:#0096ff;fill-rule:nonzero;"/><path id="path27608" d="M176.242,96.74l0.25,0.25l-0.25,-0.25Z" style="fill:#0096ff;fill-rule:nonzero;"/><path id="path27609" d="M129.622,97.241l-0.251,3.509l-2.255,-1.504c0.235,1.521 1.298,2.242 2.757,2.506l0.25,-4.511l-0.501,0Z" style="fill:#fff;fill-rule:nonzero;"/><path id="path27610" d="M163.709,97.241l0,0.25l0.752,0l-0.752,-0.25Z" style="fill:#fff;fill-rule:nonzero;"/><path id="path27611" d="M67.713,105.011c1.659,-0.071 7.436,0.151 8.272,-1.003l-5.515,-0.752l3.008,-5.765c-1.824,0.571 -4.955,5.751 -5.765,7.52m20.302,21.806c1.891,-1.084 4.352,-4.311 5.264,-6.266c-2.007,0.601 -2.884,2.567 -4.261,4.01l-0.752,-5.264c5.862,-0.511 8.437,-6.916 11.888,-10.767c2.099,-2.344 4.73,-3.359 7.412,-4.772c-1.581,-1.891 -3.779,0.107 -5.264,1.25c-3.978,3.063 -6.274,6.776 -9.775,10.279l2.005,-5.263l-0.251,0c-1.088,2.615 -2.39,5.406 -5.012,6.767l1.002,-3.509l-0.25,0c-1.054,2.517 -2.243,3.758 -5.013,3.76l2.506,-5.765l-0.251,0l-3.258,5.514l-1.002,-0.251l2.506,-4.762l-0.251,0c-1.267,2.028 -2.603,4.912 -5.263,4.261l2.256,-4.261c-1.256,0.983 -1.8,3.334 -3.282,3.918c-0.676,0.267 -1.951,-0.229 -1.679,-1.123c0.352,-1.162 2.264,-2.306 3.018,-3.296c2.567,-3.371 4.648,-8.866 8.459,-10.94c3.121,-1.698 7.869,0.454 11.279,0.412c1.954,-0.024 4.179,-0.694 4.762,-2.756c-1.593,-0.172 -3.1,0.856 -4.762,0.859c-4.212,0.007 -11.125,-2.091 -14.745,0.768c-3.296,2.604 -3.482,6.097 -5.555,9.4c-1.012,1.613 -2.8,2.704 -4.261,3.867c-0.542,0.431 -1.522,1.057 -1.317,1.882c0.252,1.016 1.98,1.56 2.819,1.944c1.9,0.871 3.967,1.551 6.016,1.97c1.095,0.224 2.725,0.189 3.654,0.862c1.698,1.23 1.125,5.421 1.358,7.272Z" style="fill:#fff;fill-rule:nonzero;"/><path id="path27612" d="M174.738,98.243l0.25,0.251l-0.25,-0.251m-4.261,0.251l0.25,0.251l-0.25,-0.251m3.509,0l0.25,0.251l-0.25,-0.251Z" style="fill:#0096ff;fill-rule:nonzero;"/><path id="path27613" d="M41.145,98.745l-0.25,1.504l1.002,-1.504l-0.752,0Z" style="fill:#fff;fill-rule:nonzero;"/><path id="path27614" d="M100.297,98.745l0.251,0.25l-0.251,-0.25Z" style="fill:#fff;fill-rule:nonzero;"/><path id="path27615" d="M171.479,98.745l0.251,0.25l-0.251,-0.25Z" style="fill:#0096ff;fill-rule:nonzero;"/><path id="path27616" d="M130.123,98.995l0.251,0.251l-0.251,-0.251Z" style="fill:#fff;fill-rule:nonzero;"/><path id="path27617" d="M171.229,106.013c-0.576,-1.699 -0.313,-3.754 -1.417,-5.252c-1.443,-1.958 -4.679,-1.791 -6.855,-1.765c-0.75,0.009 -2.003,-0.036 -2.489,0.677c-0.58,0.85 0.476,2.928 0.703,3.834c0.944,3.755 1.785,8.935 5.046,11.451c2.143,1.653 6.455,0.569 8.244,-1.202c2.853,-2.825 3.623,-9.427 0.724,-12.478c-3.584,-3.772 -3.529,2.939 -3.956,4.735Z" style="fill:#0096ff;fill-rule:nonzero;"/><path id="path27618" d="M23.099,99.246l0.251,0.251l-0.251,-0.251Z" style="fill:#0096ff;fill-rule:nonzero;"/><path id="path27619" d="M85.509,99.246l0.251,0.251l-0.251,-0.251Z" style="fill:#fff;fill-rule:nonzero;"/><path id="path27620" d="M46.659,99.497l0.251,0.25l-0.251,-0.25Z" style="fill:#fff;fill-rule:nonzero;"/><path id="path27621" d="M55.181,99.497l0.251,0.25l-0.251,-0.25m17.295,0l0.25,0.25l-0.25,-0.25Z" style="fill:#fff;fill-rule:nonzero;"/><path id="path27622" d="M41.647,99.747l0.25,0.251l-0.25,-0.251Z" style="fill:#fff;fill-rule:nonzero;"/><path id="path27623" d="M47.913,99.747l0.25,0.251l-0.25,-0.251m7.018,0l0.25,0.251l-0.25,-0.251m34.588,0l0.251,0.251l-0.251,-0.251m-34.839,0.251l0.251,0.251l-0.251,-0.251Z" style="fill:#fff;fill-rule:nonzero;"/><path id="path27624" d="M41.396,100.249l0.251,0.25l-0.251,-0.25Z" style="fill:#fff;fill-rule:nonzero;"/><path id="path27625" d="M70.972,100.249l0.25,0.25l-0.25,-0.25m13.534,0l0.251,0.25l-0.251,-0.25Z" style="fill:#fff;fill-rule:nonzero;"/><path id="path27626" d="M102.302,100.249l0.251,0.25l-0.251,-0.25Z" style="fill:#fff;fill-rule:nonzero;"/><path id="path27627" d="M173.986,100.249l0.25,0.25l-0.25,-0.25Z" style="fill:#0096ff;fill-rule:nonzero;"/><path id="path27628" d="M186.769,100.499l-1.34,6.266l-0.95,3.248l1.788,1.264l-0.501,-2.256l0.251,0c1.159,2.784 2.38,3.258 5.263,3.258l-1.754,-3.759c1.156,1.33 1.575,3.209 3.509,3.509l-1.755,-3.259c1.604,1.742 2.396,2.944 4.762,1.755l0,-0.501c-4.176,-1.987 -4.555,-8.67 -9.273,-9.525Z" style="fill:#fff;fill-rule:nonzero;"/><path id="path27629" d="M146.666,102.504l0.752,-1.754c-1.024,0.298 -1.562,0.873 -0.752,1.754Z" style="fill:#fff;fill-rule:nonzero;"/><path id="path27630" d="M70.47,101l0.251,0.251l-0.251,-0.251Z" style="fill:#fff;fill-rule:nonzero;"/><path id="path27631" d="M169.975,101l0.251,0.251l-0.251,-0.251Z" style="fill:#fff;fill-rule:nonzero;"/><path id="path27632" d="M87.013,101.251l0.25,0.251l-0.25,-0.251Z" style="fill:#fff;fill-rule:nonzero;"/><path id="path27633" d="M160.451,101.251l0.251,0.251l-0.251,-0.251Z" style="fill:#fff;fill-rule:nonzero;"/><path id="path27634" d="M184.011,101.251l0.251,0.251l-0.251,-0.251Z" style="fill:#0096ff;fill-rule:nonzero;"/><path id="path27635" d="M62.45,101.502l0.25,0.25l-0.25,-0.25Z" style="fill:#fff;fill-rule:nonzero;"/><path id="path27636" d="M86.762,101.502l0.251,0.25l-0.251,-0.25m-45.617,0.25l0.251,0.251l-0.251,-0.251m1.003,0l0.25,0.251l-0.25,-0.251m44.364,0l0.25,0.251l-0.25,-0.251Z" style="fill:#fff;fill-rule:nonzero;"/><path id="path27637" d="M70.721,102.003l0.251,0.251l-0.251,-0.251m12.031,0l0.251,0.251l-0.251,-0.251Z" style="fill:#fff;fill-rule:nonzero;"/><path id="path27638" d="M45.406,102.254l0.251,0.25l-0.251,-0.25Z" style="fill:#fff;fill-rule:nonzero;"/><path id="path27639" d="M154.686,102.254l0.251,0.25l-0.251,-0.25Z" style="fill:#fff;fill-rule:nonzero;"/><path id="path27640" d="M171.229,102.254l0.25,0.25l-0.25,-0.25Z" style="fill:#0096ff;fill-rule:nonzero;"/><path id="path27641" d="M45.156,102.755l0.25,0.251l-0.25,-0.251Z" style="fill:#fff;fill-rule:nonzero;"/><path id="path27642" d="M85.76,102.755l0.25,0.251l-0.25,-0.251Z" style="fill:#fff;fill-rule:nonzero;"/><path id="path27643" d="M112.829,102.755l2.757,3.008l1.253,-3.008l-1.253,2.005l-2.757,-2.005m25.315,0l-0.251,3.76l-2.506,-1.504c-0.14,1.652 2.391,3.53 3.759,4.261l-0.501,-6.517l-0.501,0Z" style="fill:#fff;fill-rule:nonzero;"/><path id="path27644" d="M68.716,103.256l0.251,0.251l-0.251,-0.251m4.261,0l0.25,0.251l-0.25,-0.251m-4.512,0.251l0.251,0.251l-0.251,-0.251Z" style="fill:#fff;fill-rule:nonzero;"/><path id="path27645" d="M153.934,103.507l0.251,0.251l-0.251,-0.251Z" style="fill:#fff;fill-rule:nonzero;"/><path id="path27646" d="M29.866,104.008l0.251,0.251l-0.251,-0.251Z" style="fill:#0096ff;fill-rule:nonzero;"/><path id="path27647" d="M45.657,104.259l0.25,0.25l-0.25,-0.25Z" style="fill:#fff;fill-rule:nonzero;"/><path id="path27648" d="M67.713,104.259l0.251,0.25l-0.251,-0.25Z" style="fill:#fff;fill-rule:nonzero;"/><path id="path27649" d="M103.054,104.259l0.251,0.25l-0.251,-0.25Z" style="fill:#fff;fill-rule:nonzero;"/><path id="path27650" d="M153.433,104.259l0.251,0.25l-0.251,-0.25m1.755,0.25l0.25,0.251l-0.25,-0.251Z" style="fill:#fff;fill-rule:nonzero;"/><path id="path27651" d="M114.333,104.76l0.251,0.251l-0.251,-0.251m76.947,0l0.251,0.251l-0.251,-0.251m-110.032,0.251l0.251,0.25l-0.251,-0.25Z" style="fill:#0e0d08;fill-rule:nonzero;"/><path id="path27652" d="M152.932,105.011l0.25,0.25l-0.25,-0.25Z" style="fill:#fff;fill-rule:nonzero;"/><path id="path27653" d="M27.611,105.261l0.25,0.251l-0.25,-0.251m74.19,0l0.25,0.251l-0.25,-0.251Z" style="fill:#0096ff;fill-rule:nonzero;"/><path id="path27654" d="M103.806,105.261l0.25,0.251l-0.25,-0.251Z" style="fill:#fff;fill-rule:nonzero;"/><path id="path27655" d="M26.859,105.512l0.25,0.251l-0.25,-0.251Z" style="fill:#0096ff;fill-rule:nonzero;"/><path id="path27656" d="M114.834,105.512l0.251,0.251l-0.251,-0.251m21.555,0l0.251,0.251l-0.251,-0.251Z" style="fill:#fff;fill-rule:nonzero;"/><path id="path27657" d="M154.185,106.013l0.251,0.251l-0.251,-0.251Z" style="fill:#fff;fill-rule:nonzero;"/><path id="path27658" d="M102.051,106.515l0.251,0.25l-0.251,-0.25Z" style="fill:#fff;fill-rule:nonzero;"/><path id="path27659" d="M26.859,106.765l0.25,0.251l-0.25,-0.251Z" style="fill:#0096ff;fill-rule:nonzero;"/><path id="path27660" d="M161.955,106.765l0.251,0.251l-0.251,-0.251m-107.024,0.251l0.25,0.251l-0.25,-0.251Z" style="fill:#fff;fill-rule:nonzero;"/><path id="path27661" d="M70.22,107.016c-0.785,3.755 -3.469,7.134 -5.874,10.026c-1.146,1.377 -2.909,2.762 -3.4,4.511c4.154,-1.196 8.823,-5.416 13.284,-5.013c-1.147,-2.222 -6.5,0.861 -8.522,1.254c1.626,-2.41 3.849,-4.509 4.896,-7.269c0.439,-1.158 0.716,-2.716 -0.384,-3.509Z" style="fill:#fff;fill-rule:nonzero;"/><path id="path27662" d="M83.003,107.016l0.25,0.251l-0.25,-0.251Z" style="fill:#fff;fill-rule:nonzero;"/><path id="path27663" d="M99.294,107.016l0.251,0.251l-0.251,-0.251Z" style="fill:#fff;fill-rule:nonzero;"/><path id="path27664" d="M29.866,107.267l0.251,0.25l-0.251,-0.25m1.003,0l0.251,0.25l-0.251,-0.25Z" style="fill:#0096ff;fill-rule:nonzero;"/><path id="path27665" d="M69.969,107.517l0.251,0.251l-0.251,-0.251Z" style="fill:#fff;fill-rule:nonzero;"/><path id="path27666" d="M150.927,107.517l0.25,0.251l-0.25,-0.251Z" style="fill:#fff;fill-rule:nonzero;"/><path id="path27667" d="M162.206,107.768l0.25,0.25l-0.25,-0.25m14.537,0.25l0.25,0.251l-0.25,-0.251Z" style="fill:#0096ff;fill-rule:nonzero;"/><path id="path27668" d="M193.285,108.018l0.251,0.251l-0.251,-0.251Z" style="fill:#0f0e08;fill-rule:nonzero;"/><path id="path27669" d="M100.046,108.269l0.251,0.251l-0.251,-0.251Z" style="fill:#fff;fill-rule:nonzero;"/><path id="path27671" d="M46.659,108.52l0.251,0.25l-0.251,-0.25Z" style="fill:#fff;fill-rule:nonzero;"/><path id="path27672" d="M28.864,108.77l0.25,0.251l-0.25,-0.251Z" style="fill:#0096ff;fill-rule:nonzero;"/><path id="path27673" d="M97.54,108.77l0.25,0.251l-0.25,-0.251Z" style="fill:#fff;fill-rule:nonzero;"/><path id="path27674" d="M28.613,109.021l0.251,0.251l-0.251,-0.251Z" style="fill:#0096ff;fill-rule:nonzero;"/><path id="path27675" d="M138.395,109.021l0.25,0.251l-0.25,-0.251Z" style="fill:#fff;fill-rule:nonzero;"/><path id="path27676" d="M126.113,113.031c-1.06,-1.057 -2.14,-2.518 -3.76,-2.255l4.763,5.764l1.253,-7.268c-1.91,0.302 -1.817,2.197 -2.256,3.759Z" style="fill:#fff;fill-rule:nonzero;"/><path id="path27677" d="M190.278,109.272l0.25,0.25l-0.25,-0.25Z" style="fill:#0f0e07;fill-rule:nonzero;"/><path id="path27678" d="M43.652,109.522l0.25,0.251l-0.25,-0.251m5.263,0l0.251,0.251l-0.251,-0.251Z" style="fill:#fff;fill-rule:nonzero;"/><path id="path27679" d="M102.553,111.778l-0.251,-1.253l-0.752,0l0.251,3.258c1.459,-0.252 2.979,-2.877 3.258,-4.261l-2.506,2.256Z" style="fill:#fff;fill-rule:nonzero;"/><path id="path27680" d="M176.492,109.522l0.251,0.251l-0.251,-0.251Z" style="fill:#0096ff;fill-rule:nonzero;"/><path id="path27681" d="M53.176,109.773l0.251,0.251l-0.251,-0.251m43.612,0l0.251,0.251l-0.251,-0.251m2.005,0l0.251,0.251l-0.251,-0.251m29.576,0l0.25,0.251l-0.25,-0.251Z" style="fill:#fff;fill-rule:nonzero;"/><path id="path27682" d="M151.428,109.773l0.251,0.251l-0.251,-0.251Z" style="fill:#fff;fill-rule:nonzero;"/><path id="path27683" d="M196.042,110.024l0.251,0.25l-0.251,-0.25Z" style="fill:#0d0b05;fill-rule:nonzero;"/><path id="path27684" d="M78.491,110.274l0.251,0.251l-0.251,-0.251Z" style="fill:#fff;fill-rule:nonzero;"/><path id="path27685" d="M184.262,110.274l0.251,0.251l-0.251,-0.251Z" style="fill:#0096ff;fill-rule:nonzero;"/><path id="path27686" d="M55.181,110.525l0.251,0.251l-0.251,-0.251m13.535,0l0.251,0.251l-0.251,-0.251Z" style="fill:#fff;fill-rule:nonzero;"/><path id="path27687" d="M87.598,110.692l0.083,0.167l-0.083,-0.167Z" style="fill:#fff;fill-rule:nonzero;"/><path id="path27688" d="M150.425,110.776l0.251,0.25l-0.251,-0.25Z" style="fill:#fff;fill-rule:nonzero;"/><path id="path27689" d="M178.247,110.776l0.25,0.25l-0.25,-0.25m7.77,0l0.25,0.25l-0.25,-0.25Z" style="fill:#0096ff;fill-rule:nonzero;"/><path id="path27690" d="M70.22,111.026l0.25,0.251l-0.25,-0.251m17.043,0l0.251,0.251l-0.251,-0.251m-19.048,0.501l0.25,0.251l-0.25,-0.251m107.525,0l0.251,0.251l-0.251,-0.251Z" style="fill:#0096ff;fill-rule:nonzero;"/><path id="path27691" d="M177.996,111.527l0.251,0.251l-0.251,-0.251Z" style="fill:#0096ff;fill-rule:nonzero;"/><path id="path27692" d="M191.531,111.527l0.25,0.251l-0.25,-0.251Z" style="fill:#0f0d06;fill-rule:nonzero;"/><path id="path27693" d="M33.375,111.778l0.251,0.251l-0.251,-0.251Z" style="fill:#0096ff;fill-rule:nonzero;"/><path id="path27694" d="M76.736,111.778l0.251,0.251l-0.251,-0.251Z" style="fill:#fff;fill-rule:nonzero;"/><path id="path27695" d="M148.42,111.778l0.251,0.251l-0.251,-0.251Z" style="fill:#fff;fill-rule:nonzero;"/><path id="path27696" d="M32.874,112.029l0.251,0.25l-0.251,-0.25m0.501,0l0.251,0.25l-0.251,-0.25Z" style="fill:#0096ff;fill-rule:nonzero;"/><path id="path27697" d="M85.008,112.029l0.25,0.25l-0.25,-0.25Z" style="fill:#fff;fill-rule:nonzero;"/><path id="path27698" d="M95.284,112.029l0.251,0.25l-0.251,-0.25m80.206,0l0.25,0.25l-0.25,-0.25m-49.377,0.501l0.251,0.251l-0.251,-0.251m38.098,0l0.25,0.251l-0.25,-0.251Z" style="fill:#0096ff;fill-rule:nonzero;"/><path id="path27699" d="M37.636,112.781l0.251,0.25l-0.251,-0.25Z" style="fill:#fff;fill-rule:nonzero;"/><path id="path27700" d="M94.532,113.031l0.251,0.251l-0.251,-0.251m32.584,0l0.25,0.251l-0.25,-0.251Z" style="fill:#fff;fill-rule:nonzero;"/><path id="path27701" d="M53.427,113.282l0.25,0.251l-0.25,-0.251Z" style="fill:#fff;fill-rule:nonzero;"/><path id="path27702" d="M80.747,113.282l0.25,0.251l-0.25,-0.251Z" style="fill:#fff;fill-rule:nonzero;"/><path id="path27703" d="M84.005,113.282l0.251,0.251l-0.251,-0.251Z" style="fill:#fff;fill-rule:nonzero;"/><path id="path27704" d="M86.261,113.282l0.251,0.251l-0.251,-0.251Z" style="fill:#fff;fill-rule:nonzero;"/><path id="path27705" d="M96.287,113.282l0.25,0.251l-0.25,-0.251Z" style="fill:#fff;fill-rule:nonzero;"/><path id="path27706" d="M178.999,113.282l0.25,0.251l-0.25,-0.251Z" style="fill:#0096ff;fill-rule:nonzero;"/><path id="path27707" d="M74.481,113.533l0.25,0.25l-0.25,-0.25m15.289,0l0.251,0.25l-0.251,-0.25Z" style="fill:#fff;fill-rule:nonzero;"/><path id="path27708" d="M111.826,113.533l-1.253,3.258l-0.25,0l-2.006,-2.757l1.755,5.765l0.251,0c0.666,-1.675 3.027,-4.756 1.503,-6.266Z" style="fill:#fff;fill-rule:nonzero;"/><path id="path27709" d="M124.86,113.533l0.25,0.25l-0.25,-0.25Z" style="fill:#fff;fill-rule:nonzero;"/><path id="path27710" d="M86.01,113.783l0.251,0.251l-0.251,-0.251Z" style="fill:#fff;fill-rule:nonzero;"/><path id="path27711" d="M161.454,113.783l0.25,0.251l-0.25,-0.251Z" style="fill:#fff;fill-rule:nonzero;"/><path id="path27712" d="M77.238,114.034l0.25,0.251l-0.25,-0.251Z" style="fill:#fff;fill-rule:nonzero;"/><path id="path27713" d="M111.325,114.034l0.251,0.251l-0.251,-0.251Z" style="fill:#fff;fill-rule:nonzero;"/><path id="path27714" d="M45.907,114.285l0.251,0.25l-0.251,-0.25Z" style="fill:#fff;fill-rule:nonzero;"/><path id="path27715" d="M85.258,114.285l0.251,0.25l-0.251,-0.25Z" style="fill:#fff;fill-rule:nonzero;"/><path id="path27716" d="M89.77,114.285l0.251,0.25l-0.251,-0.25m2.256,0l0.25,0.25l-0.25,-0.25Z" style="fill:#fff;fill-rule:nonzero;"/><path id="path27717" d="M31.12,114.535l0.25,0.251l-0.25,-0.251Z" style="fill:#0096ff;fill-rule:nonzero;"/><path id="path27718" d="M92.527,114.535l0.251,0.251l-0.251,-0.251m73.188,0l0.25,0.251l-0.25,-0.251m-99.756,0.251l0.25,0.25l-0.25,-0.25m100.006,0l0.251,0.25l-0.251,-0.25Z" style="fill:#fff;fill-rule:nonzero;"/><path id="path27719" d="M30.368,115.036l0.25,0.251l-0.25,-0.251Z" style="fill:#0096ff;fill-rule:nonzero;"/><path id="path27720" d="M80.245,115.036l0.251,0.251l-0.251,-0.251Z" style="fill:#fff;fill-rule:nonzero;"/><path id="path27721" d="M83.504,115.036l0.25,0.251l-0.25,-0.251Z" style="fill:#fff;fill-rule:nonzero;"/><path id="path27722" d="M92.527,115.036l0.251,0.251l-0.251,-0.251Z" style="fill:#fff;fill-rule:nonzero;"/><path id="path27723" d="M138.896,115.287l1.504,8.271c-1.598,-1.396 -6.525,-7.827 -8.522,-5.514c4.611,1.469 6.532,6.857 10.527,9.274l-1.25,-4.762l-1.507,-7.52l-0.752,0.251Z" style="fill:#fff;fill-rule:nonzero;"/><path id="path27724" d="M166.216,115.036l0.25,0.251l-0.25,-0.251Z" style="fill:#fff;fill-rule:nonzero;"/><path id="path27725" d="M170.978,115.287l0.251,0.251l-0.251,-0.251Z" style="fill:#0096ff;fill-rule:nonzero;"/><path id="path27726" d="M177.244,115.287l0.251,0.251l-0.251,-0.251Z" style="fill:#0096ff;fill-rule:nonzero;"/><path id="path27727" d="M29.616,115.538l0.25,0.25l-0.25,-0.25Z" style="fill:#0096ff;fill-rule:nonzero;"/><path id="path27728" d="M36.132,115.538l0.251,0.25l-0.251,-0.25Z" style="fill:#0096ff;fill-rule:nonzero;"/><path id="path27729" d="M66.961,115.538l0.251,0.25l-0.251,-0.25Z" style="fill:#fff;fill-rule:nonzero;"/><path id="path27730" d="M79.243,115.538l0.251,0.25l-0.251,-0.25m0.752,0l0.25,0.25l-0.25,-0.25Z" style="fill:#fff;fill-rule:nonzero;"/><path id="path27731" d="M84.506,115.538l0.251,0.25l-0.251,-0.25Z" style="fill:#fff;fill-rule:nonzero;"/><path id="path27732" d="M167.469,115.538l0.251,0.25l-0.251,-0.25Z" style="fill:#fff;fill-rule:nonzero;"/><path id="path27733" d="M176.993,115.538l0.251,0.25l-0.251,-0.25Z" style="fill:#0096ff;fill-rule:nonzero;"/><path id="path27734" d="M65.207,115.788l0.251,0.251l-0.251,-0.251Z" style="fill:#fff;fill-rule:nonzero;"/><path id="path27735" d="M78.742,115.788l0.25,0.251l-0.25,-0.251m3.509,0l0.25,0.251l-0.25,-0.251Z" style="fill:#fff;fill-rule:nonzero;"/><path id="path27736" d="M49.166,116.039l0.25,0.251l-0.25,-0.251Z" style="fill:#fff;fill-rule:nonzero;"/><path id="path27737" d="M90.021,116.29l0.25,0.25l-0.25,-0.25Z" style="fill:#fff;fill-rule:nonzero;"/><path id="path27738" d="M35.38,116.54l0.251,0.251l-0.251,-0.251Z" style="fill:#0096ff;fill-rule:nonzero;"/><path id="path27739" d="M83.754,116.54l0.251,0.251l-0.251,-0.251Z" style="fill:#fff;fill-rule:nonzero;"/><path id="path27740" d="M89.519,116.54l0.251,0.251l-0.251,-0.251Z" style="fill:#fff;fill-rule:nonzero;"/><path id="path27741" d="M68.967,116.791l0.25,0.251l-0.25,-0.251Z" style="fill:#fff;fill-rule:nonzero;"/><path id="path27742" d="M164.712,116.791l0.251,0.251l-0.251,-0.251Z" style="fill:#fff;fill-rule:nonzero;"/><path id="path27743" d="M77.99,117.042l0.25,0.25l-0.25,-0.25Z" style="fill:#fff;fill-rule:nonzero;"/><path id="path27744" d="M152.18,117.042c-1.269,3.107 1.829,6.441 3.008,9.273c-3.259,-1.679 -6.152,-4.479 -10.026,-4.511l0,1.002c5.581,0.488 8.557,6.198 13.033,8.773c-0.042,-4.672 -4.051,-10.043 -5.514,-14.537l-0.501,0Z" style="fill:#fff;fill-rule:nonzero;"/><path id="path27745" d="M159.699,117.042l0.251,0.25l-0.251,-0.25Z" style="fill:#fff;fill-rule:nonzero;"/><path id="path27746" d="M67.463,117.292l0.25,0.251l-0.25,-0.251Z" style="fill:#fff;fill-rule:nonzero;"/><path id="path27747" d="M165.715,117.292l0.25,0.251l-0.25,-0.251Z" style="fill:#fff;fill-rule:nonzero;"/><path id="path27748" d="M175.239,117.292l0.251,0.251l-0.251,-0.251Z" style="fill:#0096ff;fill-rule:nonzero;"/><path id="path27749" d="M92.276,117.543l0.251,0.251l-0.251,-0.251Z" style="fill:#fff;fill-rule:nonzero;"/><path id="path27750" d="M174.988,117.543l0.251,0.251l-0.251,-0.251Z" style="fill:#0096ff;fill-rule:nonzero;"/><path id="path27751" d="M53.427,117.794l0.25,0.25l-0.25,-0.25m85.719,0l0.251,0.25l-0.251,-0.25Z" style="fill:#fff;fill-rule:nonzero;"/><path id="path27752" d="M174.738,117.794l0.25,0.25l-0.25,-0.25Z" style="fill:#0096ff;fill-rule:nonzero;"/><path id="path27753" d="M53.176,118.044l0.251,0.251l-0.251,-0.251Z" style="fill:#fff;fill-rule:nonzero;"/><path id="path27754" d="M80.997,118.044l0.251,0.251l-0.251,-0.251m10.527,0l0.251,0.251l-0.251,-0.251Z" style="fill:#fff;fill-rule:nonzero;"/><path id="path27755" d="M161.203,118.044l0.251,0.251l-0.251,-0.251Z" style="fill:#fff;fill-rule:nonzero;"/><path id="path27756" d="M52.925,118.295l0.251,0.25l-0.251,-0.25m-0.25,0.25l0.25,0.251l-0.25,-0.251Z" style="fill:#fff;fill-rule:nonzero;"/><path id="path27757" d="M110.573,118.545l0.251,0.251l-0.251,-0.251Z" style="fill:#fff;fill-rule:nonzero;"/><path id="path27758" d="M52.424,118.796l0.251,0.251l-0.251,-0.251Z" style="fill:#fff;fill-rule:nonzero;"/><path id="path27759" d="M62.7,118.796l0.251,0.251l-0.251,-0.251Z" style="fill:#fff;fill-rule:nonzero;"/><path id="path27760" d="M140.4,119.047l0.25,0.25l-0.25,-0.25Z" style="fill:#fff;fill-rule:nonzero;"/><path id="path27761" d="M151.929,119.799l0.251,0.25l-0.251,-0.25Z" style="fill:#fff;fill-rule:nonzero;"/><path id="path27762" d="M51.422,120.049l0.25,0.251l-0.25,-0.251Z" style="fill:#fff;fill-rule:nonzero;"/><path id="path27763" d="M63.954,120.049l0.25,0.251l-0.25,-0.251m-0.502,0.251l0.251,0.251l-0.251,-0.251Z" style="fill:#fff;fill-rule:nonzero;"/><path id="path27764" d="M101.299,120.801l-1.754,0.251c0.591,1.405 1.634,2.541 2.125,4.01c0.543,1.628 0.19,3.873 1.885,4.762c0.785,-1.762 2.714,-4.635 2.256,-6.516c-1.424,0.7 -2.099,2.224 -2.256,3.759l-0.25,0l-2.006,-6.266Z" style="fill:#fff;fill-rule:nonzero;"/><path id="path27765" d="M50.67,121.052l0.25,0.251l-0.25,-0.251Z" style="fill:#fff;fill-rule:nonzero;"/><path id="path27766" d="M77.99,121.052c0,4.919 -0.67,9.544 -2.005,14.286c1.744,0.064 2.657,-1.749 3.602,-3.007c1.866,-2.484 3.738,-5.223 6.674,-6.517l0,-0.251c-2.978,-0.385 -6.699,4.067 -7.77,6.517l-0.251,0c0.883,-3.411 1.668,-7.675 0.251,-11.028l-0.501,0Z" style="fill:#fff;fill-rule:nonzero;"/><path id="path27767" d="M93.028,121.052l0.251,0.251l-0.251,-0.251Z" style="fill:#fff;fill-rule:nonzero;"/><path id="path27768" d="M165.213,121.052l0.251,0.251l-0.251,-0.251Z" style="fill:#fff;fill-rule:nonzero;"/><path id="path27769" d="M171.229,121.052l0.25,0.251l-0.25,-0.251Z" style="fill:#0096ff;fill-rule:nonzero;"/><path id="path27770" d="M120.599,126.566l-5.765,-4.01c0.321,1.026 1.135,1.331 1.895,2.036c1.496,1.387 2.801,4.632 4.872,4.982l0.502,-8.271c-2.023,0.771 -1.504,3.486 -1.504,5.263Z" style="fill:#fff;fill-rule:nonzero;"/><path id="path27771" d="M152.681,121.303l0.251,0.25l-0.251,-0.25Z" style="fill:#fff;fill-rule:nonzero;"/><path id="path27772" d="M170.978,121.303l0.251,0.25l-0.251,-0.25Z" style="fill:#0096ff;fill-rule:nonzero;"/><path id="path27773" d="M101.55,121.553l0.251,0.251l-0.251,-0.251Z" style="fill:#fff;fill-rule:nonzero;"/><path id="path27774" d="M139.898,121.804l0.251,0.25l-0.251,-0.25Z" style="fill:#fff;fill-rule:nonzero;"/><path id="path27775" d="M100.046,122.054l0.251,0.251l-0.251,-0.251Z" style="fill:#fff;fill-rule:nonzero;"/><path id="path27776" d="M137.141,122.054l0.251,0.251l-0.251,-0.251m1.755,0.251l0.25,0.251l-0.25,-0.251Z" style="fill:#fff;fill-rule:nonzero;"/><path id="path27777" d="M139.146,122.556l0.251,0.25l-0.251,-0.25Z" style="fill:#fff;fill-rule:nonzero;"/><path id="path27778" d="M91.274,122.806l0.25,0.251l-0.25,-0.251m24.563,0l0.25,0.251l-0.25,-0.251Z" style="fill:#fff;fill-rule:nonzero;"/><path id="path27779" d="M149.673,123.057l0.251,0.251l-0.251,-0.251Z" style="fill:#fff;fill-rule:nonzero;"/><path id="path27780" d="M51.171,123.308l0.251,0.25l-0.251,-0.25Z" style="fill:#0f0;fill-rule:nonzero;"/><path id="path27781" d="M105.811,123.308l0.251,0.25l-0.251,-0.25m-15.289,0.501l0.25,0.251l-0.25,-0.251Z" style="fill:#fff;fill-rule:nonzero;"/><path id="path27782" d="M138.645,123.809l0.251,0.251l-0.251,-0.251Z" style="fill:#fff;fill-rule:nonzero;"/><path id="path27783" d="M155.188,123.809l0.25,0.251l-0.25,-0.251Z" style="fill:#fff;fill-rule:nonzero;"/><path id="path27784" d="M167.218,123.809l0.251,0.251l-0.251,-0.251Z" style="fill:#fff;fill-rule:nonzero;"/><path id="path27785" d="M168.472,123.809l0.25,0.251l-0.25,-0.251Z" style="fill:#fff;fill-rule:nonzero;"/><path id="path27786" d="M51.672,124.06l0.251,0.25l-0.251,-0.25Z" style="fill:#0f0;fill-rule:nonzero;"/><path id="path27787" d="M168.221,124.06l0.251,0.25l-0.251,-0.25Z" style="fill:#fff;fill-rule:nonzero;"/><path id="path27788" d="M116.589,124.31l0.25,0.251l-0.25,-0.251Z" style="fill:#fff;fill-rule:nonzero;"/><path id="path27789" d="M151.929,124.31l0.251,0.251l-0.251,-0.251Z" style="fill:#fff;fill-rule:nonzero;"/><path id="path27790" d="M167.97,124.31l0.251,0.251l-0.251,-0.251Z" style="fill:#fff;fill-rule:nonzero;"/><path id="path27791" d="M63.954,124.811l0.25,0.251l-0.25,-0.251m37.596,0l0.251,0.251l-0.251,-0.251m16.041,0.502l0.251,0.25l-0.251,-0.25Z" style="fill:#fff;fill-rule:nonzero;"/><path id="path27792" d="M63.703,125.814l0.251,0.251l-0.251,-0.251Z" style="fill:#0f0;fill-rule:nonzero;"/><path id="path27793" d="M119.847,126.065l0.251,0.25l-0.251,-0.25Z" style="fill:#fff;fill-rule:nonzero;"/><path id="path27794" d="M134.886,126.065c-1.768,3.133 0.808,9.59 1.253,13.033l-0.251,0c-1.397,-2.951 -4.088,-5.388 -6.266,-7.77c-0.307,-0.336 -1.895,-2.498 -2.463,-1.588c-0.591,0.948 2.31,3.198 2.854,3.844c2.003,2.374 3.813,5.059 5.329,7.77c0.877,1.567 1.641,3.662 3.303,4.511c-1.254,-6.465 -3.24,-13.18 -3.258,-19.8l-0.501,0Z" style="fill:#fff;fill-rule:nonzero;"/><path id="path27795" d="M151.929,126.065l0.251,0.25l-0.251,-0.25Z" style="fill:#fff;fill-rule:nonzero;"/><path id="path27796" d="M83.504,126.315l0.25,0.251l-0.25,-0.251Z" style="fill:#fff;fill-rule:nonzero;"/><path id="path27797" d="M84.757,126.315l0.251,0.251l-0.251,-0.251m18.297,0l0.251,0.251l-0.251,-0.251Z" style="fill:#fff;fill-rule:nonzero;"/><path id="path27798" d="M141.152,126.315l0.25,0.251l-0.25,-0.251Z" style="fill:#fff;fill-rule:nonzero;"/><path id="path27799" d="M134.384,126.566l0.251,0.251l-0.251,-0.251Z" style="fill:#fff;fill-rule:nonzero;"/><path id="path27800" d="M166.968,126.566l0.25,0.251l-0.25,-0.251Z" style="fill:#fff;fill-rule:nonzero;"/><path id="path27801" d="M88.015,126.817l0.251,0.25l-0.251,-0.25Z" style="fill:#fff;fill-rule:nonzero;"/><path id="path27802" d="M103.305,126.817l0.25,0.25l-0.25,-0.25Z" style="fill:#fff;fill-rule:nonzero;"/><path id="path27803" d="M161.203,127.067l0.251,0.251l-0.251,-0.251m3.258,0l0.251,0.251l-0.251,-0.251Z" style="fill:#fff;fill-rule:nonzero;"/><path id="path27804" d="M83.504,127.318l0.25,0.251l-0.25,-0.251m35.591,0l0.251,0.251l-0.251,-0.251Z" style="fill:#fff;fill-rule:nonzero;"/><path id="path27805" d="M153.182,127.318l0.251,0.251l-0.251,-0.251Z" style="fill:#fff;fill-rule:nonzero;"/><path id="path27806" d="M63.202,127.569l0.25,0.25l-0.25,-0.25Z" style="fill:#0f0;fill-rule:nonzero;"/><path id="path27807" d="M162.456,127.819l0.251,0.251l-0.251,-0.251Z" style="fill:#fff;fill-rule:nonzero;"/><path id="path27808" d="M77.488,128.07l0.251,0.251l-0.251,-0.251Z" style="fill:#fff;fill-rule:nonzero;"/><path id="path27809" d="M54.931,128.321l0.25,0.25l-0.25,-0.25Z" style="fill:#0f0;fill-rule:nonzero;"/><path id="path27810" d="M119.847,128.321l0.251,0.25l-0.251,-0.25m14.537,0l0.251,0.25l-0.251,-0.25Z" style="fill:#fff;fill-rule:nonzero;"/><path id="path27811" d="M166.968,128.321l0.25,0.25l-0.25,-0.25Z" style="fill:#fff;fill-rule:nonzero;"/><path id="path27813" d="M82,128.822l0.251,0.25l-0.251,-0.25m38.348,0.25l0.251,0.251l-0.251,-0.251Z" style="fill:#fff;fill-rule:nonzero;"/><path id="path27814" d="M62.199,130.075l0.251,0.251l-0.251,-0.251Z" style="fill:#0f0;fill-rule:nonzero;"/><path id="path27815" d="M156.19,130.075l0.251,0.251l-0.251,-0.251Z" style="fill:#fff;fill-rule:nonzero;"/><path id="path27816" d="M128.619,130.326l0.251,0.25l-0.251,-0.25Z" style="fill:#fff;fill-rule:nonzero;"/><path id="path27817" d="M73.729,130.576l0.25,0.251l-0.25,-0.251Z" style="fill:#fff;fill-rule:nonzero;"/><path id="path27818" d="M93.028,130.576l-0.25,0.251c1.226,3.369 2.433,6.16 3.027,9.775c0.277,1.679 0.105,3.864 1.484,5.013c1.409,-2.674 1.917,-5.777 3.204,-8.522c0.739,-1.576 1.944,-2.959 1.558,-4.762c-2.409,1.185 -3.831,6.535 -4.511,9.023c-1.243,-3.314 -0.863,-9.071 -4.512,-10.778Z" style="fill:#fff;fill-rule:nonzero;"/><path id="path27819" d="M127.617,131.078l0.251,0.25l-0.251,-0.25m0.251,0.25l0.25,0.251l-0.25,-0.251Z" style="fill:#fff;fill-rule:nonzero;"/><path id="path27820" d="M78.24,131.579l0.251,0.25l-0.251,-0.25Z" style="fill:#fff;fill-rule:nonzero;"/><path id="path27821" d="M128.118,131.579l0.251,0.25l-0.251,-0.25Z" style="fill:#fff;fill-rule:nonzero;"/><path id="path27822" d="M58.44,131.829l0.25,0.251l-0.25,-0.251Z" style="fill:#0f0;fill-rule:nonzero;"/><path id="path27823" d="M63.703,131.829l0.251,0.251l-0.251,-0.251Z" style="fill:#0f0;fill-rule:nonzero;"/><path id="path27824" d="M78.24,131.829l0.251,0.251l-0.251,-0.251Z" style="fill:#fff;fill-rule:nonzero;"/><path id="path27825" d="M128.369,131.829l0.25,0.251l-0.25,-0.251Z" style="fill:#fff;fill-rule:nonzero;"/><path id="path27826" d="M162.456,131.829l0.251,0.251l-0.251,-0.251Z" style="fill:#fff;fill-rule:nonzero;"/><path id="path27827" d="M79.494,132.08l0.25,0.251l-0.25,-0.251m21.805,0.251l0.251,0.25l-0.251,-0.25Z" style="fill:#fff;fill-rule:nonzero;"/><path id="path27828" d="M134.886,132.331l0.25,0.25l-0.25,-0.25Z" style="fill:#fff;fill-rule:nonzero;"/><path id="path27829" d="M102.051,132.581l0.251,0.251l-0.251,-0.251Z" style="fill:#fff;fill-rule:nonzero;"/><path id="path27830" d="M130.625,132.581l0.25,0.251l-0.25,-0.251Z" style="fill:#fff;fill-rule:nonzero;"/><path id="path27831" d="M130.875,132.832l0.251,0.251l-0.251,-0.251Z" style="fill:#fff;fill-rule:nonzero;"/><path id="path27832" d="M59.943,133.083l0.251,0.25l-0.251,-0.25m18.799,0l0.25,0.25l-0.25,-0.25Z" style="fill:#fff;fill-rule:nonzero;"/><path id="path27833" d="M110.072,133.083c2.834,5.628 4.932,10.922 6.517,17.043c1.767,-0.99 1.524,-2.74 1.504,-4.511c-0.045,-4.125 1.539,-8.231 1.253,-12.282c-1.183,0.406 -1.395,1.618 -1.6,2.757c-0.495,2.735 -0.504,5.559 -1.157,8.272c-1.359,-3.158 -2.437,-10.626 -6.517,-11.279Z" style="fill:#fff;fill-rule:nonzero;"/><path id="path27834" d="M110.824,133.083l0.25,0.25l-0.25,-0.25Z" style="fill:#fff;fill-rule:nonzero;"/><path id="path27835" d="M150.927,133.083l0.25,0.25l-0.25,-0.25Z" style="fill:#fff;fill-rule:nonzero;"/><path id="path27836" d="M94.031,133.333l0.25,0.251l-0.25,-0.251Z" style="fill:#fff;fill-rule:nonzero;"/><path id="path27837" d="M129.873,133.333l0.25,0.251l-0.25,-0.251m-66.671,0.251l0.25,0.251l-0.25,-0.251Z" style="fill:#fff;fill-rule:nonzero;"/><path id="path27838" d="M82.251,133.584l0.25,0.251l-0.25,-0.251Z" style="fill:#fff;fill-rule:nonzero;"/><path id="path27839" d="M118.343,133.584l0.251,0.251l-0.251,-0.251Z" style="fill:#fff;fill-rule:nonzero;"/><path id="path27840" d="M161.203,133.584l0.251,0.251l-0.251,-0.251Z" style="fill:#fff;fill-rule:nonzero;"/><path id="path27841" d="M51.422,133.835l0.25,0.25l-0.25,-0.25Z" style="fill:#0f0;fill-rule:nonzero;"/><path id="path27842" d="M118.092,134.085l0.251,0.251l-0.251,-0.251m-50.88,0.502l0.251,0.25l-0.251,-0.25Z" style="fill:#fff;fill-rule:nonzero;"/><path id="path27843" d="M100.046,134.587l0.251,0.25l-0.251,-0.25m1.504,0l0.251,0.25l-0.251,-0.25Z" style="fill:#fff;fill-rule:nonzero;"/><path id="path27844" d="M130.875,134.587l0.251,0.25l-0.251,-0.25m-63.914,0.25l0.251,0.251l-0.251,-0.251Z" style="fill:#fff;fill-rule:nonzero;"/><path id="path27845" d="M151.679,134.837l0.25,0.251l-0.25,-0.251Z" style="fill:#fff;fill-rule:nonzero;"/><path id="path27846" d="M160.2,134.837l0.251,0.251l-0.251,-0.251Z" style="fill:#fff;fill-rule:nonzero;"/><path id="path27847" d="M66.711,135.088l0.25,0.25l-0.25,-0.25Z" style="fill:#0f0;fill-rule:nonzero;"/><path id="path27848" d="M101.299,135.088l0.251,0.25l-0.251,-0.25Z" style="fill:#fff;fill-rule:nonzero;"/><path id="path27849" d="M112.578,135.088l0.251,0.25l-0.251,-0.25Z" style="fill:#fff;fill-rule:nonzero;"/><path id="path27851" d="M133.131,135.338l0.251,0.251l-0.251,-0.251Z" style="fill:#fff;fill-rule:nonzero;"/><path id="path27852" d="M101.049,135.589l0.25,0.251l-0.25,-0.251Z" style="fill:#fff;fill-rule:nonzero;"/><path id="path27853" d="M111.576,135.84l0.25,0.25l-0.25,-0.25Z" style="fill:#fff;fill-rule:nonzero;"/><path id="path27854" d="M48.915,136.09l0.251,0.251l-0.251,-0.251Z" style="fill:#0f0;fill-rule:nonzero;"/><path id="path27855" d="M68.967,136.09l0.25,0.251l-0.25,-0.251Z" style="fill:#0f0;fill-rule:nonzero;"/><path id="path27856" d="M48.414,136.341l0.251,0.251l-0.251,-0.251Z" style="fill:#0f0;fill-rule:nonzero;"/><path id="path27857" d="M99.294,136.341l0.251,0.251l-0.251,-0.251Z" style="fill:#fff;fill-rule:nonzero;"/><path id="path27858" d="M111.826,136.341l0.251,0.251l-0.251,-0.251Z" style="fill:#fff;fill-rule:nonzero;"/><path id="path27859" d="M158.947,136.341l0.251,0.251l-0.251,-0.251Z" style="fill:#fff;fill-rule:nonzero;"/><path id="path27860" d="M112.077,136.842l0.251,0.251l-0.251,-0.251m1.504,0l0.251,0.251l-0.251,-0.251m-1.253,0.502l0.25,0.25l-0.25,-0.25m1.504,0l0.25,0.25l-0.25,-0.25m-15.039,0.25l0.251,0.251l-0.251,-0.251m1.253,0l0.251,0.251l-0.251,-0.251Z" style="fill:#fff;fill-rule:nonzero;"/><path id="path27861" d="M143.658,137.594l0.251,0.251l-0.251,-0.251Z" style="fill:#fff;fill-rule:nonzero;"/><path id="path27862" d="M114.082,137.845l0.251,0.251l-0.251,-0.251Z" style="fill:#fff;fill-rule:nonzero;"/><path id="path27864" d="M63.703,138.346l0.251,0.251l-0.251,-0.251Z" style="fill:#0f0;fill-rule:nonzero;"/><path id="path27865" d="M92.026,138.597l0.25,0.25l-0.25,-0.25Z" style="fill:#fff;fill-rule:nonzero;"/><path id="path27866" d="M133.632,138.597l0.251,0.25l-0.251,-0.25Z" style="fill:#fff;fill-rule:nonzero;"/><path id="path27867" d="M98.292,138.847l0.25,0.251l-0.25,-0.251Z" style="fill:#fff;fill-rule:nonzero;"/><path id="path27868" d="M145.412,138.847l0.251,0.251l-0.251,-0.251Z" style="fill:#fff;fill-rule:nonzero;"/><path id="path27869" d="M67.964,139.098l0.251,0.251l-0.251,-0.251Z" style="fill:#0f0;fill-rule:nonzero;"/><path id="path27870" d="M92.527,139.098l0.251,0.251l-0.251,-0.251Z" style="fill:#fff;fill-rule:nonzero;"/><path id="path27871" d="M146.415,139.599l0.251,0.251l-0.251,-0.251m-16.041,0.251l0.251,0.251l-0.251,-0.251m0.501,0l0.251,0.251l-0.251,-0.251Z" style="fill:#fff;fill-rule:nonzero;"/><path id="path27872" d="M62.199,140.101l0.251,0.25l-0.251,-0.25Z" style="fill:#0f0;fill-rule:nonzero;"/><path id="path27873" d="M97.79,140.101l0.251,0.25l-0.251,-0.25Z" style="fill:#fff;fill-rule:nonzero;"/><path id="path27874" d="M134.635,140.101l0.251,0.25l-0.251,-0.25m-63.663,1.002l0.25,0.251l-0.25,-0.251Z" style="fill:#fff;fill-rule:nonzero;"/><path id="path27875" d="M102.302,141.103l0.251,0.251l-0.251,-0.251m-41.105,0.251l0.25,0.251l-0.25,-0.251Z" style="fill:#fff;fill-rule:nonzero;"/><path id="path27876" d="M137.643,141.354l0.25,0.251l-0.25,-0.251Z" style="fill:#fff;fill-rule:nonzero;"/><path id="path27877" d="M115.586,141.605l0.251,0.25l-0.251,-0.25m-43.612,0.25l0.251,0.251l-0.251,-0.251Z" style="fill:#fff;fill-rule:nonzero;"/><path id="path27878" d="M135.637,141.855l0.251,0.251l-0.251,-0.251Z" style="fill:#fff;fill-rule:nonzero;"/><path id="path27879" d="M120.348,142.106l0.251,0.25l-0.251,-0.25Z" style="fill:#fff;fill-rule:nonzero;"/><path id="path27880" d="M72.476,142.356l0.25,0.251l-0.25,-0.251Z" style="fill:#0f0;fill-rule:nonzero;"/><path id="path27881" d="M149.924,142.607l0.251,0.251l-0.251,-0.251Z" style="fill:#fff;fill-rule:nonzero;"/><path id="path27882" d="M60.194,142.858l0.251,0.25l-0.251,-0.25Z" style="fill:#0f0;fill-rule:nonzero;"/><path id="path27883" d="M96.036,142.858l0.251,0.25l-0.251,-0.25Z" style="fill:#fff;fill-rule:nonzero;"/><path id="path27884" d="M111.325,142.858l0.251,0.25l-0.251,-0.25Z" style="fill:#fff;fill-rule:nonzero;"/><path id="path27885" d="M150.175,142.858l0.25,0.25l-0.25,-0.25Z" style="fill:#fff;fill-rule:nonzero;"/><path id="path27886" d="M81.749,143.108l0.251,0.251l-0.251,-0.251m34.338,0.251l0.251,0.251l-0.251,-0.251m-41.857,0.251l0.251,0.25l-0.251,-0.25m49.126,0l0.251,0.25l-0.251,-0.25m-48.374,0.501l0.251,0.251l-0.251,-0.251m46.87,0.251l0.251,0.25l-0.251,-0.25m-33.837,0.25l0.251,0.251l-0.251,-0.251m36.093,0l0.251,0.251l-0.251,-0.251m-36.343,0.502l0.25,0.25l-0.25,-0.25m-10.277,0.25l0.251,0.251l-0.251,-0.251m3.259,0l0.25,0.251l-0.25,-0.251m43.862,0l0.251,0.251l-0.251,-0.251m-46.369,0.251l0.251,0.25l-0.251,-0.25m26.318,0.25l0.25,0.251l-0.25,-0.251Z" style="fill:#fff;fill-rule:nonzero;"/><path id="path27888" d="M89.018,146.367l0.251,0.25l-0.251,-0.25Z" style="fill:#fff;fill-rule:nonzero;"/><path id="path27889" d="M145.412,147.369l0.251,0.251l-0.251,-0.251Z" style="fill:#fff;fill-rule:nonzero;"/><path id="path27890" d="M155.438,147.369l0.251,0.251l-0.251,-0.251Z" style="fill:#fff;fill-rule:nonzero;"/><path id="path27891" d="M118.343,147.62l0.251,0.251l-0.251,-0.251Z" style="fill:#fff;fill-rule:nonzero;"/><path id="path27892" d="M144.41,147.871l0.251,0.25l-0.251,-0.25Z" style="fill:#fff;fill-rule:nonzero;"/><path id="path27893" d="M105.56,148.372l0.251,0.251l-0.251,-0.251m10.527,0l0.251,0.251l-0.251,-0.251Z" style="fill:#fff;fill-rule:nonzero;"/><path id="path27894" d="M142.655,148.623l0.251,0.25l-0.251,-0.25Z" style="fill:#fff;fill-rule:nonzero;"/><path id="path27895" d="M117.591,149.374l0.251,0.251l-0.251,-0.251Z" style="fill:#fff;fill-rule:nonzero;"/><path id="path27896" d="M124.86,149.374l0.25,0.251l-0.25,-0.251Z" style="fill:#fff;fill-rule:nonzero;"/><path id="path27897" d="M141.152,149.374l0.25,0.251l-0.25,-0.251Z" style="fill:#fff;fill-rule:nonzero;"/><path id="path27898" d="M88.517,149.625l0.25,0.251l-0.25,-0.251m28.824,0l0.25,0.251l-0.25,-0.251Z" style="fill:#fff;fill-rule:nonzero;"/><path id="path27899" d="M140.65,149.625l0.251,0.251l-0.251,-0.251Z" style="fill:#fff;fill-rule:nonzero;"/><path id="path27900" d="M111.576,150.126l0.25,0.251l-0.25,-0.251Z" style="fill:#fff;fill-rule:nonzero;"/><path id="path27901" d="M125.11,150.126l0.251,0.251l-0.251,-0.251m2.006,0l0.25,0.251l-0.25,-0.251Z" style="fill:#fff;fill-rule:nonzero;"/><path id="path27903" d="M92.276,150.878l0.251,0.251l-0.251,-0.251m14.287,0.502l0.251,0.25l-0.251,-0.25Z" style="fill:#fff;fill-rule:nonzero;"/><path id="path27904" d="M136.389,151.38l0.251,0.25l-0.251,-0.25m-0.752,0.25l0.251,0.251l-0.251,-0.251Z" style="fill:#fff;fill-rule:nonzero;"/><path id="path27905" d="M157.694,151.881l0.251,0.251l-0.251,-0.251m0.501,0l0.251,0.251l-0.251,-0.251Z" style="fill:#fff;fill-rule:nonzero;"/><path id="path27906" d="M133.883,152.132l0.251,0.25l-0.251,-0.25Z" style="fill:#fff;fill-rule:nonzero;"/><path id="path27908" d="M128.118,152.633l0.251,0.25l-0.251,-0.25m-43.612,0.501l0.251,0.251l-0.251,-0.251Z" style="fill:#fff;fill-rule:nonzero;"/><path id="path27909" d="M100.046,153.134l0.251,0.251l-0.251,-0.251Z" style="fill:#fff;fill-rule:nonzero;"/><path id="path27911" d="M102.302,153.635l0.251,0.251l-0.251,-0.251Z" style="fill:#fff;fill-rule:nonzero;"/><path id="path27917" d="M141.904,157.896l0.25,0.251l-0.25,-0.251m-11.781,1.003l0.251,0.251l-0.251,-0.251Z" style="fill:#010101;fill-rule:nonzero;"/><path id="path27918" d="M143.157,159.15l0.25,0.25l-0.25,-0.25m-26.067,0.25l0.251,0.251l-0.251,-0.251m26.317,0l0.502,0.501l-0.502,-0.501Z" style="fill:#0d0b05;fill-rule:nonzero;"/><path id="path27920" d="M131.377,159.901l0.25,0.251l-0.25,-0.251Z" style="fill:#0e0b05;fill-rule:nonzero;"/><path id="path8698" d="M171.599,98.894c-0.992,-0.181 -1.767,-0.919 -1.767,-1.681c0,-0.719 0.46,-1.446 2.337,-3.684c1.497,-1.785 1.317,-1.737 -1.454,0.38c-3.064,2.342 -5.257,3.234 -8.315,3.38c-1.42,0.068 -2.582,0.033 -2.582,-0.079c0,-0.111 0.418,-0.554 0.93,-0.985c0.511,-0.43 2.228,-2.52 3.816,-4.644c2.899,-3.879 4.314,-5.194 6.177,-5.741c2.946,-0.864 6.739,1.411 7.593,4.556c0.793,2.918 -1.781,7.619 -4.601,8.402c-0.607,0.169 -1.17,0.289 -1.251,0.268c-0.081,-0.021 -0.478,-0.099 -0.883,-0.173l0,0.001Z" style="fill:#fff;fill-rule:nonzero;"/><path id="path8700" d="M167.623,115.696c-0.965,-0.268 -2.207,-1.274 -3.11,-2.521c-1.075,-1.484 -1.834,-3.516 -3.109,-8.324c-0.558,-2.106 -1.082,-4.047 -1.163,-4.313c-0.412,-1.344 2.517,-2.027 6.099,-1.423c2.818,0.475 3.854,1.421 4.36,3.979c0.191,0.966 0.383,1.89 0.427,2.052c0.045,0.162 0.253,-0.613 0.462,-1.723c0.234,-1.233 0.639,-2.315 1.044,-2.786l0.662,-0.77l1.074,0.725c1.688,1.139 2.643,3.373 2.625,6.14c-0.025,3.916 -1.637,6.967 -4.356,8.246c-1.346,0.632 -3.97,1.008 -5.015,0.718Z" style="fill:#fff;fill-rule:nonzero;"/></g><defs><radialGradient id="_Radial1" cx="0" cy="0" r="1" gradientUnits="userSpaceOnUse" gradientTransform="matrix(9.26672,0,0,6.62394,169.217,92.3125)"><stop offset="0" style="stop-color:#fff68e;stop-opacity:1"/><stop offset="0.5" style="stop-color:#faea82;stop-opacity:1"/><stop offset="1" style="stop-color:#d6aa4a;stop-opacity:1"/></radialGradient></defs></svg>