<?xml version="1.0" encoding="UTF-8" standalone="no"?><!DOCTYPE svg PUBLIC "-//W3C//DTD SVG 1.1//EN" "http://www.w3.org/Graphics/SVG/1.1/DTD/svg11.dtd"><svg width="100%" height="100%" viewBox="0 0 256 256" version="1.1" xmlns="http://www.w3.org/2000/svg" xmlns:xlink="http://www.w3.org/1999/xlink" xml:space="preserve" xmlns:serif="http://www.serif.com/" style="fill-rule:evenodd;clip-rule:evenodd;stroke-linejoin:round;stroke-miterlimit:1.41421;"><path d="M128,228.795l0.001,0l0,0.004l-0.001,0l0,-0.004Zm-37.757,-5.298l3.751,-12.405c-3.162,-1.308 -6.228,-2.8 -9.198,-4.446c-2.742,-1.518 -5.385,-3.191 -7.943,-4.979c-0.446,-0.312 -0.91,-0.596 -1.35,-0.915c-0.176,-0.128 -0.351,-0.256 -0.526,-0.385c-11.369,6.192 -21.756,14.414 -30.57,24.519l0.003,0.003l-0.003,0.003c-27.18,-23.472 -44.407,-58.157 -44.407,-96.888c0,-70.692 57.308,-128 128,-128c70.692,0 128,57.308 128,128c0,38.731 -17.227,73.417 -44.407,96.888c-7.554,-8.66 -16.262,-15.936 -25.753,-21.737c0.153,-0.069 0.307,-0.138 0.46,-0.208c0.607,-0.276 1.2,-0.585 1.801,-0.875c20.442,-9.884 37.578,-27.321 37.781,-27.528l0.002,-0.001l0,-0.001l0,0l-0.001,0c-0.059,-0.088 -5.111,-7.507 -12.69,-17.683c-1.705,-2.289 -3.422,-4.575 -5.155,-6.855c-0.158,-0.209 -0.319,-0.417 -0.478,-0.624c-1.639,-2.152 -3.292,-4.298 -4.964,-6.43c-0.086,-0.11 -0.174,-0.219 -0.26,-0.329c-1.763,-2.243 -3.545,-4.471 -5.354,-6.679c-0.023,-0.027 -0.045,-0.054 -0.067,-0.082c-1.861,-2.268 -3.747,-4.514 -5.667,-6.73c-0.121,-0.141 -0.242,-0.284 -0.365,-0.424c-1.173,-1.351 -2.366,-2.684 -3.565,-4.011c-0.415,-0.459 -0.832,-0.918 -1.251,-1.374c-0.994,-1.085 -1.998,-2.159 -3.011,-3.224c-0.789,-0.827 -1.588,-1.642 -2.389,-2.456c-0.754,-0.769 -1.506,-1.541 -2.272,-2.297c-1.646,-1.621 -3.312,-3.222 -5.016,-4.781c-0.745,-0.681 -1.499,-1.351 -2.261,-2.012l-0.023,-0.038c0.104,-0.214 0.207,-0.431 0.312,-0.642c0.065,-0.41 0.133,-0.815 0.204,-1.216c-0.07,0.403 -0.137,0.81 -0.202,1.219l0.031,-0.026c2.502,-4.973 5.596,-9.901 9.6,-13.818c3.659,-3.579 8.552,-6.477 13.8,-6.477c4.153,0 8.142,1.682 11.867,4.759l0.001,0.036c0.334,0.274 0.661,0.583 0.99,0.882c0.199,0.181 0.403,0.346 0.6,0.535c0.524,0.502 1.039,1.031 1.551,1.585c0.01,0.011 0.02,0.024 0.029,0.035c-0.002,-0.004 -0.006,-0.009 -0.009,-0.012l-0.001,-0.001l-0.001,-0.002l0.009,0.012c1.126,1.223 2.223,2.571 3.287,4.048l-0.002,-0.001c0.011,0.014 0.021,0.027 0.032,0.041l0.032,0.042c0.057,0.169 0.106,0.343 0.161,0.512l0,-0.001l-0.15,-0.607c-11.985,-35.482 -45.545,-61.028 -85.073,-61.028c-49.58,0 -89.772,40.192 -89.772,89.772c0,9.774 1.562,19.184 4.462,27.94c0.003,-0.016 0.008,-0.033 0.012,-0.051l0,-0.001l0,0c0.57,-2.641 1.253,-5.266 2.048,-7.863c0.62,-2.024 1.309,-4.032 2.062,-6.016c0.03,-0.077 0.062,-0.153 0.092,-0.23c0.662,-1.731 1.387,-3.439 2.148,-5.131c0.213,-0.471 0.432,-0.939 0.652,-1.406c0.624,-1.328 1.284,-2.638 1.968,-3.936c0.278,-0.527 0.55,-1.058 0.838,-1.581c0.159,-0.289 0.339,-0.565 0.501,-0.853l0.001,0c0.729,-1.29 1.464,-2.576 2.254,-3.829c0.187,-0.299 0.383,-0.589 0.574,-0.884c0.977,-1.512 1.991,-2.999 3.056,-4.448c0.092,-0.126 0.179,-0.258 0.272,-0.384c1.117,-1.502 2.293,-2.956 3.502,-4.383c0.258,-0.304 0.514,-0.61 0.776,-0.912c1.204,-1.38 2.449,-2.721 3.737,-4.019c0.254,-0.254 0.513,-0.502 0.769,-0.752c1.368,-1.344 2.769,-2.655 4.231,-3.897c0.003,-0.003 0.007,-0.006 0.009,-0.009l0.001,-0.002c5.443,-4.647 11.498,-8.566 18.015,-11.542c7.602,-3.47 15.811,-5.643 24.149,-6.276c0.234,-0.018 0.468,-0.032 0.701,-0.048c1.602,-0.109 3.214,-0.178 4.839,-0.178c4.866,0 9.62,0.521 14.25,1.47l0.001,0c3.271,0.771 9.063,2.363 13.364,4.179c1.805,0.762 3.58,1.597 5.319,2.499c0.081,0.043 0.218,0.118 0.395,0.215c0.03,0.017 0.075,0.042 0.107,0.06c0.161,0.09 0.337,0.187 0.543,0.304c0.004,0.003 0.009,0.005 0.014,0.008c0.242,0.137 0.506,0.287 0.783,0.443c0.023,0.013 0.046,0.027 0.07,0.04c1.106,0.627 2.33,1.33 2.798,1.598c0.06,0.034 0.088,0.05 0.12,0.069c0.024,0.014 0.076,0.043 0.085,0.049c-0.096,-0.196 -0.206,-0.382 -0.304,-0.576c-0.019,-0.038 -0.039,-0.076 -0.058,-0.115c-0.356,-0.703 -0.73,-1.396 -1.121,-2.079c0.386,0.665 0.761,1.356 1.126,2.076c0.019,0.039 0.039,0.077 0.058,0.115c0.098,0.194 0.208,0.38 0.304,0.576c0.003,0.006 0.007,0.012 0.01,0.019c0.008,0.005 0.015,0.01 0.023,0.015l0.009,0.005c0.161,2.67 0.264,5.336 0.292,7.999c0.004,0.302 -0.004,0.604 -0.004,0.905c0.005,1.044 0.008,2.089 -0.012,3.133c-0.026,1.345 -0.073,2.69 -0.142,4.033c-0.051,0.993 -0.114,1.984 -0.191,2.976c-0.008,0.104 -0.02,0.207 -0.027,0.31c-0.301,3.758 -0.776,7.5 -1.457,11.193l-0.009,0.044l0.005,0l-1.184,5.599c-2.47,10.014 -7.484,19.097 -11.611,28.475l-0.011,0.026c-1.095,2.493 -2.134,5.014 -3.045,7.581c-0.083,0.235 -0.172,0.483 -0.258,0.725l0.169,-0.177c-0.057,0.063 -0.114,0.124 -0.172,0.185c-0.796,2.229 -1.701,4.743 -2.466,7.387c-0.345,-0.131 -0.674,-0.248 -1.025,-0.384c-16.044,-6.206 -26.891,-14.456 -27.314,-14.78c0.382,0.494 8.749,11.201 22.624,21.267c1.375,0.998 2.731,1.862 4.059,2.628l0,0.007l0.001,0.001c-0.083,1.321 -0.072,2.635 0.062,3.925l0.003,0.025l0.025,0.224l0.008,0.063l0.025,0.2l0.008,0.061l0.032,0.227l0.02,0.134l0.015,0.096l0.026,0.158l0.009,0.053c1.237,7.241 6.759,13.508 21.743,15.663c3.123,0.449 6.321,0.428 9.542,0.065c0.184,-0.02 0.368,-0.055 0.552,-0.079c-0.762,0.381 -1.536,0.738 -2.31,1.098c-0.865,0.401 -1.739,0.786 -2.619,1.161c-0.424,0.181 -0.845,0.368 -1.271,0.547l2.542,8.387l1.188,3.917l-75.535,0Zm14.738,-8.708c-0.219,0.056 -0.437,0.112 -0.654,0.17l0.661,-0.168l-0.007,-0.002Zm41.325,-85.734c-0.002,-0.029 -0.005,-0.056 -0.006,-0.085c-0.006,-0.42 -0.033,-0.835 -0.08,-1.243c-0.001,-0.005 -0.003,-0.011 -0.003,-0.017c-0.048,-0.402 -0.115,-0.799 -0.201,-1.188c-0.003,-0.01 -0.006,-0.019 -0.008,-0.03c-0.086,-0.385 -0.191,-0.763 -0.313,-1.134c-0.003,-0.008 -0.007,-0.016 -0.01,-0.025c-0.123,-0.371 -0.263,-0.734 -0.422,-1.088c-0.002,-0.007 -0.007,-0.014 -0.01,-0.022c-0.159,-0.355 -0.335,-0.702 -0.527,-1.038c-0.586,-1.027 -1.317,-1.958 -2.167,-2.768c-1.079,-1.027 -2.348,-1.858 -3.747,-2.434c-0.011,-0.004 -0.024,-0.008 -0.035,-0.013c-0.69,-0.281 -1.411,-0.501 -2.158,-0.651c-0.019,-0.003 -0.037,-0.004 -0.056,-0.008c-0.749,-0.147 -1.521,-0.227 -2.313,-0.227c-0.779,0 -1.536,0.08 -2.273,0.221c-0.026,0.005 -0.052,0.007 -0.078,0.012c-0.733,0.146 -1.44,0.36 -2.119,0.632c-0.017,0.007 -0.036,0.013 -0.054,0.021c-0.688,0.28 -1.345,0.621 -1.962,1.018c-0.003,0.002 -0.005,0.003 -0.007,0.003c-0.623,0.402 -1.208,0.859 -1.746,1.364l-0.013,0.041l-0.045,0.01c-0.859,0.817 -1.598,1.759 -2.189,2.794c-0.006,0.012 -0.014,0.024 -0.022,0.037c-0.18,0.317 -0.343,0.647 -0.493,0.983c-0.016,0.036 -0.036,0.07 -0.051,0.106c-0.137,0.311 -0.255,0.633 -0.365,0.957c-0.021,0.064 -0.049,0.124 -0.069,0.187c-0.096,0.303 -0.174,0.614 -0.248,0.925c-0.019,0.09 -0.048,0.176 -0.067,0.265c-0.064,0.308 -0.108,0.623 -0.149,0.939c-0.012,0.097 -0.033,0.19 -0.043,0.287c-0.043,0.413 -0.067,0.832 -0.067,1.258c0,0.798 0.082,1.576 0.231,2.33c0.002,0.015 0.003,0.032 0.007,0.048c0.151,0.753 0.373,1.479 0.658,2.174c0.004,0.01 0.006,0.02 0.011,0.029c0.579,1.403 1.415,2.673 2.449,3.753l0.006,0.001c0.82,0.855 1.764,1.588 2.802,2.174l0.015,0.009c0.324,0.182 0.659,0.346 1,0.498c0.028,0.013 0.055,0.028 0.084,0.04c0.316,0.138 0.643,0.257 0.972,0.368c0.056,0.019 0.11,0.042 0.166,0.061c0.304,0.097 0.618,0.175 0.932,0.247c0.085,0.02 0.167,0.047 0.253,0.066c0.305,0.063 0.619,0.106 0.935,0.147c0.096,0.012 0.189,0.033 0.286,0.043c0.411,0.043 0.829,0.066 1.252,0.066c1.665,0 3.251,-0.338 4.694,-0.949c0.721,-0.304 1.407,-0.677 2.048,-1.111c1.284,-0.867 2.391,-1.975 3.258,-3.257c0.433,-0.642 0.807,-1.327 1.112,-2.049c0.61,-1.443 0.948,-3.029 0.948,-4.694c0,-0.029 -0.004,-0.056 -0.004,-0.083l0.001,0Zm55.275,0.07c0.002,3.736 1.353,6.924 3.261,8.215c0.585,0.394 1.222,0.611 1.888,0.611c0.49,0 0.961,-0.128 1.41,-0.347c0.072,-0.036 0.143,-0.073 0.214,-0.114c0.186,-0.107 0.369,-0.224 0.544,-0.365c0.097,-0.078 0.188,-0.172 0.281,-0.26c0.227,-0.212 0.443,-0.452 0.648,-0.719c0.142,-0.187 0.282,-0.374 0.412,-0.583c0.083,-0.133 0.159,-0.277 0.236,-0.419c0.144,-0.266 0.28,-0.543 0.403,-0.837c0.046,-0.106 0.093,-0.209 0.135,-0.318c0.157,-0.409 0.294,-0.841 0.41,-1.294c0.123,-0.483 0.215,-0.99 0.287,-1.515c0.009,-0.066 0.026,-0.125 0.035,-0.192c0.059,-0.48 0.081,-0.981 0.093,-1.486c0.001,-0.114 0.019,-0.221 0.019,-0.336c0,-0.107 -0.016,-0.207 -0.018,-0.313c-0.011,-0.515 -0.034,-1.026 -0.095,-1.515c-0.008,-0.058 -0.023,-0.109 -0.03,-0.166c-0.072,-0.535 -0.168,-1.053 -0.294,-1.546l-0.001,-0.005l-0.005,-0.005c-0.044,-0.168 -0.104,-0.32 -0.154,-0.482l0,0.001l-0.009,-0.043c-0.302,-0.985 -0.71,-1.855 -1.193,-2.579c-0.066,-0.098 -0.133,-0.193 -0.201,-0.285c-0.135,-0.181 -0.27,-0.357 -0.413,-0.515c-0.212,-0.229 -0.431,-0.44 -0.662,-0.615c-0.088,-0.067 -0.181,-0.114 -0.271,-0.172c-0.2,-0.129 -0.404,-0.242 -0.615,-0.328c-0.09,-0.036 -0.181,-0.072 -0.273,-0.101c-0.298,-0.092 -0.603,-0.158 -0.917,-0.158c-0.314,0 -0.618,0.066 -0.917,0.158c-0.092,0.029 -0.183,0.065 -0.273,0.102c-0.211,0.085 -0.415,0.198 -0.616,0.327c-0.088,0.058 -0.182,0.104 -0.269,0.171c-0.231,0.176 -0.451,0.387 -0.663,0.616c-0.143,0.158 -0.278,0.334 -0.411,0.513c-0.07,0.094 -0.137,0.189 -0.203,0.288c-0.429,0.643 -0.799,1.4 -1.087,2.251l-0.059,0.179l-0.058,0.186l0,0l-0.002,0.006c-0.012,0.04 -0.026,0.079 -0.038,0.12c-0.134,0.46 -0.238,0.944 -0.325,1.441c-0.026,0.152 -0.061,0.298 -0.082,0.454c-0.08,0.556 -0.121,1.136 -0.131,1.73c-0.001,0.079 -0.013,0.154 -0.014,0.242l0.02,0l0,0.002l0.003,0Zm5.309,-7.755l0.001,0c1.067,0 1.931,1.483 1.931,3.31c0,1.828 -0.864,3.311 -1.931,3.311l-0.001,0l0,0c-1.067,0 -1.932,-1.483 -1.932,-3.311c0,-1.827 0.865,-3.31 1.932,-3.31l0,0Zm-77.17,1.653l0,-0.003c0,-2.502 2.028,-4.53 4.53,-4.53c2.502,0 4.53,2.028 4.53,4.53l0,0.003l0,0.003c0,2.502 -2.028,4.531 -4.53,4.531c-2.502,0 -4.53,-2.029 -4.53,-4.531l0,-0.003Zm41.383,-14.485l-0.012,-0.01l-0.004,0.009l-0.002,-0.003l0.005,-0.011l0.005,-0.009l0.008,0.024Z" style="fill:#5acc01;"/></svg>