<svg viewBox="0 0 611 604" xmlns="http://www.w3.org/2000/svg" fill-rule="evenodd" clip-rule="evenodd" stroke-linecap="round" stroke-linejoin="round" stroke-miterlimit="1.5"><ellipse cx="407.4" cy="400.1" rx="195.2" ry="195.9" fill="#fbc02d" stroke="#000" stroke-width="1.75"/><path d="M407.4 492.3c-4.4 0-7.9-3.6-7.9-7.9V476l-3.1-.7c-20.7-4.7-35.1-21.7-35.1-41.3 0-4.4 3.6-7.9 7.9-7.9 4.4 0 7.9 3.6 7.9 7.9 0 6.5 2.6 12.7 7.5 17.6 5.7 5.8 14 9.1 22.8 9.1 16.7 0 30.2-12 30.2-26.7s-13.6-26.7-30.2-26.7c-25.4 0-46.1-19.1-46.1-42.6 0-19.6 14.4-36.6 35.1-41.3l3.1-.7v-9.4c0-4.4 3.6-7.9 7.9-7.9 4.4 0 7.9 3.6 7.9 7.9v9.4l3.1.7c20.7 4.7 35.1 21.7 35.1 41.3 0 4.4-3.6 7.9-7.9 7.9-4.4 0-7.9-3.6-7.9-7.9 0-14.7-13.6-26.7-30.2-26.7-16.7 0-30.3 12-30.3 26.7s13.6 26.7 30.2 26.7c25.4 0 46.1 19.1 46.1 42.6 0 19.6-14.4 36.6-35.1 41.3l-3.1.7v8.3c0 4.4-3.6 8-7.9 8z" fill-rule="nonzero"/><path d="M542.3 481c-1 0-1.9-.2-2.8-.7-2.8-1.5-3.9-5.2-2.4-8 17.2-32.4 20.7-69.6 9.9-104.6-10.8-35-34.6-63.8-67-81l-4.8-2.4c-2.8-1.6-3.9-5.2-2.3-8 1-1.9 3-3.1 5.2-3.1.8 0 1.5.1 2.2.4 35.9 17.3 62.9 47.5 76.1 85.1 13.2 37.6 10.9 78.1-6.3 114-.8 1.7-1.7 3.5-2.6 5.2-1 1.9-3 3.1-5.2 3.1z" fill-rule="nonzero" stroke="#000" stroke-miterlimit="4"/><path d="M425.3 264.9c-4.4 0-7.9-3.6-7.9-7.9 0-2.1.8-4.1 2.3-5.6 1.5-1.5 3.5-2.3 5.6-2.3h.8c4.4 0 7.9 3.6 7.9 8s-3.6 7.9-7.9 7.9h-.8v-.1z" fill-rule="nonzero"/><path d="M345 535.1c-.7-.1-1.4-.3-2.1-.6-74.2-35.6-105.5-124.9-69.9-199.1.9-1.8 1.8-3.6 2.7-5.3 1-1.9 3-3.1 5.2-3.1 1 0 1.9.2 2.8.7 2.9 1.5 4 5.1 2.5 8-17.2 32.4-20.7 69.5-9.9 104.6 10.8 35.1 34.5 63.9 66.9 81 1.6.9 3.2 1.7 4.9 2.5 1.4.7 2.5 1.9 3 3.4s.4 3.1-.3 4.5c-1 2-3.1 3.4-5.3 3.4h-.5z" fill-rule="nonzero" stroke="#000" stroke-linecap="butt" stroke-miterlimit="1.414"/><path d="M388.7 551.2c-2.1 0-4.1-.8-5.6-2.3-1.5-1.5-2.3-3.5-2.3-5.6 0-4.4 3.6-7.9 7.9-7.9h.7c4.4 0 7.9 3.6 7.9 7.9 0 2.1-.8 4.1-2.3 5.6-1.5 1.5-3.5 2.3-5.6 2.3h-.7z" fill-rule="nonzero"/><path d="M408 601.7c-55.4 0-108.9-23.3-146.6-63.9l-.6-.6H119.3c-16.3 0-31.4-7.3-41.4-20-8.8-11.1-12.7-24.9-11.1-38.9 1.6-14 8.6-26.6 19.7-35.3l2-1.6-2-1.6c-3.2-2.5-6.1-5.4-8.6-8.6-18.1-22.8-14.2-56.1 8.6-74.1l2-1.6-2-1.6c-3.2-2.5-6.1-5.4-8.6-8.6-18.1-22.8-14.2-56.1 8.6-74.2l2-1.6-2-1.6c-12.7-10.1-20-25.2-20-41.5 0-29.1 23.7-52.8 52.8-52.8h35l-2.2-3.1c-12.3-17.9-12.3-41.9 0-59.7l2.2-3.1H54.9c-13.9-.1-26.9-5.6-36.7-15.4C8.4 82.5 2.9 69.4 2.7 55.6c-.2-14.1 5.2-27.5 15-37.6C27.5 7.9 40.8 2.2 54.9 2h292.3c10.8 0 21.1 3.2 30 9.3 24 16.5 30.1 49.5 13.6 73.5l-2.2 3.1h99.3c29.2 0 52.9 23.7 52.9 52.9s-23.7 52.9-52.9 52.9H453l2.1 3.1c1.9 2.8 3.6 5.9 5 9v1.1l1.5.5c86.6 24 147.2 103.6 147.2 193.5 0 110.7-90.1 200.8-200.8 200.8zm0-383.9c-100.9 0-183 82.1-183 183s82.1 183 183 183 182.9-82.1 182.9-183-82-183-182.9-183zM119.3 449.4c-19.3 0-35 15.7-35 35s15.7 35 35 35h129.1l-4.3-6.3c-12.8-18.6-22.2-39-28.1-60.8l-.8-3h-95.9v.1zm0-85.9c-19.3 0-35 15.7-35 35s15.7 35 35 35h92.5l-.6-4.6c-2.9-20.2-2.6-40.7.7-60.8l.8-4.6h-93.4zm0-85.9c-19.3 0-35 15.7-35 35s15.7 35 35 35h97.2l.8-2.9c6.4-21.9 16.5-42.4 30-60.8l4.7-6.3H119.3zm0-85.9c-19.3 0-35 15.7-35 35s15.7 35 35 35h146.9l1.2-1.2c18.5-18.6 40.1-33.2 64.3-43.3 24.2-10.1 49.8-15.2 76-15.2h.4c5.4 0 11.1.2 16.8.7l1.7.1 1.8-7-1.5-.7c-4.7-2.3-10-3.5-15.2-3.5H119.3v.1zm76.3-85.9c-19.3 0-35 15.7-35 35s15.7 35 35 35h292.3c19.3 0 35-15.7 35-35s-15.7-35-35-35H195.6zM54.9 19.9c-19.3 0-35 15.7-35 35s15.7 35 35 35h292.3c19.3 0 35-15.7 35-35s-15.7-35-35-35H54.9z" fill-rule="nonzero"/></svg>