<svg viewBox="0 0 512 363" xmlns="http://www.w3.org/2000/svg" fill-rule="evenodd" clip-rule="evenodd" stroke-linejoin="round" stroke-miterlimit="1.414"><path fill="#fbc02d" d="M211.571 91.27h89.282v63.325h-89.282z"/><ellipse cx="32.268" cy="332.592" rx="19.966" ry="21.115" fill="#fbc02d"/><ellipse cx="481.219" cy="331.819" rx="20.709" ry="22.043" fill="#fbc02d"/><g fill="#0a050b" fill-rule="nonzero"><path d="M194.322 24.729c19.946-6.093 40.702-9.353 61.692-9.688l.13-.003c1.181-.04 2.399-.039 3.625-.038 35.935 0 71.646 8.726 103.273 25.234a.889.889 0 0 1 .458.777c-1.813 53.286-22.91 104.188-59.404 143.33a7.5 7.5 0 0 0 .371 10.6 7.473 7.473 0 0 0 5.113 2.015c2.007 0 4.01-.802 5.487-2.386 38.964-41.789 61.488-96.143 63.425-153.049.206-6.054-3.133-11.778-8.507-14.584C336.223 9.314 298.111 0 259.769 0c-1.324 0-2.691 0-4.056.044-22.375.363-44.503 3.842-65.772 10.339a7.5 7.5 0 0 0 4.381 14.346zM48 331.5c0 9.098-7.402 16.5-16.5 16.5-9.098 0-16.5-7.402-16.5-16.5 0-9.098 7.402-16.5 16.5-16.5 9.098 0 16.5 7.402 16.5 16.5zM63.833 268H31.5a7.5 7.5 0 0 0-7.5 7.5v25.409C10.241 304.284 0 316.715 0 331.5 0 348.869 14.131 363 31.5 363S63 348.869 63 331.5c0-14.785-10.241-27.216-24-30.591V283h24.833a7.5 7.5 0 0 0 7.5-7.5c0-4.143-3.357-7.5-7.5-7.5z"/><path d="M480.5 348c-9.098 0-16.5-7.402-16.5-16.5 0-9.098 7.402-16.5 16.5-16.5 9.098 0 16.5 7.402 16.5 16.5 0 9.098-7.402 16.5-16.5 16.5zm7.5-47.091V275.5a7.5 7.5 0 0 0-7.5-7.5h-217v-31.658a238.991 238.991 0 0 0 29.043-20.554 7.5 7.5 0 0 0-9.558-11.561 224.13 224.13 0 0 1-27.091 19.198C192.447 185.22 152.352 118.719 148.5 45.111a.873.873 0 0 1 .422-.763 224.07 224.07 0 0 1 17.881-9.176 7.5 7.5 0 0 0 3.7-9.94 7.497 7.497 0 0 0-9.94-3.7 238.856 238.856 0 0 0-19.083 9.793c-5.145 2.939-8.269 8.659-7.959 14.57 4.119 78.726 47.06 149.828 114.979 190.579V268H96.167a7.5 7.5 0 0 0-7.5 7.5 7.5 7.5 0 0 0 7.5 7.5H473v17.909c-13.759 3.375-24 15.806-24 30.591 0 17.369 14.131 31.5 31.5 31.5s31.5-14.131 31.5-31.5c0-14.785-10.241-27.216-24-30.591z"/><path d="M294.5 148.576h-77V97.053h77v51.523zm-64.262-78.131c0-14.205 11.557-25.762 25.762-25.762s25.762 11.557 25.762 25.762v11.607h-51.523V70.445h-.001zM256 29.684c-22.476 0-40.762 18.285-40.762 40.762v11.607h-2.408c-5.696 0-10.331 4.635-10.331 10.331v60.861c0 5.696 4.634 10.331 10.331 10.331h86.339c5.696 0 10.331-4.635 10.331-10.331V92.384c0-5.696-4.634-10.331-10.331-10.331h-2.408V70.446c.001-22.477-18.285-40.762-40.761-40.762z"/><path d="M256 113.401c2.48 0 4.5 2.019 4.5 4.5s-2.02 4.5-4.5 4.5a4.505 4.505 0 0 1-4.5-4.5c0-2.481 2.019-4.5 4.5-4.5zm0-15c-10.752 0-19.5 8.748-19.5 19.5 0 8.095 4.96 15.051 12 17.996v3.83a7.5 7.5 0 0 0 7.5 7.5 7.5 7.5 0 0 0 7.5-7.5v-3.83c7.04-2.945 12-9.9 12-17.996 0-10.752-8.748-19.5-19.5-19.5z"/></g></svg>