<?xml version="1.0" encoding="UTF-8" standalone="no"?><!DOCTYPE svg PUBLIC "-//W3C//DTD SVG 1.1//EN" "http://www.w3.org/Graphics/SVG/1.1/DTD/svg11.dtd"><svg width="100%" height="100%" viewBox="0 0 227 140" version="1.1" xmlns="http://www.w3.org/2000/svg" xmlns:xlink="http://www.w3.org/1999/xlink" xml:space="preserve" xmlns:serif="http://www.serif.com/" style="fill-rule:evenodd;clip-rule:evenodd;stroke-linejoin:round;stroke-miterlimit:1.41421;"><g><path d="M7,139.6l79,0c0,0 -15.1,-68.9 34.9,-96.8c10.9,-5.3 45.6,-25.1 102.4,16.9c1.8,-1.5 3.5,-2.7 3.5,-2.7c0,0 -52,-51.9 -109.9,-46.1c-29.2,2.6 -65,29.1 -86,64.1c-21,35 -23.9,64.6 -23.9,64.6Zm164.6,-123.1l0.4,-6.7c-0.9,-0.5 -3.4,-1.7 -9.7,-3.5l-0.4,6.6c3.3,1.1 6.5,2.3 9.7,3.6Z" style="fill:#5acc01;"/><path d="M162.1,37.7l-0.4,6.3c3.3,0.1 6.6,0.5 9.9,1.2l0.4,-6.2c-3.4,-0.7 -6.7,-1.1 -9.9,-1.3Zm-37,-31.2l1,0l-2,-6.1c-3.1,0 -6.3,0.2 -9.6,0.6l1.9,5.9c2.9,-0.3 5.8,-0.4 8.7,-0.4Zm4.8,36.8l2.3,6.9c2.9,-1.4 5.8,-2.6 8.7,-3.5l-2.2,-6.6c-3.4,1 -6.3,2.1 -8.8,3.2Zm-45.4,-26.3l-4.5,-6.9c-2.5,1.3 -5.1,2.7 -7.8,4.3l4.6,7c2.6,-1.6 5.1,-3.1 7.7,-4.4Zm20.5,45l4.8,7.2c1.7,-2.5 3.7,-4.8 5.9,-7.1l-4.5,-6.8c-2.3,2.1 -4.4,4.4 -6.2,6.7Zm-14.5,32.2l8.1,6.4c0.4,-3.9 1.1,-7.8 2.1,-11.7l-7.2,-5.7c-1.3,3.7 -2.2,7.4 -3,11Zm-43.8,-47.5l-7.1,-6.2c-2.6,2.5 -5.1,5 -7.4,7.5l7.7,6.6c2.1,-2.7 4.4,-5.4 6.8,-7.9Zm-30.2,44.7l-11.5,-4.2c-1.9,4.3 -4,9.3 -5,12l11.5,4.2c1.3,-3.4 3.4,-8.3 5,-12Zm72.5,28.2c0.2,5.3 0.7,9.6 1.2,12.6l12,4.3c-0.9,-3.9 -1.8,-8.3 -2.4,-13l-10.8,-3.9Z" style="fill:#5acc01;"/></g></svg>