<svg viewBox="0 0 410 411" xmlns="http://www.w3.org/2000/svg" fill-rule="evenodd" clip-rule="evenodd" stroke-linejoin="round" stroke-miterlimit="1.414"><path fill="#fbc02d" d="M379.001 8.419h23.369V31.32h-23.369zM104.63 103.266h19.974v200.339H104.63z"/><path fill="#fbc02d" d="M103.262 284.344H303.6v19.974H103.262zM5.513 380.766h23.369v22.901H5.513zM377.96 379.882h23.369v22.901H377.96zM5.242 8.288h23.369v22.901H5.242z"/><g fill-rule="nonzero"><path d="M313.414 102.599a6.013 6.013 0 0 0-6.016-6.012h-25.25a6.01 6.01 0 0 0-6.007 6.012 6.008 6.008 0 0 0 6.007 6.012h19.239v193.176H108.211V108.611h145.082a6.007 6.007 0 0 0 6.012-6.012 6.01 6.01 0 0 0-6.012-6.012H102.199a6.012 6.012 0 0 0-6.011 6.012v205.199a6.012 6.012 0 0 0 6.011 6.016h205.199a6.013 6.013 0 0 0 6.016-6.016V102.599zM327.617 385.15h-9.211a6.013 6.013 0 0 0-6.011 6.012 6.008 6.008 0 0 0 6.011 6.011h9.211a6.008 6.008 0 0 0 6.012-6.011 6.014 6.014 0 0 0-6.012-6.012zM293.84 385.15h-9.207a6.015 6.015 0 0 0-6.016 6.012 6.01 6.01 0 0 0 6.016 6.011h9.207a6.006 6.006 0 0 0 6.012-6.011 6.012 6.012 0 0 0-6.012-6.012zM158.742 385.15h-9.211a6.01 6.01 0 0 0-6.008 6.012 6.006 6.006 0 0 0 6.008 6.011h9.211a6.012 6.012 0 1 0 0-12.023zM361.391 385.15h-9.211a6.014 6.014 0 0 0-6.012 6.012 6.008 6.008 0 0 0 6.012 6.011h9.211a6.008 6.008 0 0 0 6.011-6.011 6.013 6.013 0 0 0-6.011-6.012zM260.066 385.15h-9.211a6.013 6.013 0 0 0-6.011 6.012 6.008 6.008 0 0 0 6.011 6.011h9.211a6.008 6.008 0 0 0 6.012-6.011 6.014 6.014 0 0 0-6.012-6.012zM91.195 385.15h-9.211a6.013 6.013 0 0 0-6.011 6.012 6.008 6.008 0 0 0 6.011 6.011h9.211a6.008 6.008 0 0 0 6.012-6.011 6.014 6.014 0 0 0-6.012-6.012zM57.422 385.15h-9.211a6.018 6.018 0 0 0-6.016 6.012 6.012 6.012 0 0 0 6.016 6.011h9.211a6.006 6.006 0 0 0 6.008-6.011 6.01 6.01 0 0 0-6.008-6.012zM226.293 385.15h-9.211a6.014 6.014 0 0 0-6.012 6.012 6.009 6.009 0 0 0 6.012 6.011h9.211a6.009 6.009 0 0 0 6.012-6.011 6.014 6.014 0 0 0-6.012-6.012zM192.52 385.15h-9.215a6.01 6.01 0 1 0 0 12.023h9.215a6.01 6.01 0 1 0 0-12.023zM124.969 385.15h-9.211a6.014 6.014 0 0 0-6.012 6.012 6.009 6.009 0 0 0 6.012 6.011h9.211a6.013 6.013 0 0 0 0-12.023zM12.824 226.693a6.012 6.012 0 0 0 6.012 6.012 6.016 6.016 0 0 0 6.016-6.012v-9.211a6.013 6.013 0 0 0-6.016-6.012 6.01 6.01 0 0 0-6.012 6.012v9.211zM12.824 260.466a6.015 6.015 0 0 0 12.028 0v-9.211a6.015 6.015 0 0 0-12.028 0v9.211zM12.824 125.369a6.015 6.015 0 0 0 12.028 0v-9.211a6.015 6.015 0 0 0-12.028 0v9.211zM12.824 159.142a6.013 6.013 0 1 0 12.028 0v-9.207a6.013 6.013 0 0 0-6.016-6.012 6.01 6.01 0 0 0-6.012 6.012v9.207zM12.824 192.92a6.015 6.015 0 0 0 12.028 0v-9.215a6.015 6.015 0 0 0-12.028 0v9.215zM12.824 294.24a6.01 6.01 0 0 0 6.012 6.012 6.013 6.013 0 0 0 6.016-6.012v-9.207a6.013 6.013 0 1 0-12.028 0v9.207zM12.824 328.017a6.012 6.012 0 0 0 6.012 6.012 6.016 6.016 0 0 0 6.016-6.012v-9.211a6.015 6.015 0 0 0-12.028 0v9.211zM12.824 91.595a6.015 6.015 0 0 0 12.028 0v-9.211a6.015 6.015 0 0 0-12.028 0v9.211zM18.836 63.83a6.013 6.013 0 0 0 6.016-6.012v-9.207a6.013 6.013 0 1 0-12.028 0v9.207a6.01 6.01 0 0 0 6.012 6.012zM12.824 361.791a6.015 6.015 0 0 0 12.028 0v-9.211a6.015 6.015 0 0 0-12.028 0v9.211zM361.391 13.224h-9.211a6.015 6.015 0 0 0 0 12.028h9.211a6.015 6.015 0 0 0 0-12.028zM48.211 25.252h9.211a6.012 6.012 0 0 0 6.008-6.016 6.009 6.009 0 0 0-6.008-6.012h-9.211a6.016 6.016 0 0 0-6.016 6.012 6.02 6.02 0 0 0 6.016 6.016zM250.855 25.252h9.215a6.014 6.014 0 0 0 0-12.028h-9.215a6.014 6.014 0 0 0 0 12.028zM217.082 25.252h9.211a6.016 6.016 0 0 0 6.012-6.016 6.012 6.012 0 0 0-6.012-6.012h-9.211a6.012 6.012 0 0 0-6.012 6.012 6.016 6.016 0 0 0 6.012 6.016zM284.633 25.252h9.207a6.013 6.013 0 0 0 6.012-6.016 6.01 6.01 0 0 0-6.012-6.012h-9.207a6.013 6.013 0 1 0 0 12.028zM183.305 25.252h9.215a6.014 6.014 0 0 0 0-12.028h-9.215a6.014 6.014 0 0 0 0 12.028zM149.535 25.252h9.207a6.013 6.013 0 1 0 0-12.028h-9.207a6.01 6.01 0 0 0-6.012 6.012 6.013 6.013 0 0 0 6.012 6.016zM81.984 25.252h9.211a6.015 6.015 0 0 0 0-12.028h-9.211a6.015 6.015 0 0 0 0 12.028zM318.406 25.252h9.211a6.015 6.015 0 0 0 0-12.028h-9.211a6.015 6.015 0 0 0 0 12.028zM115.758 25.252h9.211c3.32 0 6.01-2.696 6.01-6.016a6.01 6.01 0 0 0-6.01-6.012h-9.211a6.012 6.012 0 0 0-6.012 6.012 6.016 6.016 0 0 0 6.012 6.016zM384.75 226.693a6.012 6.012 0 0 0 6.012 6.012 6.006 6.006 0 0 0 6.011-6.012v-9.211a6.006 6.006 0 0 0-6.011-6.012 6.012 6.012 0 0 0-6.012 6.012v9.211zM384.75 125.369a6.013 6.013 0 0 0 6.012 6.011 6.008 6.008 0 0 0 6.011-6.011v-9.211a6.008 6.008 0 0 0-6.011-6.012 6.014 6.014 0 0 0-6.012 6.012v9.211zM384.75 192.92a6.013 6.013 0 0 0 6.012 6.011 6.008 6.008 0 0 0 6.011-6.011v-9.215a6.008 6.008 0 0 0-6.011-6.008 6.013 6.013 0 0 0-6.012 6.008v9.215zM384.75 159.142a6.015 6.015 0 0 0 6.012 6.016 6.01 6.01 0 0 0 6.011-6.016v-9.207a6.006 6.006 0 0 0-6.011-6.012 6.012 6.012 0 0 0-6.012 6.012v9.207zM384.75 260.466a6.014 6.014 0 0 0 6.012 6.012 6.008 6.008 0 0 0 6.011-6.012v-9.211a6.008 6.008 0 0 0-6.011-6.011 6.013 6.013 0 0 0-6.012 6.011v9.211zM384.75 328.017a6.014 6.014 0 0 0 6.012 6.012 6.009 6.009 0 0 0 6.011-6.012v-9.211a6.008 6.008 0 0 0-6.011-6.011 6.013 6.013 0 0 0-6.012 6.011v9.211zM384.75 294.24a6.012 6.012 0 0 0 6.012 6.012 6.006 6.006 0 0 0 6.011-6.012v-9.207a6.01 6.01 0 0 0-6.011-6.016 6.015 6.015 0 0 0-6.012 6.016v9.207zM384.75 361.791a6.013 6.013 0 0 0 6.012 6.011 6.008 6.008 0 0 0 6.011-6.011v-9.211a6.008 6.008 0 0 0-6.011-6.012 6.014 6.014 0 0 0-6.012 6.012v9.211zM384.75 91.595a6.014 6.014 0 0 0 6.012 6.012 6.008 6.008 0 0 0 6.011-6.012v-9.211a6.008 6.008 0 0 0-6.011-6.011 6.013 6.013 0 0 0-6.012 6.011v9.211zM390.762 63.83a6.006 6.006 0 0 0 6.011-6.008v-9.211a6.012 6.012 0 0 0-6.011-6.016 6.018 6.018 0 0 0-6.012 6.016v9.211a6.01 6.01 0 0 0 6.012 6.008zM31.664.4H6.012A6.011 6.011 0 0 0 0 6.412v25.652a6.014 6.014 0 0 0 6.012 6.012h25.652a6.018 6.018 0 0 0 6.012-6.012V6.412A6.014 6.014 0 0 0 31.664.4zm-6.016 25.648H12.023V12.423h13.625v13.625zM403.586.4h-25.648a6.011 6.011 0 0 0-6.012 6.012v25.652a6.014 6.014 0 0 0 6.012 6.012h25.648a6.016 6.016 0 0 0 6.016-6.012V6.412A6.013 6.013 0 0 0 403.586.4zm-6.012 25.648h-13.625V12.423h13.625v13.625zM31.664 372.326H6.012A6.01 6.01 0 0 0 0 378.337v25.649a6.013 6.013 0 0 0 6.012 6.016h25.652a6.016 6.016 0 0 0 6.012-6.016v-25.649a6.014 6.014 0 0 0-6.012-6.011zm-6.016 25.648H12.023v-13.625h13.625v13.625zM403.586 372.326h-25.648a6.01 6.01 0 0 0-6.012 6.011v25.649a6.013 6.013 0 0 0 6.012 6.016h25.648a6.014 6.014 0 0 0 6.016-6.016v-25.649a6.012 6.012 0 0 0-6.016-6.011zm-6.012 25.648h-13.625v-13.625h13.625v13.625zM362.949 47.048a6.01 6.01 0 0 0-8.5 0l-21.801 21.797V51.298a6.008 6.008 0 0 0-6.011-6.011 6.013 6.013 0 0 0-6.012 6.011v32.063c0 3.273 2.738 6.016 6.012 6.016h32.062a6.01 6.01 0 0 0 6.012-6.016 6.01 6.01 0 0 0-6.012-6.012h-17.547l21.797-21.801a6.002 6.002 0 0 0 0-8.5zM87.773 86.959a6.063 6.063 0 0 0 1.204-3.598V51.298a6.015 6.015 0 0 0-12.028 0v17.547L55.148 47.048a6.01 6.01 0 0 0-8.5 8.5l21.797 21.801H50.898a6.012 6.012 0 0 0-6.011 6.012 6.012 6.012 0 0 0 6.011 6.016h32.063a6.067 6.067 0 0 0 4.812-2.418zM326.637 365.111a6.006 6.006 0 0 0 6.011-6.012v-17.547l21.801 21.801c2.446 2.445 6.574 2.277 8.824-.348 2.016-2.351 1.868-5.968-.324-8.156l-21.797-21.801h17.547a6.006 6.006 0 0 0 6.012-6.011 6.01 6.01 0 0 0-6.012-6.012h-32.062c-3.27 0-6.012 2.742-6.012 6.016v32.058a6.012 6.012 0 0 0 6.012 6.012zM82.961 365.111a6.013 6.013 0 0 0 6.016-6.012v-32.058c0-3.274-2.747-6.016-6.016-6.016H50.898a6.01 6.01 0 0 0-6.011 6.012 6.008 6.008 0 0 0 6.011 6.011h17.547l-21.797 21.801c-2.187 2.188-2.332 5.805-.32 8.156 2.246 2.625 6.379 2.793 8.82.348l21.801-21.801v17.547a6.01 6.01 0 0 0 6.012 6.012z"/></g></svg>