<svg viewBox="0 0 215 146" xmlns="http://www.w3.org/2000/svg" fill-rule="evenodd" clip-rule="evenodd" stroke-linejoin="round" stroke-miterlimit="1.414"><g fill="#fbc02d" fill-rule="nonzero"><path d="M136.9 124.1H75.8V11H67v123.8h76.6s-5-8.2-6.7-10.7zM199.2 66.5c-2.9.6-7.8 1.2-13.7 0-5.9-1.2-10.1-3.7-12.5-5.3-2.4 1.6-6.7 4.1-12.5 5.3-5.9 1.2-10.9.6-13.7 0-8.7 18.1-8 37.8.6 50.8 1.5 2.2 10.4 15.5 25.7 19.3.1 0 0 0 0 0s-.1 0 0 0c15.2-3.8 24.2-17.1 25.7-19.3 8.4-13 9.1-32.7.4-50.8z"/></g><path d="M172.9 146c-.8 0-1.5-.1-2.3-.3l-5-1.5h-.1c-14.2-5.4-23-16.9-26.1-21.6-10.6-15.9-11.1-39.5-1.2-60l2.4-5c.4-.9 1.4-1.4 2.4-1.2l5.5 1.1c3.3.7 6.7.7 10 0 3.2-.7 6.4-2 9.1-3.9l4-2.8c.7-.5 1.7-.5 2.5 0l4 2.8c2.7 1.9 5.9 3.2 9.1 3.9 3.3.7 6.7.7 10 0l5.5-1.1c1-.2 2 .3 2.4 1.2l2.4 5c9.8 20.5 9.4 44-1.2 60-3.1 4.7-11.9 16.2-26.1 21.6h-.1l-5 1.5c-.7.2-1.4.3-2.2.3zm-5.9-6.1l4.9 1.5c.6.2 1.3.2 2 0l4.9-1.5c13-5 21-15.6 23.9-19.9 9.8-14.7 10.1-36.5.9-55.6l-1.7-3.5-3.8.8c-3.8.8-7.9.8-11.8 0-3.8-.8-7.5-2.3-10.7-4.5l-2.8-1.9-2.8 1.9c-3.2 2.2-6.9 3.8-10.7 4.5-3.8.8-7.9.8-11.8 0l-3.8-.8-1.7 3.5c-9.2 19.1-8.8 41 .9 55.6 3.1 4.3 11.2 15 24.1 19.9z" fill-rule="nonzero"/><path d="M168.6 115c-.6 0-1.1-.2-1.6-.6l-9.6-9.6c-.9-.9-.9-2.3 0-3.1.9-.9 2.3-.9 3.1 0l7.8 7.8L185 86.8c.7-1 2.1-1.2 3.1-.5s1.2 2.1.5 3.1L170.4 114c-.4.5-1 .8-1.6.9-.1.1-.1.1-.2.1z" fill-rule="nonzero"/><circle cx="74" cy="143.5" r="2.2"/><circle cx="192.2" cy="29" r="2.2"/><path d="M149.1 145.9H82.5c-1.2 0-2.2-1-2.2-2.2 0-1.2 1-2.2 2.2-2.2h66.6c1.2 0 2.2 1 2.2 2.2 0 1.2-1 2.2-2.2 2.2zM192.1 21c-1.2 0-2.2-1-2.2-2.2V4.4H69.4c-1.2 0-2.2-1-2.2-2.2 0-1.2 1-2.2 2.2-2.2h122.7c1.2 0 2.2 1 2.2 2.2v16.5c0 1.3-1 2.3-2.2 2.3z" fill-rule="nonzero"/><path d="M141.7 135.9H66.1c-1.2 0-2.2-1-2.2-2.2V12.1c0-1.2 1-2.2 2.2-2.2h116.1c1.2 0 2.2 1 2.2 2.2v38.2c0 1.2-1 2.2-2.2 2.2-1.2 0-2.2-1-2.2-2.2v-36H68.3v117.2h73.5c1.2 0 2.2 1 2.2 2.2 0 1.2-1.1 2.2-2.3 2.2z" fill-rule="nonzero"/><path d="M179.9 45.2H66.1c-1.2 0-2.2-1-2.2-2.2 0-1.2 1-2.2 2.2-2.2H180c1.2 0 2.2 1 2.2 2.2-.1 1.2-1.1 2.2-2.3 2.2zM127 76H66c-1.2 0-2.2-1-2.2-2.2 0-1.2 1-2.2 2.2-2.2h61c1.2 0 2.2 1 2.2 2.2 0 1.2-.9 2.2-2.2 2.2zM125.6 106.9H66.1c-1.2 0-2.2-1-2.2-2.2 0-1.2 1-2.2 2.2-2.2h59.5c1.2 0 2.2 1 2.2 2.2 0 1.2-1 2.2-2.2 2.2zM84.2 35.3c-3.9 0-7.2-3.2-7.2-7.2 0-3.9 3.2-7.2 7.2-7.2 3.9 0 7.2 3.2 7.2 7.2 0 3.9-3.2 7.2-7.2 7.2zm0-10c-1.5 0-2.8 1.2-2.8 2.8 0 1.6 1.2 2.8 2.8 2.8 1.5 0 2.8-1.2 2.8-2.8 0-1.6-1.2-2.8-2.8-2.8zM84.2 65.6c-3.9 0-7.2-3.2-7.2-7.2 0-3.9 3.2-7.2 7.2-7.2 3.9 0 7.2 3.2 7.2 7.2s-3.2 7.2-7.2 7.2zm0-10c-1.5 0-2.8 1.2-2.8 2.8 0 1.6 1.2 2.8 2.8 2.8 1.5 0 2.8-1.2 2.8-2.8 0-1.6-1.2-2.8-2.8-2.8zM84.2 95.9c-3.9 0-7.2-3.2-7.2-7.2 0-3.9 3.2-7.2 7.2-7.2 3.9 0 7.2 3.2 7.2 7.2s-3.2 7.2-7.2 7.2zm0-9.9c-1.5 0-2.8 1.2-2.8 2.8 0 1.5 1.2 2.8 2.8 2.8 1.5 0 2.8-1.2 2.8-2.8 0-1.6-1.2-2.8-2.8-2.8zM84.2 126.2c-3.9 0-7.2-3.2-7.2-7.2 0-3.9 3.2-7.2 7.2-7.2 3.9 0 7.2 3.2 7.2 7.2s-3.2 7.2-7.2 7.2zm0-9.9c-1.5 0-2.8 1.2-2.8 2.8 0 1.5 1.2 2.8 2.8 2.8 1.5 0 2.8-1.2 2.8-2.8 0-1.6-1.2-2.8-2.8-2.8zM134.4 30.3h-3.3c-1.2 0-2.2-1-2.2-2.2 0-1.2 1-2.2 2.2-2.2h3.3c1.2 0 2.2 1 2.2 2.2 0 1.2-1 2.2-2.2 2.2zm-14.3 0h-3.3c-1.2 0-2.2-1-2.2-2.2 0-1.2 1-2.2 2.2-2.2h3.3c1.2 0 2.2 1 2.2 2.2 0 1.2-1 2.2-2.2 2.2zm-14.4 0h-3.3c-1.2 0-2.2-1-2.2-2.2 0-1.2 1-2.2 2.2-2.2h3.3c1.2 0 2.2 1 2.2 2.2 0 1.2-1 2.2-2.2 2.2zM120.1 60.9h-3.3c-1.2 0-2.2-1-2.2-2.2 0-1.2 1-2.2 2.2-2.2h3.3c1.2 0 2.2 1 2.2 2.2 0 1.2-1 2.2-2.2 2.2zm-14.4 0h-3.3c-1.2 0-2.2-1-2.2-2.2 0-1.2 1-2.2 2.2-2.2h3.3c1.2 0 2.2 1 2.2 2.2 0 1.2-1 2.2-2.2 2.2zM120.1 91.6h-3.3c-1.2 0-2.2-1-2.2-2.2 0-1.2 1-2.2 2.2-2.2h3.3c1.2 0 2.2 1 2.2 2.2 0 1.2-1 2.2-2.2 2.2zm-14.4 0h-3.3c-1.2 0-2.2-1-2.2-2.2 0-1.2 1-2.2 2.2-2.2h3.3c1.2 0 2.2 1 2.2 2.2 0 1.2-1 2.2-2.2 2.2zM120.1 122.2h-3.3c-1.2 0-2.2-1-2.2-2.2 0-1.2 1-2.2 2.2-2.2h3.3c1.2 0 2.2 1 2.2 2.2 0 1.2-1 2.2-2.2 2.2zm-14.4 0h-3.3c-1.2 0-2.2-1-2.2-2.2 0-1.2 1-2.2 2.2-2.2h3.3c1.2 0 2.2 1 2.2 2.2 0 1.2-1 2.2-2.2 2.2zM170.6 34.9h-18.4c-1.2 0-2.2-1-2.2-2.2v-9.4c0-1.2 1-2.2 2.2-2.2h18.4c1.2 0 2.2 1 2.2 2.2v9.4c0 1.3-1 2.2-2.2 2.2zm-16.2-4.4h14v-5h-14v5z" fill-rule="nonzero"/><path d="M54.7 112.6H9.9V19H2.6v102.5h52.1v-8.9z" fill="#fbc02d" fill-rule="nonzero"/><g fill="#0d0d0d"><path d="M31.9 31.3c-1 0-1.8.8-1.8 1.8s.8 1.8 1.8 1.8h2.7c1 0 1.8-.8 1.8-1.8s-.8-1.8-1.8-1.8h-2.7zM54.7 127H15.4c-1 0-1.8.8-1.8 1.8s.8 1.8 1.8 1.8h39.3V127zM10.9 33.2c0 3.3 2.7 5.9 5.9 5.9 3.3 0 5.9-2.7 5.9-5.9s-2.7-5.9-5.9-5.9c-3.2-.1-5.9 2.6-5.9 5.9zm8.2 0c0 1.3-1 2.3-2.3 2.3-1.3 0-2.3-1-2.3-2.3 0-1.3 1-2.3 2.3-2.3 1.3 0 2.3 1 2.3 2.3zM43.8 56.7c-1 0-1.8.8-1.8 1.8s.8 1.8 1.8 1.8h2.7c1 0 1.8-.8 1.8-1.8s-.8-1.8-1.8-1.8h-2.7zM43.8 31.3c-1 0-1.8.8-1.8 1.8s.8 1.8 1.8 1.8h2.7c1 0 1.8-.8 1.8-1.8s-.8-1.8-1.8-1.8h-2.7zM31.9 56.7c-1 0-1.8.8-1.8 1.8s.8 1.8 1.8 1.8h2.7c1 0 1.8-.8 1.8-1.8s-.8-1.8-1.8-1.8h-2.7zM4.6 13.6h50.1V9.9H4.6c-1 0-1.8.8-1.8 1.8-.1 1 .8 1.9 1.8 1.9z" fill-rule="nonzero"/><path d="M54.7 118.7H3.6V98.4h51.1v-3.6H3.6v-22h51.1v-3.6H3.6V47.3h51.1v-3.6H3.6V21.8h51.1v-3.6H1.8C.8 18.2 0 19 0 20v100.6c0 1 .8 1.8 1.8 1.8h52.9v-3.7z" fill-rule="nonzero"/><path d="M43.8 107.4c-1 0-1.8.8-1.8 1.8s.8 1.8 1.8 1.8h2.7c1 0 1.8-.8 1.8-1.8s-.8-1.8-1.8-1.8h-2.7zM10.9 83.3c0 3.3 2.7 5.9 5.9 5.9 3.3 0 5.9-2.7 5.9-5.9s-2.7-5.9-5.9-5.9-5.9 2.6-5.9 5.9zm8.2 0c0 1.3-1 2.3-2.3 2.3-1.3 0-2.3-1-2.3-2.3 0-1.3 1-2.3 2.3-2.3 1.3 0 2.3 1.1 2.3 2.3zM10.9 108.4c0 3.3 2.7 5.9 5.9 5.9 3.3 0 5.9-2.7 5.9-5.9s-2.7-5.9-5.9-5.9-5.9 2.6-5.9 5.9zm8.2 0c0 1.3-1 2.3-2.3 2.3-1.3 0-2.3-1-2.3-2.3 0-1.3 1-2.3 2.3-2.3 1.3 0 2.3 1 2.3 2.3zM31.9 107.4c-1 0-1.8.8-1.8 1.8s.8 1.8 1.8 1.8h2.7c1 0 1.8-.8 1.8-1.8s-.8-1.8-1.8-1.8h-2.7zM43.8 82c-1 0-1.8.8-1.8 1.8s.8 1.8 1.8 1.8h2.7c1 0 1.8-.8 1.8-1.8s-.8-1.8-1.8-1.8h-2.7zM10.9 58.2c0 3.3 2.7 5.9 5.9 5.9 3.3 0 5.9-2.7 5.9-5.9 0-3.3-2.7-5.9-5.9-5.9s-5.9 2.7-5.9 5.9zm8.2 0c0 1.3-1 2.3-2.3 2.3-1.3 0-2.3-1-2.3-2.3 0-1.3 1-2.3 2.3-2.3 1.3 0 2.3 1.1 2.3 2.3z" fill-rule="nonzero"/><circle cx="8.4" cy="128.6" r="1.8"/><path d="M31.9 82c-1 0-1.8.8-1.8 1.8s.8 1.8 1.8 1.8h2.7c1 0 1.8-.8 1.8-1.8s-.7-1.8-1.8-1.8h-2.7z" fill-rule="nonzero"/></g></svg>