<svg viewBox="0 0 611 558" xmlns="http://www.w3.org/2000/svg" fill-rule="evenodd" clip-rule="evenodd" stroke-linejoin="round" stroke-miterlimit="1.414"><path d="M304.52 284.93l-81.36 31.1 13.47 59.18 67 61.75 73.05-65.54 9.51-56.33-81.67-30.15v-.01z" fill="#fbc02d" fill-rule="nonzero"/><path d="M390.37 306l-81.43-30.53a10.12 10.12 0 0 0-7.15 0L220.36 306a10.19 10.19 0 0 0-6.6 9.54c.09 41.604 19.705 80.841 52.93 105.88l32.57 24.43a10.212 10.212 0 0 0 12.21 0l32.58-24.43c33.225-25.041 52.846-64.275 52.95-105.88a10.198 10.198 0 0 0-6.61-9.54h-.02zM277.7 406.71a114.539 114.539 0 0 1-45.36-84.07l-.09-1.48 73.12-27.42 73.13 27.42-.1 1.48a114.52 114.52 0 0 1-45.4 84.07l-27.63 20.71-27.67-20.71z" fill-rule="nonzero"/><path d="M539.4 208.01c.042-1.368.064-2.736.064-4.105 0-72.693-59.818-132.51-132.51-132.51a132.515 132.515 0 0 0-44.104 7.555 133.498 133.498 0 0 0-12.61 5.27C332.6 30.38 279.762-4.507 223.32.42c-45.121 4.686-84.233 33.711-101.79 75.54a115.666 115.666 0 0 0-7.45 67.89C48.637 152.965-.457 209.766 0 275.84c1.225 50.445 43.364 91.128 93.82 90.58h91.61a214.575 214.575 0 0 0 73.11 99.76l40.72 30.53a10.185 10.185 0 0 0 12.21 0l40.72-30.53a214.526 214.526 0 0 0 73.12-99.76h104c44.653-.049 81.381-36.777 81.43-81.43-.01-50.31-36.46-68.11-71.34-76.98zM269.56 451.5c-47.218-35.479-75.918-90.495-78-149.52l-.05-1.38 113.9-47.45L419.3 300.6l-.05 1.38c-2.082 59.025-30.782 114.041-78 149.52l-35.81 26.86-35.88-26.86zM92.92 348.08c-40.393-.015-73.813-32.834-74.56-73.22-.197-60.597 48.185-111.204 108.73-113.73 4.34-.208 7.798-3.836 7.798-8.181 0-.764-.107-1.524-.318-2.259a97.437 97.437 0 0 1 3.88-67.52c14.859-35.591 48.057-60.337 86.41-64.41 3.08-.27 6.16-.4 9.19-.4 48.986.043 91.624 34.69 101.69 82.63a8.244 8.244 0 0 0 8 6.53c.562 0 1.121-.06 1.67-.18a8.102 8.102 0 0 0 2.6-1 113.118 113.118 0 0 1 77.57-15.24c40.585 7.032 74.456 35.252 88.7 73.9a113.17 113.17 0 0 1 6.27 50.15c-.409 4.107 2.35 7.912 6.38 8.8 47.07 10.34 65.44 27.47 65.44 61.05-.093 34.566-28.504 62.982-63.07 63.08H428.87l.62-2.49a210.406 210.406 0 0 0 6.2-50.41 8.174 8.174 0 0 0-5-7.55l-122.17-50.89a8.19 8.19 0 0 0-6.3 0l-122.15 50.89a8.185 8.185 0 0 0-5 7.55 210.406 210.406 0 0 0 6.2 50.41l.62 2.49H92.92z" fill-rule="nonzero"/><path d="M293 557.42c-5.68-.34-11.38-.93-17-1.74l2.52-16.2c5.06.73 10.19 1.26 15.29 1.57l-.81 16.37zm-80.73-22.34c-5.05-2.63-10-5.49-14.82-8.53l8.9-13.73c4.33 2.74 8.8 5.32 13.33 7.69l-7.41 14.57zm-35.11-23.25c-4.39-3.62-8.66-7.46-12.72-11.44L176 488.77c3.66 3.57 7.49 7 11.43 10.28l-10.27 12.78zm74.31 38.71c-5.5-1.52-11-3.28-16.28-5.26l5.81-15.29c4.8 1.78 9.71 3.37 14.63 4.74l-4.16 15.81zm-103.84-68.76c-3.54-4.44-6.91-9.07-10.07-13.8l13.7-8.94c2.84 4.25 5.88 8.42 9.06 12.42l-12.69 10.32zm-37.43-74.91c-1.43-5.5-2.62-11.11-3.57-16.71l16.16-2.57c.86 5 1.93 10.08 3.21 15l-15.8 4.28zm14.8 39.44c-2.54-5.09-4.88-10.32-7-15.6l15.26-5.89c1.9 4.75 4 9.45 6.28 14L125 446.31zm192.21 94.79c5.1-.31 10.21-.84 15.27-1.57l2.52 16.16c-5.62.83-11.32 1.42-17 1.77l-.79-16.36zm167.6-138.79c1.27-4.95 2.34-10 3.19-15l16.16 2.55c-.94 5.61-2.13 11.22-3.54 16.73l-15.81-4.28zm-34.24 68.95c3.18-4 6.22-8.21 9.07-12.48l13.69 9c-3.14 4.73-6.51 9.35-10 13.8l-12.76-10.32zm20.76-32.68c2.28-4.58 4.38-9.28 6.27-14l15.27 5.84c-2.1 5.3-4.44 10.54-7 15.63l-14.54-7.47zm-80.02 81.84c4.53-2.37 9-4.94 13.3-7.67l8.93 13.67c-4.8 3-9.77 5.92-14.8 8.55l-7.43-14.55zm32.19-21.51c3.94-3.25 7.77-6.7 11.42-10.27l11.58 11.56c-4.07 4-8.33 7.82-12.7 11.43l-10.3-12.72zm-68.13 35.74c4.92-1.38 9.81-3 14.61-4.75l5.88 15.27c-5.33 2-10.79 3.76-16.26 5.28l-4.23-15.8zM122.15 323.72c-37.197-.099-68.047-30.071-69.22-67.25h16.36c1.124 28.22 24.618 50.838 52.86 50.89h28.53v16.36h-28.53zM460 171.04c-1.071-21.879-18.79-39.576-40.67-40.62V114c30.82 1.15 55.85 26.18 57 57l-16.33.04z" fill="#fbc02d" fill-rule="nonzero"/></svg>