<svg viewBox="0 0 608 608" xmlns="http://www.w3.org/2000/svg" fill-rule="evenodd" clip-rule="evenodd" stroke-linejoin="round" stroke-miterlimit="1.414"><path d="M333.06 397.41l263.05 81.79 1.13-469.12-264.18 387.33z" fill="#fbc02d" fill-rule="nonzero"/><path d="M332.06 528a9.871 9.871 0 0 1-8.51-4.85l-.07-.11-.07-.1-.08-.1-77.09-140.35-174.66-53.43a10.021 10.021 0 0 1-6.951-9.524A10.01 10.01 0 0 1 69.42 311l213.34-126.18a10 10 0 0 1 4.422-1.031c5.486 0 10 4.514 10 10A10.01 10.01 0 0 1 292.89 202L98.99 316.62l151.1 46.23L543.68 58.22l-2.46-3.11-157.16 92.94a10.009 10.009 0 0 1-4.276.961c-5.486 0-10-4.515-10-10 0-3.205 1.54-6.222 4.136-8.101L592.99 1.39a9.997 9.997 0 0 1 5-1.34c5.467 0 9.973 4.483 10 9.95v469.71c-.032 5.463-4.536 9.941-10 9.941a9.999 9.999 0 0 1-2.87-.421l-167-51.11-89.05 87a9.894 9.894 0 0 1-7.01 2.88zm-13.7-55.57l3.75-1v-73.09a9.891 9.891 0 0 1 1.77-5.67l177.29-255.93-3.09-2.52-232.81 241.57 53.09 96.64zm23.66 22l64.36-62.9-64.39-19.74.03 82.64zm246.06-28.13v-420L347.99 392.81l240.09 73.49z" fill-rule="nonzero"/><path d="M74.49 543.45c-5.432-.076-9.86-4.566-9.86-9.999 0-2.617 1.028-5.132 2.86-7.001l111.55-111.57a9.97 9.97 0 0 1 7.035-2.907c5.468 0 9.967 4.499 9.967 9.967a9.97 9.97 0 0 1-2.932 7.06L81.53 540.54a9.894 9.894 0 0 1-7.04 2.91z" fill="#fbc02d" fill-rule="nonzero"/><path d="M9.99 608c-5.45-.012-9.929-4.5-9.929-9.95A9.953 9.953 0 0 1 2.99 591l27.49-27.49a9.956 9.956 0 0 1 6.935-2.815c5.458 0 9.95 4.492 9.95 9.95a9.956 9.956 0 0 1-2.815 6.935l-27.56 27.5a9.892 9.892 0 0 1-7 2.92z" fill-rule="nonzero"/><path d="M160.05 607.29h-.027c-5.453 0-9.94-4.487-9.94-9.94 0-5.453 4.487-9.94 9.94-9.94 5.453 0 9.94 4.487 9.94 9.94a9.945 9.945 0 0 1-2.913 7.03 10.006 10.006 0 0 1-7 2.91zm29.83-29.83c-5.432-.076-9.86-4.566-9.86-9.999 0-2.617 1.028-5.132 2.86-7.001l59.1-59.1a10.005 10.005 0 0 1 7.834-3.785c5.486 0 10 4.514 10 10 0 3.068-1.411 5.971-3.824 7.865l-59.1 59.11a9.893 9.893 0 0 1-7.01 2.91z" fill="#fbc02d" fill-rule="nonzero"/><path d="M393.7 573.09c-5.432-.076-9.86-4.566-9.86-9.999 0-2.617 1.028-5.132 2.86-7.001l59.27-59.26a10.006 10.006 0 0 1 7.817-3.764c5.486 0 10 4.514 10 10 0 3.056-1.4 5.949-3.797 7.844l-59.26 59.26a9.89 9.89 0 0 1-7.03 2.92z" fill-rule="nonzero"/><path d="M328.41 179.34h-.062c-5.486 0-10-4.514-10-10s4.514-10 10-10 10 4.514 10 10c0 2.656-1.058 5.205-2.938 7.08a9.942 9.942 0 0 1-7 2.92z" fill="#fbc02d" fill-rule="nonzero"/></svg>