<svg viewBox="0 0 70 60" xmlns="http://www.w3.org/2000/svg" fill-rule="evenodd" clip-rule="evenodd" stroke-linecap="round" stroke-linejoin="round" stroke-miterlimit="1.5"><circle cx="60.9" cy="48.1" r="3.8" fill="#fbc02d" stroke="#000" stroke-width=".03"/><path d="M47.4 38l-1.1-4-4.1.1c-.6-.8-1.6-.7-2.3-1.3l.3-4.1-3.5-1.7-2.8 3c-.9-.1-1.9-.2-2.8-.1l-2.6-3.1-4 1.5.1 4.1c-.8.6-1.5 1.2-2.1 1.9l-4.2-.3-1.8 3.9 2.9 2.8c-.1.9-.2 1.9-.1 2.8l-3.1 2.6 1.5 4 4.1-.1c.6.8 1.2 1.5 1.9 2.1l-.3 4.1L27 58l2.8-2.9c.9.1 1.5.5 2.4.5l2.6 3.1 3.6-1.5-.1-4.1c.8-.6 2.6-1.7 3.2-2.4l4.1.3 1.8-4-3-2.8c.1-.9-.3-2.7-.4-3.6l3.4-2.6zm-14.7 9.3c-3 1.2-6.4-.4-7.6-3.4-1.2-3 .4-6.4 3.4-7.6 3-1.2 6.4.4 7.6 3.4 1.1 3-.4 6.4-3.4 7.6zM67.774 9.612l-.659-2.394-2.454.06c-.359-.479-.958-.419-1.377-.778l.18-2.455-2.095-1.017-1.676 1.796c-.539-.06-1.137-.12-1.676-.06l-1.556-1.856-2.394.898.059 2.454c-.478.359-.897.718-1.256 1.137l-2.514-.179-1.078 2.334 1.736 1.676c-.06.539-.12 1.137-.06 1.676l-1.855 1.556.897 2.395 2.455-.06c.359.479.718.898 1.137 1.257l-.18 2.454 2.155 1.077 1.676-1.736c.539.06.898.3 1.437.3l1.556 1.855 2.155-.898-.06-2.454c.479-.359 1.556-1.017 1.915-1.436l2.454.179 1.078-2.394-1.796-1.676c.06-.539-.18-1.616-.239-2.155l2.035-1.556zm-8.799 5.567c-1.796.718-3.831-.24-4.549-2.035-.719-1.796.239-3.831 2.035-4.55 1.796-.718 3.831.24 4.549 2.036a3.592 3.592 0 0 1-2.035 4.549z" fill="#fbc02d" fill-rule="nonzero"/><path d="M3.3 49.7c0 1.6-2.5 1.6-2.5 0s2.5-1.6 2.5 0zm34-10.7c2.4 6.3-4 12.3-10.1 9.5-6.1-2.7-5.9-11.5.4-13.9 3.8-1.4 8.2.5 9.7 4.4zm-4.9-2.2c-1.3-.6-2.7-.6-4.1-.1-4.4 1.7-4.6 7.9-.3 9.8 1.3.6 2.7.6 4.1.1 4.5-1.6 4.6-7.9.3-9.8zm13.9 14.6c-.4.9-1 .7-5 .3-.5.5-1 1-1.6 1.5l.1 3.9c0 1-.6 1-5.1 2.7-.9.4-1.2-.3-3.8-3.3-.7 0-1.5 0-2.2-.1-2.7 2.9-3 3.5-3.9 3.1-4.4-2-5-2-5-3l.3-3.9c-.5-.5-1-1-1.5-1.6-4 .1-4.6.3-4.9-.6-1.7-4.5-2.1-5-1.4-5.6l3-2.5c0-.7 0-1.5.1-2.2-2.9-2.7-3.5-3-3.1-3.9 2-4.5 2-5 3-5l3.9.3c.5-.5 1-1.1 1.6-1.5-.1-4-.3-4.6.6-4.9l4.4-1.7c.9-.4 1.2.3 3.8 3.3.7 0 1.5 0 2.2.1l2.7-2.8c.7-.7 1.1-.3 5.5 1.7.9.4.7 1 .3 5 .5.5 1 1 1.5 1.6l3.9-.1c1 0 1 .6 2.7 5.1.4.9-.3 1.2-3.3 3.8 0 .7 0 1.5-.1 2.2l2.8 2.7c.9.6.4 1-1.5 5.4zm-.4-4.5c-2.8-2.7-3.1-2.8-3-3.5.6-4.4-1.4-2.2 3.3-6.1l-1.1-3c-4 .1-4.1.2-4.6-.3-2.7-3.6-2.5-.6-2.1-6.7L35.5 26c-2.7 2.8-2.8 3.1-3.5 3-4.4-.6-2.2 1.4-6.2-3.3l-3 1.1c.1 3.8.2 4.1-.4 4.6-3.6 2.7-.5 2.5-6.6 2.1l-1.3 2.9c2.8 2.7 3.1 2.8 3 3.5-.6 4.4 1.4 2.2-3.3 6.2l1.1 3c3.9-.1 4.1-.2 4.6.3 2.7 3.6 2.5.6 2.1 6.6l2.9 1.3c4.2-4.4 1.9-2.5 6.3-2.9.7-.1.8.2 3.3 3.2l3-1.1c-.1-3.9-.2-4.1.4-4.6 3.6-2.7.6-2.5 6.7-2.1l1.3-2.9zm16.3-36.7c1 2.7-.3 5.7-3 6.7-1.3.5-2.7.5-4-.1-4.2-1.9-4-7.9.3-9.6 2.7-1 5.7.3 6.7 3zm-3.6-.9c-2.4-1.1-5 1.3-4 3.8.6 1.5 2.3 2.3 3.9 1.7 2.4-.9 2.5-4.4.1-5.5zm10.5 6.4c-1.8 3.9-.9 3.5-4.6 3.2-.2.3-.5.5-.8.7.1 3.5.7 2.8-3.5 4.4-.9.4-1.3-.4-2.7-2h-1.1c-1.5 1.6-1.9 2.3-2.8 1.9-4-1.8-3.5-1-3.2-4.6-.3-.2-.5-.5-.7-.8-2.2.1-3 .3-3.3-.7-1.6-4.1-1.7-3.2 1-5.5v-1.1c-1.6-1.5-2.3-1.9-1.9-2.8 1.2-2.7 1.3-3.5 2.3-3.4l2.3.2c.2-.3.5-.5.8-.7-.1-3.6-.6-2.8 3.4-4.4.9-.4 1.3.4 2.7 2h1.1C59.6.5 60-.2 60.9.2c4 1.8 3.5 1 3.2 4.6.3.2.5.5.7.8 2.2-.1 3-.3 3.3.7 1.6 4.1 1.7 3.2-1 5.5v1.1c1.7 1.5 2.4 1.9 2 2.8zM67 9.1l-.5-1.4c-2.1 0-2.5.2-2.9-.4-1.7-2.3-1.7-.5-1.4-4.2l-1.3-.6c-1.4 1.5-1.6 1.9-2.4 1.8-2.9-.4-1.5.9-4-2l-1.4.5c.1 2.1.2 2.5-.4 3-2.2 1.7-.4 1.7-4.2 1.4l-.6 1.3c1.5 1.4 1.9 1.6 1.8 2.4-.4 2.9.8 1.5-2 4l.5 1.4c2.2-.1 2.5-.2 2.9.4 1.7 2.3 1.7.5 1.4 4.2l1.3.6c2.6-2.7 1.4-1.5 4.1-1.8.7-.1.9.4 2.3 1.9l1.4-.5c0-2.1-.2-2.5.4-3 2.3-1.7.5-1.7 4.2-1.4l.6-1.3c-1.5-1.5-1.9-1.7-1.8-2.4.4-2.7-.9-1.4 2-3.9zm-4.8 32.5V26.4c0-1.4-2.2-1.4-2.2 0v15.1c.1 1.5 2.2 1.5 2.2.1zm-7.9 6h-5.2c-1.4 0-1.4 2.2 0 2.2h5.2c.6 0 1.1-.5 1.1-1.1 0-.6-.5-1.1-1.1-1.1zm11.5.5c0 2.7-2.2 4.9-4.9 4.9S56 50.8 56 48.1s2.2-4.9 4.9-4.9 4.9 2.2 4.9 4.9zm-2.2 0c0-1.5-1.2-2.7-2.7-2.7-1.5 0-2.7 1.2-2.7 2.7 0 1.5 1.2 2.7 2.7 2.7 1.5.1 2.7-1.2 2.7-2.7zM17.7 22.7c1.2-.9-.2-2.6-1.3-1.8-9.2 7-12.5 18.3-9.7 28.5.2.6.8.9 1.3.8.6-.2.9-.8.8-1.3-2.6-9.5.5-19.9 8.9-26.2zM2.3 44.4c-1-9 2.5-17.6 8.9-23.5 1.1-1-.4-2.6-1.5-1.6C2.9 25.6-.9 35 .2 44.7c.1.6.6 1 1.2 1 .6-.1 1-.7.9-1.3z" fill-rule="nonzero"/></svg>