<svg viewBox="0 0 480 480" xmlns="http://www.w3.org/2000/svg" fill-rule="evenodd" clip-rule="evenodd" stroke-linejoin="round" stroke-miterlimit="1.414"><ellipse cx="112.58" cy="96.028" rx="45.122" ry="45.18" fill="#fbc02d"/><ellipse cx="368.164" cy="353.234" rx="45.122" ry="45.18" fill="#fbc02d"/><path d="M16 16h208v160H16V16zm272 0v16h-32v16h32v16h-32v16h32v16h-48V16h48zm0 192h-48v-16h48v16zm0-32h-48v-64h48v64zM16 192h208v16H16v-16zm-8 32h288a8 8 0 0 0 8-8V8a8 8 0 0 0-8-8H8a8 8 0 0 0-8 8v208a8 8 0 0 0 8 8z" fill="#0a050b" fill-rule="nonzero"/><path d="M112 104a8 8 0 1 1 0-16 8 8 0 0 1 0 16zm0-32c-13.255 0-24 10.746-24 24 0 13.255 10.745 24 24 24s24-10.745 24-24c0-13.254-10.745-24-24-24z" fill="#0a050b" fill-rule="nonzero"/><path fill="#fbc02d" d="M32 32h16v16H32zM192 32h16v16h-16zM32 144h16v16H32zM192 144h16v16h-16z"/><path fill="#0a050b" d="M256 128h16v32h-16z"/><path d="M112 136c-22.092 0-40-17.909-40-40s17.908-40 40-40c22.091 0 40 17.909 40 40-.026 22.08-17.92 39.974-40 40zm0-96c-30.928 0-56 25.073-56 56 0 30.928 25.072 56 56 56s56-25.072 56-56c-.04-30.911-25.089-55.96-56-56zM464 464H256v-16h208v16zm-272 0v-16h48v16h-48zm48-192v64h-48v-64h48zm-48 144h32v-16h-32v-16h32v-16h-32v-16h48v80h-48v-16zm272-144v160H256V272h208zm8-16H184a8 8 0 0 0-8 8v208a8 8 0 0 0 8 8h288a8 8 0 0 0 8-8V264a8 8 0 0 0-8-8z" fill="#0a050b" fill-rule="nonzero"/><path d="M368 344a8 8 0 1 1 0 16 8 8 0 0 1 0-16zm0 32c13.255 0 24-10.745 24-24s-10.745-24-24-24-24 10.745-24 24 10.745 24 24 24z" fill="#0a050b" fill-rule="nonzero"/><path fill="#fbc02d" d="M432 288h16v16h-16zM272 288h16v16h-16zM432 400h16v16h-16zM272 400h16v16h-16z"/><path fill="#0a050b" d="M208 288h16v32h-16z"/><path d="M368 312c22.091 0 40 17.909 40 40s-17.909 40-40 40-40-17.909-40-40c.026-22.08 17.92-39.974 40-40zm0 96c30.928 0 56-25.072 56-56s-25.072-56-56-56-56 25.072-56 56c.04 30.911 25.089 55.96 56 56zM90.344 285.656l11.312-11.312-32-32a8 8 0 0 0-11.312 0l-32 32 11.312 11.312L56 267.312V368c.026 26.499 21.501 47.974 48 48h24v-16h-24c-17.674 0-32-14.327-32-32V267.312l18.344 18.344z" fill="#0a050b" fill-rule="nonzero"/><path fill="#0a050b" d="M144 400h16v16h-16z"/><path d="M376 64h-24v16h24c17.673 0 32 14.327 32 32v100.688l-18.344-18.344-11.312 11.312 32 32a8 8 0 0 0 11.312 0l32-32-11.312-11.312L424 212.688V112c-.026-26.498-21.501-47.973-48-48z" fill="#0a050b" fill-rule="nonzero"/><path fill="#0a050b" d="M320 64h16v16h-16z"/></svg>