<?xml version="1.0" encoding="UTF-8" standalone="no"?><!DOCTYPE svg PUBLIC "-//W3C//DTD SVG 1.1//EN" "http://www.w3.org/Graphics/SVG/1.1/DTD/svg11.dtd"><svg width="100%" height="100%" viewBox="0 0 406 512" version="1.1" xmlns="http://www.w3.org/2000/svg" xmlns:xlink="http://www.w3.org/1999/xlink" xml:space="preserve" xmlns:serif="http://www.serif.com/" style="fill-rule:evenodd;clip-rule:evenodd;stroke-linejoin:round;stroke-miterlimit:1.41421;"><path d="M316.408,125.818c0,-4.376 -3.554,-7.929 -7.93,-7.929l-215.025,0c-4.377,0 -7.93,3.553 -7.93,7.929l0,260.81c0,4.376 3.553,7.929 7.93,7.929l215.025,0c4.376,0 7.93,-3.553 7.93,-7.929l0,-260.81Z" style="fill:#5acc01;"/><ellipse cx="59.238" cy="450.671" rx="21.476" ry="19.908" style="fill:#5acc01;"/><ellipse cx="345.717" cy="449.66" rx="21.476" ry="19.908" style="fill:#5acc01;"/><ellipse cx="61.704" cy="61.73" rx="21.476" ry="19.908" style="fill:#5acc01;"/><ellipse cx="342.655" cy="62.606" rx="21.476" ry="19.908" style="fill:#5acc01;"/><g><path d="M142.881,275.642c-10.588,0 -13.39,-7.332 -17.646,-7.332c-3.218,0 -5.916,3.999 -5.916,6.666c0,5.523 10.379,11.808 23.978,11.808c14.325,0 24.704,-7.047 24.704,-20.664c0,-24.662 -33.32,-20.568 -33.32,-32.375c0,-4.57 4.256,-7.332 11.729,-7.332c8.719,0 11.106,3.618 14.325,3.618c3.736,0 5.397,-4.38 5.397,-6.571c0,-6.284 -13.597,-7.617 -19.722,-7.617c-11.937,0 -25.224,4.856 -25.224,19.045c0,22.567 33.321,18.187 33.321,32.471c0,5.712 -5.398,8.283 -11.626,8.283Z" style="fill:#0a050b;fill-rule:nonzero;"/><path d="M197.064,275.642c-10.588,0 -13.39,-7.332 -17.646,-7.332c-3.218,0 -5.916,3.999 -5.916,6.666c0,5.523 10.379,11.808 23.978,11.808c14.325,0 24.704,-7.047 24.704,-20.664c0,-24.662 -33.32,-20.568 -33.32,-32.375c0,-4.57 4.256,-7.332 11.729,-7.332c8.719,0 11.106,3.618 14.325,3.618c3.736,0 5.397,-4.38 5.397,-6.571c0,-6.284 -13.597,-7.617 -19.722,-7.617c-11.937,0 -25.224,4.856 -25.224,19.045c0,22.567 33.321,18.187 33.321,32.471c-0.001,5.712 -5.398,8.283 -11.626,8.283Z" style="fill:#0a050b;fill-rule:nonzero;"/><path d="M244.914,227.173l10.795,0c6.851,0 10.899,3.523 10.899,10.951l0,25.996c0,7.428 -4.048,10.951 -10.899,10.951l-10.795,0l0,-47.898Zm-7.578,58.752l18.373,0c13.702,0 24.394,-5.904 24.394,-21.806l0,-25.996c0,-15.902 -10.692,-21.806 -24.394,-21.806l-18.373,0c-3.529,0 -5.917,1.809 -5.917,3.81l0,61.99c0.001,1.999 2.388,3.808 5.917,3.808Z" style="fill:#0a050b;fill-rule:nonzero;"/><path d="M398.042,152.288c-4.144,0 -7.502,3.359 -7.502,7.502l0,316.652c0,11.334 -9.22,20.555 -20.554,20.555l-334.427,0c-11.334,0 -20.555,-9.221 -20.555,-20.555l0,-99.937c0,-4.143 -3.359,-7.502 -7.502,-7.502c-4.143,0 -7.502,3.359 -7.502,7.502l0,99.937c0,19.606 15.952,35.558 35.559,35.558l334.427,0c19.606,0 35.557,-15.952 35.557,-35.558l0,-316.652c0,-4.143 -3.358,-7.502 -7.501,-7.502Z" style="fill:#0a050b;fill-rule:nonzero;"/><path d="M369.986,0l-334.427,0c-19.607,0 -35.559,15.952 -35.559,35.558l0,300.936c0,4.143 3.36,7.502 7.502,7.502c4.144,0 7.503,-3.359 7.503,-7.502l0,-300.936c0,-11.334 9.221,-20.555 20.555,-20.555l334.427,0c11.334,0 20.554,9.221 20.554,20.555l0,84.222c0,4.143 3.358,7.502 7.502,7.502c4.144,0 7.502,-3.359 7.502,-7.502l0,-84.222c-0.002,-19.606 -15.953,-35.558 -35.559,-35.558Z" style="fill:#0a050b;fill-rule:nonzero;"/><path d="M306.915,125.031c2.609,0 4.732,2.123 4.732,4.732l0,252.474c0,2.61 -2.123,4.732 -4.732,4.732l-208.285,0c-2.61,0 -4.732,-2.123 -4.732,-4.732l0,-252.474c0,-2.61 2.123,-4.732 4.732,-4.732l208.285,0Zm-191.116,-44.46c-4.143,0 -7.502,3.359 -7.502,7.502l0,21.955l-9.667,0c-10.883,0 -19.736,8.853 -19.736,19.736l0,252.474c0,10.883 8.853,19.736 19.736,19.736l9.667,0l0,21.955c0,4.143 3.359,7.502 7.502,7.502c4.143,0 7.502,-3.359 7.502,-7.502l0,-21.955l28.483,0l0,21.955c0,4.143 3.359,7.502 7.502,7.502c4.143,0 7.502,-3.359 7.502,-7.502l0,-21.955l28.483,0l0,21.955c0,4.143 3.359,7.502 7.502,7.502c4.144,0 7.502,-3.359 7.502,-7.502l0,-21.955l28.484,0l0,21.955c0,4.143 3.358,7.502 7.502,7.502c4.144,0 7.502,-3.359 7.502,-7.502l0,-21.955l28.483,0l0,21.955c0,4.143 3.358,7.502 7.502,7.502c4.144,0 7.502,-3.359 7.502,-7.502l0,-21.955l9.668,0c10.882,0 19.735,-8.853 19.735,-19.736l0,-252.475c0,-10.883 -8.854,-19.736 -19.735,-19.736l-9.668,0l0,-21.954c0,-4.143 -3.358,-7.502 -7.502,-7.502c-4.144,0 -7.502,3.359 -7.502,7.502l0,21.955l-28.483,0l0,-21.955c0,-4.143 -3.358,-7.502 -7.502,-7.502c-4.144,0 -7.502,3.359 -7.502,7.502l0,21.955l-28.484,0l0,-21.955c0,-4.143 -3.358,-7.502 -7.502,-7.502c-4.143,0 -7.502,3.359 -7.502,7.502l0,21.955l-28.483,0l0,-21.955c0,-4.143 -3.359,-7.502 -7.502,-7.502c-4.143,0 -7.502,3.359 -7.502,7.502l0,21.955l-28.483,0l0,-21.955c-0.001,-4.143 -3.359,-7.502 -7.502,-7.502Z" style="fill:#0a050b;fill-rule:nonzero;"/><path d="M61.404,74.841c-7.107,0 -12.888,-5.782 -12.888,-12.888c0,-7.106 5.782,-12.888 12.888,-12.888c7.107,0 12.889,5.782 12.889,12.888c0,7.106 -5.782,12.888 -12.889,12.888Zm0,-40.78c-15.38,0 -27.892,12.512 -27.892,27.892c0,15.38 12.512,27.892 27.892,27.892c15.38,0 27.893,-12.512 27.893,-27.892c0,-15.38 -12.513,-27.892 -27.893,-27.892Z" style="fill:#0a050b;fill-rule:nonzero;"/><path d="M344.14,74.841c-7.106,0 -12.888,-5.782 -12.888,-12.888c0,-7.106 5.782,-12.888 12.888,-12.888c7.107,0 12.889,5.782 12.889,12.888c0,7.106 -5.782,12.888 -12.889,12.888Zm0,-40.78c-15.38,0 -27.892,12.512 -27.892,27.892c0,15.38 12.512,27.892 27.892,27.892c15.38,0 27.893,-12.512 27.893,-27.892c0,-15.38 -12.514,-27.892 -27.893,-27.892Z" style="fill:#0a050b;fill-rule:nonzero;"/><path d="M61.404,437.159c7.107,0 12.889,5.782 12.889,12.888c0,7.107 -5.782,12.888 -12.889,12.888c-7.107,0 -12.888,-5.782 -12.888,-12.888c0,-7.106 5.782,-12.888 12.888,-12.888Zm0,40.78c15.38,0 27.893,-12.512 27.893,-27.892c0,-15.38 -12.512,-27.892 -27.893,-27.892c-15.38,0 -27.892,12.512 -27.892,27.892c0,15.38 12.513,27.892 27.892,27.892Z" style="fill:#0a050b;fill-rule:nonzero;"/><path d="M344.14,462.936c-7.106,0 -12.888,-5.782 -12.888,-12.888c0,-7.107 5.782,-12.888 12.888,-12.888c7.107,0 12.889,5.782 12.889,12.888c0,7.106 -5.782,12.888 -12.889,12.888Zm0,-40.781c-15.38,0 -27.892,12.512 -27.892,27.892c0,15.38 12.512,27.892 27.892,27.892c15.38,0 27.893,-12.512 27.893,-27.892c0,-15.38 -12.514,-27.892 -27.893,-27.892Z" style="fill:#0a050b;fill-rule:nonzero;"/></g></svg>