<svg viewBox="0 0 86 60" xmlns="http://www.w3.org/2000/svg" fill-rule="evenodd" clip-rule="evenodd" stroke-linejoin="round" stroke-miterlimit="1.414"><circle cx="42.9" cy="47" r="4.8" fill="#fbc02d"/><circle cx="44.4" cy="16.6" r="12.4" fill="#fbc02d"/><circle cx="50.6" cy="10.1" r="2.5" fill="#fbc02d"/><path d="M38.9 21.3c0 1.4-1.1 2.5-2.5 2.5s-2.5-1.1-2.5-2.5 1.1-2.5 2.5-2.5 2.5 1.2 2.5 2.5z" fill="#fbc02d" fill-rule="nonzero"/><g fill-rule="nonzero"><path d="M54.9 45.7c-.7-.2-1.5.3-1.7 1-.2.7.3 1.5 1 1.7.7.2 1.5-.3 1.7-1 .2-.8-.3-1.6-1-1.7zm-22.7 0c-1.8-.5-2.5 2.3-.7 2.7.7.2 1.5-.3 1.7-1 .2-.8-.3-1.6-1-1.7zm-8-18.8c-1.6-.4-2.3 2.1-.6 2.5 1.6.4 2.2-2.1.6-2.5zM58.4 1.6c.4-1.6-2.1-2.2-2.5-.6-.4 1.7 2 2.3 2.5.6z"/><path d="M58 33.4c0-.3 0-18.3-.1-18.6C57.8 7.9 52.9 2 46.2.5c-.1 0-.2-.1-.3-.1h-.3c-.9-.2-1.8-.3-2.7-.3h-.7c-2.8.1-5.4 1-7.6 2.5-3.9 2.6-6.6 7-6.7 12.1-.2.3-.1-.1-.1 18.7-2.3.3-4.1 2.4-4.1 4.8v17c0 2.7 2.2 4.8 4.8 4.8h28.9c2.7 0 4.8-2.2 4.8-4.8v-17c0-2.5-1.8-4.5-4.2-4.8zm-23.7-9l.1-.1c.8.6 1.9.8 2.9.5.9 1.1 1.9 2 3.1 2.8-2.4-.6-4.4-1.7-6.1-3.2zM42 12.8v6.5c-.9.1-1.8.2-2.7.4-.6-1.1-1.9-1.8-3.2-1.6-.5-2.3-.5-4.7.3-6.9 1.6.9 3.6 1.5 5.6 1.6zm-5.1-3.3C38 7.2 39.8 5.2 42 3.9V11c-1.8-.2-3.5-.7-5.1-1.5zM42 21.2v5.2c-1.2-.7-2.2-1.6-3.1-2.7.5-.6.8-1.3.9-2.2.7-.1 1.4-.3 2.2-.3zm-4.1.3c0 2-3.1 2-3.1 0s3.1-2 3.1 0zm9.9-9.3c.6.9 1.7 1.5 2.9 1.4.3 2.6-.1 5-1.2 7.2-1.7-.8-3.6-1.3-5.6-1.4v-6.5c1.3-.1 2.6-.3 3.9-.7zm-4-1.2V3.5c1.8 1 3.4 2.4 4.5 4.1-.8.7-1.3 1.7-1.2 2.8-1 .4-2.1.6-3.3.6zm6.7-2.3c2 0 2 3.1 0 3.1s-2-3.1 0-3.1zm-2 13.7c-1.2 1.8-2.8 3.3-4.7 4.3v-5.5c1.7.1 3.3.5 4.7 1.2zm1.6.9c.5.3.9.7 1.4 1.1-1.5 1.4-3.3 2.4-5.3 2.9 1.6-1.1 2.9-2.4 3.9-4zm5.5-8.2c0 3-1 5.8-2.8 8-.6-.5-1.2-1-1.8-1.4 1.3-2.6 1.8-5.6 1.4-8.7 1.4-.9 1.9-2.8 1.1-4.3l.2-.2c1.2 2 1.9 4.2 1.9 6.6zm-3-8.1l-.3.3c-.7-.4-1.4-.6-2.2-.5-1-1.6-2.3-2.9-3.8-3.9 2.5.7 4.7 2.2 6.3 4.1zM40.5 2.7c-2.2 1.5-3.9 3.5-5.1 5.8-.7-.5-1.4-1.1-1.9-1.7 1.8-2.1 4.2-3.5 7-4.1zm-5.8 7.5c-.9 2.7-1.1 5.6-.4 8.6-1.2 1-1.7 2.6-1 4l-.2.2c-1.7-2.1-2.8-4.9-2.8-7.8 0-2.6.7-4.9 2-6.9.5.5 1.4 1.3 2.4 1.9zm-4.5 12.9c.7 1.1 1.5 2.1 2.5 3l.2.2c.4.3.7.6 1.1.9.1.1.2.2.3.2l1.5.9c.5.3 1 .5 1.5.7.1 0 .3.1.4.1.4.2.9.3 1.3.4.1 0 .3.1.4.1.4.1.9.2 1.4.3.1 0 .2 0 .3.1.5.1 1 .1 1.6.1h.2c.5 0 1.1 0 1.6-.1.3 0 .6-.1.9-.1.2 0 .4-.1.6-.1l1.2-.3c.1 0 .2-.1.3-.1 3.2-1 6.1-3.1 8.1-6.2v10.1H30.2V23.1zm29.6 32.1c0 1.3-1.1 2.4-2.4 2.4H28.5c-1.3 0-2.4-1.1-2.4-2.4v-17c0-1.3 1.1-2.4 2.4-2.4h28.8c1.3 0 2.4 1.1 2.4 2.4v17h.1z"/><path d="M24.9 23.2c0-8.2-.9-14.5 5.2-20.7 1.1-1.1-.6-2.8-1.7-1.7-6.8 6.9-5.9 14-5.9 22.4 0 1.5 2.4 1.6 2.4 0zM60.7 5c-.8-1.4-2.9-.2-2.1 1.2 3 5.2 2.4 8.2 2.4 22.9 0 1.6 2.4 1.6 2.4 0 0-14.4.7-18.2-2.7-24.1zM45.3 43.2c-.5.5-.5 1.2 0 1.7.6.6.9 1.4.9 2.3 0 1.8-1.5 3.3-3.3 3.3-1.8 0-3.3-1.5-3.3-3.3 0-.9.3-1.7.9-2.3.5-.5.5-1.2 0-1.7-1.5-1.4-3.3 1.7-3.3 4 0 3.1 2.5 5.7 5.7 5.7 3.1 0 5.7-2.5 5.7-5.7 0-1.5-.6-2.9-1.6-4-.5-.4-1.3-.4-1.7 0z"/><path d="M42.9 47.2c.7 0 1.2-.5 1.2-1.2v-5c0-1.6-2.4-1.6-2.4 0v5c0 .7.6 1.2 1.2 1.2z"/></g><path d="M31.2 39.6c-.7-.2-1.5.3-1.7 1-.2.7.3 1.5 1 1.7.7.2 1.5-.3 1.7-1 .2-.7-.2-1.5-1-1.7zm-22.7 0c-1.8-.5-2.5 2.3-.7 2.7.7.2 1.5-.3 1.7-1 .2-.7-.2-1.5-1-1.7z" fill-rule="nonzero"/><path d="M19.7 38.2c0-.7.1-1.3.2-2h-.4c-2.7 0-4.8 2.1-4.8 4.8 0 2.6 2.1 4.8 4.8 4.8h.1v-7.6h.1z" fill="#fbc02d" fill-rule="nonzero"/><g fill-rule="nonzero"><path d="M19.3 41.2c.1 0 .3 0 .4-.1v-3c0-1.2.3-2.4.7-3.5-.4-1.2-2.3-1.1-2.3.4v5c0 .7.5 1.2 1.2 1.2z"/><path d="M19.7 44.5h-.4c-1.8 0-3.3-1.5-3.3-3.3 0-.9.3-1.7.9-2.3.5-.5.5-1.2 0-1.7-1.5-1.4-3.3 1.7-3.3 4 0 3.1 2.5 5.7 5.7 5.7h.4v-2.4z"/></g><path d="M19.7 51.7H4.8c-1.3 0-2.4-1.1-2.4-2.4v-17c0-1.3 1.1-2.4 2.4-2.4h14c-.2-.7-.3-1.5-.2-2.2 0-.3.1-.5.2-.8H7.2v-6c.1-3.9 2.1-7.5 5.3-9.6l.1-.1c1.8-1.1 3.8-1.8 6-1.9h.6c.2-1 .5-2 .9-3h-1.6c-2.8.1-5.4 1-7.6 2.5-3.9 2.6-6.6 7-6.7 12.1-.2.3-.1 4.4-.1 6.7-2.3.1-4.1 2.1-4.1 4.6v17C0 51.9 2.2 54 4.8 54h14.8v-2.3h.1z" fill-rule="nonzero"/><g fill-rule="nonzero"><path d="M77.4 39.6c1.8-.5 2.5 2.3.7 2.7-.7.2-1.5-.3-1.7-1-.2-.7.2-1.5 1-1.7z"/><path d="M66.2 38.2c0-.7-.1-1.3-.2-2h.4c2.7 0 4.8 2.1 4.8 4.8 0 2.6-2.1 4.8-4.8 4.8h-.1v-7.6h-.1z" fill="#fbc02d"/><path d="M66.6 41.2c-.1 0-.3 0-.4-.1v-3c0-1.2-.3-2.4-.7-3.5.4-1.2 2.3-1.1 2.3.4v5c0 .7-.6 1.2-1.2 1.2z"/><path d="M66.2 44.5h.4c1.8 0 3.3-1.5 3.3-3.3 0-.9-.3-1.7-.9-2.3-.5-.5-.5-1.2 0-1.7 1.5-1.4 3.3 1.7 3.3 4 0 3.1-2.5 5.7-5.7 5.7h-.4v-2.4z"/><path d="M66.2 51.7H81c1.3 0 2.4-1.1 2.4-2.4v-17c0-1.3-1.1-2.4-2.4-2.4H67c.2-.7.3-1.5.2-2.2 0-.3-.1-.5-.2-.8h11.5v-6c-.1-3.9-2.1-7.5-5.3-9.6l-.1-.1c-1.8-1.1-3.8-1.8-6-1.9h-.6c-.2-1-.5-2-.9-3h1.6c2.8.1 5.4 1 7.6 2.5 3.9 2.6 6.6 7 6.7 12.1.2.3.1 4.4.1 6.7 2.3.3 4.1 2.4 4.1 4.8v17c0 2.7-2.2 4.8-4.8 4.8H66.2v-2.5z"/></g></svg>