<?xml version="1.0" encoding="UTF-8" standalone="no"?><!DOCTYPE svg PUBLIC "-//W3C//DTD SVG 1.1//EN" "http://www.w3.org/Graphics/SVG/1.1/DTD/svg11.dtd"><svg width="100%" height="100%" viewBox="0 0 610 610" version="1.1" xmlns="http://www.w3.org/2000/svg" xmlns:xlink="http://www.w3.org/1999/xlink" xml:space="preserve" xmlns:serif="http://www.serif.com/" style="fill-rule:evenodd;clip-rule:evenodd;stroke-linecap:round;stroke-linejoin:round;stroke-miterlimit:1.5;"><path d="M516.78,283.59l5.68,82.58l-128.3,122.25l-9.87,-96.08l64.82,-41.57l67.67,-67.18Z" style="fill:url(#_Linear1);fill-rule:nonzero;stroke:#000;stroke-width:0.75px;"/><path d="M333.05,88l-82.49,-7l-124.25,126.39l95.91,11.38l42.59,-64.15l68.24,-66.62Z" style="fill:url(#_Linear2);fill-rule:nonzero;stroke:#000;stroke-width:0.76px;"/><path d="M184.94,270l154.74,151.78l-31.61,47.16l-66.26,28.55l-105.27,5.32l-29.16,-6.36l3.73,-135.36l15.89,-39.23l29.51,-27.8l28.43,-24.06Z" style="fill:url(#_Linear3);fill-rule:nonzero;stroke:#000;stroke-width:1.04px;"/><path d="M607,3c-2.342,-2.336 -5.68,-3.393 -8.94,-2.83l-132,22.75c-47.69,8.329 -93.109,26.562 -133.32,53.52l-75.1,-5c-2.928,-0.14 -5.786,0.948 -7.88,3l-129.76,129.77c-1.912,1.912 -2.987,4.508 -2.987,7.212c0,5.342 4.197,9.826 9.527,10.178l79,5.27l-31.15,31.13c-3.038,3.076 -3.785,7.774 -1.85,11.64c-44.256,22.643 -72.302,68.248 -72.54,117.96l0,112.2c0,5.596 4.604,10.2 10.2,10.2l112.2,0c49.727,-0.219 95.354,-28.268 118,-72.54c3.838,2.016 8.579,1.26 11.6,-1.85l25.08,-25.08l5.54,83.16c0.362,5.323 4.841,9.508 10.177,9.508c2.699,0 5.292,-1.071 7.203,-2.978l129.85,-129.83c2.09,-2.073 3.185,-4.952 3,-7.89l-5.1,-76.73c30.169,-42.246 50.469,-90.732 59.4,-141.87l22.73,-132c0.532,-3.255 -0.542,-6.574 -2.88,-8.9Zm-461.25,201.41l114.43,-114.41l52.27,3.45l-4,3.22c-36.733,29.482 -66.989,66.23 -88.87,107.94l-2.38,4.54l-71.45,-4.74Zm-27.35,287.19l0,-104c0.249,-44.983 26.87,-85.861 67.91,-104.28l1.26,-0.56l20.57,20.57l-2.46,1.25c-19.77,9.954 -32.29,30.285 -32.28,52.42l0,71.4c0.005,4.496 3.704,8.195 8.2,8.2l71.4,0c22.133,0.003 42.46,-12.514 52.42,-32.28l1.25,-2.46l20.57,20.57l-0.57,1.25c-18.399,41.049 -59.277,67.679 -104.26,67.92l-104,0l-0.01,0Zm71.4,-71.4l0,-63.2c-0.029,-18.558 12.08,-35.094 29.78,-40.67l1.16,-0.37l73.26,73.3l-0.36,1.16c-5.583,17.682 -22.097,29.783 -40.64,29.78l-63.2,0Zm119.06,-39.35l-113.51,-113.51l-2.17,-2.13l29.22,-29.21l151.6,151.6l-29.2,29.2l-35.94,-35.95Zm85.7,15.15l10.77,-5.64c38.942,-20.464 73.575,-48.245 102,-81.82l3.19,-3.77l3.69,55.2l-114.42,114.46l-5.23,-78.43Zm-164.65,-175.69l4.21,-8c47.629,-90.32 134.531,-153.643 235.1,-171.31l120.53,-20.77l-20.75,120.54c-17.65,100.561 -80.95,187.466 -171.25,235.11l-8,4.21l-159.84,-159.78Z" style="fill-rule:nonzero;"/><path d="M181.6,610c-0.001,0 -0.002,0 -0.003,0c-4.499,0 -8.2,-3.702 -8.2,-8.2c0,-2.175 0.865,-4.263 2.403,-5.8l59.79,-59.79l11.59,11.6l-45.8,45.81l4.86,0c31.976,-0.031 61.278,-18.301 75.38,-47c10.606,-21.164 32.338,-34.581 56.01,-34.581c34.369,0 62.65,28.281 62.65,62.65c0,5.546 -0.736,11.068 -2.19,16.421l-0.68,2.53l47.39,0l0,16.36l-59.2,0c-0.99,0.001 -1.972,-0.175 -2.9,-0.52c-3.204,-1.185 -5.343,-4.257 -5.343,-7.672c0,-0.983 0.177,-1.958 0.523,-2.878l3.05,-8c1.978,-5.228 2.992,-10.771 2.992,-16.36c0,-25.361 -20.869,-46.23 -46.23,-46.23c-17.526,0 -33.604,9.965 -41.402,25.66c-16.998,34.24 -52.063,55.988 -90.29,56l-24.4,0Z" style="fill-rule:nonzero;"/><rect x="469.2" y="593.6" width="16.4" height="16.4"/><rect x="510" y="593.6" width="16.4" height="16.4"/><path d="M143.782,526.003l-68.569,68.568l11.597,11.597l68.568,-68.568l-11.596,-11.597Z"/><path d="M8.19,569.2c-1.075,0.002 -2.14,-0.212 -3.13,-0.63c-3.062,-1.258 -5.069,-4.26 -5.06,-7.57l0,-45c-0.006,-38.653 15.361,-75.765 42.69,-103.1c11.852,-11.845 18.516,-27.934 18.51,-44.69l0,-1c-0.071,-33.897 -27.323,-62.044 -61.2,-63.21l0,-16.38c42.853,1.197 77.482,36.711 77.6,79.58l0,1c0.014,21.109 -8.378,41.379 -23.31,56.3c-24.258,24.257 -37.897,57.195 -37.89,91.5l0,25.2l56,-56l11.6,11.61l-70,70c-1.536,1.547 -3.63,2.415 -5.81,2.41l0,-0.02Z" style="fill-rule:nonzero;"/><path d="M21.321,577.017l-17.572,17.571l11.596,11.597l17.572,-17.572l-11.596,-11.596Z"/><path d="M396.75,172l-0.34,-20.8l13.71,-26.91l34.68,-10.19l31.91,4.24l18.17,25.09l0.56,29.77l-6.18,22.8l-21.19,10.56l-34.5,8.51l-36.95,35.26l-27.31,-0.68l-15.31,-23.3l3.36,-19.87l25.75,-19.61l13.64,-14.87Z" style="fill:url(#_Linear4);fill-rule:nonzero;stroke:#000;stroke-width:0.62px;"/><path d="M446.8,102c-33.573,0 -61.2,27.627 -61.2,61.2c-0.001,1.894 0.102,3.787 0.31,5.67l-17.72,17.71l-10.19,10.2c-7.321,7.319 -11.438,17.258 -11.438,27.61c0,21.418 17.625,39.043 39.043,39.043c10.35,0 20.286,-4.115 27.605,-11.433l10.2,-10.2l17.72,-17.72c1.884,0.198 3.776,0.302 5.67,0.31c33.573,0 61.2,-27.627 61.2,-61.2c0,-33.573 -27.627,-61.2 -61.2,-61.2l0,0.01Zm-60.91,142.77c-11.322,-0.017 -20.629,-9.338 -20.629,-20.66c0,-5.323 2.057,-10.446 5.739,-14.29l4.43,-4.43l29.21,29.21l-4.44,4.4c-3.84,3.705 -8.974,5.775 -14.31,5.77Zm21.5,-30.57l23.44,-23.44l26.86,-8.95l-5.19,-15.58l-13.12,4.37l4.39,-13.12l-15.58,-5.19l-9,26.87l-23.39,23.44l-8.8,-8.8l15.56,-15.55c1.907,-1.907 2.754,-4.638 2.26,-7.29c-0.51,-2.549 -0.782,-5.14 -0.81,-7.74c-0.002,-0.182 -0.003,-0.365 -0.003,-0.547c0,-23.787 19.573,-43.36 43.36,-43.36c23.786,0 43.36,19.573 43.36,43.36c0,23.786 -19.574,43.36 -43.36,43.36c-2.806,0 -5.604,-0.272 -8.357,-0.813c-0.482,-0.085 -0.971,-0.128 -1.46,-0.13c-2.175,-0.006 -4.265,0.858 -5.8,2.4l-15.55,15.51l-8.81,-8.8Z" style="fill-rule:nonzero;"/><path d="M521.186,77.217l-17.572,17.572l11.597,11.597l17.571,-17.572l-11.596,-11.597Z"/><rect x="520.2" y="155" width="26.6" height="16.4"/><rect x="438.6" y="63.2" width="16.4" height="26.6"/><defs><linearGradient id="_Linear1" x1="0" y1="0" x2="1" y2="0" gradientUnits="userSpaceOnUse" gradientTransform="matrix(138.17,0,0,204.83,384.29,386.005)"><stop offset="0" style="stop-color:#5acc01;stop-opacity:1"/><stop offset="0.55" style="stop-color:#54bf01;stop-opacity:1"/><stop offset="1" style="stop-color:#3f8f01;stop-opacity:1"/></linearGradient><linearGradient id="_Linear2" x1="0" y1="0" x2="1" y2="0" gradientUnits="userSpaceOnUse" gradientTransform="matrix(206.74,0,0,137.77,126.31,149.885)"><stop offset="0" style="stop-color:#5acc01;stop-opacity:1"/><stop offset="0.55" style="stop-color:#54bf01;stop-opacity:1"/><stop offset="1" style="stop-color:#3f8f01;stop-opacity:1"/></linearGradient><linearGradient id="_Linear3" x1="0" y1="0" x2="1" y2="0" gradientUnits="userSpaceOnUse" gradientTransform="matrix(232.3,0,0,232.81,107.38,386.405)"><stop offset="0" style="stop-color:#5acc01;stop-opacity:1"/><stop offset="0.55" style="stop-color:#54bf01;stop-opacity:1"/><stop offset="1" style="stop-color:#3f8f01;stop-opacity:1"/></linearGradient><linearGradient id="_Linear4" x1="0" y1="0" x2="1" y2="0" gradientUnits="userSpaceOnUse" gradientTransform="matrix(141.44,0,0,136.23,354,182.215)"><stop offset="0" style="stop-color:#5acc01;stop-opacity:1"/><stop offset="0.55" style="stop-color:#54bf01;stop-opacity:1"/><stop offset="1" style="stop-color:#3f8f01;stop-opacity:1"/></linearGradient></defs></svg>