<?xml version="1.0" encoding="UTF-8" standalone="no"?><!DOCTYPE svg PUBLIC "-//W3C//DTD SVG 1.1//EN" "http://www.w3.org/Graphics/SVG/1.1/DTD/svg11.dtd"><svg width="100%" height="100%" viewBox="0 0 610 606" version="1.1" xmlns="http://www.w3.org/2000/svg" xmlns:xlink="http://www.w3.org/1999/xlink" xml:space="preserve" xmlns:serif="http://www.serif.com/" style="fill-rule:evenodd;clip-rule:evenodd;stroke-linecap:round;stroke-linejoin:round;stroke-miterlimit:1.5;"><path d="M277.227,484.545c2.405,-14.818 16.388,-24.896 31.206,-22.491c14.819,2.405 24.897,16.388 22.492,31.206c-2.405,14.819 -16.388,24.897 -31.207,22.492c-14.818,-2.405 -24.896,-16.388 -22.491,-31.207Z" style="fill:url(#_Linear1);stroke:#000;stroke-width:0.24px;"/><path d="M305,530.1c-22.8,0 -41.4,-18.6 -41.4,-41.4c0,-22.8 18.6,-41.4 41.4,-41.4c22.8,0 41.4,18.6 41.4,41.4c0,22.8 -18.6,41.4 -41.4,41.4Zm0,-66.9c-14.1,0 -25.5,11.4 -25.5,25.5c0,14.1 11.4,25.5 25.5,25.5c14.1,0 25.5,-11.4 25.5,-25.5c0,-14.1 -11.4,-25.5 -25.5,-25.5Z" style="fill:#0a050b;fill-rule:nonzero;"/><path d="M208.1,216.1l4.2,-43.4l18.8,-37.3l41.4,-24.1l45.4,-5.7l32.7,12.5l29.5,24.4l15.3,36.3l1.7,29l-0.2,12.8l-32.9,-7.1l-19.3,-15.7l-25.4,-21l-23.5,24.8l-40.9,15.7l-34.1,0l-12.7,-1.2" style="fill:url(#_Linear2);fill-rule:nonzero;stroke:#000;stroke-width:0.66px;"/><path d="M305,362c-56.6,0 -102.7,-46.1 -102.7,-102.7l0,-64.2c0,-56.6 46.1,-102.7 102.7,-102.7c56.6,0 102.7,46.1 102.7,102.7l0,64.2c0,56.6 -46.1,102.7 -102.7,102.7Zm-86.8,-131.7l0,29c0,47.8 38.9,86.8 86.8,86.8c47.8,0 86.8,-38.9 86.8,-86.8l0,-29.4l-3.6,-4c-21.9,-2.1 -41.8,-11.5 -57.6,-27l-7.2,-7.1l-5.9,0.3c-17.8,21.4 -45,34.2 -72.8,34.2l-22.4,0l-4.1,4Zm86.8,-121.9c-47.8,0 -86.7,38.9 -86.7,86.8l0,11.3l4,4l22.4,0c27.5,0 53.3,-14.6 67.4,-38.2c1.3,-2.1 3.4,-3.5 5.8,-3.8c0.3,0 0.7,-0.1 1,-0.1c2.1,0 4.1,0.8 5.6,2.3l17.2,16.9c12.5,12.3 28.3,20 45.6,22.2l4.5,-4l0,-10.6c0,-47.9 -39,-86.8 -86.8,-86.8Z" style="fill:#0a050b;fill-rule:nonzero;"/><path d="M475.1,599.221l-1.076,-178.877l30.825,15.342l16.282,19.148l12.133,24.456l2.04,119.656l-60.204,0.275Z" style="fill:url(#_Linear3);stroke:#000;stroke-width:0.47px;"/><path d="M74.591,597.136l60.918,3.045l2.186,-180.295l-23.171,6.91l-24.486,25.402l-12.032,28.927l-3.415,116.011Z" style="fill:url(#_Linear4);stroke:#000;stroke-width:0.48px;"/><path d="M39.6,606.6c-4.4,0 -8,-3.6 -8,-8c0,-4.4 3.6,-8 8,-8l24,0l4,-4l0,-90c0,-39.2 26.3,-74.2 64,-85.2l2.5,-2.1c11.4,-23.5 35.5,-38.7 61.5,-38.7l218.7,0c26,0 50.2,15.2 61.5,38.7l2.5,2.1c37.7,10.9 64,46 64,85.2l0,90l4,4l24,0c4.4,0 8,3.6 8,8c0,4.4 -3.6,8 -8,8l-530.7,0Zm443,-170.1c0,0.9 0.1,1.7 0.1,2.6l0,147.6l4,4l35.8,0l4,-4l0,-90c0,-26.6 -14.5,-51.1 -38,-63.9l-5.9,3.7Zm-299.5,86.9c4.4,0 8,3.6 8,8l0,55.4l4,4l267.7,0l4,-4l0,-147.7c0,-28.9 -23.5,-52.4 -52.4,-52.4l-218.8,0c-28.9,0 -52.4,23.5 -52.4,52.4l0,147.6l4,4l23.9,0l4,-4l0,-55.4c0,-4.4 3.6,-7.9 8,-7.9Zm-61.6,-90.6c-23.4,12.8 -38,37.3 -38,63.9l0,90l4,4l35.8,0l4,-4l0,-147.6c0,-0.9 0,-1.7 0.1,-2.6l-5.9,-3.7Z" style="fill:#0a050b;fill-rule:nonzero;"/><path d="M41.9,88.7c-2.7,0 -5.2,-1 -7,-2.9l-31,-31c-1.9,-1.9 -2.9,-4.4 -2.9,-7c0,-2.7 1,-5.2 2.9,-7l31,-31c1.9,-1.9 4.4,-2.9 7,-2.9c2.6,0 5.2,1 7,2.9c3.9,3.9 3.9,10.2 0,14.1l-22.5,22.5l0,2.8l22.6,22.5c1.9,1.9 2.9,4.4 2.9,7c0,2.6 -1,5.2 -2.9,7c-1.9,2 -4.4,3 -7.1,3Z" style="fill:#0a050b;fill-rule:nonzero;"/><path d="M153.6,88.7c-2.7,0 -5.2,-1 -7,-2.9c-1.9,-1.9 -2.9,-4.4 -2.9,-7c0,-2.7 1,-5.2 2.9,-7l22.5,-22.5l0,-2.8l-22.5,-22.5c-3.9,-3.9 -3.9,-10.2 0,-14.1c1.9,-1.9 4.4,-2.9 7,-2.9c2.7,0 5.2,1 7,2.9l31,31c3.9,3.9 3.9,10.2 0,14.1l-31,31c-1.9,1.7 -4.4,2.7 -7,2.7Z" style="fill:#0a050b;fill-rule:nonzero;"/><path d="M75.9,95c-1.8,0 -3.5,-0.5 -5,-1.4c-2.3,-1.3 -3.9,-3.5 -4.6,-6.1c-0.7,-2.6 -0.3,-5.3 1.1,-7.5l43.8,-74.4c1.8,-3 5.1,-4.9 8.6,-4.9c1.8,0 3.5,0.5 5,1.4c2.3,1.3 3.9,3.5 4.6,6.1c0.7,2.6 0.3,5.3 -1.1,7.5l-43.8,74.3c-1.8,3.1 -5.1,5 -8.6,5Z" style="fill:#0a050b;fill-rule:nonzero;"/><path d="M453.2,39.2l-21,30.4l16.7,15.1l0.2,23.4l-14,12.1l14,26.4l24.5,3.1l19,13.6l5.5,15l32.4,1.5l12.2,-23.2l16.7,-8.3l20.4,5.1l16.2,-32.3l-14.2,-16.7l-2,-17.1l16.3,-16.9l-19,-30.9l-22.2,-0.3l-14.8,-7.9l-7.7,-21.6l-28,-0.4l-15.2,23.3l-17.2,10.8l-18.8,-4.2Z" style="fill:url(#_Linear5);fill-rule:nonzero;stroke:#000;stroke-width:0.75px;"/><path d="M496.7,188.1c-3.7,0 -7,-2.6 -7.8,-6.3l-3.5,-16.2l-2.2,-2.8c-3.2,-1.6 -6.4,-3.4 -9.4,-5.4l-3.5,-0.5l-15.8,5.1c-0.8,0.3 -1.6,0.4 -2.4,0.4c-2.8,0 -5.5,-1.5 -6.9,-4l-19.2,-33.4c-1.9,-3.2 -1.2,-7.4 1.6,-9.9l12.3,-11.1l1.3,-3.3c-0.1,-1.8 -0.2,-3.6 -0.2,-5.4c0,-1.8 0.1,-3.6 0.2,-5.4l-1.3,-3.3l-12.3,-11.1c-2.8,-2.5 -3.4,-6.7 -1.6,-9.9l19.3,-33.4c1.4,-2.5 4.1,-4 6.9,-4c0.8,0 1.7,0.1 2.4,0.4l15.8,5.1l3.5,-0.5c3,-2 6.1,-3.8 9.4,-5.4l2.2,-2.8l3.5,-16.2c0.8,-3.6 4.1,-6.3 7.8,-6.3l38.6,0c3.7,0 7,2.6 7.8,6.3l3.5,16.2l2.2,2.8c3.2,1.6 6.4,3.4 9.4,5.4l3.5,0.5l15.8,-5.1c0.8,-0.3 1.6,-0.4 2.4,-0.4c2.8,0 5.5,1.5 6.9,4l19.3,33.4c1.9,3.2 1.2,7.4 -1.6,9.9l-12.6,11.2l-1.3,3.3c0.1,1.8 0.2,3.6 0.2,5.4c0,1.8 -0.1,3.6 -0.2,5.4l1.3,3.3l12.3,11.1c2.8,2.5 3.4,6.7 1.6,9.9l-19.3,33.4c-1.4,2.5 -4.1,4 -6.9,4c-0.8,0 -1.7,-0.1 -2.4,-0.4l-15.8,-5.1l-3.5,0.5c-3,2 -6.1,3.8 -9.4,5.4l-2.2,2.8l-3.5,16.2c-0.8,3.6 -4.1,6.3 -7.8,6.3l-38.4,0l0,-0.1Zm-22.9,-48.6c1.8,0 3.6,0.6 5,1.8c4.8,3.9 10.2,7 15.9,9.2c2.5,1 4.4,3.1 4.9,5.8l2.7,12.8l3.9,3.2l19.2,0l3.9,-3.2l2.7,-12.8c0.6,-2.6 2.4,-4.8 4.9,-5.8c5.8,-2.2 11.1,-5.3 15.9,-9.2c1.4,-1.1 3.2,-1.8 5,-1.8c0.8,0 1.7,0.1 2.4,0.4l12.5,4l4.7,-1.8l9.6,-16.6l-0.8,-5l-9.7,-8.8c-2,-1.8 -2.9,-4.5 -2.5,-7.1c0.5,-3 0.7,-6.1 0.7,-9.2c0,-3.1 -0.2,-6.2 -0.7,-9.2c-0.4,-2.7 0.5,-5.3 2.5,-7.1l9.7,-8.8l0.8,-5l-9.6,-16.6l-4.7,-1.8l-12.5,4c-0.8,0.3 -1.6,0.4 -2.4,0.4c-1.8,0 -3.6,-0.6 -5,-1.8c-4.8,-3.9 -10.2,-7 -15.9,-9.2c-2.5,-1 -4.4,-3.1 -4.9,-5.8l-2.7,-12.8l-3.9,-3.2l-19.2,0l-3.9,3.2l-2.7,12.8c-0.6,2.6 -2.4,4.8 -4.9,5.8c-5.8,2.2 -11.1,5.3 -15.9,9.2c-1.4,1.1 -3.2,1.8 -5,1.8c-0.8,0 -1.7,-0.1 -2.4,-0.4l-12.5,-4l-4.7,1.8l-9.6,16.6l0.8,5l9.7,8.8c2,1.8 2.9,4.5 2.5,7.1c-0.5,3 -0.7,6.1 -0.7,9.2c0,3.1 0.2,6.2 0.7,9.2c0.4,2.7 -0.5,5.3 -2.5,7.1l-9.7,8.8l-0.8,5l9.6,16.6l4.7,1.8l12.5,-4c0.8,-0.3 1.6,-0.4 2.4,-0.4Z" style="fill:#0a050b;fill-rule:nonzero;"/><path d="M11,161.4c-5.5,0 -10,-4.5 -10,-10c0,-5.5 4.5,-10 10,-10l93.2,0c5.5,0 10,4.5 10,10c0,5.5 -4.5,10 -10,10l-93.2,0Z" style="fill:url(#_Linear6);fill-rule:nonzero;stroke:#000;stroke-width:0.21px;"/><path d="M145.3,161.4c-5.5,0 -10,-4.5 -10,-10c0,-5.5 4.5,-10 10,-10l28.9,0c5.5,0 10,4.5 10,10c0,5.5 -4.5,10 -10,10l-28.9,0Z" style="fill:#0a050b;fill-rule:nonzero;"/><path d="M11,276.1c-5.5,0 -10,-4.5 -10,-10c0,-5.5 4.5,-10 10,-10l59.8,0c5.5,0 10,4.5 10,10c0,5.5 -4.5,10 -10,10l-59.8,0Z" style="fill:url(#_Linear7);fill-rule:nonzero;stroke:#000;stroke-width:0.18px;"/><path d="M112.4,276.1c-5.5,0 -10,-4.5 -10,-10c0,-5.5 4.5,-10 10,-10l52.5,0c5.5,0 10,4.5 10,10c0,5.5 -4.5,10 -10,10l-52.5,0Z" style="fill:#0a050b;fill-rule:nonzero;"/><path d="M11,218.8c-5.5,0 -10,-4.5 -10,-10c0,-5.5 4.5,-10 10,-10l15.5,0c5.5,0 10,4.5 10,10c0,5.5 -4.5,10 -10,10l-15.5,0Z" style="fill:url(#_Linear8);fill-rule:nonzero;stroke:#000;stroke-width:0.12px;"/><path d="M67.1,218.8c-5.5,0 -10,-4.5 -10,-10c0,-5.5 4.5,-10 10,-10l97.7,0c5.5,0 10,4.5 10,10c0,5.5 -4.5,10 -10,10l-97.7,0Z" style="fill:#0a050b;fill-rule:nonzero;"/><path d="M599,388.6c-2.6,0 -5.2,-1.1 -7,-2.9c-1.9,-1.9 -2.9,-4.4 -2.9,-7c0,-2.6 1.1,-5.2 2.9,-7c1.8,-1.9 4.4,-2.9 7,-2.9c2.6,0 5.2,1.1 7,2.9c1.9,1.9 2.9,4.4 2.9,7c0,2.6 -1.1,5.2 -2.9,7c-1.8,1.9 -4.3,2.9 -7,2.9Z" style="fill:url(#_Linear9);fill-rule:nonzero;stroke:#000;stroke-width:0.09px;"/><path d="M497.6,388.7c-5.5,0 -10,-4.5 -10,-10c0,-5.5 4.5,-10 10,-10l58.9,0c5.5,0 10,4.5 10,10c0,5.5 -4.5,10 -10,10l-58.9,0Z" style="fill:#0a050b;fill-rule:nonzero;"/><path d="M450.4,331.3c-5.5,0 -10,-4.5 -10,-10c0,-5.5 4.5,-10 10,-10l30.6,0c5.5,0 10,4.5 10,10c0,5.5 -4.5,10 -10,10l-30.6,0Z" style="fill:#0a050b;fill-rule:nonzero;"/><path d="M528.2,331.3c-5.5,0 -10,-4.5 -10,-10c0,-5.5 4.5,-10 10,-10l70.8,0c5.5,0 10,4.5 10,10c0,5.5 -4.5,10 -10,10l-70.8,0Z" style="fill:#0a050b;fill-rule:nonzero;"/><path d="M516,107.3c3.1,0 6.2,-1.3 8.4,-3.5c2.2,-2.2 3.5,-5.3 3.5,-8.5c0,-3.2 -1.3,-6.2 -3.5,-8.5c-2.2,-2.2 -5.3,-3.5 -8.4,-3.5c-3.1,0 -6.2,1.3 -8.5,3.5c-2.2,2.2 -3.5,5.3 -3.5,8.5c0,3.1 1.3,6.2 3.5,8.5c2.2,2.3 5.3,3.5 8.5,3.5Z" style="fill:#0a050b;fill-rule:nonzero;"/><path d="M272.4,278.1c3.1,0 6.2,-1.3 8.4,-3.5c2.2,-2.2 3.5,-5.3 3.5,-8.5c0,-3.2 -1.3,-6.2 -3.5,-8.5c-2.2,-2.2 -5.3,-3.5 -8.4,-3.5c-3.1,0 -6.2,1.3 -8.5,3.5c-2.2,2.2 -3.5,5.3 -3.5,8.5c0,3.2 1.3,6.2 3.5,8.5c2.3,2.3 5.4,3.5 8.5,3.5Z" style="fill:#0a050b;fill-rule:nonzero;"/><path d="M337.6,278.1c3.1,0 6.2,-1.3 8.4,-3.5c2.2,-2.2 3.5,-5.3 3.5,-8.5c0,-3.2 -1.3,-6.2 -3.5,-8.5c-2.2,-2.2 -5.3,-3.5 -8.4,-3.5c-3.2,0 -6.2,1.3 -8.5,3.5c-2.2,2.2 -3.5,5.3 -3.5,8.5c0,3.2 1.3,6.2 3.5,8.5c2.2,2.3 5.3,3.5 8.5,3.5Z" style="fill:#0a050b;fill-rule:nonzero;"/><path d="M183.1,476.7c-3.1,0 -6.2,1.3 -8.5,3.5c-2.3,2.2 -3.5,5.3 -3.5,8.5c0,3.2 1.3,6.2 3.5,8.5c2.2,2.2 5.3,3.5 8.5,3.5c3.1,0 6.2,-1.3 8.4,-3.5c2.2,-2.2 3.5,-5.3 3.5,-8.5c0,-3.1 -1.3,-6.2 -3.5,-8.5c-2.2,-2.2 -5.3,-3.5 -8.4,-3.5Z" style="fill:#0a050b;fill-rule:nonzero;"/><defs><linearGradient id="_Linear1" x1="0" y1="0" x2="1" y2="0" gradientUnits="userSpaceOnUse" gradientTransform="matrix(8.71488,-53.6982,53.6982,8.71488,299.718,515.752)"><stop offset="0" style="stop-color:#5acc01;stop-opacity:1"/><stop offset="0.55" style="stop-color:#54bf01;stop-opacity:1"/><stop offset="1" style="stop-color:#3f8f01;stop-opacity:1"/></linearGradient><linearGradient id="_Linear2" x1="0" y1="0" x2="1" y2="0" gradientUnits="userSpaceOnUse" gradientTransform="matrix(189,0,0,115,208.1,163.1)"><stop offset="0" style="stop-color:#5acc01;stop-opacity:1"/><stop offset="0.55" style="stop-color:#54bf01;stop-opacity:1"/><stop offset="1" style="stop-color:#3f8f01;stop-opacity:1"/></linearGradient><linearGradient id="_Linear3" x1="0" y1="0" x2="1" y2="0" gradientUnits="userSpaceOnUse" gradientTransform="matrix(61.2794,0,0,178.877,474.024,509.783)"><stop offset="0" style="stop-color:#5acc01;stop-opacity:1"/><stop offset="0.55" style="stop-color:#54bf01;stop-opacity:1"/><stop offset="1" style="stop-color:#3f8f01;stop-opacity:1"/></linearGradient><linearGradient id="_Linear4" x1="0" y1="0" x2="1" y2="0" gradientUnits="userSpaceOnUse" gradientTransform="matrix(63.1039,0,0,180.294,74.5911,510.034)"><stop offset="0" style="stop-color:#5acc01;stop-opacity:1"/><stop offset="0.55" style="stop-color:#54bf01;stop-opacity:1"/><stop offset="1" style="stop-color:#3f8f01;stop-opacity:1"/></linearGradient><linearGradient id="_Linear5" x1="0" y1="0" x2="1" y2="0" gradientUnits="userSpaceOnUse" gradientTransform="matrix(163.9,0,0,170.5,432.2,94.55)"><stop offset="0" style="stop-color:#5acc01;stop-opacity:1"/><stop offset="0.55" style="stop-color:#54bf01;stop-opacity:1"/><stop offset="1" style="stop-color:#3f8f01;stop-opacity:1"/></linearGradient><linearGradient id="_Linear6" x1="0" y1="0" x2="1" y2="0" gradientUnits="userSpaceOnUse" gradientTransform="matrix(113.2,0,0,20,1,151.4)"><stop offset="0" style="stop-color:#5acc01;stop-opacity:1"/><stop offset="0.55" style="stop-color:#54bf01;stop-opacity:1"/><stop offset="1" style="stop-color:#3f8f01;stop-opacity:1"/></linearGradient><linearGradient id="_Linear7" x1="0" y1="0" x2="1" y2="0" gradientUnits="userSpaceOnUse" gradientTransform="matrix(79.8,0,0,20,1,266.1)"><stop offset="0" style="stop-color:#5acc01;stop-opacity:1"/><stop offset="0.55" style="stop-color:#54bf01;stop-opacity:1"/><stop offset="1" style="stop-color:#3f8f01;stop-opacity:1"/></linearGradient><linearGradient id="_Linear8" x1="0" y1="0" x2="1" y2="0" gradientUnits="userSpaceOnUse" gradientTransform="matrix(35.5,0,0,20,1,208.8)"><stop offset="0" style="stop-color:#5acc01;stop-opacity:1"/><stop offset="0.55" style="stop-color:#54bf01;stop-opacity:1"/><stop offset="1" style="stop-color:#3f8f01;stop-opacity:1"/></linearGradient><linearGradient id="_Linear9" x1="0" y1="0" x2="1" y2="0" gradientUnits="userSpaceOnUse" gradientTransform="matrix(19.8,0,0,19.8,589.1,378.7)"><stop offset="0" style="stop-color:#5acc01;stop-opacity:1"/><stop offset="0.55" style="stop-color:#54bf01;stop-opacity:1"/><stop offset="1" style="stop-color:#3f8f01;stop-opacity:1"/></linearGradient></defs></svg>