<svg viewBox="0 0 65 64" xmlns="http://www.w3.org/2000/svg" fill-rule="evenodd" clip-rule="evenodd" stroke-linejoin="round" stroke-miterlimit="1.414"><path d="M41.1 39.3l-9 2.9h-.5l-7.4-2.7c-7 1.4-12.3 7.4-12.8 14.7 11.8 10.3 29.5 10.2 41.4-.2-.5-6.7-5.6-12.8-11.7-14.7z" fill="#fbc02d" fill-rule="nonzero"/><circle cx="50.7" cy="52.8" r="9.6" fill="#fbc02d"/><path d="M20.6 26.2c1.2 7.3 6.1 12.7 11.8 12.7 5.7-.1 10.7-5.4 11.8-12.7.4-.3 1.5-.4 2.3-2.4 1-2.4.5-3.6-.1-4.2-.2-.2-.5-.3-.7-.4 2.1-8.1-3.5-15.4-13-15.4-9.1 0-15.6 6.6-13.4 15.3-1.2.2-2.3 1.6-1.1 4.7.9 1.9 1.9 2 2.4 2.4zm.4-13.1c2.6-9.8 20.4-10.4 23.1 0 .4 1.6.7 5.6-1.3 8.2L41 19.9v-4.1c0-1.1-1.7-1.2-1.7 0v2.6c-6.3-5.1-6-5.2-6.7-4.9-.6.3-.5.7-.8 3.1-2.5-.9-5.1-1.6-7.7-2.2-.4-.1-.8.1-1 .5-.8 1.7-1.3 3.4-1.6 5.3-1.3-2.6-.8-6.3-.5-7.1zm-1.1 7.8c.4.8.9 1.6 1.5 2.2.3.4.7.6 1.2.5 1.1-.4.1-1.5 1.2-5.3.2-.6.4-1.3.7-1.9 9.4 2.1 8.7 4.3 9.2-.2 9.4 7.7 9 7.6 9.7 7.3.4-.2 1.4-1.6 1.9-2.6.5 0 .1 1.6-.2 2.3-.8 1.9-2.2 1.2-2.4 2.7-1 6.5-5.3 11.3-10.1 11.4-4.9-.1-9.2-4.9-10.1-11.4-.2-1.5-1.7-.8-2.4-2.7-.6-1-1.1-2.7-.2-2.3zm6.1 2.5c0-.5.4-.9.9-.9h2.6c1.2 0 1.1 1.7 0 1.7h-2.6c-.5.1-.9-.3-.9-.8zm8.1 0c0-.5.4-.9.9-.9h2.6c1.2 0 1.1 1.7 0 1.7H35c-.5.1-.9-.3-.9-.8zm-4 8.4c1.6 1.2 3.2 1.2 4.8 0 .4-.3.9-.2 1.2.2 1 1.3-2 2.5-3.6 2.5-1.2 0-2.4-.4-3.4-1.3-.9-.7.1-2.1 1-1.4zm3.3 28.8V44.4c5.9 3 5.7 3.1 6.3 2.8.6-.3.4-.2 1-6.8 0-.2 0-.4-.2-.6 2.3.5 3.6 1.3 5.4 2.7.9.7 2-.7 1.1-1.4-2-1.6-3.8-2.6-6.6-3.1-.3-.1-.6 0-.8.2-4.2 3.5-9.7 3.6-14 0-.3-.2-.6-.3-1-.2-8.7 1.7-13.7 8.4-14.2 15.7 0 .3.1.6.4.8 8.4 7.2 19.7 9.6 30.5 6.9.5-.1.7-.6.6-1.1-.3-1.5-1.6.1-8.5.3zm5.4-19.8l-.4 4.2-4.8-2.5c1.9-.1 3.6-.7 5.2-1.7zm-7.4 1.8l-4.8 2.5-.4-4.2c1.6.9 3.4 1.5 5.2 1.7zm.2 18c-4.2-.1-8.3-1-12.1-2.7V52c0-1.1-1.7-1.2-1.7 0v5.1c-2-1-3.8-2.3-5.6-3.7.6-6.8 5.7-12.4 12.4-13.6-.4.4-.2.5.4 6.8.1.6.7 1 1.3.7l5.4-2.8v16.1h-.1zM10.5 46.2c-.5 1-2.1.2-1.6-.8 2-4.1 5.4-7.3 9.4-9.3 1-.5 1.8 1.1.8 1.6-3.7 1.8-6.8 4.8-8.6 8.5zM28.7.4c9-1.7 18.3 2.4 20.6 11.3.3 1.1-1.4 1.6-1.7.4C46 5.8 40.2 1.8 32.7 1.8c-1.2 0-2.5.1-3.6.3-1.2.2-1.5-1.5-.4-1.7zm36.2 52.4c0 1.2-1.7 1.1-1.7 0 0-5.4-3.6-10.4-8.9-11.9-.5-.1-.7-.6-.6-1.1.1-.5.6-.7 1.1-.6 6 1.8 10.1 7.4 10.1 13.6zM50.7 42.4c-5.8 0-10.4 4.7-10.4 10.4 0 5.8 4.7 10.4 10.4 10.4s10.4-4.7 10.4-10.4c.1-5.7-4.6-10.4-10.4-10.4zm0 19.1c-4.8 0-8.7-3.9-8.7-8.7 0-4.8 3.9-8.7 8.7-8.7 4.8 0 8.7 3.9 8.7 8.7 0 4.8-3.9 8.7-8.7 8.7zM9.2 48.8c0 1.1-1.7 1.1-1.7 0 .1-1.1 1.7-1.1 1.7 0zm41.5-9.4c0-1.1 1.7-1.1 1.7 0s-1.7 1.1-1.7 0zM24.6 2.5c0-1.1 1.7-1.1 1.7 0s-1.7 1.1-1.7 0z" fill-rule="nonzero"/><g fill-rule="nonzero"><path d="M57 31.2c3.6 0 6.5-3.7 6.5-8.2 0-5.4-2.2-8.2-6.5-8.2s-6.5 2.8-6.5 8.2c0 4.5 2.9 8.2 6.5 8.2zm0-1.8c-2.5 0-4.6-2.7-4.8-6.1 0 0 0-.1.1-.1.5-1.1 1.2-2 2.1-2.7 2.7 2.3 5.7 2.7 7.4 2.5-.1 3.6-2.2 6.4-4.8 6.4zm0-12.9c2.9 0 4.3 1.5 4.7 4.8-.6.1-2 0-3.3-.4-2.9-1-3.3-2.9-4.4-2.2-.5.3-1 .7-1.4 1.1.6-2.2 2-3.3 4.4-3.3z" fill="#fbc02d"/><path d="M64.9 33.3c-.5-1-1.3-1.9-2.2-2.7-.4-.3-.9-.3-1.2.1-2.5 3-6.5 3.1-9 0-.3-.4-.9-.4-1.2-.1-.9.8-1.6 1.7-2.2 2.7-.2.4-.1 1 .4 1.2.4.2 1 .1 1.2-.4.3-.6.7-1.1 1.2-1.6 3 3 7.4 3 10.4 0 .5.5.8 1 1.2 1.6.4 1.1 1.9.3 1.4-.8z"/></g><g fill-rule="nonzero"><path d="M8 31.2c3.6 0 6.5-3.7 6.5-8.2 0-5.4-2.2-8.2-6.5-8.2S1.5 17.6 1.5 23c0 4.5 2.9 8.2 6.5 8.2zm0-1.8c-2.6 0-4.7-2.9-4.8-6.4 1.1.1 2.7-.1 4-.5 1.5-.5 2.7-1.4 3.4-2 .9.7 1.6 1.6 2.1 2.7 0 0 0 .1.1.1-.2 3.4-2.3 6.1-4.8 6.1zm0-12.9c2.4 0 3.8 1 4.4 3.3-.4-.4-.9-.8-1.4-1.1-1.1-.7-1.5 1.2-4.4 2.2-1.4.5-2.7.5-3.3.4.4-3.3 1.8-4.8 4.7-4.8z" fill="#fbc02d"/><path d="M15.9 33.3c-.7-1.3-2.5-3.7-3.4-2.6-2.5 3.1-6.5 3-9 0-.3-.4-.9-.4-1.2-.1-.9.8-1.6 1.7-2.2 2.7-.5 1 1 1.8 1.5.8.4-.5.7-1.1 1.2-1.5 3 3 7.4 3 10.4 0 .5.5.8 1 1.2 1.6.5 1 2 .2 1.5-.9z"/></g><path d="M54.8 49l-6 6c-.1.1-2-2-2.1-2-.9-.9-2.2.5-1.3 1.3l2 2c.8.8 2 .8 2.8 0l6-6c.8-.8-.6-2.2-1.4-1.3z" fill="#fff" fill-rule="nonzero"/></svg>