<?xml version="1.0" encoding="UTF-8" standalone="no"?><!DOCTYPE svg PUBLIC "-//W3C//DTD SVG 1.1//EN" "http://www.w3.org/Graphics/SVG/1.1/DTD/svg11.dtd"><svg width="100%" height="100%" viewBox="0 0 202 209" version="1.1" xmlns="http://www.w3.org/2000/svg" xmlns:xlink="http://www.w3.org/1999/xlink" xml:space="preserve" xmlns:serif="http://www.serif.com/" style="fill-rule:evenodd;clip-rule:evenodd;stroke-linejoin:round;stroke-miterlimit:1.41421;"><path d="M39.378,104.092c0,10.699 -8.673,19.374 -19.379,19.374c-10.693,0 -19.366,-8.674 -19.366,-19.374c0,-10.694 8.673,-19.367 19.366,-19.367c10.706,0 19.379,8.673 19.379,19.367Zm110.21,94.192c5.35,9.258 17.192,12.433 26.457,7.09c9.265,-5.35 12.439,-17.199 7.09,-26.464c-5.349,-9.264 -17.193,-12.432 -26.457,-7.083c-9.265,5.35 -12.44,17.192 -7.09,26.457Zm33.546,-169.004c5.349,-9.267 2.181,-21.112 -7.09,-26.456c-9.259,-5.349 -21.106,-2.175 -26.458,7.087c-5.349,9.265 -2.174,21.109 7.091,26.458c9.265,5.349 21.114,2.175 26.457,-7.089Zm-65.56,19.574c28.865,0 52.55,22.126 55.024,50.349l28.035,-0.442c-1.331,-20.97 -10.428,-39.831 -24.445,-53.738c-7.42,2.863 -16.03,2.474 -23.457,-1.817c-7.433,-4.292 -12.075,-11.557 -13.303,-19.427c-6.967,-1.893 -14.296,-2.906 -21.854,-2.906c-13.257,0 -25.788,3.1 -36.916,8.614l13.641,24.496c7.069,-3.285 14.964,-5.129 23.275,-5.129Zm-55.245,55.238c0,-18.685 9.285,-35.209 23.49,-45.2l-14.393,-24.061c-16.673,11.134 -29.093,28.118 -34.332,48.031c6.2,4.993 10.173,12.647 10.173,21.231c0,8.59 -3.974,16.244 -10.173,21.238c5.239,19.911 17.659,36.896 34.332,48.036l14.393,-24.061c-14.205,-9.998 -23.49,-26.516 -23.49,-45.214Zm55.245,55.25c-8.31,0 -16.205,-1.844 -23.275,-5.135l-13.641,24.496c11.128,5.518 23.658,8.615 36.916,8.615c7.557,0 14.887,-1.006 21.854,-2.902c1.227,-7.876 5.869,-15.14 13.303,-19.424c7.427,-4.292 16.037,-4.682 23.457,-1.819c14.018,-13.913 23.114,-32.774 24.445,-53.744l-28.035,-0.435c-2.475,28.216 -26.159,50.348 -55.024,50.348Z" style="fill:#5acc01;fill-rule:nonzero;"/></svg>