<?xml version="1.0" encoding="UTF-8" standalone="no"?><!DOCTYPE svg PUBLIC "-//W3C//DTD SVG 1.1//EN" "http://www.w3.org/Graphics/SVG/1.1/DTD/svg11.dtd"><svg width="100%" height="100%" viewBox="0 0 62 60" version="1.1" xmlns="http://www.w3.org/2000/svg" xmlns:xlink="http://www.w3.org/1999/xlink" xml:space="preserve" xmlns:serif="http://www.serif.com/" style="fill-rule:evenodd;clip-rule:evenodd;stroke-linejoin:round;stroke-miterlimit:1.41421;"><g><path d="M1,38.8l9,10.2l-0.3,1.7l-8.7,0l0,-11.9Zm48.3,-30.2l-45.3,0l0,5.7l45.3,0l0,-5.7Zm11.3,37.7c0,7.1 -5.8,12.9 -12.9,12.9c-7.1,0 -12.9,-5.8 -12.9,-12.9c0,-7.1 5.8,-12.9 12.9,-12.9c7.1,0 12.9,5.7 12.9,12.9Zm-12,-0.8c0,-1.1 -0.9,-2.1 -2,-2.1c-1.1,0 -2,0.9 -2,2.1c0,1.1 0.9,2.1 2,2.1c1.1,-0.1 2,-1 2,-2.1Zm-41.3,-20.6l5,0l0,-5l-5,0l0,5Zm9.9,0l5,0l0,-5l-5,0l0,5Zm14.8,-4.9l-5,0l0,5l5,0l0,-5Z" style="fill:url(#_Linear1);fill-rule:nonzero;"/><path d="M29.5,49.9l-17,0l0,-11.1c0,-0.4 -0.4,-0.8 -0.8,-0.8l-10.1,0l0,-23l47.1,0l0,12.4c0,0.4 0.4,0.8 0.8,0.8c0.4,0 0.8,-0.4 0.8,-0.8l0,-21.3c0,-0.4 -0.4,-0.8 -0.8,-0.8l-14.2,0l0,-1.5c0,-1.2 1,-2.2 2.2,-2.2c1.2,0 2.2,1 2.2,2.2c0,1 1.6,1 1.6,0c0,-2.1 -1.7,-3.8 -3.8,-3.8c-2.1,0 -3.8,1.7 -3.8,3.8l0,1.5l-20.3,0l0,-1.5c0,-1.2 1,-2.2 2.2,-2.2c1.2,0 2.2,1 2.2,2.2c0,0.4 0.4,0.8 0.8,0.8c1.8,0 0.5,-4.6 -3,-4.6c-2.1,0 -3.8,1.7 -3.8,3.8l0,1.5l-11,0c-0.4,0 -0.8,0.4 -0.8,0.8c0,18.2 0,40.9 0,44.6c0,0.4 0.4,0.8 0.8,0.8l28.7,0c0.4,0 0.8,-0.4 0.8,-0.8c0,-0.5 -0.4,-0.8 -0.8,-0.8Zm-27.9,-43l10.2,0l0,2.6l-3.7,0c-0.4,0 -0.8,0.4 -0.8,0.8c0,0.4 0.4,0.8 0.8,0.8l9.1,0c1,0 1,-1.6 0,-1.6l-3.8,0l0,-2.6l20.3,0l0,2.6l-3.4,0c-1,0 -1,1.6 0,1.6l9.1,0c1,0 1,-1.6 0,-1.6l-4.1,0l0,-2.6l13.5,0l0,6.6l-47.2,0l0,-6.6Zm0,43l0,-9l8.1,9l-8.1,0Zm9.3,-1l-8.3,-9.2l8.3,0l0,9.2Zm17,6.2l-26.9,0c-1,0 -1,-1.6 0,-1.6l26.9,0c1.1,0 1.1,1.6 0,1.6Zm18.8,-24.2c-8,0 -14.6,6.5 -14.6,14.6c0,8.1 6.5,14.5 14.6,14.5c8,0 14.6,-6.5 14.6,-14.6c0,-8.1 -6.6,-14.5 -14.6,-14.5Zm0,27.5c-7.2,0 -13,-5.8 -13,-13c0,-7.2 5.8,-13 13,-13c7.2,0 13,5.8 13,13c0,7.2 -5.9,13 -13,13Zm-9.8,-39.2c-0.4,0 -0.8,0.4 -0.8,0.8l0,5c0,0.4 0.4,0.8 0.8,0.8l5,0c0.4,0 0.8,-0.4 0.8,-0.8l0,-5c0,-0.4 -0.4,-0.8 -0.8,-0.8l-5,0Zm4.2,5l-3.4,0l0,-3.4l3.4,0l0,3.4Zm-33.8,5c-0.4,0 -0.8,0.4 -0.8,0.8l0,5c0,0.4 0.4,0.8 0.8,0.8l5,0c0.4,0 0.8,-0.4 0.8,-0.8l0,-5c0,-0.4 -0.4,-0.8 -0.8,-0.8l-5,0Zm4.2,4.9l-3.4,0l0,-3.4l3.4,0l0,3.4Zm5.7,1.6l5,0c0.4,0 0.8,-0.4 0.8,-0.8l0,-5c0,-0.4 -0.4,-0.8 -0.8,-0.8l-5,0c-0.4,0 -0.8,0.4 -0.8,0.8l0,5c0,0.4 0.3,0.8 0.8,0.8Zm0.8,-5l3.4,0l0,3.4l-3.4,0l0,-3.4Zm-0.8,14.7l5,0c0.4,0 0.8,-0.4 0.8,-0.8l0,-5c0,-0.4 -0.4,-0.8 -0.8,-0.8l-5,0c-0.4,0 -0.8,0.4 -0.8,0.8l0,5c0,0.5 0.4,0.8 0.8,0.8Zm0.8,-4.9l3.4,0l0,3.4l-3.4,0l0,-3.4Zm10.9,-9.8l-1.1,0l0,4.2c0,1 -1.6,1 -1.6,0l0,-5c0,-0.4 0.4,-0.8 0.8,-0.8l1.9,0c1.1,0.1 1.1,1.6 0,1.6Zm-1.1,9l0,5c0,1 -1.6,1 -1.6,0l0,-5c0.1,-1.1 1.6,-1.1 1.6,0Zm4.7,14.8c-0.3,1.1 -1.9,0.7 -1.6,-0.4c0.2,-1.1 1.9,-0.7 1.6,0.4Z" style="fill-rule:nonzero;"/><path d="M54.4,53.2c-0.7,0.7 -1.9,-0.4 -1.1,-1.1c5.9,-5.9 1.7,-16.1 -6.6,-16.1c-5.2,0 -9.4,4.2 -9.4,9.4c0,1 -1.6,1 -1.6,0c0,-6.1 4.9,-11 11,-11c9.7,0 14.6,11.9 7.7,18.8Zm-5.2,-6.7c0.7,-1.6 -0.2,-3.4 -1.8,-3.8l0,-4.8c0,-0.4 -0.4,-0.8 -0.8,-0.8c-0.4,0 -0.8,0.4 -0.8,0.8l0,4.9c-1.1,0.4 -1.9,1.4 -1.9,2.6c0,2.2 2.4,3.5 4.3,2.3c2.7,2.7 2.6,2.8 3.1,2.8c0.7,0 1.1,-0.9 0.6,-1.4l-2.7,-2.6Zm-3.8,-1.1c0,-0.7 0.6,-1.2 1.1,-1.2c0.1,0 0.1,0 0.2,0c0.6,0 1.1,0.5 1.1,1.2c0,1.5 -2.4,1.5 -2.4,0Z" style="fill:url(#_Linear2);fill-rule:nonzero;"/></g><defs><linearGradient id="_Linear1" x1="0" y1="0" x2="1" y2="0" gradientUnits="userSpaceOnUse" gradientTransform="matrix(59.6568,0,0,50.6482,1.08355,33.9411)"><stop offset="0" style="stop-color:#5acc01;stop-opacity:1"/><stop offset="0.25" style="stop-color:#61dd01;stop-opacity:1"/><stop offset="0.57" style="stop-color:#4db001;stop-opacity:1"/><stop offset="1" style="stop-color:#214a00;stop-opacity:1"/></linearGradient><linearGradient id="_Linear2" x1="0" y1="0" x2="1" y2="0" gradientUnits="userSpaceOnUse" gradientTransform="matrix(21.9496,0,0,19.0423,35.7307,43.9276)"><stop offset="0" style="stop-color:#214a00;stop-opacity:1"/><stop offset="0.43" style="stop-color:#4db001;stop-opacity:1"/><stop offset="0.75" style="stop-color:#61dd01;stop-opacity:1"/><stop offset="1" style="stop-color:#5acc01;stop-opacity:1"/></linearGradient></defs></svg>