<?xml version="1.0" encoding="UTF-8" standalone="no"?><!DOCTYPE svg PUBLIC "-//W3C//DTD SVG 1.1//EN" "http://www.w3.org/Graphics/SVG/1.1/DTD/svg11.dtd"><svg width="100%" height="100%" viewBox="0 0 256 281" version="1.1" xmlns="http://www.w3.org/2000/svg" xmlns:xlink="http://www.w3.org/1999/xlink" xml:space="preserve" xmlns:serif="http://www.serif.com/" style="fill-rule:evenodd;clip-rule:evenodd;stroke-linejoin:round;stroke-miterlimit:1.41421;"><path d="M233.858,123.628c-8.927,-7.385 -16.016,-13.417 -25.42,-21.142c-2.176,-12.29 -4.3,-24.366 -6.415,-36.175c-3.58,-20.189 -21.054,-41.433 -39.504,-47.3c-8.45,-2.698 -16.317,-1.858 -23.831,2.617c-9.113,-9.651 -18.64,-16.144 -29.024,-19.465c-24.643,-7.885 -44.85,6.388 -42.585,33.031c1.294,14.838 2.569,30.939 3.63,43.715c-13.948,5.789 -28.315,11.884 -40.122,16.882c-14.698,6.269 -24.847,18.839 -28.758,33.769c-3.982,15.24 -1.593,32.885 8.464,48.509c8.94,13.995 21.729,23.486 38.095,28.631c-1.355,18.45 1.955,34.387 10.224,47.45c9.347,14.851 23.169,23.751 37.274,26.166c13.868,2.381 27.866,-1.514 38.568,-11.685c11.474,-11.072 22.325,-21.518 32.669,-31.425c12.251,7.364 24.065,14.468 35.557,21.39c18.79,11.204 37.976,-0.98 42.506,-24.759c1.893,-9.911 1.059,-20.988 -2.472,-33.512c6.688,-4.119 10.842,-10.551 12.533,-19.558c3.572,-19.125 -5.894,-44.281 -21.39,-57.141l0.001,0.002Zm3.131,42.934c-1.02,4.601 -3.991,7.351 -7.708,6.913c-3.055,-0.366 -5.611,-1.606 -10.82,-5.439c-8.592,-6.436 -17.368,-13.032 -26.449,-19.721c-0.804,-0.56 -1.695,-1.183 -2.512,-1.779c-7.549,-5.567 -14.145,-4.503 -16.665,3.113c-2.615,7.796 1.059,16.957 8.834,22.41c0.83,0.569 1.783,1.244 2.595,1.84c9.475,6.64 18.799,13.116 27.87,19.43c3.846,2.684 6.711,5.196 8.601,7.469c4.181,4.786 6.167,12.662 4.728,19.236c-1.553,6.935 -6.026,10.551 -11.456,9.315c-2.746,-0.582 -4.812,-1.699 -9.744,-4.891c-9.562,-6.198 -19.394,-12.626 -29.539,-19.16c-0.932,-0.596 -1.863,-1.214 -2.769,-1.862c-3.201,-1.951 -6.282,-2.84 -9.002,-2.734l-0.013,0c-3.038,-0.199 -6.221,0.901 -9.272,3.347c-0.847,0.698 -1.703,1.364 -2.493,2.114c-9.466,7.789 -19.28,16.097 -29.682,24.834c-5.619,4.697 -8.15,6.529 -11.902,7.85c-7.557,2.887 -15.91,-0.353 -21.138,-8.667c-4.922,-8.092 -4.71,-18.595 0.389,-25.217c2.167,-2.945 5.832,-6.313 10.882,-9.894c11.006,-7.872 21.434,-15.284 31.337,-22.391c0.9,-0.614 1.765,-1.219 2.667,-1.855c7.509,-5.333 8.949,-14.764 3.651,-23.553c-5.161,-8.768 -13.695,-11.429 -21.796,-6.538c-0.913,0.552 -1.823,1.104 -2.733,1.708c-10.481,6.424 -21.473,13.21 -33.062,20.357c-7.474,4.508 -11.421,5.964 -17.001,6.22c-6.896,0.358 -14.115,-3.889 -18.317,-10.577c-4.759,-7.452 -4.918,-16.71 -0.348,-22.454c2.569,-3.377 5.319,-5.426 13.214,-9.474c12.228,-6.331 23.955,-12.282 35.08,-17.866c0.949,-0.579 1.907,-0.976 2.892,-1.457c0.68,-0.335 1.307,-0.733 1.858,-1.134c4.98,-2.198 7.404,-7.695 6.627,-15.139c-0.133,-1.249 -0.221,-2.454 -0.428,-3.647c-1.355,-13.214 -2.703,-26.162 -4.111,-38.819c-0.816,-7.734 -0.737,-10.454 0.243,-13.523c1.562,-4.874 7.081,-6.997 13.271,-5.328c5.453,1.47 10.671,5.743 13.515,10.922c2.321,4.309 3.39,7.859 4.331,15.2c1.54,12.052 3.126,24.286 4.724,36.806c0.158,1.143 0.317,2.269 0.459,3.418c1.346,10.41 7.535,17.897 15.557,18.957c7.73,1.029 11.832,-5.028 10.424,-14.759c-0.128,-1.068 -0.292,-2.193 -0.437,-3.24c-1.748,-11.978 -3.475,-23.713 -5.161,-35.2c-0.737,-4.967 -0.993,-8.773 -0.592,-11.227c0.601,-5.447 4.941,-8.287 10.49,-6.789c5.602,1.536 10.851,6.701 13.276,12.855c1.24,3.113 1.805,5.523 2.764,11.284c1.836,11.019 3.435,22.078 5.315,33.517l0.658,3.183c0.583,2.818 0.817,3.378 1.324,4.905l-0.123,-0.503l-0.031,-0.079l-0.04,-0.08l-0.018,-0.15l0,-0.023l0.053,-0.013c0.971,4.335 3.828,8.613 8.234,12.069c0.768,0.614 1.625,1.21 2.397,1.872c8.548,6.715 16.886,13.342 25.076,19.748c4.927,3.872 6.702,5.668 8.649,8.397c3.157,4.441 4.482,10.922 3.383,15.893l-0.006,0Z" style="fill:#5acc01;fill-opacity:0.937255;fill-rule:nonzero;"/></svg>