<?xml version="1.0" encoding="UTF-8" standalone="no"?><!DOCTYPE svg PUBLIC "-//W3C//DTD SVG 1.1//EN" "http://www.w3.org/Graphics/SVG/1.1/DTD/svg11.dtd"><svg width="100%" height="100%" viewBox="0 0 123 123" version="1.1" xmlns="http://www.w3.org/2000/svg" xmlns:xlink="http://www.w3.org/1999/xlink" xml:space="preserve" xmlns:serif="http://www.serif.com/" style="fill-rule:evenodd;clip-rule:evenodd;stroke-linejoin:round;stroke-miterlimit:1.41421;"><g id="Layer_2"><g><path d="M8.751,61.36c0,20.802 12.089,38.779 29.619,47.298l-25.069,-68.686c-2.916,6.536 -4.55,13.769 -4.55,21.388Z" style="fill:#5acc01;fill-rule:nonzero;"/><path d="M96.783,58.708c0,-6.495 -2.333,-10.993 -4.334,-14.494c-2.664,-4.329 -5.161,-7.995 -5.161,-12.324c0,-4.831 3.664,-9.328 8.825,-9.328c0.233,0 0.454,0.029 0.681,0.042c-9.35,-8.566 -21.807,-13.796 -35.489,-13.796c-18.36,0 -34.513,9.42 -43.91,23.688c1.233,0.037 2.395,0.063 3.382,0.063c5.497,0 14.006,-0.667 14.006,-0.667c2.833,-0.167 3.167,3.994 0.337,4.329c0,0 -2.847,0.335 -6.015,0.501l19.138,56.925l11.501,-34.493l-8.188,-22.434c-2.83,-0.166 -5.511,-0.501 -5.511,-0.501c-2.832,-0.166 -2.5,-4.496 0.332,-4.329c0,0 8.679,0.667 13.843,0.667c5.496,0 14.006,-0.667 14.006,-0.667c2.835,-0.167 3.168,3.994 0.337,4.329c0,0 -2.853,0.335 -6.015,0.501l18.992,56.494l5.242,-17.517c2.272,-7.269 4.001,-12.49 4.001,-16.989Z" style="fill:#5acc01;fill-rule:nonzero;"/><path d="M62.227,65.957l-15.768,45.819c4.708,1.384 9.687,2.141 14.846,2.141c6.12,0 11.989,-1.058 17.452,-2.979c-0.141,-0.225 -0.269,-0.464 -0.374,-0.724l-16.156,-44.257Z" style="fill:#5acc01;fill-rule:nonzero;"/><path d="M107.419,36.146c0.226,1.674 0.354,3.471 0.354,5.404c0,5.333 -0.996,11.328 -3.996,18.824l-16.053,46.413c15.624,-9.111 26.133,-26.038 26.133,-45.426c0.001,-9.137 -2.333,-17.729 -6.438,-25.215Z" style="fill:#5acc01;fill-rule:nonzero;"/><path d="M61.305,0.1c-33.779,0 -61.262,27.481 -61.262,61.26c0,33.783 27.483,61.263 61.262,61.263c33.778,0 61.265,-27.48 61.265,-61.263c-0.001,-33.779 -27.487,-61.26 -61.265,-61.26Zm0,119.715c-32.23,0 -58.453,-26.223 -58.453,-58.455c0,-32.23 26.222,-58.451 58.453,-58.451c32.229,0 58.45,26.221 58.45,58.451c0,32.232 -26.221,58.455 -58.45,58.455Z" style="fill:#5acc01;fill-rule:nonzero;"/></g></g></svg>