<svg width="75%" height="75%" viewBox="0 0 211 35" xmlns="http://www.w3.org/2000/svg" fill-rule="evenodd" clip-rule="evenodd" stroke-linejoin="round" stroke-miterlimit="1.414"><g fill-rule="nonzero"><path d="M24.37 13.219l-9.081 19.394c-.182.426-.448.76-.798 1.004-.35.243-.783.365-1.301.365-.608 0-1.064-.122-1.369-.365-.304-.244-.547-.578-.73-1.004L.459 8.839h3.788l9.172 20.351 8.943-19.347c.213-.426.472-.768.776-1.027.304-.259.745-.388 1.323-.388.974 0 1.658.472 2.054 1.415l8.442 19.347 9.582-20.351h3.696L37.056 32.613a2.518 2.518 0 0 1-.799.981c-.35.258-.783.388-1.3.388-.457 0-.875-.13-1.255-.388a2.074 2.074 0 0 1-.799-.981L24.37 13.219zm43.213-1.323h-4.244c-1.46 0-2.669.122-3.627.365-.959.243-1.734.647-2.328 1.209-.593.563-1.011 1.316-1.255 2.259-.243.943-.365 2.114-.365 3.514v14.328H52.16V19.243c0-1.856.205-3.438.616-4.746.41-1.308 1.064-2.38 1.962-3.217.897-.837 2.053-1.453 3.468-1.848 1.414-.396 3.125-.593 5.133-.593h4.244v3.057zm9.081-2.282v23.957h-3.651V9.614h3.651zm-2.51-2.372c-.761 0-1.141-.381-1.141-1.141V1.903c0-.761.38-1.141 1.141-1.141h1.369c.76 0 1.141.38 1.141 1.141v4.198c0 .76-.381 1.141-1.141 1.141h-1.369zm10.632 26.329V11.896h-3.331V8.839h3.331V1.857h3.651v6.982h7.529v3.057h-7.529v21.675h-3.651zm19.348-10.632v1.597c0 1.217.121 2.213.365 2.989.243.776.631 1.392 1.163 1.848.533.456 1.24.768 2.122.935.882.168 1.962.251 3.24.251h7.757v3.012h-7.757c-1.886 0-3.491-.183-4.814-.548-1.323-.365-2.411-.927-3.263-1.688-.851-.761-1.468-1.734-1.848-2.92-.38-1.187-.57-2.601-.57-4.244v-5.704c0-1.795.167-3.308.502-4.54.334-1.232.92-2.221 1.757-2.966.836-.746 1.947-1.286 3.331-1.62 1.384-.335 3.125-.502 5.224-.502h11.682c1.673 0 3.065.167 4.175.502 1.111.334 1.993.791 2.647 1.369a4.597 4.597 0 0 1 1.369 2.099c.259.821.388 1.703.388 2.646v7.484h-27.47zm0-2.738h23.865v-4.746c0-1.277-.35-2.182-1.05-2.715-.699-.532-2.007-.798-3.924-.798h-11.682c-1.399 0-2.562.076-3.49.228-.928.152-1.666.449-2.213.89-.548.441-.936 1.072-1.164 1.893-.228.822-.342 1.917-.342 3.286v1.962z" fill="#fff"/><path d="M149.628 33.571c-2.281 0-4.183-.19-5.704-.57-1.521-.381-2.738-.989-3.65-1.826-.913-.836-1.559-1.931-1.94-3.285-.38-1.354-.57-3.019-.57-4.997V2.45h6.89v20.169c0 .913.084 1.681.251 2.305.168.623.464 1.141.89 1.551.426.411.996.708 1.711.89.715.183 1.62.274 2.715.274h18.481v5.932h-19.074zm56.674.684c-.73 0-1.407-.114-2.03-.342-.624-.228-1.209-.601-1.757-1.118L179.836 11.44v22.131h-6.434V4.641c0-.974.342-1.696 1.027-2.168.684-.471 1.574-.707 2.669-.707.791 0 1.445.106 1.962.319.518.213.943.487 1.278.822l22.861 22.04V2.45h6.571v28.931c0 1.034-.319 1.772-.958 2.213-.639.441-1.475.661-2.51.661z" fill="#5acc01"/></g></svg>